<?xml version="1.0" encoding="iso-8859-1"?>
<!-- Generator: Adobe Illustrator 16.0.0, SVG Export Plug-In . SVG Version: 6.00 Build 0)  -->
<!DOCTYPE svg PUBLIC "-//W3C//DTD SVG 1.1//EN" "http://www.w3.org/Graphics/SVG/1.1/DTD/svg11.dtd">
<svg version="1.1" id="Layer_1" xmlns="http://www.w3.org/2000/svg" xmlns:xlink="http://www.w3.org/1999/xlink" x="0px" y="0px"
	 width="64px" height="64px" viewBox="0 0 64 64" style="enable-background:new 0 0 64 64;" xml:space="preserve">
<g>
	<defs>
		<rect id="SVGID_1_" width="64" height="64"/>
	</defs>
	<clipPath id="SVGID_2_">
		<use xlink:href="#SVGID_1_"  style="overflow:visible;"/>
	</clipPath>
	<g style="clip-path:url(#SVGID_2_);">
		<defs>
			<rect id="SVGID_3_" width="64" height="64"/>
		</defs>
		<clipPath id="SVGID_4_">
			<use xlink:href="#SVGID_3_"  style="overflow:visible;"/>
		</clipPath>
		<path style="clip-path:url(#SVGID_4_);fill:#8BA43C;" d="M53.24,21.34c2.542-6.497-3.146-13.589-10.106-12.179
			c-5.36,1.082-7.694,6.909-10.929,10.765c-5.796,6.912-12.537,12.793-18.922,19.119c-5.012,4.967-3.793,14.201,3.976,15.778
			c4.12,0.837,8.055-1.856,11.363-4.047C39.402,43.64,47.922,33.073,53.24,21.34C53.24,21.34,53.227,21.368,53.24,21.34"/>
		<path style="clip-path:url(#SVGID_4_);fill:#A8BB6D;" d="M11.449,50.224c-0.631,0-1.264-0.049-1.899-0.152l0.161-0.987
			c11.757,1.932,23.417-16.267,25.635-19.933c0.597-1.027,1.247-2.373,1.998-3.931c2.784-5.763,6.597-13.655,12.685-15.296
			l0.26,0.966c-5.646,1.522-9.343,9.176-12.042,14.765c-0.762,1.577-1.42,2.939-2.041,4.006
			C34.043,33.238,23.147,50.224,11.449,50.224"/>
		<path style="clip-path:url(#SVGID_4_);fill:#A8BB6D;" d="M9.978,48.342L9.06,47.944c2.215-5.13,6.001-8.258,9.413-10.641
			c4.137-2.979,8.148-6.976,12.615-12.573c0.699-0.876,1.493-2.042,2.334-3.276c3.639-5.342,8.613-12.662,15.773-12.052
			l-0.085,0.996c-6.563-0.543-11.362,6.481-14.862,11.619c-0.852,1.25-1.656,2.431-2.378,3.337
			c-4.526,5.671-8.6,9.726-12.819,12.764C15.749,40.427,12.093,43.44,9.978,48.342"/>
		<path style="clip-path:url(#SVGID_4_);fill:#A8BB6D;" d="M13.474,53.45c-0.469,0-0.945-0.017-1.428-0.052l0.073-0.997
			c12.403,0.894,20.316-10.878,25.817-21.244c0.832-1.569,1.567-3.361,2.347-5.259c2.471-6.02,5.272-12.843,12.213-13.98
			l0.162,0.987c-6.39,1.046-8.962,7.313-11.449,13.373c-0.789,1.921-1.533,3.735-2.389,5.347
			C33.386,41.865,25.635,53.45,13.474,53.45"/>
		<path style="clip-path:url(#SVGID_4_);fill:#627935;" d="M44.918,8.979c6.104,0.001,10.643,6.429,8.322,12.36v0.001h-0.001
			c-0.004,0.009-0.005,0.012-0.005,0.012s0.004-0.009,0.005-0.012h0.001v-0.001c-5.318,11.734-13.838,22.3-24.617,29.437
			c-2.886,1.91-6.248,4.203-9.794,4.203c-0.52,0-1.044-0.049-1.57-0.156c-7.768-1.577-8.988-10.812-3.975-15.778
			c6.384-6.326,13.125-12.208,18.922-19.12c3.233-3.856,5.567-9.683,10.928-10.764C43.739,9.039,44.335,8.979,44.918,8.979
			 M53.24,21.339h0.005 M53.24,21.339h0.005 M44.918,7.417h-0.002c-0.693,0-1.397,0.071-2.093,0.212
			c-4.565,0.922-7.167,4.72-9.462,8.072c-0.796,1.163-1.548,2.261-2.354,3.22c-4.066,4.849-8.715,9.29-13.211,13.585
			c-1.847,1.766-3.758,3.591-5.613,5.429c-3.018,2.99-4.201,7.493-3.012,11.472c1.084,3.632,3.919,6.164,7.776,6.947
			c0.613,0.125,1.245,0.188,1.881,0.188c3.922,0,7.527-2.391,10.423-4.311l0.233-0.154C40.093,45.057,49.021,34.397,54.63,22.06
			c0.04-0.078,0.073-0.159,0.102-0.242c1.224-3.22,0.78-6.858-1.194-9.752C51.551,9.155,48.328,7.417,44.918,7.417"/>
	</g>
</g>
</svg>
