<?xml version="1.0" encoding="iso-8859-1"?>
<!-- Generator: Adobe Illustrator 16.0.0, SVG Export Plug-In . SVG Version: 6.00 Build 0)  -->
<!DOCTYPE svg PUBLIC "-//W3C//DTD SVG 1.1//EN" "http://www.w3.org/Graphics/SVG/1.1/DTD/svg11.dtd">
<svg version="1.1" id="Layer_1" xmlns="http://www.w3.org/2000/svg" xmlns:xlink="http://www.w3.org/1999/xlink" x="0px" y="0px"
	 width="64px" height="64px" viewBox="0 0 64 64" style="enable-background:new 0 0 64 64;" xml:space="preserve">
<g>
	<defs>
		<rect id="SVGID_1_" width="64" height="64"/>
	</defs>
	<clipPath id="SVGID_2_">
		<use xlink:href="#SVGID_1_"  style="overflow:visible;"/>
	</clipPath>
	<g style="clip-path:url(#SVGID_2_);">
		<defs>
			<rect id="SVGID_3_" width="64" height="64"/>
		</defs>
		<clipPath id="SVGID_4_">
			<use xlink:href="#SVGID_3_"  style="overflow:visible;"/>
		</clipPath>
		<path style="clip-path:url(#SVGID_4_);fill:#627935;" d="M53.529,22.044c3.627-6.384-0.419-12.919-7.266-11.2
			c-5.268,1.32-8.57,7.051-12.35,10.927c-6.784,6.952-14.26,12.963-21.483,19.384c-5.675,5.038-6.256,13.866,0.791,14.982
			c3.74,0.593,7.965-2.207,11.503-4.484C36.258,44.227,46.297,33.611,53.529,22.044C53.529,22.044,53.514,22.067,53.529,22.044"/>
		<path style="clip-path:url(#SVGID_4_);fill:#394E23;" d="M48.421,10.566c5.488,0,8.335,5.799,5.108,11.478h-0.001
			c-0.005,0.008-0.006,0.011-0.006,0.011s0.005-0.009,0.006-0.011h0.001c-7.232,11.567-17.271,22.183-28.803,29.609
			c-3.212,2.067-6.99,4.564-10.456,4.564c-0.353,0-0.703-0.025-1.047-0.08c-7.047-1.116-6.467-9.944-0.791-14.982
			c7.222-6.421,14.698-12.433,21.482-19.385c3.779-3.876,7.082-9.607,12.35-10.927C47.02,10.655,47.74,10.565,48.421,10.566
			 M53.529,22.044h0.004 M48.421,9.68c-0.767,0-1.564,0.103-2.372,0.306c-4.156,1.041-7.063,4.515-9.876,7.875
			c-0.986,1.179-1.919,2.293-2.893,3.292c-4.792,4.91-10.034,9.438-15.105,13.819c-2.081,1.798-4.233,3.656-6.331,5.522
			C8.188,43.739,6.395,48.61,7.485,52.34c0.749,2.56,2.737,4.219,5.599,4.672c0.383,0.061,0.781,0.092,1.186,0.092
			c3.63,0,7.368-2.408,10.666-4.533l0.269-0.173c11.204-7.215,21.519-17.812,29.048-29.842c0.028-0.04,0.055-0.084,0.076-0.129
			c1.777-3.163,1.925-6.615,0.394-9.246C53.429,10.956,51.132,9.68,48.421,9.68"/>
		<path style="clip-path:url(#SVGID_4_);fill:#8BA43C;" d="M10.933,57c-1.35-1.316-2.038-3.168-1.986-5.358
			c0.077-3.296,1.883-6.904,4.715-9.417c2.122-1.889,4.298-3.764,6.403-5.583c5.136-4.434,10.45-9.019,15.3-13.993
			c0.986-1.012,1.928-2.14,2.927-3.329c2.844-3.399,5.782-6.914,9.981-7.961c2.784-0.702,5.354-0.204,7.229,1.394l-1.118,1.309
			c-1.438-1.227-3.459-1.594-5.691-1.032c-3.654,0.915-6.412,4.205-9.08,7.394c-0.975,1.164-1.984,2.372-3.013,3.43
			c-4.905,5.022-10.247,9.635-15.409,14.091c-2.1,1.812-4.271,3.688-6.385,5.562c-2.485,2.212-4.071,5.343-4.136,8.174
			c-0.042,1.697,0.467,3.11,1.468,4.084L10.933,57z"/>
		<path style="clip-path:url(#SVGID_4_);fill:#8BA43C;" d="M9.914,56.382c-0.069-3.91,2.042-8.196,5.511-11.189
			c2.52-2.174,5.106-4.334,7.603-6.43c6.115-5.121,12.435-10.408,18.201-16.16c1.175-1.172,2.293-2.475,3.479-3.859
			c2.765-3.219,5.624-6.546,9.35-8.27l0.722,1.562c-3.382,1.566-6.116,4.754-8.761,7.83c-1.157,1.349-2.351,2.737-3.573,3.957
			c-5.819,5.806-12.167,11.122-18.309,16.258c-2.496,2.094-5.076,4.25-7.585,6.417c-3.093,2.665-4.973,6.438-4.914,9.85
			L9.914,56.382z"/>
		<path style="clip-path:url(#SVGID_4_);fill:#8BA43C;" d="M9.771,56.097c-0.221,0-0.579-0.985-0.801-1.004l-0.296-0.702
			c3.58,0.256,7.59-2.16,11.132-4.3l0.272-0.166c12.154-7.33,22.808-17.734,30.818-30.09c0.125-0.217,3.56-6.288-0.789-9.49
			l1.021-1.39c4.478,3.296,2.765,9.152,1.233,11.785c-8.17,12.603-19.02,23.199-31.392,30.662l-0.274,0.16
			C14.756,55.152,12,56.097,9.771,56.097"/>
		<path style="clip-path:url(#SVGID_4_);fill:#627935;" d="M55.943,8.17c-0.527,2.69-1.213,4.213-2.285,5.358
			c-1.065-0.142-1.772-0.608-2.402-1.268c-0.462-0.48-0.833-1.011-1.121-1.573C51.211,9.929,52.252,8.559,53.049,7L55.943,8.17z"/>
		<path style="clip-path:url(#SVGID_4_);fill:#4D642E;" d="M53.049,7l2.895,1.17c-0.527,2.69-1.213,4.213-2.285,5.358
			c-1.065-0.142-1.772-0.608-2.403-1.268c-0.461-0.48-0.832-1.011-1.12-1.573C51.211,9.929,52.252,8.559,53.049,7 M53.049,6
			c-0.365,0-0.715,0.201-0.891,0.545c-0.759,1.484-1.706,2.695-2.599,3.324c-0.408,0.286-0.542,0.83-0.315,1.274
			c0.342,0.666,0.775,1.275,1.29,1.81c0.883,0.924,1.806,1.407,2.991,1.567c0.044,0.005,0.089,0.008,0.133,0.008
			c0.275,0,0.539-0.113,0.73-0.316c1.248-1.335,1.984-3.029,2.536-5.85c0.093-0.47-0.162-0.94-0.606-1.119l-2.896-1.17
			C53.301,6.023,53.174,6,53.049,6"/>
		<path style="clip-path:url(#SVGID_4_);fill:#4D642E;" d="M53.049,7l2.895,1.17c-0.467,2.375-1.251,4.024-2.17,5.162
			c1.459,2.221,1.588,5.482-0.245,8.712c-7.231,11.567-17.271,22.183-28.803,29.609c-3.212,2.067-6.99,4.564-10.456,4.564
			c-0.353,0-0.702-0.025-1.047-0.08c-7.047-1.116-6.467-9.944-0.791-14.982c7.222-6.421,14.699-12.432,21.482-19.384
			c3.779-3.876,7.082-9.607,12.35-10.927c0.753-0.187,1.472-0.275,2.15-0.275c0.632,0,1.228,0.077,1.785,0.219
			c-0.022-0.033-0.047-0.064-0.064-0.101C51.211,9.929,52.252,8.559,53.049,7 M53.049,5c-0.73,0-1.43,0.402-1.781,1.09
			c-0.531,1.037-1.17,1.941-1.783,2.539c-0.352-0.04-0.708-0.06-1.07-0.06c-0.854,0-1.74,0.113-2.632,0.333
			c-4.512,1.131-7.674,4.91-10.464,8.244c-0.973,1.162-1.892,2.259-2.837,3.228c-4.757,4.875-9.981,9.389-15.036,13.754
			c-2.084,1.8-4.239,3.662-6.343,5.532c-3.966,3.521-5.894,8.864-4.687,12.992c0.863,2.953,3.23,4.943,6.494,5.461
			c0.44,0.069,0.897,0.104,1.36,0.104c3.959,0,7.843-2.502,11.27-4.71l0.268-0.173c11.354-7.311,21.8-18.047,29.417-30.231
			c0.015-0.024,0.029-0.048,0.043-0.073c1.807-3.182,2.094-6.723,0.847-9.564c0.812-1.345,1.413-2.99,1.792-4.911
			c0.185-0.941-0.324-1.881-1.213-2.241l-2.896-1.169C53.553,5.047,53.299,5,53.049,5"/>
	</g>
</g>
</svg>
