<?xml version="1.0" encoding="iso-8859-1"?>
<!-- Generator: Adobe Illustrator 16.0.0, SVG Export Plug-In . SVG Version: 6.00 Build 0)  -->
<!DOCTYPE svg PUBLIC "-//W3C//DTD SVG 1.1//EN" "http://www.w3.org/Graphics/SVG/1.1/DTD/svg11.dtd">
<svg version="1.1" id="Layer_1" xmlns="http://www.w3.org/2000/svg" xmlns:xlink="http://www.w3.org/1999/xlink" x="0px" y="0px"
	 width="64px" height="64px" viewBox="0 0 64 64" style="enable-background:new 0 0 64 64;" xml:space="preserve">
<g>
	<defs>
		<rect id="SVGID_1_" width="64" height="64"/>
	</defs>
	<clipPath id="SVGID_2_">
		<use xlink:href="#SVGID_1_"  style="overflow:visible;"/>
	</clipPath>
	<g style="clip-path:url(#SVGID_2_);">
		<defs>
			<rect id="SVGID_3_" width="64" height="64"/>
		</defs>
		<clipPath id="SVGID_4_">
			<use xlink:href="#SVGID_3_"  style="overflow:visible;"/>
		</clipPath>
		<path style="clip-path:url(#SVGID_4_);fill:#C1B474;" d="M42.021,10.155c-5.847,0.725-8.269,7.172-13.56,9.027
			c-5.609,1.753-8.486,8.61-12.391,12.566c-4.526,4.596-8.224,10.054-4.616,16.517c3.052,5.463,9.985,7.377,15.224,3.8
			c4.604-3.152,12.37-3.438,15.456-8.228c2.941-4.58,3.7-9.365,7.599-13.488C60.585,18.857,48.02,9.416,42.021,10.155"/>
		<path style="clip-path:url(#SVGID_4_);fill:#8C795D;" d="M42.709,10.114c6.204,0,17.476,9.166,7.024,20.235
			c-3.899,4.123-4.657,8.908-7.599,13.488c-3.086,4.789-10.853,5.075-15.456,8.228c-1.819,1.241-3.84,1.821-5.833,1.821
			c-3.751,0-7.399-2.054-9.392-5.621c-3.607-6.462,0.091-11.921,4.616-16.518c3.906-3.955,6.783-10.813,12.392-12.565
			c5.291-1.855,7.713-8.303,13.561-9.027C42.242,10.127,42.472,10.114,42.709,10.114 M42.709,8.114
			c-0.318,0-0.633,0.019-0.932,0.056c-3.893,0.482-6.474,3.008-8.751,5.238c-1.672,1.638-3.254,3.185-5.197,3.876
			c-4.384,1.386-7.227,5.297-9.738,8.748c-1.167,1.605-2.271,3.122-3.444,4.31c-4.244,4.31-9.372,10.957-4.939,18.897
			c2.291,4.101,6.558,6.646,11.138,6.646c2.474,0,4.882-0.75,6.961-2.168c1.589-1.09,3.703-1.823,5.94-2.599
			c3.846-1.333,7.821-2.711,10.069-6.199c1.256-1.955,2.122-3.902,2.958-5.787c1.184-2.663,2.302-5.178,4.412-7.41
			c6.174-6.538,5.067-12.216,3.859-15.019C52.759,11.398,46.861,8.114,42.709,8.114"/>
		<line style="clip-path:url(#SVGID_4_);fill:#C1B474;" x1="27.836" y1="18.555" x2="36.293" y2="16.378"/>
		<path style="clip-path:url(#SVGID_4_);fill:#8C795D;" d="M27.836,19.055c-0.223,0-0.426-0.15-0.484-0.375
			c-0.069-0.268,0.092-0.541,0.359-0.609l8.457-2.178c0.27-0.069,0.54,0.093,0.609,0.36c0.068,0.267-0.093,0.54-0.359,0.609
			l-8.457,2.177C27.919,19.05,27.877,19.055,27.836,19.055"/>
		<path style="clip-path:url(#SVGID_4_);fill:#C1B474;" d="M30.417,50.997c0,0-4.52,1.054-8.566-0.953"/>
		<path style="clip-path:url(#SVGID_4_);fill:#8C795D;" d="M27.527,51.778c-1.676,0-3.835-0.264-5.899-1.287
			c-0.247-0.122-0.348-0.423-0.226-0.67c0.124-0.248,0.422-0.349,0.671-0.226c3.841,1.905,8.185,0.924,8.23,0.915
			c0.272-0.062,0.538,0.104,0.601,0.372c0.062,0.27-0.105,0.539-0.374,0.602C30.433,51.506,29.23,51.778,27.527,51.778"/>
		<path style="clip-path:url(#SVGID_4_);fill:#A7792B;" d="M23.968,38.746c0,0.382-0.309,0.69-0.692,0.69
			c-0.383,0-0.691-0.309-0.691-0.69c0-0.384,0.308-0.691,0.691-0.691C23.659,38.055,23.968,38.362,23.968,38.746"/>
		<path style="clip-path:url(#SVGID_4_);fill:#A7792B;" d="M23.275,39.937c-0.656,0-1.19-0.534-1.19-1.19
			c0-0.657,0.534-1.191,1.19-1.191c0.657,0,1.192,0.534,1.192,1.191C24.467,39.402,23.933,39.937,23.275,39.937 M23.275,38.555
			c-0.106,0-0.19,0.084-0.19,0.191c0,0.215,0.382,0.213,0.382,0C23.467,38.639,23.382,38.555,23.275,38.555"/>
		<path style="clip-path:url(#SVGID_4_);fill:#A7792B;" d="M48.142,25.685c0,0.383-0.319,0.691-0.703,0.691
			c-0.372,0-0.69-0.308-0.69-0.691s0.318-0.691,0.69-0.691C47.822,24.994,48.142,25.302,48.142,25.685"/>
		<path style="clip-path:url(#SVGID_4_);fill:#A7792B;" d="M47.438,26.875c-0.656,0-1.19-0.534-1.19-1.191
			c0-0.656,0.534-1.191,1.19-1.191c0.663,0,1.203,0.535,1.203,1.191C48.642,26.342,48.102,26.875,47.438,26.875 M47.438,25.494
			c-0.102,0-0.19,0.089-0.19,0.191c-0.001,0.211,0.393,0.199,0.394,0C47.642,25.582,47.549,25.494,47.438,25.494"/>
		<path style="clip-path:url(#SVGID_4_);fill:#A7792B;" d="M43.308,16.599c0,0.383-0.307,0.691-0.69,0.691s-0.691-0.308-0.691-0.691
			s0.308-0.691,0.691-0.691S43.308,16.216,43.308,16.599"/>
		<path style="clip-path:url(#SVGID_4_);fill:#A7792B;" d="M42.617,17.79c-0.657,0-1.191-0.534-1.191-1.191
			c0-0.657,0.534-1.191,1.191-1.191c0.656,0,1.19,0.534,1.19,1.191C43.808,17.256,43.273,17.79,42.617,17.79 M42.617,16.408
			c-0.107,0-0.191,0.084-0.191,0.191c0,0.214,0.382,0.216,0.382,0C42.808,16.492,42.724,16.408,42.617,16.408"/>
		<path style="clip-path:url(#SVGID_4_);fill:#A7792B;" d="M39.614,28.24c0,0.383-0.307,0.691-0.688,0.691
			c-0.386,0-0.692-0.308-0.692-0.691s0.307-0.691,0.692-0.691C39.308,27.549,39.614,27.857,39.614,28.24"/>
		<path style="clip-path:url(#SVGID_4_);fill:#A7792B;" d="M38.925,29.431c-0.657,0-1.191-0.534-1.191-1.191
			c0-0.657,0.534-1.191,1.191-1.191c0.656,0,1.189,0.534,1.189,1.191C40.114,28.897,39.581,29.431,38.925,29.431 M38.925,28.049
			c-0.107,0-0.191,0.084-0.191,0.191c0,0.214,0.381,0.216,0.381,0C39.114,28.133,39.031,28.049,38.925,28.049"/>
		<path style="clip-path:url(#SVGID_4_);fill:#A7792B;" d="M38.773,40.731c0,0.382-0.32,0.696-0.704,0.696
			c-0.383,0-0.691-0.314-0.691-0.696c0-0.377,0.309-0.691,0.691-0.691C38.453,40.04,38.773,40.354,38.773,40.731"/>
		<path style="clip-path:url(#SVGID_4_);fill:#A7792B;" d="M38.069,41.928c-0.656,0-1.19-0.537-1.19-1.196
			c0-0.657,0.534-1.191,1.19-1.191c0.664,0,1.204,0.534,1.204,1.191C39.273,41.391,38.733,41.928,38.069,41.928 M38.069,40.54
			c-0.104,0-0.19,0.087-0.19,0.191c0,0.22,0.396,0.207,0.395,0C38.273,40.631,38.176,40.54,38.069,40.54"/>
		<path style="clip-path:url(#SVGID_4_);fill:#A7792B;" d="M27.695,26.251c0,0.383-0.306,0.695-0.688,0.695
			c-0.386,0-0.693-0.312-0.693-0.695c0-0.378,0.307-0.691,0.693-0.691C27.389,25.56,27.695,25.873,27.695,26.251"/>
		<path style="clip-path:url(#SVGID_4_);fill:#A7792B;" d="M27.007,27.447c-0.657,0-1.192-0.536-1.192-1.196
			c0-0.656,0.535-1.191,1.192-1.191c0.655,0,1.188,0.535,1.188,1.191C28.195,26.911,27.662,27.447,27.007,27.447 M27.007,26.06
			c-0.106,0-0.192,0.086-0.192,0.191c-0.001,0.215,0.379,0.22,0.38,0C27.195,26.146,27.111,26.06,27.007,26.06"/>
		<path style="clip-path:url(#SVGID_4_);fill:#A7792B;" d="M17.185,44.994c0,0.378-0.307,0.691-0.689,0.691
			c-0.385,0-0.692-0.313-0.692-0.691c0-0.383,0.307-0.696,0.692-0.696C16.877,44.298,17.185,44.611,17.185,44.994"/>
		<path style="clip-path:url(#SVGID_4_);fill:#A7792B;" d="M16.495,46.186c-0.657,0-1.191-0.533-1.191-1.191
			c0-0.659,0.534-1.196,1.191-1.196c0.656,0,1.189,0.537,1.189,1.196C17.684,45.652,17.151,46.186,16.495,46.186 M16.495,44.798
			c-0.105,0-0.191,0.088-0.191,0.196c0.001,0.209,0.38,0.212,0.38,0C16.684,44.886,16.599,44.798,16.495,44.798"/>
	</g>
</g>
</svg>
