<?xml version="1.0" encoding="iso-8859-1"?>
<!-- Generator: Adobe Illustrator 16.0.0, SVG Export Plug-In . SVG Version: 6.00 Build 0)  -->
<!DOCTYPE svg PUBLIC "-//W3C//DTD SVG 1.1//EN" "http://www.w3.org/Graphics/SVG/1.1/DTD/svg11.dtd">
<svg version="1.1" id="Layer_1" xmlns="http://www.w3.org/2000/svg" xmlns:xlink="http://www.w3.org/1999/xlink" x="0px" y="0px"
	 width="64px" height="64px" viewBox="0 0 64 64" style="enable-background:new 0 0 64 64;" xml:space="preserve">
<g>
	<defs>
		<rect id="SVGID_1_" width="64" height="64"/>
	</defs>
	<clipPath id="SVGID_2_">
		<use xlink:href="#SVGID_1_"  style="overflow:visible;"/>
	</clipPath>
	<g style="clip-path:url(#SVGID_2_);">
		<defs>
			<rect id="SVGID_3_" width="64" height="64"/>
		</defs>
		<clipPath id="SVGID_4_">
			<use xlink:href="#SVGID_3_"  style="overflow:visible;"/>
		</clipPath>
		<path style="clip-path:url(#SVGID_4_);fill:#8BA43C;" d="M32,17.936c-7.445-8.552-22.759-3.478-22.759,7.468
			c0,4.312,2.901,8.436,4.501,12.432c1.845,4.584,2.517,10.412,5.111,14.521c1.172,1.851,3.194,3.173,5.477,3.559
			c2.977,0.5,4.931-1.324,7.67-1.324c2.739,0,4.693,1.824,7.67,1.324c2.283-0.386,4.305-1.708,5.478-3.559
			c2.594-4.108,3.266-9.937,5.11-14.521c1.601-3.996,4.5-8.12,4.5-12.432C54.758,14.458,39.443,9.383,32,17.936"/>
		<rect x="22.091" y="16.384" style="clip-path:url(#SVGID_4_);fill:#8BA43C;" width="19.917" height="6.164"/>
		<path style="clip-path:url(#SVGID_4_);fill:#8BA43C;" d="M29.572,54.668c0,0-3.021,0.207-4.999-3.953"/>
		<path style="clip-path:url(#SVGID_4_);fill:#627935;" d="M29.497,55.169c-0.603,0-3.464-0.22-5.375-4.239
			c-0.119-0.25-0.013-0.549,0.236-0.667c0.246-0.118,0.548-0.014,0.666,0.236c1.793,3.77,4.403,3.678,4.518,3.67
			c0.25-0.014,0.511,0.192,0.527,0.468c0.017,0.274-0.188,0.511-0.463,0.529C29.594,55.167,29.557,55.169,29.497,55.169"/>
		<path style="clip-path:url(#SVGID_4_);fill:#8BA43C;" d="M33.733,54.668c0,0,3.021,0.207,4.993-3.953"/>
		<path style="clip-path:url(#SVGID_4_);fill:#627935;" d="M33.809,55.169c-0.06,0-0.097-0.002-0.109-0.003
			c-0.275-0.019-0.483-0.257-0.465-0.533c0.02-0.276,0.279-0.476,0.531-0.464c0.12,0.004,2.727,0.092,4.509-3.669
			c0.119-0.249,0.422-0.354,0.666-0.237c0.25,0.118,0.356,0.417,0.238,0.666C37.272,54.948,34.411,55.169,33.809,55.169"/>
		<path style="clip-path:url(#SVGID_4_);fill:#4D642E;" d="M41.436,14.131c6.435,0,12.785,4.531,12.785,11.495
			c0,4.21-2.831,8.235-4.394,12.138c-1.802,4.475-2.457,10.167-4.99,14.177c-1.145,1.808-3.118,3.099-5.348,3.474
			c-0.351,0.06-0.687,0.086-1.011,0.086c-2.367,0-4.126-1.378-6.479-1.378c-2.352,0-4.111,1.378-6.478,1.378
			c-0.324,0-0.66-0.026-1.011-0.086c-2.228-0.375-4.202-1.666-5.347-3.474c-2.533-4.01-3.189-9.702-4.991-14.177
			c-1.562-3.903-4.394-7.928-4.394-12.138c0-6.965,6.349-11.495,12.785-11.495c3.44,0,6.904,1.294,9.436,4.203
			C34.532,15.424,37.995,14.131,41.436,14.131 M41.436,12.131c-3.574,0-6.854,1.192-9.436,3.395
			c-2.582-2.203-5.862-3.395-9.436-3.395c-3.679,0-7.357,1.313-10.09,3.602c-3.028,2.536-4.695,6.049-4.695,9.893
			c0,3.442,1.527,6.553,3.004,9.56c0.568,1.157,1.104,2.249,1.534,3.32c0.656,1.633,1.155,3.448,1.682,5.37
			c0.868,3.158,1.764,6.425,3.473,9.133c1.465,2.311,3.908,3.905,6.706,4.378c0.446,0.075,0.898,0.113,1.344,0.113
			c1.512,0,2.771-0.423,3.885-0.795c0.935-0.312,1.745-0.583,2.593-0.583c0.849,0,1.659,0.271,2.595,0.584
			c1.111,0.371,2.373,0.794,3.884,0.794c0.446,0,0.898-0.038,1.342-0.113c2.801-0.473,5.245-2.067,6.707-4.377
			c1.711-2.709,2.607-5.976,3.475-9.135c0.527-1.922,1.025-3.737,1.681-5.365c0.431-1.075,0.967-2.167,1.534-3.323
			c1.477-3.008,3.004-6.118,3.004-9.561C56.221,17.291,48.546,12.131,41.436,12.131"/>
		<path style="clip-path:url(#SVGID_4_);fill:#8BA43C;" d="M29.896,18c1.029,0.372,2.142,0.546,3.299,0.478
			c0.619-0.036,1.646-0.417,2.226-0.587c-0.069-0.852-0.7-5.543,3.109-6.91L36.617,8C29.42,10.922,29.398,15.536,29.896,18"/>
		<path style="clip-path:url(#SVGID_4_);fill:#627935;" d="M36.617,8l1.913,2.981c-3.811,1.367-3.179,6.058-3.109,6.909
			c-0.58,0.17-1.606,0.551-2.226,0.588c-0.165,0.009-0.328,0.014-0.491,0.014c-0.981,0-1.925-0.173-2.808-0.492
			C29.398,15.535,29.421,10.922,36.617,8 M36.616,6c-0.251,0-0.507,0.047-0.752,0.147c-8.365,3.397-8.558,9.132-7.928,12.249
			c0.138,0.684,0.623,1.247,1.281,1.484c1.122,0.406,2.295,0.612,3.487,0.612c0.202,0,0.404-0.006,0.608-0.018
			c0.67-0.039,1.378-0.253,2.234-0.528c0.162-0.051,0.311-0.1,0.437-0.136c0.91-0.267,1.508-1.137,1.431-2.082l-0.015-0.168
			c-0.364-3.918,1.27-4.504,1.807-4.697c0.573-0.205,1.021-0.661,1.218-1.238s0.119-1.211-0.21-1.724L38.301,6.92
			C37.923,6.332,37.281,6,36.616,6"/>
		<path style="clip-path:url(#SVGID_4_);fill:#8BA43C;" d="M33.102,19.982c-5.799-6.66-17.72-2.709-17.72,5.818
			c0,3.355,4.209,10.678,5.459,13.793"/>
		<path style="clip-path:url(#SVGID_4_);fill:#627935;" d="M20.841,40.093c-0.198,0-0.386-0.119-0.464-0.314
			c-0.351-0.875-0.939-2.085-1.619-3.486c-1.727-3.557-3.876-7.983-3.876-10.491c0-3.984,2.524-7.404,6.589-8.925
			c4.395-1.643,9.106-0.554,12.008,2.778c0.182,0.208,0.159,0.524-0.049,0.705c-0.209,0.182-0.523,0.16-0.705-0.049
			c-2.623-3.013-6.902-3.994-10.904-2.498c-3.663,1.372-5.939,4.433-5.939,7.989c0,2.278,2.182,6.773,3.775,10.055
			c0.689,1.418,1.284,2.643,1.648,3.551c0.102,0.257-0.022,0.548-0.277,0.65C20.966,40.081,20.903,40.093,20.841,40.093"/>
		<path style="clip-path:url(#SVGID_4_);fill:#8BA43C;" d="M45.47,35.514c1.303-3.812,2.539-7.595,2.539-9.385
			c0-2.246-0.823-4.172-2.15-5.673c-5.797-6.66-17.723-2.707-17.723,5.815c0,2.452,1.479,10.785,2.592,16.443"/>
		<path style="clip-path:url(#SVGID_4_);fill:#627935;" d="M30.727,43.214c-0.233,0-0.442-0.166-0.489-0.403
			c-1.2-6.099-2.602-14.09-2.602-16.54c0-3.982,2.526-7.4,6.591-8.921c4.396-1.643,9.109-0.554,12.009,2.778
			c1.486,1.68,2.273,3.756,2.273,6.001c0,1.881-1.268,5.748-2.566,9.546c-0.089,0.262-0.373,0.399-0.635,0.312
			c-0.261-0.089-0.4-0.373-0.31-0.635c1.214-3.556,2.511-7.495,2.511-9.223c0-1.997-0.7-3.844-2.025-5.342
			c-2.627-3.017-6.906-3.996-10.906-2.501c-3.665,1.372-5.941,4.431-5.941,7.985c0,2.226,1.297,9.814,2.582,16.346
			c0.054,0.271-0.123,0.535-0.393,0.587C30.791,43.21,30.759,43.214,30.727,43.214"/>
	</g>
</g>
</svg>
