<?xml version="1.0" encoding="iso-8859-1"?>
<!-- Generator: Adobe Illustrator 16.0.0, SVG Export Plug-In . SVG Version: 6.00 Build 0)  -->
<!DOCTYPE svg PUBLIC "-//W3C//DTD SVG 1.1//EN" "http://www.w3.org/Graphics/SVG/1.1/DTD/svg11.dtd">
<svg version="1.1" id="Layer_1" xmlns="http://www.w3.org/2000/svg" xmlns:xlink="http://www.w3.org/1999/xlink" x="0px" y="0px"
	 width="64px" height="64px" viewBox="0 0 64 64" style="enable-background:new 0 0 64 64;" xml:space="preserve">
<g>
	<defs>
		<rect id="SVGID_1_" width="64" height="64"/>
	</defs>
	<clipPath id="SVGID_2_">
		<use xlink:href="#SVGID_1_"  style="overflow:visible;"/>
	</clipPath>
	<g style="clip-path:url(#SVGID_2_);">
		<defs>
			<rect id="SVGID_3_" width="64" height="64"/>
		</defs>
		<clipPath id="SVGID_4_">
			<use xlink:href="#SVGID_3_"  style="overflow:visible;"/>
		</clipPath>
		<polyline style="clip-path:url(#SVGID_4_);fill:#895665;" points="14.558,23.402 14.558,23.402 14.56,23.4 14.558,23.402 		"/>
		<path style="clip-path:url(#SVGID_4_);fill:#6C2B3E;" d="M14.56,23.4h0.005 M14.56,23.4c-0.001,0-0.001,0-0.002,0.002
			C14.558,23.4,14.559,23.4,14.56,23.4 M14.565,22.408H14.56h-0.001c-0.274,0-0.522,0.111-0.702,0.291s-0.292,0.429-0.292,0.703
			c0,0.46,0.317,0.86,0.765,0.966c0.076,0.019,0.152,0.026,0.229,0.026c0.2,0,0.394-0.06,0.557-0.171
			c0.265-0.178,0.439-0.48,0.439-0.823C15.555,22.852,15.113,22.408,14.565,22.408"/>
		<path style="clip-path:url(#SVGID_4_);fill:#CEC390;" d="M48.673,22.301c-0.001,0-0.001-0.002-0.003-0.002
			c-1.502-2.01-5.368-3.829-7.372-5.591c-2.842-2.499-3.519-3.894-5.901-4.431c-0.055-0.012-0.106-0.029-0.161-0.039
			c-0.142-0.029-0.296-0.052-0.449-0.074c-0.257-0.04-0.522-0.066-0.786-0.091c-0.306-0.025-0.629-0.043-0.986-0.052
			c-0.335-0.007-0.665-0.022-1.014-0.005c-1.927-0.084-3.607,0.187-5.227,0.79c-1.217,0.772-1.995,2.076-4.071,3.902
			c-2.363,2.078-6.545,4.233-8.142,6.693c-0.001,0-0.001,0-0.002,0.002c-1.7,2.619-2.72,5.585-2.514,9.191
			c0.468,8.23,6.367,11.833,12.918,15.219c2.245,1.16,4.219,2.74,6.37,4.049c0.215,0.129,0.44,0.162,0.668,0.123
			c0.229,0.039,0.454,0.006,0.668-0.123c2.151-1.309,4.125-2.889,6.37-4.049c6.551-3.386,12.45-6.988,12.918-15.219
			C52.192,28.474,50.826,25.188,48.673,22.301"/>
		<path style="clip-path:url(#SVGID_4_);fill:#6C2B3E;" d="M31.324,12.001c0.222,0,0.447,0.005,0.676,0.015
			c0.117-0.006,0.232-0.008,0.347-0.008c0.226,0,0.445,0.008,0.667,0.013c0.357,0.009,0.68,0.027,0.986,0.052
			c0.264,0.025,0.529,0.051,0.786,0.091c0.153,0.022,0.308,0.045,0.448,0.074c0.056,0.01,0.107,0.027,0.162,0.038
			c2.383,0.538,3.06,1.933,5.901,4.432c2.004,1.762,5.87,3.581,7.372,5.591c0.002,0,0.002,0.002,0.003,0.002
			c2.153,2.887,3.519,6.173,3.283,10.293c-0.468,8.23-6.367,11.833-12.918,15.22c-2.245,1.159-4.22,2.739-6.37,4.048
			C32.509,51.957,32.345,52,32.177,52c-0.059,0-0.117-0.006-0.177-0.016C31.94,51.994,31.882,52,31.823,52
			c-0.168,0-0.332-0.043-0.491-0.139c-2.151-1.309-4.126-2.889-6.37-4.048c-6.551-3.387-12.45-6.989-12.918-15.22
			c-0.206-3.607,0.814-6.572,2.514-9.192C14.559,23.4,14.559,23.4,14.56,23.4c1.597-2.46,5.779-4.614,8.141-6.692
			c2.077-1.826,2.855-3.13,4.072-3.902C28.2,12.274,29.675,12.001,31.324,12.001 M31.324,10.001L31.324,10.001
			c-1.849,0-3.565,0.304-5.249,0.931c-0.131,0.048-0.256,0.11-0.374,0.185c-0.868,0.551-1.501,1.232-2.233,2.02
			c-0.561,0.602-1.196,1.286-2.087,2.069c-0.769,0.677-1.799,1.395-2.889,2.154c-2.135,1.489-4.341,3.028-5.58,4.907
			c-0.013,0.017-0.025,0.036-0.037,0.054c-2.115,3.263-3.041,6.66-2.828,10.387c0.522,9.179,6.918,13.223,13.996,16.881
			c1.255,0.648,2.433,1.45,3.68,2.298c0.826,0.562,1.68,1.143,2.569,1.684c0.471,0.282,0.997,0.43,1.531,0.43
			c0.059,0,0.118-0.002,0.177-0.006C32.06,53.998,32.118,54,32.177,54c0.534,0,1.06-0.147,1.521-0.425
			c0.898-0.546,1.753-1.127,2.578-1.688c1.247-0.848,2.425-1.649,3.68-2.298c7.079-3.658,13.476-7.702,13.997-16.882
			c0.237-4.171-0.965-7.966-3.677-11.602c-0.017-0.022-0.033-0.044-0.051-0.066c-1.12-1.463-2.994-2.68-4.808-3.856
			c-1.084-0.703-2.106-1.368-2.799-1.977c-0.777-0.683-1.388-1.284-1.928-1.814c-1.454-1.43-2.603-2.559-4.855-3.067
			c-0.075-0.019-0.145-0.035-0.215-0.049c-0.175-0.036-0.367-0.066-0.557-0.092c-0.268-0.042-0.575-0.074-0.881-0.102
			c-0.359-0.03-0.719-0.05-1.115-0.06l-0.204-0.005c-0.172-0.005-0.343-0.009-0.518-0.009c-0.114,0-0.23,0.002-0.347,0.006
			C31.771,10.005,31.547,10.001,31.324,10.001"/>
		<path style="clip-path:url(#SVGID_4_);fill:#895665;" d="M48.673,22.301c-0.001,0-0.001-0.002-0.003-0.002
			c-1.502-2.01-5.368-3.829-7.372-5.591c-2.842-2.499-3.519-3.894-5.901-4.431c-0.055-0.012-0.106-0.029-0.161-0.039
			c-0.142-0.029-0.296-0.052-0.449-0.074c-0.257-0.04-0.522-0.066-0.786-0.091c-0.306-0.025-0.629-0.043-0.986-0.052
			c-0.335-0.007-0.665-0.022-1.014-0.005c-1.927-0.084-3.607,0.187-5.227,0.79c-1.217,0.772-1.995,2.076-4.071,3.902
			c-2.363,2.078-6.545,4.233-8.142,6.693c-0.001,0-0.001,0-0.002,0.002c4.188,1.38,7.611,4.858,12.428,4.858
			C38.303,28.261,39.221,23.023,48.673,22.301"/>
		<path style="clip-path:url(#SVGID_4_);fill:#6C2B3E;" d="M31.324,12.001c0.222,0,0.447,0.005,0.676,0.015
			c0.117-0.006,0.232-0.008,0.347-0.008c0.226,0,0.444,0.008,0.667,0.013c0.357,0.009,0.68,0.027,0.986,0.052
			c0.264,0.025,0.529,0.051,0.786,0.091c0.153,0.022,0.308,0.045,0.448,0.074c0.056,0.01,0.107,0.027,0.162,0.038
			c2.383,0.537,3.06,1.933,5.901,4.432c2.004,1.762,5.87,3.581,7.372,5.591c0.002,0,0.002,0.002,0.003,0.002
			c-9.453,0.721-10.37,5.96-21.687,5.96c-4.818,0-8.241-3.478-12.428-4.859C14.559,23.4,14.559,23.4,14.56,23.4
			c1.597-2.46,5.779-4.614,8.141-6.692c2.077-1.826,2.855-3.13,4.072-3.902C28.2,12.274,29.675,12.001,31.324,12.001 M31.324,11.001
			L31.324,11.001c-1.728,0-3.331,0.283-4.9,0.867c-0.065,0.025-0.128,0.056-0.187,0.093c-0.759,0.482-1.351,1.119-2.037,1.856
			c-0.577,0.621-1.23,1.324-2.159,2.14c-0.811,0.714-1.863,1.447-2.977,2.224c-2.061,1.437-4.193,2.924-5.324,4.646
			c-0.028,0.04-0.054,0.082-0.076,0.126c-0.13,0.26-0.141,0.564-0.03,0.832c0.112,0.269,0.335,0.476,0.611,0.567
			c1.47,0.485,2.844,1.246,4.298,2.051c2.537,1.406,5.16,2.858,8.443,2.858c6.382,0,9.603-1.615,12.717-3.178
			c2.531-1.27,4.923-2.471,9.047-2.785c0.535-0.041,0.943-0.498,0.923-1.035c-0.009-0.23-0.095-0.439-0.231-0.603
			c-1.015-1.332-2.82-2.505-4.568-3.639c-1.114-0.723-2.167-1.407-2.914-2.064c-0.798-0.701-1.42-1.312-1.969-1.852
			c-1.393-1.37-2.399-2.359-4.374-2.804c-0.094-0.024-0.15-0.037-0.209-0.048c-0.129-0.027-0.306-0.055-0.481-0.079
			c-0.263-0.041-0.549-0.07-0.834-0.097c-0.333-0.027-0.674-0.046-1.051-0.056l-0.202-0.005c-0.163-0.004-0.327-0.008-0.492-0.008
			c-0.114,0-0.23,0.002-0.348,0.007C31.771,11.005,31.546,11.001,31.324,11.001"/>
		<path style="clip-path:url(#SVGID_4_);fill:#6C2B3E;" d="M31.996,20.03c-4.129,0-8.06-0.711-11.067-2.003
			c-0.254-0.108-0.371-0.402-0.263-0.656c0.11-0.254,0.403-0.374,0.657-0.262c2.886,1.238,6.676,1.921,10.673,1.921
			c3.901,0,7.625-0.654,10.488-1.842c0.254-0.106,0.547,0.016,0.652,0.271c0.106,0.255-0.015,0.548-0.27,0.653
			C39.886,19.348,36.025,20.03,31.996,20.03"/>
		<path style="clip-path:url(#SVGID_4_);fill:#9C935E;" d="M16.368,35.978c0,0.446-0.36,0.808-0.806,0.808
			c-0.446,0-0.807-0.361-0.807-0.808c0-0.445,0.361-0.806,0.807-0.806C16.008,35.172,16.368,35.532,16.368,35.978"/>
		<path style="clip-path:url(#SVGID_4_);fill:#9C935E;" d="M44.347,33.661c0,0.446-0.361,0.807-0.807,0.807
			c-0.446,0-0.807-0.36-0.807-0.807c0-0.445,0.36-0.807,0.807-0.807C43.985,32.854,44.347,33.216,44.347,33.661"/>
		<path style="clip-path:url(#SVGID_4_);fill:#9C935E;" d="M33.758,43.587c0,0.446-0.36,0.807-0.806,0.807
			c-0.446,0-0.807-0.36-0.807-0.807c0-0.445,0.36-0.807,0.807-0.807C33.397,42.78,33.758,43.142,33.758,43.587"/>
		<path style="clip-path:url(#SVGID_4_);fill:#6C2B3E;" d="M31.996,16.889c-3.406,0-6.604-0.608-9.003-1.714
			c-0.251-0.115-0.361-0.412-0.246-0.663c0.116-0.252,0.412-0.362,0.664-0.245c2.271,1.046,5.32,1.622,8.585,1.622
			c3.021,0,5.909-0.506,8.129-1.424c0.255-0.106,0.548,0.016,0.653,0.271c0.105,0.256-0.016,0.548-0.271,0.653
			C38.169,16.357,35.146,16.889,31.996,16.889"/>
	</g>
</g>
</svg>
