<?xml version="1.0" encoding="iso-8859-1"?>
<!-- Generator: Adobe Illustrator 16.0.0, SVG Export Plug-In . SVG Version: 6.00 Build 0)  -->
<!DOCTYPE svg PUBLIC "-//W3C//DTD SVG 1.1//EN" "http://www.w3.org/Graphics/SVG/1.1/DTD/svg11.dtd">
<svg version="1.1" id="Layer_1" xmlns="http://www.w3.org/2000/svg" xmlns:xlink="http://www.w3.org/1999/xlink" x="0px" y="0px"
	 width="64px" height="64px" viewBox="0 0 64 64" style="enable-background:new 0 0 64 64;" xml:space="preserve">
<g>
	<defs>
		<rect id="SVGID_1_" width="64" height="64"/>
	</defs>
	<clipPath id="SVGID_2_">
		<use xlink:href="#SVGID_1_"  style="overflow:visible;"/>
	</clipPath>
	<g style="clip-path:url(#SVGID_2_);">
		<defs>
			<rect id="SVGID_3_" width="64" height="64"/>
		</defs>
		<clipPath id="SVGID_4_">
			<use xlink:href="#SVGID_3_"  style="overflow:visible;"/>
		</clipPath>
		<path style="clip-path:url(#SVGID_4_);fill:#CC8F2D;" d="M37.574,26.379c-3.855-3.856-10.482-3.159-14.582,1.319
			C16.955,34.294,5.845,55.602,7.097,56.856c1.254,1.254,22.563-9.858,29.157-15.895C40.731,36.861,41.43,30.234,37.574,26.379"/>
		<path style="clip-path:url(#SVGID_4_);fill:#AA6432;" d="M31.33,23.868c2.317,0,4.549,0.815,6.245,2.511
			c3.855,3.855,3.157,10.482-1.32,14.583c-6.246,5.718-25.698,15.991-28.796,15.991c-0.172,0-0.294-0.032-0.36-0.098
			c-1.252-1.255,9.857-22.562,15.895-29.157C25.289,25.19,28.378,23.868,31.33,23.868 M31.33,21.868
			c-3.629,0-7.206,1.633-9.812,4.48c-3.334,3.642-7.853,11.163-10.97,16.988c-1.726,3.227-3.214,6.275-4.187,8.586
			c-1.411,3.347-1.872,5.151-0.678,6.347c0.312,0.312,0.873,0.686,1.775,0.686c4.074,0,24.077-10.96,30.147-16.517
			c2.768-2.534,4.399-6.016,4.478-9.552c0.066-3.045-1.031-5.858-3.094-7.92C36.992,22.968,34.271,21.868,31.33,21.868"/>
		<path style="clip-path:url(#SVGID_4_);fill:#627935;" d="M42.459,7.046c1.083,0,2.195,0.325,3.22,1.023
			c2.782,1.897,4.149,5.918-0.197,10.497c2.106-1.999,4.095-2.79,5.812-2.79c2.017,0,3.66,1.089,4.684,2.592
			c1.923,2.82,1.013,6.307-1.708,8.018c-0.837,0.526-1.697,0.73-2.563,0.73c-2.989,0-6.059-2.424-8.58-2.424
			c-0.809,0-1.56,0.249-2.234,0.906c-1.317,1.286-2.629,2.565-3.417,3.337c-0.409-0.235-0.804-0.51-1.159-0.864
			c-0.053-0.053-0.095-0.111-0.142-0.168c-0.009-0.012-0.017-0.021-0.025-0.031v-0.001c-0.392-0.431-0.712-0.901-0.936-1.398
			c0.777-0.796,2.001-2.051,3.235-3.317c3.306-3.388-3.708-8.728-0.787-13.378C38.751,8.045,40.561,7.046,42.459,7.046
			 M42.459,5.046L42.459,5.046c-2.62,0-5.047,1.371-6.492,3.667c-2.022,3.221-0.618,6.589,0.406,9.049
			c1.021,2.448,1.257,3.368,0.643,3.997l-0.655,0.672l-2.579,2.644c-0.575,0.589-0.73,1.47-0.393,2.22
			c0.295,0.653,0.705,1.277,1.223,1.858c0.003,0.003,0.006,0.007,0.008,0.01c0.005,0.005,0.009,0.01,0.013,0.015
			c0.095,0.118,0.174,0.211,0.262,0.301c0.451,0.449,0.967,0.836,1.587,1.191c0.309,0.178,0.652,0.265,0.992,0.265
			c0.511,0,1.016-0.195,1.399-0.571l2.067-2.018l1.349-1.317c0.252-0.245,0.479-0.337,0.837-0.337c0.807,0,1.949,0.477,3.159,0.981
			c1.623,0.676,3.462,1.443,5.421,1.443c1.312,0,2.532-0.349,3.626-1.036c1.837-1.155,3.084-2.922,3.513-4.976
			c0.42-2.016-0.012-4.098-1.214-5.863c-1.501-2.202-3.811-3.465-6.337-3.465c-0.332,0-0.701,0.023-1.102,0.081
			c0.102-0.712,0.096-1.351,0.039-1.898c-0.236-2.199-1.484-4.219-3.426-5.542C45.49,5.52,43.987,5.046,42.459,5.046"/>
		<path style="clip-path:url(#SVGID_4_);fill:#AA6432;" d="M23.999,40.715c-0.128,0-0.256-0.049-0.354-0.146
			c-2.584-2.583-4.45-5.668-5.254-8.691c-0.071-0.267,0.088-0.541,0.355-0.612c0.267-0.069,0.541,0.088,0.612,0.355
			c0.759,2.856,2.533,5.782,4.995,8.241c0.195,0.196,0.195,0.513,0,0.708C24.255,40.666,24.127,40.715,23.999,40.715"/>
		<path style="clip-path:url(#SVGID_4_);fill:#AA6432;" d="M30.816,33.898c-0.128,0-0.256-0.048-0.354-0.146
			c-2.759-2.761-4.672-6.041-5.387-9.239c-0.06-0.269,0.11-0.536,0.379-0.596c0.27-0.061,0.537,0.109,0.597,0.378
			c0.674,3.015,2.492,6.122,5.119,8.749c0.195,0.196,0.195,0.513,0,0.708C31.072,33.851,30.944,33.898,30.816,33.898"/>
		<path style="clip-path:url(#SVGID_4_);fill:#AA6432;" d="M16.982,47.331c-0.13,0-0.26-0.05-0.358-0.15
			c-1.686-1.729-3.079-3.704-4.026-5.717c-0.117-0.25-0.011-0.548,0.239-0.666c0.249-0.119,0.548-0.01,0.666,0.24
			c0.9,1.911,2.227,3.794,3.837,5.444c0.193,0.198,0.189,0.515-0.009,0.707C17.234,47.284,17.108,47.331,16.982,47.331"/>
		<path style="clip-path:url(#SVGID_4_);fill:#AA6432;" d="M10.363,54.348c-0.128,0-0.256-0.049-0.354-0.146
			c-1.002-1-1.904-2.087-2.68-3.227c-0.156-0.229-0.097-0.54,0.132-0.694C7.688,50.126,8,50.185,8.155,50.413
			c0.742,1.088,1.603,2.125,2.562,3.081c0.195,0.195,0.195,0.512,0,0.708C10.619,54.299,10.491,54.348,10.363,54.348"/>
		<path style="clip-path:url(#SVGID_4_);fill:#8BA43C;" d="M55.977,18.368c-1.926-2.825-6.037-4.202-10.697,0.382l-0.007-0.007
			l-9.125,9.129c0.06,0.065,0.104,0.137,0.167,0.199c0.355,0.355,0.75,0.629,1.159,0.864c0.788-0.772,2.1-2.05,3.417-3.337
			c3.389-3.302,8.727,3.708,13.378,0.789C56.989,24.675,57.899,21.188,55.977,18.368"/>
		<path style="clip-path:url(#SVGID_4_);fill:#627935;" d="M51.283,15.768c2.021,0,3.668,1.094,4.693,2.6
			c1.923,2.82,1.013,6.307-1.708,8.018c-0.837,0.526-1.697,0.73-2.563,0.73c-2.989,0-6.06-2.424-8.58-2.424
			c-0.809,0-1.56,0.249-2.234,0.906c-1.317,1.286-2.629,2.565-3.417,3.337c-0.409-0.235-0.804-0.51-1.159-0.864
			c-0.062-0.063-0.107-0.135-0.167-0.199l9.125-9.13l0.007,0.008C47.456,16.608,49.514,15.768,51.283,15.768 M51.283,14.768
			c-2.177,0-4.456,1.094-6.598,3.166c-0.043,0.03-0.084,0.064-0.121,0.101l-9.125,9.129c-0.379,0.38-0.392,0.992-0.026,1.387
			c0.075,0.096,0.132,0.165,0.197,0.23c0.378,0.376,0.825,0.711,1.366,1.021c0.155,0.089,0.326,0.133,0.496,0.133
			c0.256,0,0.509-0.098,0.7-0.286l2.061-2.011l1.356-1.325c0.44-0.429,0.914-0.621,1.535-0.621c1.006,0,2.238,0.514,3.544,1.057
			c1.611,0.672,3.277,1.367,5.036,1.367c1.121,0,2.162-0.297,3.096-0.883c1.604-1.008,2.691-2.548,3.063-4.333
			c0.364-1.748-0.013-3.557-1.062-5.095C55.488,15.874,53.477,14.768,51.283,14.768"/>
		<path style="clip-path:url(#SVGID_4_);fill:#8BA43C;" d="M45.679,8.069c-2.821-1.924-6.306-1.013-8.019,1.709
			c-2.921,4.65,4.093,9.989,0.787,13.377c-1.234,1.267-2.458,2.521-3.235,3.317c0.229,0.511,0.556,0.991,0.961,1.43l9.132-9.128
			l-0.008-0.008C49.882,14.107,48.505,9.994,45.679,8.069"/>
		<path style="clip-path:url(#SVGID_4_);fill:#627935;" d="M42.459,7.046c1.083,0,2.195,0.325,3.22,1.023
			c2.826,1.926,4.203,6.038-0.382,10.698l0.008,0.008l-9.132,9.128c-0.405-0.44-0.731-0.92-0.961-1.43
			c0.777-0.796,2.001-2.051,3.235-3.317c3.306-3.388-3.708-8.728-0.787-13.378C38.751,8.045,40.561,7.046,42.459,7.046
			 M42.459,6.046c-2.274,0-4.385,1.196-5.646,3.2c-1.747,2.781-0.511,5.747,0.483,8.131c1,2.4,1.559,3.93,0.435,5.081l-0.68,0.697
			l-2.556,2.619c-0.287,0.294-0.365,0.734-0.195,1.11c0.27,0.599,0.652,1.17,1.138,1.696c0.183,0.2,0.441,0.317,0.714,0.323h0.021
			c0.266,0,0.52-0.105,0.707-0.293l9.131-9.128c0.039-0.039,0.073-0.08,0.104-0.123c2.879-2.978,3.296-5.571,3.133-7.229
			c-0.188-1.933-1.285-3.714-3.006-4.887C45.094,6.46,43.785,6.046,42.459,6.046"/>
	</g>
</g>
</svg>
