<?xml version="1.0" encoding="iso-8859-1"?>
<!-- Generator: Adobe Illustrator 16.0.0, SVG Export Plug-In . SVG Version: 6.00 Build 0)  -->
<!DOCTYPE svg PUBLIC "-//W3C//DTD SVG 1.1//EN" "http://www.w3.org/Graphics/SVG/1.1/DTD/svg11.dtd">
<svg version="1.1" id="Layer_1" xmlns="http://www.w3.org/2000/svg" xmlns:xlink="http://www.w3.org/1999/xlink" x="0px" y="0px"
	 width="64px" height="64px" viewBox="0 0 64 64" style="enable-background:new 0 0 64 64;" xml:space="preserve">
<g>
	<defs>
		<path id="SVGID_1_" d="M28.711,17.429c-0.857,0.235-1.581,0.609-2.194,1.091c-0.098,0.023-0.197,0.042-0.295,0.064l0.002-0.021
			c-0.515-0.05-1.083-0.075-1.707-0.075c-3.586,0-5.553,1.842-6.547,4.422c-3.05,2.91-4.933,7.01-4.933,12.039
			c0,5.706,5.373,11.164,10.242,14.942L31,55l7.721-5.108c4.869-3.778,10.242-9.236,10.242-14.942c0-4.937-1.816-8.974-4.768-11.873
			c-0.963-2.665-2.957-4.588-6.713-4.588c-0.555,0-1.063,0.021-1.531,0.059l0.005,0.075c-0.154-0.036-0.312-0.067-0.468-0.1
			c-0.421-0.332-0.891-0.615-1.427-0.833c-0.096-1.413-0.102-4.816,3.04-5.932L35.301,9C29.255,11.431,28.493,15.039,28.711,17.429"
			/>
	</defs>
	<clipPath id="SVGID_2_">
		<use xlink:href="#SVGID_1_"  style="overflow:visible;"/>
	</clipPath>
	
		<linearGradient id="SVGID_3_" gradientUnits="userSpaceOnUse" x1="4.882812e-04" y1="64" x2="1.0005" y2="64" gradientTransform="matrix(35.9258 0 0 -35.9258 13.0312 2331.25)">
		<stop  offset="0" style="stop-color:#A7792B"/>
		<stop  offset="0.2147" style="stop-color:#A7792B"/>
		<stop  offset="0.2537" style="stop-color:#8C732C"/>
		<stop  offset="0.2984" style="stop-color:#746E2D"/>
		<stop  offset="0.3398" style="stop-color:#656B2E"/>
		<stop  offset="0.3742" style="stop-color:#606A2E"/>
		<stop  offset="1" style="stop-color:#4D642E"/>
	</linearGradient>
	<rect x="13.037" y="9" style="clip-path:url(#SVGID_2_);fill:url(#SVGID_3_);" width="35.926" height="46"/>
</g>
<g>
	<defs>
		<rect id="SVGID_4_" width="64" height="64"/>
	</defs>
	<clipPath id="SVGID_5_">
		<use xlink:href="#SVGID_4_"  style="overflow:visible;"/>
	</clipPath>
	<path style="clip-path:url(#SVGID_5_);fill:#394E23;" d="M35.301,9l1.802,2.757c-3.143,1.116-3.137,4.518-3.04,5.931
		c0.535,0.219,1.004,0.502,1.426,0.834c0.155,0.034,0.313,0.064,0.468,0.1l-0.005-0.075c0.468-0.038,0.977-0.059,1.531-0.059
		c3.756,0,5.75,1.923,6.713,4.588c2.951,2.899,4.768,6.937,4.768,11.873c0,5.706-5.373,11.163-10.242,14.942L31,55l-7.72-5.108
		c-4.869-3.779-10.243-9.236-10.243-14.942c0-5.029,1.883-9.129,4.934-12.039c0.993-2.58,2.961-4.422,6.546-4.422
		c0.625,0,1.192,0.025,1.708,0.075l-0.002,0.021c0.097-0.022,0.196-0.041,0.294-0.063c0.613-0.483,1.337-0.857,2.194-1.092
		C28.493,15.039,29.255,11.431,35.301,9 M35.301,7c-0.25,0-0.503,0.047-0.746,0.145c-6.093,2.449-7.63,6.194-7.845,8.908
		c-0.292,0.142-0.573,0.301-0.842,0.475c-0.421-0.026-0.867-0.04-1.351-0.04c-3.911,0-6.751,1.825-8.241,5.282
		c-3.429,3.431-5.239,7.978-5.239,13.179c0,5.289,3.706,10.849,11.016,16.522c0.04,0.03,0.081,0.06,0.123,0.088l7.721,5.108
		C30.231,56.89,30.615,57,31,57c0.385,0,0.769-0.11,1.104-0.332l7.721-5.108c0.042-0.028,0.083-0.058,0.123-0.088
		c7.31-5.674,11.016-11.233,11.016-16.522c0-5.094-1.745-9.572-5.052-12.983c-1.458-3.586-4.362-5.478-8.429-5.478
		c-0.465,0-0.916,0.014-1.347,0.04c-0.029-0.018-0.059-0.038-0.088-0.056c0.137-2.267,1.306-2.682,1.725-2.83
		c0.577-0.205,1.029-0.664,1.226-1.246c0.195-0.581,0.115-1.22-0.221-1.733l-1.802-2.757C36.598,7.327,35.96,7,35.301,7"/>
	<path style="clip-path:url(#SVGID_5_);fill:#394E23;" d="M23.16,50.893c-0.181,0-0.355-0.099-0.444-0.27
		c-0.036-0.07-3.635-7.055-5.357-13.728c-0.674-2.749-2.584-12.061,1.049-16.69c1.373-1.751,3.374-2.638,5.947-2.638
		c0.641,0,1.245,0.026,1.797,0.078c0.275,0.026,0.477,0.27,0.45,0.545c-0.025,0.274-0.261,0.467-0.544,0.451
		c-0.52-0.05-1.093-0.074-1.703-0.074c-2.25,0-3.987,0.759-5.16,2.255c-3.354,4.275-1.511,13.196-0.866,15.829
		c1.691,6.556,5.239,13.442,5.274,13.512c0.127,0.245,0.032,0.547-0.214,0.674C23.316,50.875,23.237,50.893,23.16,50.893"/>
	<path style="clip-path:url(#SVGID_5_);fill:#394E23;" d="M38.838,50.893c-0.077,0-0.156-0.018-0.229-0.056
		c-0.246-0.127-0.342-0.429-0.215-0.674c0.035-0.069,3.583-6.956,5.277-13.518c0.832-3.4,2.429-11.76-0.744-15.803
		c-1.185-1.51-2.963-2.275-5.285-2.275c-0.542,0-1.057,0.02-1.528,0.06c-0.281,0.015-0.517-0.181-0.54-0.455
		c-0.023-0.275,0.18-0.517,0.455-0.541c0.5-0.043,1.043-0.064,1.613-0.064c2.645,0,4.688,0.894,6.072,2.658
		c3.443,4.388,1.795,13.115,0.927,16.664c-1.725,6.679-5.323,13.663-5.359,13.733C39.193,50.794,39.02,50.893,38.838,50.893"/>
	<path style="clip-path:url(#SVGID_5_);fill:#97AE50;" d="M31.156,16.594c1.041,0,2.021,0.202,2.883,0.56
		c-0.035-1.604,0.27-4.405,3.063-5.397L35.302,9c-5.694,2.288-6.699,5.62-6.617,7.995C29.444,16.738,30.277,16.594,31.156,16.594"/>
	<path style="clip-path:url(#SVGID_5_);fill:#394E23;" d="M33.254,54.7c-0.033,0-0.068-0.003-0.103-0.011
		c-0.271-0.056-0.444-0.321-0.388-0.591c0.025-0.122,2.547-12.209,4.257-18.841c0.831-3.393,2.424-11.736-0.767-15.804
		c-1.184-1.507-2.953-2.272-5.261-2.272c-2.296,0-4.059,0.763-5.24,2.268c-3.295,4.2-1.436,13.166-0.787,15.813
		c1.71,6.626,4.231,18.713,4.256,18.835c0.056,0.27-0.117,0.535-0.387,0.591c-0.277,0.059-0.536-0.117-0.592-0.388
		c-0.025-0.121-2.541-12.185-4.247-18.794c-0.867-3.542-2.506-12.245,0.97-16.675c1.38-1.759,3.408-2.651,6.027-2.651
		c2.63,0,4.666,0.894,6.047,2.655c3.462,4.414,1.817,13.125,0.95,16.665c-1.706,6.615-4.223,18.679-4.248,18.8
		C33.693,54.538,33.485,54.7,33.254,54.7"/>
</g>
</svg>
