<?xml version="1.0" encoding="iso-8859-1"?>
<!-- Generator: Adobe Illustrator 16.0.0, SVG Export Plug-In . SVG Version: 6.00 Build 0)  -->
<!DOCTYPE svg PUBLIC "-//W3C//DTD SVG 1.1//EN" "http://www.w3.org/Graphics/SVG/1.1/DTD/svg11.dtd">
<svg version="1.1" id="Layer_1" xmlns="http://www.w3.org/2000/svg" xmlns:xlink="http://www.w3.org/1999/xlink" x="0px" y="0px"
	 width="64px" height="64px" viewBox="0 0 64 64" style="enable-background:new 0 0 64 64;" xml:space="preserve">
<g>
	<defs>
		<rect id="SVGID_1_" width="64" height="64"/>
	</defs>
	<clipPath id="SVGID_2_">
		<use xlink:href="#SVGID_1_"  style="overflow:visible;"/>
	</clipPath>
	<g style="clip-path:url(#SVGID_2_);">
		<defs>
			<rect id="SVGID_3_" width="64" height="64"/>
		</defs>
		<clipPath id="SVGID_4_">
			<use xlink:href="#SVGID_3_"  style="overflow:visible;"/>
		</clipPath>
		<path style="clip-path:url(#SVGID_4_);fill:#8BA43C;" d="M53.772,36.154c0.292,0,0.565-0.173,0.692-0.452l1.914-4.364
			c0.096-0.215,0.081-0.464-0.036-0.672c-0.112-0.208-0.319-0.347-0.558-0.383l-4.72-0.648c-0.032,0-0.066-0.004-0.104-0.004
			c-0.34,0-0.646,0.23-0.731,0.569l-0.071,0.281l-0.452-1.165c-0.091-0.23-0.284-0.397-0.521-0.459
			c-0.062-0.015-0.125-0.019-0.184-0.019c-0.18,0-0.352,0.059-0.492,0.179l-1.933,1.642c-0.039-0.012-0.069-0.037-0.111-0.043
			l-1.239-0.173l0.253-0.13c0.342-0.18,0.494-0.586,0.355-0.946l-1.73-4.437c-0.086-0.223-0.274-0.388-0.5-0.454
			c-0.069-0.02-0.136-0.027-0.206-0.027c-0.165,0-0.322,0.054-0.459,0.155l-3.792,2.877c-0.308,0.232-0.394,0.66-0.196,0.991
			l0.147,0.246l-1.142-0.501c-0.098-0.042-0.201-0.065-0.304-0.065c-0.134,0-0.268,0.037-0.387,0.107
			c-0.211,0.129-0.348,0.344-0.363,0.588l-0.277,3.392c-0.019,0.221,0.062,0.433,0.215,0.59l3.119,3.183
			c0.051,0.053,0.113,0.088,0.176,0.12l-0.969,3.432l-0.894,0.501c-0.172,0.091-2.872,1.611-5.26,4.149
			c1.613-8.186,1.043-16.523,0.975-17.397v-1.46l2.079-2.077c0.076,0.055,0.157,0.102,0.25,0.128l4.305,1.164
			c0.066,0.02,0.13,0.03,0.197,0.03c0.148,0,0.296-0.047,0.42-0.131l2.827-1.897c0.205-0.135,0.326-0.361,0.335-0.608
			c0.006-0.243-0.105-0.475-0.302-0.622l-0.994-0.753l0.283,0.01h0.024c0.375,0,0.696-0.281,0.749-0.654l0.659-4.716
			c0.03-0.239-0.048-0.474-0.216-0.638c-0.143-0.148-0.334-0.224-0.534-0.224c-0.038,0-0.071,0.002-0.105,0.009l-4.719,0.656
			c-0.383,0.054-0.662,0.383-0.652,0.768l0.006,0.286l-0.748-0.995c-0.085-0.106-0.197-0.18-0.317-0.233l0.449-2.28
			c0.018-0.064,0.024-0.129,0.024-0.199c0-0.42-0.336-0.758-0.754-0.758c-0.01,0-0.018,0-0.027,0.002
			c-0.029,0-0.063,0.003-0.092,0.008l-1.226,0.172l0.209-0.199c0.282-0.263,0.318-0.698,0.086-1.002L33.332,6.8
			c-0.142-0.188-0.363-0.3-0.604-0.3c-0.237,0-0.458,0.112-0.604,0.3l-2.872,3.804c-0.231,0.304-0.197,0.739,0.083,1.002
			l0.209,0.199l-1.237-0.173c-0.032-0.005-0.068-0.009-0.103-0.009c-0.208,0-0.407,0.083-0.55,0.235
			c-0.166,0.182-0.24,0.43-0.193,0.669l0.488,2.488c-0.027,0.026-0.066,0.044-0.094,0.077l-0.753,0.996l0.01-0.286
			c0.012-0.385-0.268-0.714-0.653-0.768l-4.717-0.658c-0.032-0.007-0.071-0.008-0.104-0.008c-0.2,0-0.392,0.076-0.534,0.224
			c-0.17,0.163-0.246,0.4-0.216,0.637l0.658,4.718c0.051,0.373,0.37,0.652,0.749,0.652h0.018l0.29-0.008l-0.994,0.753
			c-0.196,0.147-0.308,0.378-0.302,0.622c0.008,0.247,0.13,0.473,0.334,0.607l2.825,1.898c0.127,0.084,0.275,0.131,0.422,0.131
			c0.064,0,0.132-0.01,0.199-0.03l4.298-1.164c0.074-0.019,0.14-0.049,0.199-0.089l2.135,2.132v1.41
			c0,0.034,0.002,0.062,0.005,0.089c0.007,0.135,0.633,8.551-0.918,16.652c-1.449-3.286-4.464-4.462-4.471-4.462l-0.935-0.441
			l-1.211-3.353c0.059-0.037,0.117-0.073,0.165-0.13l2.888-3.397c0.141-0.168,0.2-0.39,0.167-0.604l-0.515-3.365
			c-0.04-0.243-0.192-0.452-0.408-0.558c-0.107-0.054-0.226-0.083-0.339-0.083c-0.123,0-0.247,0.03-0.353,0.086l-1.105,0.585
			l0.128-0.258c0.175-0.345,0.06-0.767-0.264-0.976l-3.99-2.595c-0.127-0.084-0.269-0.125-0.414-0.125
			c-0.086,0-0.177,0.016-0.258,0.046c-0.22,0.083-0.395,0.262-0.466,0.486l-1.405,4.551c-0.117,0.372,0.063,0.765,0.416,0.92
			l0.265,0.112l-1.22,0.258c-0.044,0.01-0.073,0.037-0.11,0.053l-2.045-1.5c-0.135-0.096-0.289-0.146-0.447-0.146
			c-0.083,0-0.161,0.013-0.238,0.037c-0.235,0.078-0.413,0.261-0.488,0.493l-0.368,1.195l-0.089-0.272
			c-0.103-0.316-0.398-0.522-0.719-0.522c-0.053,0-0.105,0.007-0.159,0.017l-4.658,0.987c-0.234,0.048-0.431,0.204-0.531,0.42
			c-0.101,0.215-0.095,0.465,0.017,0.672l2.219,4.216c0.138,0.255,0.395,0.403,0.672,0.403c0.091,0,0.184-0.019,0.273-0.053
			l0.27-0.105l-0.68,1.046c-0.136,0.206-0.16,0.462-0.071,0.689c0.088,0.226,0.282,0.397,0.522,0.459l2.305,0.572
			c-0.005,0.136,0.018,0.266,0.081,0.384l0.58,1.105l-0.258-0.129c-0.11-0.055-0.223-0.08-0.339-0.08
			c-0.25,0-0.491,0.121-0.633,0.345l-2.599,3.99c-0.127,0.199-0.159,0.446-0.077,0.671c0.081,0.225,0.261,0.396,0.489,0.468
			l4.546,1.404c0.078,0.026,0.151,0.037,0.228,0.037c0.293,0,0.567-0.174,0.692-0.454l0.117-0.265l0.254,1.224
			c0.051,0.238,0.216,0.439,0.441,0.536c0.098,0.041,0.2,0.063,0.304,0.063c0.133,0,0.268-0.039,0.388-0.108l2.914-1.754
			c0.186-0.113,0.319-0.301,0.355-0.519l0.776-4.391c0.014-0.093,0.006-0.188-0.01-0.278l3.271-1.182l1.073,0.503
			c0.185,0.066,4.049,1.583,4.291,6.354c-0.954,3.408-2.386,6.531-4.53,8.677c-0.443,0.441-0.443,1.162,0,1.604
			c0.223,0.219,0.514,0.331,0.802,0.331c0.29,0,0.582-0.112,0.803-0.331c2.363-2.363,3.948-5.688,5.004-9.28
			c2.265-3.91,6.831-6.472,6.887-6.5l0.984-0.55l3.343,0.943c-0.009,0.091-0.01,0.185,0.01,0.277l1.086,4.322
			c0.054,0.214,0.196,0.392,0.396,0.49l3.035,1.538c0.104,0.055,0.223,0.084,0.342,0.084c0.117,0,0.24-0.031,0.35-0.085
			c0.215-0.115,0.363-0.327,0.4-0.569l0.167-1.234l0.136,0.253c0.132,0.257,0.396,0.406,0.669,0.406
			c0.091,0,0.183-0.019,0.277-0.052l4.435-1.736c0.22-0.084,0.39-0.268,0.45-0.499c0.066-0.226,0.021-0.471-0.122-0.658
			l-2.877-3.798c-0.147-0.194-0.376-0.3-0.604-0.3c-0.133,0-0.268,0.033-0.388,0.107l-0.245,0.147l0.5-1.144
			c0.052-0.126,0.062-0.258,0.05-0.388l2.259-0.744c0.231-0.073,0.416-0.256,0.485-0.493c0.074-0.231,0.031-0.486-0.117-0.681
			l-0.756-0.994l0.272,0.084C53.621,36.144,53.694,36.154,53.772,36.154 M18.739,34.348c0.115,0.187,0.302,0.316,0.521,0.356
			l3.298,0.578l0.905,2.511l-4.744-2.229l-0.123-1.454L18.739,34.348z M20.256,40.02l-2.498-2.117
			c-0.136-0.116-0.311-0.182-0.488-0.182c-0.038,0-0.08,0.004-0.115,0.011l-0.559,0.084l1.347-0.944l4.796,2.25L20.256,40.02z
			 M34.619,18.575l0.856,3.156l-1.487,1.488v-5.134l1.048-0.602l-0.314,0.471C34.602,18.134,34.565,18.362,34.619,18.575
			 M30.211,21.808l0.874-3.233c0.058-0.215,0.023-0.441-0.102-0.623l-0.153-0.23l0.89,0.508v5.083L30.211,21.808z M41.759,35.95
			l3.25-0.817c0.215-0.054,0.392-0.196,0.49-0.391l0.125-0.25l-0.014,1.465l-4.573,2.559L41.759,35.95z M47.323,38.002h-0.058
			c-0.199,0-0.392,0.074-0.532,0.212l-2.337,2.292l-2.54-0.714l4.617-2.587l1.411,0.844L47.323,38.002z"/>
		<path style="clip-path:url(#SVGID_4_);fill:#4D642E;" d="M32.729,6.5c0.24,0,0.462,0.112,0.604,0.299l2.873,3.804
			c0.232,0.305,0.196,0.739-0.086,1.002l-0.209,0.199l1.227-0.172c0.027-0.004,0.061-0.007,0.091-0.007
			c0.01-0.002,0.018-0.002,0.027-0.002c0.418,0,0.754,0.338,0.754,0.758c0,0.07-0.007,0.134-0.024,0.199l-0.449,2.28
			c0.12,0.053,0.232,0.127,0.317,0.232l0.748,0.996l-0.005-0.287c-0.011-0.384,0.269-0.713,0.651-0.767l4.719-0.656
			c0.034-0.007,0.066-0.009,0.105-0.009c0.2,0,0.392,0.076,0.534,0.223c0.168,0.165,0.246,0.4,0.216,0.638l-0.659,4.717
			c-0.053,0.373-0.374,0.653-0.749,0.653h-0.024l-0.283-0.009l0.994,0.752c0.196,0.148,0.307,0.379,0.302,0.623
			c-0.009,0.247-0.13,0.473-0.335,0.608l-2.827,1.896c-0.125,0.084-0.271,0.131-0.42,0.131c-0.067,0-0.131-0.01-0.197-0.029
			l-4.305-1.164c-0.093-0.026-0.174-0.073-0.25-0.128l-2.079,2.077v1.46c0.068,0.874,0.639,9.211-0.975,17.396
			c2.388-2.538,5.088-4.059,5.26-4.15l0.894-0.501l0.97-3.431c-0.064-0.032-0.126-0.068-0.177-0.12l-3.119-3.183
			c-0.153-0.157-0.233-0.369-0.215-0.59l0.277-3.393c0.016-0.244,0.152-0.459,0.363-0.588c0.12-0.069,0.253-0.106,0.387-0.106
			c0.103,0,0.206,0.022,0.304,0.064l1.142,0.501l-0.147-0.246c-0.197-0.331-0.111-0.758,0.196-0.991l3.792-2.877
			c0.137-0.1,0.294-0.154,0.459-0.154c0.07,0,0.137,0.007,0.206,0.026c0.226,0.067,0.414,0.232,0.5,0.454l1.73,4.438
			c0.139,0.359-0.014,0.765-0.355,0.945l-0.253,0.131l1.239,0.173c0.042,0.006,0.072,0.03,0.111,0.043l1.934-1.643
			c0.14-0.12,0.312-0.178,0.491-0.178c0.059,0,0.122,0.003,0.184,0.019c0.236,0.062,0.429,0.229,0.521,0.459l0.451,1.164l0.072-0.28
			c0.085-0.339,0.392-0.569,0.731-0.569c0.038,0,0.071,0.003,0.104,0.003l4.72,0.649c0.238,0.036,0.445,0.175,0.558,0.383
			c0.117,0.208,0.132,0.457,0.036,0.672l-1.914,4.364c-0.127,0.278-0.4,0.452-0.692,0.452c-0.078,0-0.151-0.011-0.229-0.037
			l-0.272-0.084l0.756,0.994c0.148,0.194,0.191,0.449,0.117,0.681c-0.07,0.237-0.254,0.42-0.486,0.493l-2.258,0.744
			c0.013,0.13,0.002,0.262-0.05,0.388l-0.5,1.144l0.246-0.147c0.119-0.074,0.254-0.107,0.387-0.107c0.229,0,0.457,0.105,0.604,0.299
			l2.877,3.799c0.143,0.188,0.188,0.433,0.122,0.658c-0.061,0.231-0.23,0.415-0.449,0.499l-4.436,1.736
			c-0.095,0.033-0.187,0.052-0.277,0.052c-0.272,0-0.536-0.149-0.669-0.406l-0.136-0.254l-0.167,1.235
			c-0.037,0.242-0.186,0.454-0.399,0.569c-0.11,0.054-0.233,0.085-0.351,0.085c-0.119,0-0.238-0.029-0.342-0.084l-3.036-1.538
			c-0.198-0.1-0.341-0.276-0.395-0.49l-1.085-4.322c-0.021-0.094-0.021-0.187-0.011-0.277l-3.344-0.943l-0.983,0.55
			c-0.056,0.028-4.621,2.59-6.887,6.5c-1.055,3.593-2.641,6.917-5.004,9.28c-0.22,0.219-0.512,0.331-0.802,0.331
			c-0.288,0-0.579-0.112-0.803-0.331c-0.442-0.442-0.442-1.163,0-1.605c2.145-2.145,3.576-5.268,4.53-8.676
			c-0.242-4.771-4.105-6.288-4.291-6.354l-1.073-0.503l-3.27,1.182c0.015,0.091,0.024,0.185,0.009,0.278l-0.775,4.391
			c-0.036,0.218-0.169,0.405-0.356,0.519l-2.914,1.754c-0.12,0.069-0.255,0.108-0.387,0.108c-0.105,0-0.206-0.022-0.304-0.063
			c-0.226-0.097-0.391-0.298-0.441-0.536l-0.254-1.225l-0.118,0.266c-0.125,0.28-0.399,0.454-0.692,0.454
			c-0.076,0-0.149-0.012-0.227-0.037l-4.546-1.405c-0.229-0.07-0.409-0.242-0.49-0.467c-0.082-0.225-0.049-0.472,0.078-0.671
			l2.598-3.99c0.143-0.224,0.384-0.345,0.634-0.345c0.115,0,0.228,0.025,0.339,0.08l0.258,0.129l-0.58-1.105
			c-0.064-0.118-0.086-0.248-0.082-0.384l-2.304-0.572c-0.24-0.062-0.435-0.233-0.523-0.459c-0.089-0.228-0.064-0.483,0.072-0.689
			l0.679-1.046l-0.269,0.105c-0.089,0.034-0.183,0.053-0.274,0.053c-0.276,0-0.534-0.148-0.672-0.403l-2.218-4.216
			c-0.113-0.207-0.118-0.457-0.018-0.673c0.101-0.216,0.297-0.371,0.531-0.42l4.659-0.986c0.053-0.011,0.105-0.018,0.159-0.018
			c0.32,0,0.615,0.206,0.719,0.523l0.088,0.271l0.369-1.194c0.075-0.232,0.252-0.415,0.488-0.493
			c0.076-0.025,0.154-0.037,0.237-0.037c0.158,0,0.313,0.05,0.447,0.145l2.045,1.5c0.037-0.015,0.067-0.043,0.111-0.053l1.219-0.257
			l-0.264-0.113c-0.354-0.154-0.533-0.547-0.416-0.92l1.404-4.55c0.071-0.224,0.246-0.404,0.467-0.487
			c0.081-0.029,0.172-0.046,0.258-0.046c0.144,0,0.287,0.041,0.414,0.125l3.99,2.595c0.323,0.21,0.438,0.632,0.264,0.977
			l-0.128,0.258l1.104-0.585c0.107-0.056,0.231-0.086,0.354-0.086c0.113,0,0.231,0.029,0.339,0.083
			c0.215,0.106,0.368,0.315,0.408,0.557l0.514,3.365c0.034,0.214-0.026,0.437-0.167,0.605l-2.887,3.396
			c-0.048,0.057-0.107,0.094-0.165,0.131l1.211,3.353l0.934,0.441c0.007,0,3.023,1.176,4.472,4.462
			c1.551-8.102,0.925-16.517,0.918-16.652c-0.003-0.027-0.005-0.056-0.005-0.089v-1.41l-2.136-2.132
			c-0.058,0.04-0.125,0.069-0.198,0.089l-4.299,1.164c-0.066,0.019-0.135,0.029-0.198,0.029c-0.148,0-0.295-0.047-0.423-0.131
			l-2.824-1.897c-0.204-0.135-0.326-0.36-0.334-0.607c-0.007-0.245,0.105-0.475,0.302-0.623l0.994-0.752l-0.29,0.007h-0.019
			c-0.379,0-0.697-0.278-0.749-0.651l-0.657-4.719c-0.03-0.236,0.046-0.473,0.216-0.637c0.141-0.147,0.334-0.223,0.534-0.223
			c0.032,0,0.071,0.001,0.103,0.008l4.717,0.658c0.386,0.054,0.665,0.383,0.654,0.767l-0.01,0.287l0.753-0.997
			c0.027-0.033,0.066-0.05,0.093-0.077l-0.488-2.487c-0.047-0.239,0.028-0.487,0.194-0.669c0.142-0.152,0.341-0.235,0.549-0.235
			c0.035,0,0.072,0.004,0.104,0.009l1.236,0.172l-0.209-0.199c-0.279-0.263-0.313-0.697-0.083-1.002l2.872-3.804
			C32.271,6.612,32.49,6.5,32.729,6.5 M33.988,23.218l1.487-1.487l-0.856-3.156c-0.054-0.213-0.018-0.442,0.103-0.621l0.314-0.471
			l-1.048,0.602V23.218 M31.721,23.312v-5.083l-0.891-0.508l0.154,0.231c0.125,0.181,0.16,0.408,0.101,0.623l-0.874,3.232
			L31.721,23.312 M23.463,37.793l-0.904-2.511l-3.299-0.578c-0.219-0.04-0.405-0.17-0.52-0.356l-0.143-0.238l0.122,1.453
			L23.463,37.793 M41.037,38.516l4.573-2.559l0.014-1.465l-0.125,0.25c-0.099,0.194-0.275,0.337-0.49,0.39l-3.25,0.818
			L41.037,38.516 M16.597,37.815l0.559-0.085c0.035-0.006,0.077-0.01,0.115-0.01c0.177,0,0.351,0.065,0.487,0.182l2.498,2.117
			l2.484-0.898l-4.796-2.25L16.597,37.815 M44.396,40.506l2.337-2.292c0.141-0.138,0.333-0.212,0.532-0.212h0.058l0.562,0.047
			l-1.411-0.844l-4.617,2.587L44.396,40.506 M32.729,4.5c-0.859,0-1.655,0.391-2.184,1.073l-2.888,3.825
			c-0.081,0.108-0.153,0.219-0.216,0.333c-0.473,0.137-0.906,0.398-1.245,0.761c-0.602,0.657-0.858,1.542-0.703,2.388l-3.438-0.48
			c-0.171-0.028-0.315-0.032-0.415-0.032c-0.732,0-1.439,0.295-1.948,0.809c-0.602,0.595-0.895,1.454-0.785,2.305l0.66,4.741
			c0.018,0.135,0.047,0.266,0.084,0.394c-0.234,0.424-0.356,0.908-0.341,1.404c0,0.013,0.001,0.025,0.001,0.037
			c-0.033,0.011-0.066,0.022-0.098,0.033c-0.814,0.306-1.437,0.96-1.692,1.76l-1.04,3.368c-0.491-0.341-1.036-0.512-1.601-0.512
			c-0.288,0-0.573,0.045-0.848,0.133c-0.48,0.159-0.898,0.439-1.221,0.802c-0.125,0.009-0.252,0.026-0.383,0.052l-4.681,0.99
			c-0.84,0.176-1.565,0.749-1.929,1.532c-0.368,0.788-0.341,1.711,0.072,2.472l2.207,4.193c0.064,0.119,0.136,0.232,0.215,0.34
			c-0.075,0.477-0.026,0.974,0.155,1.437c0.321,0.824,1.027,1.448,1.89,1.669l0.011,0.003l-2.054,3.155
			c-0.472,0.74-0.573,1.649-0.281,2.449c0.29,0.8,0.954,1.435,1.773,1.69l4.552,1.406c0.123,0.04,0.255,0.071,0.392,0.093
			c0.288,0.397,0.681,0.715,1.142,0.912c0.36,0.151,0.723,0.226,1.092,0.226c0.481,0,0.961-0.13,1.387-0.376l2.946-1.772
			c0.696-0.423,1.166-1.115,1.297-1.905l0.624-3.531l1.34-0.484l0.324,0.151l0.086,0.041l0.088,0.031
			c0.089,0.035,2.63,1.066,2.945,4.264c-0.968,3.321-2.287,5.833-3.924,7.47c-1.223,1.223-1.223,3.211,0,4.434
			c0.609,0.597,1.392,0.917,2.217,0.917c0.833,0,1.618-0.323,2.211-0.91c2.34-2.341,4.167-5.666,5.441-9.893
			c1.669-2.728,4.843-4.903,5.979-5.542l0.002-0.002l0.035-0.019l0.262-0.146l1.369,0.387l0.876,3.494
			c0.196,0.778,0.722,1.432,1.441,1.792l3.025,1.533c0.36,0.19,0.802,0.3,1.246,0.3c0.417,0,0.841-0.1,1.226-0.287l0.037-0.018
			l0.037-0.02c0.428-0.23,0.783-0.57,1.036-0.976c0.108-0.025,0.217-0.057,0.324-0.094l0.034-0.012l0.033-0.014l4.435-1.736
			c0.802-0.308,1.42-0.99,1.649-1.826c0.231-0.824,0.061-1.721-0.458-2.404l-2.276-3.006l0.005-0.002
			c0.841-0.266,1.51-0.942,1.771-1.806c0.146-0.472,0.161-0.968,0.053-1.436c0.065-0.104,0.124-0.214,0.176-0.327l1.927-4.391
			c0.346-0.777,0.301-1.7-0.126-2.458c-0.389-0.721-1.144-1.249-2-1.379l-4.747-0.652l-0.136-0.019h-0.098
			c-0.048-0.002-0.095-0.003-0.144-0.003h-0.025c-0.343-0.338-0.771-0.585-1.246-0.709c-0.227-0.058-0.447-0.084-0.688-0.084
			c-0.646,0-1.269,0.224-1.76,0.632l-1.274-3.267c-0.062-0.161-0.14-0.315-0.23-0.459c0.399-0.467,0.64-1.07,0.663-1.707
			c0.012-0.507-0.109-0.994-0.343-1.419c0.037-0.127,0.065-0.257,0.085-0.391l0.659-4.72c0.111-0.871-0.181-1.728-0.778-2.325
			c-0.518-0.524-1.209-0.813-1.952-0.813c-0.145,0-0.281,0.011-0.415,0.032l-3.697,0.515c0.033-0.173,0.05-0.35,0.05-0.535
			c0-1.256-0.843-2.319-1.991-2.651c-0.064-0.117-0.139-0.23-0.223-0.34l-2.867-3.796C34.41,4.909,33.588,4.5,32.729,4.5
			 M35.988,26.187l0.626-0.626l1.293,0.35c-0.096,0.075-0.187,0.156-0.271,0.242c-0.477,0.003-0.95,0.133-1.369,0.374l-0.021,0.013
			l-0.021,0.012c-0.081,0.051-0.16,0.105-0.235,0.162V26.187z M27.938,25.872l1.081-0.292l0.702,0.7v0.581
			c0,0.092,0.004,0.173,0.011,0.249l0.001,0.009c0.074,1.126,0.341,6.041-0.24,11.634c-0.859-0.687-1.694-1.146-2.315-1.394
			l0.012-0.027l-0.188-0.089l-0.519-1.439l2.284-2.688c0.519-0.621,0.742-1.421,0.62-2.207l-0.514-3.361
			C28.762,26.88,28.426,26.292,27.938,25.872 M35.761,39.278c0.157-1.531,0.256-3.005,0.312-4.374l1.811,1.846l-0.417,1.473
			l-0.172,0.097C37.295,38.319,36.683,38.649,35.761,39.278"/>
		<path style="clip-path:url(#SVGID_4_);fill:#627935;" d="M40.819,24.602c0.148,0,0.296-0.047,0.42-0.131l2.827-1.896
			c0.205-0.135,0.326-0.362,0.335-0.609c0.006-0.243-0.105-0.474-0.302-0.622l-0.994-0.753l0.283,0.01h0.024
			c0.375,0,0.696-0.28,0.749-0.653l0.659-4.717c0.03-0.238-0.048-0.474-0.216-0.638c-0.143-0.147-0.334-0.223-0.534-0.223
			c-0.038,0-0.071,0.002-0.106,0.008l-4.718,0.657c-0.383,0.053-0.662,0.382-0.651,0.767l0.005,0.286l-0.748-0.995
			c-0.085-0.105-0.197-0.179-0.317-0.232l0.449-2.28c0.018-0.065,0.023-0.129,0.023-0.2c0-0.42-0.335-0.758-0.753-0.758
			c-0.01,0-0.018,0-0.027,0.002c-0.029,0-0.063,0.003-0.091,0.008l-1.227,0.172l0.209-0.199c0.282-0.263,0.318-0.697,0.086-1.002
			L33.332,6.8c-0.142-0.187-0.363-0.3-0.604-0.3c-0.237,0-0.458,0.113-0.604,0.3l-2.872,3.804c-0.231,0.305-0.197,0.739,0.083,1.002
			l0.209,0.199l-1.237-0.173c-0.032-0.005-0.068-0.009-0.103-0.009c-0.208,0-0.407,0.083-0.55,0.236
			c-0.166,0.181-0.24,0.43-0.193,0.669l0.488,2.487c-0.027,0.026-0.067,0.044-0.094,0.077l-0.753,0.996l0.01-0.286
			c0.012-0.385-0.268-0.714-0.653-0.767l-4.717-0.659c-0.032-0.006-0.071-0.007-0.104-0.007c-0.2,0-0.392,0.076-0.534,0.223
			c-0.17,0.163-0.246,0.401-0.216,0.637l0.658,4.719c0.051,0.373,0.37,0.651,0.749,0.651h0.018l0.29-0.008l-0.994,0.753
			c-0.196,0.148-0.309,0.378-0.302,0.622c0.008,0.247,0.13,0.473,0.334,0.608l2.824,1.897c0.128,0.084,0.276,0.131,0.423,0.131
			c0.064,0,0.132-0.01,0.199-0.029l4.298-1.164c0.262-0.072,0.464-0.275,0.537-0.535l1.162-4.298
			c0.058-0.215,0.023-0.442-0.102-0.623l-0.153-0.231l1.521,0.871c0.119,0.07,0.247,0.101,0.375,0.101
			c0.133,0,0.261-0.031,0.38-0.101l1.93-1.109l-0.314,0.471c-0.12,0.179-0.156,0.408-0.103,0.621l1.168,4.298
			c0.071,0.262,0.272,0.464,0.53,0.535l4.305,1.164C40.688,24.592,40.752,24.602,40.819,24.602"/>
		<path style="clip-path:url(#SVGID_4_);fill:#4D642E;" d="M32.729,6.5c0.24,0,0.462,0.112,0.604,0.3l2.873,3.804
			c0.232,0.304,0.196,0.739-0.086,1.001l-0.209,0.2l1.227-0.172c0.027-0.005,0.062-0.008,0.091-0.008
			c0.01-0.002,0.018-0.002,0.027-0.002c0.418,0,0.754,0.338,0.754,0.758c0,0.07-0.007,0.135-0.024,0.199l-0.449,2.28
			c0.12,0.053,0.232,0.127,0.317,0.233l0.748,0.995l-0.005-0.286c-0.011-0.385,0.269-0.714,0.651-0.768l4.719-0.656
			c0.033-0.007,0.067-0.009,0.105-0.009c0.2,0,0.392,0.076,0.534,0.224c0.168,0.164,0.246,0.399,0.216,0.637l-0.659,4.717
			c-0.053,0.373-0.374,0.654-0.749,0.654h-0.024l-0.283-0.01l0.994,0.753c0.196,0.147,0.308,0.379,0.302,0.622
			c-0.009,0.247-0.13,0.473-0.335,0.608l-2.827,1.897c-0.124,0.084-0.271,0.131-0.42,0.131c-0.067,0-0.131-0.01-0.197-0.03
			l-4.305-1.164c-0.258-0.07-0.459-0.272-0.53-0.534l-1.168-4.299c-0.054-0.213-0.018-0.441,0.103-0.621l0.314-0.471l-1.93,1.11
			c-0.119,0.069-0.247,0.1-0.38,0.1c-0.128,0-0.256-0.031-0.375-0.1l-1.521-0.871l0.153,0.23c0.125,0.182,0.16,0.408,0.101,0.623
			l-1.162,4.299c-0.072,0.26-0.274,0.463-0.536,0.534l-4.299,1.164c-0.066,0.02-0.134,0.03-0.198,0.03
			c-0.147,0-0.295-0.047-0.423-0.131l-2.824-1.898c-0.204-0.135-0.326-0.36-0.334-0.607c-0.007-0.244,0.106-0.475,0.302-0.622
			l0.994-0.753l-0.29,0.008h-0.019c-0.379,0-0.697-0.279-0.749-0.652l-0.657-4.718c-0.03-0.237,0.046-0.474,0.216-0.637
			c0.142-0.148,0.334-0.224,0.534-0.224c0.032,0,0.071,0.001,0.104,0.008l4.716,0.658c0.386,0.054,0.665,0.383,0.654,0.768
			l-0.01,0.286l0.753-0.996c0.027-0.033,0.066-0.051,0.094-0.077l-0.489-2.488c-0.046-0.239,0.028-0.487,0.194-0.669
			c0.142-0.152,0.342-0.235,0.55-0.235c0.035,0,0.071,0.004,0.103,0.009l1.236,0.173l-0.209-0.2
			c-0.279-0.262-0.313-0.697-0.083-1.001L32.124,6.8C32.271,6.612,32.491,6.5,32.729,6.5 M32.729,5.5
			c-0.547,0-1.055,0.25-1.394,0.687l-2.879,3.814c-0.145,0.191-0.246,0.403-0.301,0.623c-0.467,0.014-0.912,0.213-1.23,0.551
			c-0.387,0.425-0.55,0.999-0.444,1.545l0.266,1.35c-0.049-0.01-0.098-0.019-0.149-0.026l-4.695-0.655
			c-0.106-0.019-0.199-0.021-0.263-0.021c-0.48,0-0.927,0.189-1.256,0.531c-0.364,0.349-0.556,0.904-0.486,1.456l0.659,4.73
			c0.033,0.238,0.113,0.46,0.232,0.656c-0.316,0.334-0.493,0.785-0.48,1.253c0.019,0.575,0.311,1.102,0.783,1.414l2.818,1.893
			c0.302,0.199,0.638,0.301,0.98,0.301c0.161,0,0.323-0.024,0.481-0.071l4.278-1.158c0.598-0.162,1.072-0.635,1.238-1.231
			l0.991-3.668c0.254,0.142,0.549,0.219,0.849,0.219c0.316,0,0.613-0.079,0.883-0.236l0.185-0.106l1.028,3.785
			c0.163,0.6,0.635,1.074,1.232,1.237l4.307,1.164c0.138,0.042,0.295,0.065,0.458,0.065c0.349,0,0.688-0.105,0.98-0.303l2.823-1.895
			c0.464-0.303,0.758-0.831,0.777-1.403c0.012-0.475-0.164-0.926-0.479-1.26c0.117-0.196,0.198-0.417,0.231-0.654l0.659-4.718
			c0.071-0.559-0.119-1.112-0.507-1.492c-0.31-0.32-0.755-0.508-1.233-0.508c-0.095,0-0.179,0.007-0.265,0.022l-4.697,0.653
			c-0.146,0.02-0.285,0.058-0.416,0.11l0.267-1.353c0.033-0.134,0.049-0.272,0.049-0.42c0-0.952-0.76-1.731-1.703-1.757
			c-0.058-0.221-0.158-0.435-0.307-0.627l-2.869-3.8C33.801,5.761,33.276,5.5,32.729,5.5"/>
		<path style="clip-path:url(#SVGID_4_);fill:#627935;" d="M53.772,36.154c0.292,0,0.565-0.174,0.692-0.452l1.914-4.364
			c0.096-0.215,0.082-0.464-0.036-0.672c-0.112-0.208-0.319-0.347-0.558-0.383l-4.72-0.649c-0.032,0-0.066-0.003-0.104-0.003
			c-0.34,0-0.646,0.23-0.731,0.569l-0.071,0.28l-0.452-1.164c-0.091-0.23-0.284-0.397-0.521-0.459
			c-0.062-0.015-0.125-0.019-0.184-0.019c-0.18,0-0.352,0.058-0.491,0.178l-1.934,1.643c-0.039-0.013-0.069-0.037-0.111-0.043
			l-1.239-0.173l0.253-0.131c0.342-0.179,0.494-0.586,0.356-0.945l-1.731-4.438c-0.086-0.222-0.274-0.387-0.5-0.454
			c-0.069-0.019-0.136-0.026-0.206-0.026c-0.165,0-0.322,0.054-0.459,0.154l-3.792,2.877c-0.308,0.233-0.394,0.66-0.196,0.991
			l0.147,0.246l-1.142-0.5c-0.098-0.042-0.201-0.065-0.304-0.065c-0.134,0-0.267,0.037-0.387,0.106
			c-0.211,0.129-0.348,0.344-0.363,0.588l-0.276,3.393c-0.02,0.221,0.061,0.433,0.214,0.59l3.119,3.183
			c0.143,0.147,0.338,0.23,0.539,0.23c0.062,0,0.127-0.008,0.188-0.026l4.322-1.083c0.215-0.054,0.392-0.196,0.49-0.391l0.125-0.25
			l-0.017,1.755c-0.003,0.266,0.137,0.518,0.365,0.658l1.912,1.144l-0.562-0.047h-0.058c-0.199,0-0.392,0.074-0.532,0.212
			l-3.184,3.124c-0.191,0.187-0.269,0.461-0.205,0.722l1.085,4.322c0.054,0.214,0.197,0.391,0.396,0.49l3.035,1.538
			c0.104,0.055,0.224,0.084,0.342,0.084c0.117,0,0.24-0.031,0.351-0.085c0.214-0.115,0.362-0.327,0.399-0.569l0.167-1.235
			l0.136,0.254c0.133,0.257,0.396,0.406,0.669,0.406c0.091,0,0.183-0.019,0.277-0.052l4.436-1.736
			c0.219-0.084,0.389-0.268,0.449-0.499c0.066-0.226,0.021-0.471-0.122-0.658l-2.877-3.799c-0.147-0.193-0.376-0.299-0.604-0.299
			c-0.133,0-0.268,0.033-0.387,0.107l-0.246,0.147l0.5-1.144c0.052-0.126,0.062-0.258,0.05-0.388l2.259-0.744
			c0.231-0.073,0.416-0.256,0.485-0.493c0.074-0.231,0.031-0.486-0.117-0.681l-0.756-0.994l0.273,0.084
			C53.621,36.144,53.694,36.154,53.772,36.154"/>
		<path style="clip-path:url(#SVGID_4_);fill:#4D642E;" d="M43.398,24.449c0.07,0,0.137,0.007,0.206,0.026
			c0.226,0.067,0.414,0.232,0.5,0.454l1.73,4.438c0.139,0.359-0.014,0.766-0.355,0.945l-0.253,0.131l1.239,0.173
			c0.042,0.006,0.072,0.03,0.111,0.043l1.934-1.643c0.14-0.12,0.312-0.178,0.491-0.178c0.059,0,0.122,0.004,0.184,0.019
			c0.236,0.062,0.43,0.229,0.521,0.459l0.452,1.164l0.071-0.28c0.085-0.339,0.392-0.569,0.73-0.569c0.039,0,0.073,0.004,0.105,0.004
			l4.72,0.648c0.238,0.036,0.445,0.175,0.558,0.383c0.117,0.208,0.132,0.457,0.035,0.672l-1.913,4.364
			c-0.128,0.278-0.4,0.452-0.692,0.452c-0.078,0-0.151-0.011-0.229-0.037l-0.272-0.084l0.756,0.994
			c0.148,0.194,0.191,0.449,0.117,0.681c-0.069,0.237-0.254,0.42-0.485,0.493l-2.259,0.744c0.013,0.13,0.002,0.262-0.05,0.388
			l-0.5,1.144l0.246-0.147c0.119-0.074,0.254-0.107,0.387-0.107c0.229,0,0.457,0.105,0.604,0.299l2.878,3.799
			c0.143,0.188,0.188,0.433,0.122,0.658c-0.061,0.231-0.23,0.415-0.449,0.499l-4.436,1.736c-0.095,0.033-0.187,0.052-0.277,0.052
			c-0.272,0-0.536-0.149-0.669-0.406l-0.136-0.254l-0.167,1.235c-0.037,0.242-0.186,0.454-0.399,0.569
			c-0.11,0.054-0.233,0.085-0.351,0.085c-0.119,0-0.238-0.029-0.342-0.084l-3.035-1.538c-0.199-0.1-0.342-0.277-0.396-0.49
			l-1.085-4.322c-0.063-0.261,0.014-0.535,0.205-0.722l3.184-3.124c0.141-0.138,0.333-0.212,0.532-0.212h0.058l0.562,0.047
			l-1.912-1.144c-0.229-0.141-0.368-0.394-0.365-0.658l0.017-1.755l-0.125,0.25c-0.099,0.194-0.275,0.337-0.49,0.391l-4.322,1.083
			c-0.062,0.019-0.125,0.026-0.188,0.026c-0.201,0-0.396-0.083-0.539-0.23l-3.119-3.183c-0.153-0.157-0.233-0.369-0.215-0.59
			l0.277-3.393c0.016-0.244,0.152-0.459,0.363-0.587c0.12-0.07,0.253-0.107,0.387-0.107c0.103,0,0.206,0.023,0.304,0.065
			l1.142,0.501l-0.147-0.247c-0.198-0.331-0.111-0.758,0.196-0.991l3.792-2.877C43.076,24.503,43.233,24.449,43.398,24.449
			 M43.398,23.449c-0.378,0-0.741,0.121-1.052,0.349l-3.804,2.885c-0.193,0.147-0.348,0.325-0.463,0.523
			c-0.141-0.036-0.283-0.054-0.427-0.054c-0.308,0-0.614,0.083-0.887,0.24c-0.511,0.313-0.825,0.828-0.861,1.391l-0.277,3.375
			c-0.042,0.503,0.14,1.003,0.497,1.369l3.121,3.185c0.324,0.335,0.782,0.53,1.253,0.53c0.164,0,0.324-0.023,0.477-0.069
			l3.632-0.909c0.003,0.604,0.323,1.175,0.841,1.493l0.201,0.12l-2.8,2.747c-0.439,0.429-0.623,1.07-0.477,1.672l1.087,4.329
			c0.124,0.496,0.459,0.912,0.917,1.142l3.031,1.535c0.232,0.123,0.511,0.192,0.794,0.192c0.266,0,0.538-0.064,0.788-0.186
			c0.436-0.234,0.745-0.609,0.886-1.045c0.017,0.001,0.032,0.001,0.048,0.001c0.199,0,0.403-0.036,0.608-0.108l4.469-1.748
			c0.517-0.198,0.911-0.64,1.053-1.178c0.147-0.499,0.04-1.077-0.294-1.517l-2.876-3.797c-0.089-0.116-0.189-0.219-0.302-0.309
			l1.389-0.457c0.543-0.172,0.971-0.608,1.133-1.163c0.138-0.428,0.092-0.909-0.123-1.318c0.162-0.154,0.298-0.341,0.395-0.553
			l1.919-4.378c0.222-0.495,0.192-1.081-0.08-1.564c-0.249-0.462-0.73-0.797-1.278-0.88l-4.734-0.651l-0.067-0.009h-0.068
			c-0.027-0.002-0.065-0.004-0.105-0.004c-0.155,0-0.308,0.02-0.452,0.059c-0.237-0.393-0.621-0.683-1.07-0.801
			c-0.139-0.035-0.279-0.051-0.436-0.051c-0.422,0-0.828,0.149-1.144,0.421l-1.044,0.886c-0.014-0.047-0.029-0.092-0.047-0.138
			l-1.731-4.441c-0.193-0.502-0.624-0.895-1.149-1.05C43.723,23.47,43.567,23.449,43.398,23.449"/>
		<path style="clip-path:url(#SVGID_4_);fill:#627935;" d="M26.487,27.293c-0.107-0.054-0.226-0.083-0.339-0.083
			c-0.123,0-0.247,0.03-0.353,0.086l-1.105,0.585l0.128-0.258c0.175-0.345,0.06-0.767-0.264-0.976l-3.99-2.595
			c-0.127-0.084-0.269-0.125-0.414-0.125c-0.086,0-0.177,0.016-0.258,0.046c-0.22,0.083-0.395,0.262-0.467,0.486l-1.404,4.551
			c-0.117,0.372,0.063,0.765,0.416,0.92l0.265,0.112l-1.22,0.258c-0.044,0.01-0.073,0.037-0.11,0.053l-2.045-1.5
			c-0.135-0.096-0.289-0.146-0.447-0.146c-0.083,0-0.162,0.013-0.238,0.037c-0.235,0.078-0.413,0.261-0.488,0.493l-0.368,1.195
			l-0.089-0.272c-0.104-0.316-0.398-0.522-0.719-0.522c-0.054,0-0.105,0.007-0.159,0.017l-4.658,0.987
			c-0.235,0.048-0.431,0.204-0.531,0.42c-0.101,0.215-0.095,0.465,0.017,0.672l2.219,4.216c0.138,0.255,0.395,0.403,0.672,0.403
			c0.091,0,0.184-0.019,0.273-0.053l0.27-0.105l-0.68,1.046c-0.136,0.206-0.16,0.462-0.071,0.689
			c0.088,0.226,0.282,0.397,0.522,0.459l2.305,0.572c-0.005,0.136,0.017,0.266,0.081,0.384l0.58,1.105l-0.258-0.129
			c-0.11-0.055-0.223-0.08-0.339-0.08c-0.25,0-0.491,0.121-0.633,0.345l-2.599,3.99c-0.127,0.199-0.159,0.446-0.077,0.671
			c0.081,0.225,0.261,0.396,0.489,0.468l4.546,1.404c0.078,0.026,0.151,0.037,0.227,0.037c0.293,0,0.568-0.174,0.693-0.454
			l0.117-0.265l0.254,1.224c0.051,0.238,0.216,0.439,0.441,0.536c0.098,0.041,0.2,0.063,0.304,0.063
			c0.133,0,0.268-0.039,0.388-0.108l2.914-1.754c0.186-0.113,0.319-0.301,0.355-0.519l0.776-4.391
			c0.047-0.26-0.051-0.533-0.257-0.704l-3.401-2.884c-0.136-0.116-0.311-0.182-0.488-0.182c-0.038,0-0.08,0.004-0.115,0.011
			l-0.559,0.084l1.827-1.276c0.217-0.154,0.34-0.415,0.318-0.68l-0.145-1.75l0.143,0.238c0.115,0.187,0.302,0.316,0.52,0.356
			l4.391,0.77c0.042,0.008,0.086,0.013,0.128,0.013c0.223,0,0.43-0.096,0.577-0.27l2.888-3.397c0.14-0.168,0.2-0.39,0.167-0.604
			l-0.515-3.365C26.855,27.608,26.703,27.399,26.487,27.293"/>
		<path style="clip-path:url(#SVGID_4_);fill:#4D642E;" d="M20.15,23.927c0.145,0,0.287,0.041,0.414,0.125l3.99,2.595
			c0.324,0.21,0.439,0.632,0.264,0.976l-0.128,0.258l1.105-0.585c0.106-0.056,0.23-0.086,0.353-0.086
			c0.113,0,0.231,0.029,0.339,0.083c0.216,0.107,0.368,0.316,0.408,0.558l0.515,3.365c0.033,0.214-0.027,0.437-0.167,0.605
			l-2.888,3.396c-0.147,0.174-0.354,0.27-0.577,0.27c-0.042,0-0.086-0.005-0.128-0.013l-4.391-0.77
			c-0.218-0.04-0.405-0.17-0.52-0.356l-0.143-0.238l0.145,1.75c0.022,0.265-0.101,0.525-0.319,0.68l-1.826,1.276l0.559-0.085
			c0.035-0.006,0.077-0.01,0.115-0.01c0.177,0,0.352,0.065,0.487,0.182l3.402,2.884c0.206,0.171,0.303,0.443,0.257,0.704
			l-0.776,4.391c-0.036,0.218-0.169,0.405-0.355,0.519l-2.914,1.754c-0.12,0.069-0.255,0.108-0.388,0.108
			c-0.104,0-0.206-0.022-0.304-0.063c-0.225-0.097-0.39-0.298-0.441-0.536l-0.254-1.225l-0.117,0.266
			c-0.125,0.28-0.4,0.454-0.693,0.454c-0.076,0-0.149-0.012-0.227-0.037l-4.546-1.404c-0.229-0.071-0.408-0.243-0.489-0.468
			c-0.082-0.225-0.05-0.472,0.077-0.671l2.599-3.99c0.142-0.223,0.383-0.345,0.633-0.345c0.116,0,0.229,0.025,0.339,0.081
			l0.258,0.128l-0.58-1.105c-0.064-0.118-0.086-0.248-0.081-0.384l-2.305-0.572c-0.24-0.062-0.434-0.233-0.522-0.459
			c-0.089-0.228-0.065-0.482,0.071-0.689l0.68-1.046l-0.27,0.105c-0.089,0.034-0.182,0.053-0.273,0.053
			c-0.277,0-0.534-0.148-0.672-0.403l-2.219-4.215c-0.112-0.207-0.118-0.457-0.018-0.673c0.101-0.216,0.297-0.371,0.532-0.42
			l4.658-0.986c0.054-0.011,0.105-0.018,0.159-0.018c0.32,0,0.615,0.206,0.719,0.522l0.089,0.272l0.368-1.194
			c0.075-0.233,0.253-0.415,0.488-0.494c0.076-0.024,0.154-0.037,0.237-0.037c0.159,0,0.313,0.05,0.448,0.146l2.045,1.5
			c0.037-0.016,0.066-0.043,0.11-0.053l1.22-0.258l-0.265-0.112c-0.353-0.154-0.533-0.548-0.416-0.92l1.404-4.551
			c0.072-0.223,0.246-0.403,0.467-0.486C19.974,23.944,20.064,23.927,20.15,23.927 M20.15,22.927c-0.2,0-0.407,0.036-0.598,0.105
			c-0.517,0.195-0.917,0.614-1.08,1.124l-1.406,4.559c-0.016,0.048-0.028,0.096-0.039,0.145l-1.108-0.814
			c-0.318-0.224-0.672-0.339-1.04-0.339c-0.184,0-0.367,0.029-0.541,0.085c-0.451,0.15-0.817,0.468-1.028,0.877
			c-0.107-0.02-0.219-0.031-0.332-0.031c-0.115,0-0.23,0.012-0.355,0.037l-4.669,0.988c-0.537,0.113-0.998,0.478-1.231,0.976
			c-0.233,0.502-0.217,1.09,0.045,1.572l2.213,4.205c0.114,0.211,0.265,0.393,0.442,0.538c-0.183,0.419-0.196,0.903-0.025,1.341
			c0.205,0.524,0.655,0.923,1.206,1.063l1.421,0.353c-0.105,0.1-0.2,0.213-0.281,0.339l-2.593,3.981
			c-0.3,0.471-0.364,1.051-0.179,1.56c0.188,0.52,0.6,0.914,1.131,1.08l4.549,1.404c0.164,0.054,0.34,0.082,0.522,0.082
			c0.058,0,0.115-0.002,0.17-0.009c0.172,0.434,0.509,0.783,0.942,0.969c0.229,0.097,0.462,0.145,0.697,0.145
			c0.306,0,0.613-0.084,0.888-0.242l2.929-1.764c0.444-0.268,0.744-0.71,0.827-1.211l0.773-4.381
			c0.111-0.614-0.12-1.247-0.603-1.647l-2.984-2.53l0.183-0.128c0.504-0.356,0.785-0.949,0.744-1.555l3.737,0.655
			c0.092,0.017,0.198,0.027,0.301,0.027c0.516,0,1.004-0.227,1.34-0.622l2.886-3.396c0.331-0.394,0.472-0.903,0.394-1.405
			l-0.515-3.364c-0.094-0.572-0.45-1.054-0.954-1.302c-0.242-0.121-0.513-0.187-0.781-0.187c-0.186,0-0.373,0.03-0.549,0.087
			c-0.129-0.189-0.297-0.356-0.5-0.489l-3.99-2.594C20.829,23.028,20.495,22.927,20.15,22.927"/>
		<path style="clip-path:url(#SVGID_4_);fill:#4D642E;" d="M30.286,12.989c-0.115,0-0.231-0.04-0.326-0.121l-1.764-1.515
			c-0.209-0.179-0.233-0.495-0.053-0.705c0.18-0.208,0.496-0.231,0.706-0.053l1.763,1.515c0.209,0.18,0.234,0.495,0.053,0.705
			C30.566,12.929,30.427,12.989,30.286,12.989"/>
		<path style="clip-path:url(#SVGID_4_);fill:#4D642E;" d="M31.676,10.088c-0.173,0-0.342-0.091-0.435-0.252L30.233,8.07
			c-0.137-0.24-0.054-0.545,0.186-0.682c0.236-0.134,0.544-0.055,0.683,0.186L32.11,9.34c0.137,0.24,0.054,0.545-0.187,0.683
			C31.846,10.067,31.761,10.088,31.676,10.088"/>
		<path style="clip-path:url(#SVGID_4_);fill:#4D642E;" d="M33.691,9.837c-0.111,0-0.224-0.037-0.316-0.113
			c-0.214-0.175-0.245-0.49-0.07-0.703l1.134-1.387c0.175-0.215,0.49-0.245,0.703-0.07c0.214,0.174,0.245,0.489,0.07,0.703
			l-1.134,1.386C33.979,9.775,33.836,9.837,33.691,9.837"/>
		<path style="clip-path:url(#SVGID_4_);fill:#4D642E;" d="M34.953,13.113c-0.147,0-0.295-0.065-0.394-0.191
			c-0.17-0.217-0.133-0.532,0.085-0.703l1.764-1.385c0.214-0.169,0.531-0.134,0.702,0.085c0.17,0.216,0.133,0.531-0.085,0.702
			l-1.764,1.386C35.171,13.078,35.062,13.113,34.953,13.113"/>
		<path style="clip-path:url(#SVGID_4_);fill:#4D642E;" d="M23.983,16.015c-0.201,0-0.391-0.122-0.467-0.32l-0.63-1.639
			c-0.098-0.258,0.03-0.547,0.287-0.646c0.262-0.099,0.548,0.03,0.647,0.287l0.63,1.638c0.098,0.258-0.03,0.547-0.287,0.647
			C24.104,16.003,24.043,16.015,23.983,16.015"/>
		<path style="clip-path:url(#SVGID_4_);fill:#4D642E;" d="M23.479,18.786h-2.773c-0.277,0-0.5-0.224-0.5-0.5s0.223-0.5,0.5-0.5
			h2.773c0.276,0,0.5,0.224,0.5,0.5S23.754,18.786,23.479,18.786"/>
		<path style="clip-path:url(#SVGID_4_);fill:#4D642E;" d="M21.588,21.312c-0.225,0-0.429-0.151-0.485-0.379
			c-0.067-0.267,0.095-0.539,0.364-0.606l2.018-0.505c0.262-0.067,0.54,0.095,0.607,0.364c0.066,0.268-0.096,0.539-0.364,0.606
			l-2.019,0.505C21.669,21.307,21.628,21.312,21.588,21.312"/>
		<path style="clip-path:url(#SVGID_4_);fill:#4D642E;" d="M38.734,17.782c-0.246,0-0.461-0.183-0.494-0.434l-0.253-1.891
			c-0.037-0.274,0.155-0.526,0.429-0.562c0.269-0.051,0.525,0.155,0.562,0.429l0.253,1.892c0.037,0.273-0.155,0.525-0.429,0.561
			C38.779,17.781,38.757,17.782,38.734,17.782"/>
		<path style="clip-path:url(#SVGID_4_);fill:#4D642E;" d="M43.905,21.184c-0.033,0-0.065-0.003-0.099-0.01l-1.891-0.377
			c-0.271-0.053-0.446-0.317-0.393-0.588c0.054-0.272,0.321-0.446,0.588-0.392l1.891,0.377c0.271,0.053,0.446,0.317,0.393,0.588
			C44.348,21.02,44.139,21.184,43.905,21.184"/>
		<path style="clip-path:url(#SVGID_4_);fill:#4D642E;" d="M42.39,16.268c-0.276,0-0.5-0.224-0.5-0.5V14.38
			c0-0.276,0.224-0.5,0.5-0.5s0.5,0.224,0.5,0.5v1.387C42.89,16.043,42.666,16.268,42.39,16.268"/>
		<path style="clip-path:url(#SVGID_4_);fill:#4D642E;" d="M43.397,17.529c-0.258,0-0.478-0.199-0.497-0.461
			c-0.021-0.275,0.185-0.516,0.459-0.537l1.64-0.128c0.272-0.035,0.517,0.184,0.537,0.459c0.021,0.275-0.184,0.516-0.459,0.537
			l-1.64,0.128C43.424,17.529,43.411,17.529,43.397,17.529"/>
		<path style="clip-path:url(#SVGID_4_);fill:#4D642E;" d="M26.886,17.401c-0.02,0-0.039-0.001-0.06-0.003
			c-0.273-0.032-0.469-0.281-0.438-0.556l0.251-2.144c0.032-0.274,0.272-0.464,0.556-0.439c0.273,0.033,0.469,0.282,0.438,0.556
			l-0.251,2.145C27.352,17.214,27.136,17.401,26.886,17.401"/>
		<path style="clip-path:url(#SVGID_4_);fill:#4D642E;" d="M31.171,18.786c-0.131,0-0.262-0.051-0.359-0.152l-3.53-3.653
			c-0.192-0.199-0.186-0.515,0.012-0.707c0.2-0.191,0.517-0.186,0.707,0.012l3.529,3.652c0.193,0.2,0.187,0.516-0.011,0.707
			C31.421,18.739,31.296,18.786,31.171,18.786"/>
		<path style="clip-path:url(#SVGID_4_);fill:#4D642E;" d="M34.449,18.663c-0.125,0-0.25-0.047-0.347-0.14
			c-0.199-0.192-0.205-0.508-0.014-0.707l3.403-3.529c0.193-0.2,0.51-0.203,0.707-0.014c0.199,0.193,0.205,0.509,0.014,0.707
			l-3.403,3.53C34.711,18.612,34.58,18.663,34.449,18.663"/>
		<path style="clip-path:url(#SVGID_4_);fill:#4D642E;" d="M19.19,36.188c-0.217,0-0.416-0.142-0.48-0.36l-1.762-6.053
			c-0.077-0.265,0.075-0.543,0.341-0.62c0.267-0.078,0.542,0.075,0.62,0.341l1.761,6.052c0.078,0.265-0.075,0.543-0.34,0.62
			C19.283,36.182,19.236,36.188,19.19,36.188"/>
		<path style="clip-path:url(#SVGID_4_);fill:#4D642E;" d="M12.255,39.594c-0.219,0-0.42-0.146-0.481-0.365
			c-0.075-0.267,0.081-0.542,0.346-0.616l5.426-1.516c0.267-0.077,0.542,0.081,0.616,0.347c0.074,0.267-0.081,0.542-0.346,0.616
			l-5.426,1.515C12.345,39.588,12.299,39.594,12.255,39.594"/>
		<path style="clip-path:url(#SVGID_4_);fill:#4D642E;" d="M45.419,35.936c-0.041,0-0.082-0.005-0.124-0.016
			c-0.268-0.068-0.429-0.341-0.36-0.608l1.386-5.422c0.068-0.266,0.34-0.428,0.608-0.36c0.268,0.068,0.428,0.341,0.36,0.608
			l-1.386,5.422C45.846,35.785,45.643,35.936,45.419,35.936"/>
		<path style="clip-path:url(#SVGID_4_);fill:#4D642E;" d="M52.227,39.594c-0.037,0-0.075-0.004-0.113-0.013l-5.422-1.263
			c-0.27-0.062-0.437-0.332-0.374-0.601s0.331-0.437,0.601-0.374l5.422,1.263c0.27,0.062,0.437,0.332,0.374,0.601
			C52.66,39.438,52.455,39.594,52.227,39.594"/>
		<path style="clip-path:url(#SVGID_4_);fill:#4D642E;" d="M53.107,31.647c-0.08,0-0.162-0.02-0.237-0.06
			c-0.243-0.13-0.334-0.434-0.203-0.677l0.882-1.638c0.132-0.242,0.436-0.331,0.678-0.203c0.243,0.131,0.334,0.434,0.203,0.678
			l-0.882,1.637C53.457,31.551,53.285,31.647,53.107,31.647"/>
		<path style="clip-path:url(#SVGID_4_);fill:#4D642E;" d="M55.634,33.792c-0.023,0-0.048-0.002-0.071-0.005l-1.769-0.253
			c-0.273-0.039-0.464-0.293-0.425-0.565c0.039-0.275,0.308-0.46,0.565-0.425l1.769,0.253c0.273,0.039,0.464,0.293,0.425,0.565
			C56.092,33.612,55.878,33.792,55.634,33.792"/>
		<path style="clip-path:url(#SVGID_4_);fill:#4D642E;" d="M42.518,27.865c-0.147,0-0.295-0.065-0.394-0.191l-1.387-1.766
			c-0.17-0.217-0.133-0.531,0.085-0.702c0.217-0.169,0.531-0.134,0.702,0.085l1.387,1.765c0.17,0.217,0.133,0.532-0.085,0.703
			C42.734,27.83,42.626,27.865,42.518,27.865"/>
		<path style="clip-path:url(#SVGID_4_);fill:#4D642E;" d="M44.028,27.992c-0.152,0-0.303-0.069-0.4-0.201
			c-0.165-0.221-0.121-0.534,0.102-0.699l1.01-0.754c0.221-0.166,0.534-0.121,0.699,0.101c0.165,0.221,0.12,0.534-0.102,0.699
			l-1.01,0.754C44.237,27.96,44.132,27.992,44.028,27.992"/>
		<path style="clip-path:url(#SVGID_4_);fill:#4D642E;" d="M20.577,27.742c-0.059,0-0.118-0.01-0.176-0.032l-2.014-0.758
			c-0.259-0.097-0.39-0.386-0.292-0.644c0.096-0.259,0.385-0.392,0.643-0.292l2.015,0.758c0.259,0.097,0.389,0.386,0.292,0.644
			C20.97,27.619,20.779,27.742,20.577,27.742"/>
		<path style="clip-path:url(#SVGID_4_);fill:#4D642E;" d="M9.861,32.153c-0.236,0-0.447-0.169-0.491-0.411l-0.251-1.387
			c-0.049-0.271,0.132-0.531,0.403-0.581c0.265-0.042,0.531,0.13,0.581,0.403l0.251,1.387c0.049,0.272-0.132,0.531-0.403,0.581
			C9.921,32.15,9.891,32.153,9.861,32.153"/>
		<path style="clip-path:url(#SVGID_4_);fill:#4D642E;" d="M8.854,34.803c-0.198,0-0.386-0.118-0.464-0.314
			c-0.102-0.256,0.022-0.547,0.278-0.649l1.891-0.758c0.252-0.103,0.547,0.021,0.649,0.278c0.103,0.256-0.021,0.547-0.278,0.649
			l-1.89,0.758C8.979,34.791,8.917,34.803,8.854,34.803"/>
		<path style="clip-path:url(#SVGID_4_);fill:#4D642E;" d="M13.141,43.881c-0.102,0-0.203-0.03-0.291-0.094l-1.766-1.263
			c-0.224-0.16-0.276-0.473-0.115-0.697c0.16-0.228,0.475-0.275,0.697-0.115l1.766,1.263c0.225,0.16,0.276,0.473,0.115,0.697
			C13.451,43.809,13.295,43.881,13.141,43.881"/>
		<path style="clip-path:url(#SVGID_4_);fill:#4D642E;" d="M12.384,47.158c-0.088,0-0.177-0.022-0.257-0.071
			c-0.237-0.142-0.314-0.45-0.172-0.686l0.757-1.263c0.143-0.237,0.45-0.315,0.686-0.172c0.237,0.142,0.314,0.449,0.172,0.686
			l-0.757,1.263C12.719,47.071,12.554,47.158,12.384,47.158"/>
		<path style="clip-path:url(#SVGID_4_);fill:#4D642E;" d="M51.848,43.247c-0.188,0-0.37-0.107-0.454-0.291
			c-0.115-0.25-0.006-0.547,0.245-0.663l1.641-0.757c0.249-0.115,0.548-0.007,0.663,0.245c0.115,0.25,0.006,0.547-0.245,0.663
			l-1.641,0.757C51.989,43.232,51.918,43.247,51.848,43.247"/>
		<path style="clip-path:url(#SVGID_4_);fill:#4D642E;" d="M52.227,47.411c-0.276,0-0.5-0.224-0.5-0.5v-1.139
			c0-0.276,0.224-0.5,0.5-0.5s0.5,0.224,0.5,0.5v1.139C52.727,47.188,52.503,47.411,52.227,47.411"/>
		<path style="clip-path:url(#SVGID_4_);fill:#4D642E;" d="M14.274,32.027c-0.222,0-0.424-0.147-0.483-0.371l-0.504-1.893
			c-0.072-0.267,0.088-0.541,0.354-0.612c0.271-0.072,0.541,0.089,0.612,0.355l0.504,1.892c0.072,0.268-0.087,0.541-0.354,0.612
			C14.36,32.022,14.316,32.027,14.274,32.027"/>
		<path style="clip-path:url(#SVGID_4_);fill:#4D642E;" d="M10.364,37.321c-0.169,0-0.335-0.087-0.429-0.243
			c-0.142-0.235-0.065-0.544,0.172-0.686l1.891-1.135c0.234-0.141,0.543-0.064,0.685,0.173c0.143,0.236,0.066,0.544-0.172,0.686
			l-1.89,1.134C10.542,37.299,10.452,37.321,10.364,37.321"/>
		<path style="clip-path:url(#SVGID_4_);fill:#4D642E;" d="M15.032,41.988c-0.115,0-0.23-0.039-0.325-0.12l-1.767-1.513
			c-0.21-0.179-0.234-0.495-0.054-0.705s0.495-0.233,0.705-0.055l1.766,1.513c0.21,0.18,0.235,0.495,0.055,0.705
			C15.313,41.929,15.173,41.988,15.032,41.988"/>
		<path style="clip-path:url(#SVGID_4_);fill:#4D642E;" d="M15.915,47.787c-0.035,0-0.07-0.004-0.105-0.011
			c-0.27-0.058-0.443-0.323-0.385-0.594l0.376-1.766c0.057-0.27,0.329-0.436,0.593-0.385c0.27,0.058,0.443,0.323,0.385,0.594
			l-0.376,1.765C16.353,47.626,16.145,47.787,15.915,47.787"/>
		<path style="clip-path:url(#SVGID_4_);fill:#4D642E;" d="M49.324,48.291c-0.233,0-0.442-0.164-0.489-0.402l-0.377-1.891
			c-0.054-0.271,0.122-0.534,0.393-0.588c0.266-0.054,0.534,0.12,0.588,0.393l0.377,1.891c0.054,0.271-0.122,0.534-0.393,0.588
			C49.39,48.288,49.357,48.291,49.324,48.291"/>
		<path style="clip-path:url(#SVGID_4_);fill:#4D642E;" d="M49.829,41.484c-0.188,0-0.369-0.107-0.454-0.291
			c-0.115-0.25-0.006-0.547,0.245-0.663l1.653-0.763c0.247-0.115,0.547-0.007,0.663,0.245c0.115,0.25,0.006,0.547-0.245,0.663
			l-1.653,0.763C49.971,41.47,49.899,41.484,49.829,41.484"/>
		<path style="clip-path:url(#SVGID_4_);fill:#4D642E;" d="M54.117,36.693c-0.085,0-0.17-0.021-0.248-0.066l-1.768-1.011
			c-0.24-0.137-0.323-0.442-0.186-0.682c0.137-0.24,0.444-0.323,0.682-0.186l1.768,1.011c0.24,0.137,0.323,0.442,0.186,0.682
			C54.459,36.603,54.29,36.693,54.117,36.693"/>
		<path style="clip-path:url(#SVGID_4_);fill:#4D642E;" d="M49.706,32.405c-0.276,0-0.5-0.224-0.5-0.5v-2.589
			c0-0.276,0.224-0.5,0.5-0.5s0.5,0.224,0.5,0.5v2.589C50.206,32.182,49.982,32.405,49.706,32.405"/>
		<path style="clip-path:url(#SVGID_4_);fill:#4D642E;" d="M39.616,30.891c-0.207,0-0.4-0.13-0.473-0.336l-0.665-1.919
			c-0.09-0.262,0.048-0.546,0.309-0.637c0.262-0.088,0.545,0.048,0.637,0.309l0.665,1.919c0.089,0.262-0.048,0.546-0.309,0.637
			C39.726,30.882,39.671,30.891,39.616,30.891"/>
		<path style="clip-path:url(#SVGID_4_);fill:#4D642E;" d="M43.274,31.271c-0.244,0-0.458-0.18-0.494-0.429
			c-0.039-0.273,0.15-0.526,0.424-0.566l2.646-0.381c0.265-0.034,0.526,0.149,0.566,0.424c0.039,0.273-0.15,0.526-0.424,0.566
			l-2.646,0.381C43.322,31.27,43.299,31.271,43.274,31.271"/>
		<path style="clip-path:url(#SVGID_4_);fill:#4D642E;" d="M23.606,28.999c-0.135,0-0.27-0.055-0.368-0.162
			c-0.188-0.203-0.173-0.52,0.03-0.706l1.511-1.385c0.202-0.187,0.519-0.173,0.706,0.03c0.187,0.203,0.173,0.52-0.03,0.706
			l-1.511,1.385C23.849,28.956,23.728,28.999,23.606,28.999"/>
		<path style="clip-path:url(#SVGID_4_);fill:#4D642E;" d="M20.454,31.271c-0.059,0-0.118-0.01-0.176-0.032l-3.025-1.137
			c-0.259-0.097-0.39-0.385-0.292-0.643c0.097-0.259,0.386-0.393,0.643-0.292l3.026,1.136c0.259,0.097,0.389,0.385,0.292,0.644
			C20.847,31.147,20.656,31.271,20.454,31.271"/>
	</g>
</g>
</svg>
