<?xml version="1.0" encoding="iso-8859-1"?>
<!-- Generator: Adobe Illustrator 16.0.0, SVG Export Plug-In . SVG Version: 6.00 Build 0)  -->
<!DOCTYPE svg PUBLIC "-//W3C//DTD SVG 1.1//EN" "http://www.w3.org/Graphics/SVG/1.1/DTD/svg11.dtd">
<svg version="1.1" id="Layer_1" xmlns="http://www.w3.org/2000/svg" xmlns:xlink="http://www.w3.org/1999/xlink" x="0px" y="0px"
	 width="64px" height="64px" viewBox="0 0 64 64" style="enable-background:new 0 0 64 64;" xml:space="preserve">
<g>
	<defs>
		<rect id="SVGID_1_" width="64" height="64"/>
	</defs>
	<clipPath id="SVGID_2_">
		<use xlink:href="#SVGID_1_"  style="overflow:visible;"/>
	</clipPath>
	<g style="clip-path:url(#SVGID_2_);">
		<defs>
			<rect id="SVGID_3_" width="64" height="64"/>
		</defs>
		<clipPath id="SVGID_4_">
			<use xlink:href="#SVGID_3_"  style="overflow:visible;"/>
		</clipPath>
		<path style="clip-path:url(#SVGID_4_);fill:#A53836;" d="M9.729,35.98C9.729,46.508,19.7,54.166,32,54.166
			c12.299,0,22.272-7.658,22.272-18.186c0-10.527-6.648-20.118-22.272-19.937C17.111,16.217,9.729,25.454,9.729,35.98"/>
		<path style="clip-path:url(#SVGID_4_);fill:#791214;" d="M32.434,16.042c15.313,0,21.838,9.51,21.838,19.939
			c0,10.527-9.973,18.186-22.273,18.186c-12.299,0-22.27-7.658-22.27-18.186c0-10.527,7.383-19.763,22.27-19.937
			C32.145,16.042,32.29,16.042,32.434,16.042 M32.434,14.042c-0.151,0-0.305,0.001-0.458,0.002
			C15.226,14.239,7.729,25.203,7.729,35.98c0,5.656,2.582,10.843,7.271,14.601c4.494,3.603,10.531,5.585,16.999,5.585
			c6.469,0,12.507-1.982,17-5.585c4.69-3.758,7.273-8.944,7.273-14.601c0-6.005-2.037-11.427-5.736-15.268
			C46.332,16.349,40.072,14.042,32.434,14.042"/>
		<path style="clip-path:url(#SVGID_4_);fill:#8BA43C;" d="M40.046,17.389l2.002-1.397c-2.613-0.922-5.454-1.495-8.441-1.648
			c0.194-1.08,0.723-2.277,1.979-3.279L34.121,9.21c-2.551,1.023-3.47,3.219-3.739,5.135c-2.983,0.153-5.821,0.726-8.432,1.647
			l2.002,1.397l-4.985,5.499l9.009-1.526l4.023,5.199l4.023-5.199l9.009,1.526L40.046,17.389z"/>
		<path style="clip-path:url(#SVGID_4_);fill:#627935;" d="M34.121,9.21l1.465,1.855c-1.257,1.002-1.785,2.199-1.979,3.279
			c2.987,0.154,5.828,0.726,8.441,1.648l-2.002,1.397l4.985,5.499l-9.009-1.526l-4.023,5.2l-4.024-5.2l-9.008,1.526l4.985-5.499
			l-2.002-1.397c2.61-0.921,5.448-1.493,8.432-1.647C30.651,12.429,31.57,10.233,34.121,9.21 M34.12,7.21
			c-0.249,0-0.502,0.047-0.744,0.144c-2.275,0.913-3.876,2.697-4.62,5.107c-2.579,0.252-5.086,0.803-7.471,1.645
			c-0.707,0.249-1.216,0.873-1.316,1.616c-0.102,0.743,0.221,1.481,0.837,1.91l0.138,0.097l-3.459,3.815
			c-0.573,0.632-0.682,1.557-0.272,2.305c0.354,0.648,1.032,1.039,1.753,1.039c0.111,0,0.222-0.01,0.335-0.029l7.827-1.325
			l3.289,4.252c0.379,0.489,0.963,0.776,1.582,0.776s1.203-0.287,1.582-0.776l3.289-4.252l7.827,1.325
			c0.11,0.019,0.224,0.029,0.335,0.029c0.721,0,1.398-0.391,1.753-1.039c0.41-0.748,0.301-1.673-0.272-2.305l-3.459-3.815
			l0.139-0.097c0.615-0.429,0.938-1.167,0.837-1.91c-0.101-0.743-0.609-1.367-1.316-1.616c-1.899-0.67-3.877-1.157-5.908-1.455
			c0.01-0.007,0.019-0.014,0.027-0.022c0.861-0.686,1.006-1.939,0.324-2.803l-1.465-1.855C35.303,7.48,34.72,7.21,34.12,7.21"/>
		<path style="clip-path:url(#SVGID_4_);fill:#8BA43C;" d="M30.428,17.408c0.611,0.208,1.276,0.307,1.957,0.262
			c0.376-0.025,0.985-0.25,1.328-0.349c-0.035-0.493-1.068-3.907,1.873-6.255l-1.465-1.856
			C29.829,10.931,30.144,15.977,30.428,17.408"/>
		<path style="clip-path:url(#SVGID_4_);fill:#627935;" d="M34.121,9.21l1.465,1.855c-2.941,2.349-1.908,5.763-1.873,6.256
			c-0.343,0.098-0.952,0.324-1.328,0.349c-0.108,0.007-0.216,0.011-0.322,0.011c-0.568,0-1.121-0.098-1.634-0.273
			C30.143,15.977,29.829,10.931,34.121,9.21 M34.121,8.21c-0.125,0-0.251,0.023-0.372,0.072c-4.508,1.807-4.785,6.887-4.302,9.321
			c0.07,0.35,0.32,0.636,0.658,0.751c0.635,0.217,1.293,0.327,1.958,0.327c0.128,0,0.258-0.005,0.388-0.013
			c0.404-0.027,0.883-0.179,1.268-0.302c0.101-0.032,0.193-0.062,0.271-0.084c0.454-0.131,0.755-0.561,0.721-1.032
			c-0.005-0.077-0.024-0.204-0.055-0.374c-0.162-0.907-0.593-3.314,1.555-5.029c0.43-0.343,0.502-0.97,0.161-1.401L34.906,8.59
			C34.712,8.345,34.42,8.21,34.121,8.21"/>
	</g>
</g>
</svg>
