<?xml version="1.0" encoding="iso-8859-1"?>
<!-- Generator: Adobe Illustrator 16.0.0, SVG Export Plug-In . SVG Version: 6.00 Build 0)  -->
<!DOCTYPE svg PUBLIC "-//W3C//DTD SVG 1.1//EN" "http://www.w3.org/Graphics/SVG/1.1/DTD/svg11.dtd">
<svg version="1.1" id="Layer_1" xmlns="http://www.w3.org/2000/svg" xmlns:xlink="http://www.w3.org/1999/xlink" x="0px" y="0px"
	 width="64px" height="64px" viewBox="0 0 64 64" style="enable-background:new 0 0 64 64;" xml:space="preserve">
<g>
	<defs>
		<rect id="SVGID_1_" width="64" height="64"/>
	</defs>
	<clipPath id="SVGID_2_">
		<use xlink:href="#SVGID_1_"  style="overflow:visible;"/>
	</clipPath>
	<g style="clip-path:url(#SVGID_2_);">
		<defs>
			<rect id="SVGID_3_" width="64" height="64"/>
		</defs>
		<clipPath id="SVGID_4_">
			<use xlink:href="#SVGID_3_"  style="overflow:visible;"/>
		</clipPath>
		<path style="clip-path:url(#SVGID_4_);fill:#CEC390;" d="M49.87,18.989c0.175-1.547-0.327-3.16-1.516-4.344
			c-1.187-1.186-2.797-1.69-4.345-1.514C35.737,7.84,24.058,9.299,16.181,17.18C7.2,26.16,6.556,40.073,14.743,48.263
			c8.183,8.182,22.097,7.536,31.076-1.441C53.698,38.939,55.16,27.259,49.87,18.989"/>
		<g style="opacity:0.1;clip-path:url(#SVGID_4_);">
			<g>
				<defs>
					<rect id="SVGID_5_" x="3.281" y="2.352" width="56.791" height="56.793"/>
				</defs>
				<clipPath id="SVGID_6_">
					<use xlink:href="#SVGID_5_"  style="overflow:visible;"/>
				</clipPath>
				<g style="clip-path:url(#SVGID_6_);">
					<defs>
						<path id="SVGID_7_" d="M16.181,17.181C7.2,26.16,6.556,40.073,14.743,48.263c8.183,8.182,22.097,7.536,31.076-1.441
							c8.979-8.981,9.625-22.895,1.438-31.083C39.073,7.556,25.159,8.201,16.181,17.181"/>
					</defs>
					<clipPath id="SVGID_8_">
						<use xlink:href="#SVGID_7_"  style="overflow:visible;"/>
					</clipPath>
					<path style="clip-path:url(#SVGID_8_);fill:#A7792B;" d="M55.353,8.029H8.005c-0.245,0-0.444-0.199-0.444-0.444
						c0-0.245,0.199-0.445,0.444-0.445h47.347c0.245,0,0.444,0.2,0.444,0.445C55.797,7.83,55.598,8.029,55.353,8.029"/>
					<path style="clip-path:url(#SVGID_8_);fill:#A7792B;" d="M55.353,9.628H8.005c-0.245,0-0.444-0.199-0.444-0.444
						c0-0.245,0.199-0.445,0.444-0.445h47.347c0.245,0,0.444,0.2,0.444,0.445C55.797,9.429,55.598,9.628,55.353,9.628"/>
					<path style="clip-path:url(#SVGID_8_);fill:#A7792B;" d="M55.353,11.228H8.006c-0.245,0-0.444-0.199-0.444-0.444
						c0-0.245,0.199-0.445,0.444-0.445h47.346c0.245,0,0.444,0.2,0.444,0.445C55.797,11.028,55.598,11.228,55.353,11.228"/>
					<path style="clip-path:url(#SVGID_8_);fill:#A7792B;" d="M55.353,12.827H8.005c-0.245,0-0.444-0.199-0.444-0.444
						c0-0.245,0.199-0.445,0.444-0.445h47.347c0.245,0,0.444,0.2,0.444,0.445C55.797,12.628,55.598,12.827,55.353,12.827"/>
					<path style="clip-path:url(#SVGID_8_);fill:#A7792B;" d="M55.353,14.419H8.005c-0.245,0-0.444-0.199-0.444-0.444
						c0-0.245,0.199-0.445,0.444-0.445h47.347c0.245,0,0.444,0.2,0.444,0.445C55.797,14.22,55.598,14.419,55.353,14.419"/>
					<path style="clip-path:url(#SVGID_8_);fill:#A7792B;" d="M55.353,16.018H8.005c-0.245,0-0.444-0.199-0.444-0.444
						c0-0.245,0.199-0.445,0.444-0.445h47.347c0.245,0,0.444,0.2,0.444,0.445C55.797,15.818,55.598,16.018,55.353,16.018"/>
					<path style="clip-path:url(#SVGID_8_);fill:#A7792B;" d="M55.353,17.613H8.005c-0.245,0-0.444-0.199-0.444-0.444
						c0-0.245,0.199-0.445,0.444-0.445h47.347c0.245,0,0.444,0.2,0.444,0.445C55.797,17.414,55.598,17.613,55.353,17.613"/>
					<path style="clip-path:url(#SVGID_8_);fill:#A7792B;" d="M55.353,47.961H8.005c-0.245,0-0.444-0.199-0.444-0.444
						s0.199-0.444,0.444-0.444h47.347c0.245,0,0.444,0.199,0.444,0.444S55.598,47.961,55.353,47.961"/>
					<path style="clip-path:url(#SVGID_8_);fill:#A7792B;" d="M55.353,49.56H8.005c-0.245,0-0.444-0.199-0.444-0.444
						s0.199-0.444,0.444-0.444h47.347c0.245,0,0.444,0.199,0.444,0.444S55.598,49.56,55.353,49.56"/>
					<path style="clip-path:url(#SVGID_8_);fill:#A7792B;" d="M55.353,51.157H8.005c-0.245,0-0.444-0.199-0.444-0.444
						s0.199-0.444,0.444-0.444h47.347c0.245,0,0.444,0.199,0.444,0.444S55.598,51.157,55.353,51.157"/>
					<path style="clip-path:url(#SVGID_8_);fill:#A7792B;" d="M8.006,52.75c-0.245,0-0.444-0.199-0.444-0.444
						s0.199-0.444,0.444-0.444l47.347-0.002c0.245,0,0.444,0.199,0.444,0.444s-0.199,0.444-0.444,0.444L8.006,52.75z"/>
					<path style="clip-path:url(#SVGID_8_);fill:#A7792B;" d="M55.353,54.35H8.005c-0.245,0-0.444-0.199-0.444-0.444
						s0.199-0.444,0.444-0.444h47.347c0.245,0,0.444,0.199,0.444,0.444S55.598,54.35,55.353,54.35"/>
					<path style="clip-path:url(#SVGID_8_);fill:#A7792B;" d="M55.353,55.949H8.006c-0.245,0-0.444-0.199-0.444-0.444
						s0.199-0.444,0.444-0.444h47.346c0.245,0,0.444,0.199,0.444,0.444S55.598,55.949,55.353,55.949"/>
					<path style="clip-path:url(#SVGID_8_);fill:#A7792B;" d="M55.353,31.991H8.005c-0.245,0-0.444-0.199-0.444-0.444
						c0-0.245,0.199-0.445,0.444-0.445h47.347c0.245,0,0.444,0.2,0.444,0.445C55.797,31.792,55.598,31.991,55.353,31.991"/>
					<path style="clip-path:url(#SVGID_8_);fill:#A7792B;" d="M55.353,33.583H8.005c-0.245,0-0.444-0.199-0.444-0.444
						s0.199-0.444,0.444-0.444h47.347c0.245,0,0.444,0.199,0.444,0.444S55.598,33.583,55.353,33.583"/>
					<path style="clip-path:url(#SVGID_8_);fill:#A7792B;" d="M55.353,35.181H8.005c-0.245,0-0.444-0.199-0.444-0.444
						c0-0.244,0.199-0.444,0.444-0.444h47.347c0.245,0,0.444,0.2,0.444,0.444C55.797,34.981,55.598,35.181,55.353,35.181"/>
					<path style="clip-path:url(#SVGID_8_);fill:#A7792B;" d="M55.353,36.78L55.353,36.78L8.005,36.778
						c-0.245,0-0.444-0.199-0.444-0.444s0.199-0.444,0.444-0.444l47.347,0.002c0.245,0,0.444,0.199,0.444,0.444
						S55.598,36.78,55.353,36.78"/>
					<path style="clip-path:url(#SVGID_8_);fill:#A7792B;" d="M55.353,38.38H8.005c-0.245,0-0.444-0.199-0.444-0.444
						s0.199-0.444,0.444-0.444h47.347c0.245,0,0.444,0.199,0.444,0.444S55.598,38.38,55.353,38.38"/>
					<path style="clip-path:url(#SVGID_8_);fill:#A7792B;" d="M55.353,39.977H8.005c-0.245,0-0.444-0.199-0.444-0.444
						c0-0.244,0.199-0.444,0.444-0.444h47.347c0.245,0,0.444,0.2,0.444,0.444C55.797,39.777,55.598,39.977,55.353,39.977"/>
					<path style="clip-path:url(#SVGID_8_);fill:#A7792B;" d="M55.353,41.575H8.005c-0.245,0-0.444-0.199-0.444-0.444
						s0.199-0.444,0.444-0.444h47.347c0.245,0,0.444,0.199,0.444,0.444S55.598,41.575,55.353,41.575"/>
					<path style="clip-path:url(#SVGID_8_);fill:#A7792B;" d="M55.353,43.168H8.005c-0.245,0-0.444-0.199-0.444-0.444
						s0.199-0.444,0.444-0.444h47.347c0.245,0,0.444,0.199,0.444,0.444S55.598,43.168,55.353,43.168"/>
					<path style="clip-path:url(#SVGID_8_);fill:#A7792B;" d="M55.353,44.767H8.005c-0.245,0-0.444-0.199-0.444-0.444
						s0.199-0.444,0.444-0.444h47.347c0.245,0,0.444,0.199,0.444,0.444S55.598,44.767,55.353,44.767"/>
					<path style="clip-path:url(#SVGID_8_);fill:#A7792B;" d="M55.353,46.362H8.006c-0.245,0-0.444-0.199-0.444-0.444
						s0.199-0.444,0.444-0.444h47.346c0.245,0,0.444,0.199,0.444,0.444S55.598,46.362,55.353,46.362"/>
					<path style="clip-path:url(#SVGID_8_);fill:#A7792B;" d="M55.353,19.212L55.353,19.212L8.005,19.21
						c-0.245,0-0.444-0.199-0.444-0.444c0-0.245,0.199-0.445,0.444-0.445l47.347,0.002c0.245,0,0.444,0.2,0.444,0.445
						C55.797,19.013,55.598,19.212,55.353,19.212"/>
					<path style="clip-path:url(#SVGID_8_);fill:#A7792B;" d="M55.353,20.811H8.005c-0.245,0-0.444-0.199-0.444-0.444
						c0-0.245,0.199-0.445,0.444-0.445h47.347c0.245,0,0.444,0.2,0.444,0.445C55.797,20.611,55.598,20.811,55.353,20.811"/>
					<path style="clip-path:url(#SVGID_8_);fill:#A7792B;" d="M55.353,22.409H8.005c-0.245,0-0.444-0.199-0.444-0.444
						c0-0.245,0.199-0.445,0.444-0.445h47.347c0.245,0,0.444,0.2,0.444,0.445C55.797,22.21,55.598,22.409,55.353,22.409"/>
					<path style="clip-path:url(#SVGID_8_);fill:#A7792B;" d="M55.353,24.001H8.005c-0.245,0-0.444-0.199-0.444-0.444
						c0-0.245,0.199-0.445,0.444-0.445h47.347c0.245,0,0.444,0.2,0.444,0.445C55.797,23.802,55.598,24.001,55.353,24.001"/>
					<path style="clip-path:url(#SVGID_8_);fill:#A7792B;" d="M55.353,25.599H8.005c-0.245,0-0.444-0.199-0.444-0.444
						c0-0.245,0.199-0.445,0.444-0.445h47.347c0.245,0,0.444,0.2,0.444,0.445C55.797,25.399,55.598,25.599,55.353,25.599"/>
					<path style="clip-path:url(#SVGID_8_);fill:#A7792B;" d="M55.353,27.197H8.005c-0.245,0-0.444-0.199-0.444-0.444
						s0.199-0.445,0.444-0.445h47.347c0.245,0,0.444,0.2,0.444,0.445S55.598,27.197,55.353,27.197"/>
					<path style="clip-path:url(#SVGID_8_);fill:#A7792B;" d="M55.353,28.797H8.005c-0.245,0-0.444-0.199-0.444-0.444
						s0.199-0.445,0.444-0.445h47.347c0.245,0,0.444,0.2,0.444,0.445S55.598,28.797,55.353,28.797"/>
					<path style="clip-path:url(#SVGID_8_);fill:#A7792B;" d="M55.353,30.396H8.005c-0.245,0-0.444-0.199-0.444-0.444
						c0-0.245,0.199-0.445,0.444-0.445h47.347c0.245,0,0.444,0.2,0.444,0.445C55.797,30.197,55.598,30.396,55.353,30.396"/>
					<path style="clip-path:url(#SVGID_8_);fill:#A7792B;" d="M54.837,54.86c-0.245,0-0.444-0.199-0.444-0.444V7.071
						c0-0.245,0.199-0.444,0.444-0.444s0.444,0.199,0.444,0.444v47.345C55.281,54.661,55.082,54.86,54.837,54.86"/>
					<path style="clip-path:url(#SVGID_8_);fill:#A7792B;" d="M53.24,54.86c-0.244,0-0.443-0.199-0.443-0.444V7.071
						c0-0.245,0.199-0.444,0.443-0.444c0.245,0,0.444,0.199,0.444,0.444v47.345C53.685,54.661,53.485,54.86,53.24,54.86"/>
					<path style="clip-path:url(#SVGID_8_);fill:#A7792B;" d="M51.641,54.86L51.641,54.86c-0.245,0-0.443-0.199-0.443-0.444V7.071
						c0-0.245,0.199-0.444,0.443-0.444c0.245,0,0.444,0.199,0.444,0.444l-0.001,47.345C52.084,54.661,51.886,54.86,51.641,54.86"/>
					<path style="clip-path:url(#SVGID_8_);fill:#A7792B;" d="M50.047,54.86c-0.246,0-0.444-0.199-0.444-0.444L49.602,7.071
						c0-0.245,0.199-0.444,0.444-0.444s0.443,0.199,0.443,0.444l0.001,47.345C50.49,54.661,50.291,54.86,50.047,54.86"/>
					<path style="clip-path:url(#SVGID_8_);fill:#A7792B;" d="M48.447,54.86L48.447,54.86c-0.245,0-0.443-0.199-0.443-0.444V7.071
						c0-0.245,0.199-0.444,0.444-0.444s0.444,0.199,0.444,0.444l-0.002,47.345C48.891,54.661,48.692,54.86,48.447,54.86"/>
					<path style="clip-path:url(#SVGID_8_);fill:#A7792B;" d="M46.848,54.86c-0.244,0-0.443-0.199-0.443-0.444V7.071
						c0-0.245,0.199-0.444,0.443-0.444c0.246,0,0.444,0.199,0.444,0.444v47.345C47.292,54.661,47.094,54.86,46.848,54.86"/>
					<path style="clip-path:url(#SVGID_8_);fill:#A7792B;" d="M45.255,54.86c-0.245,0-0.444-0.199-0.444-0.444V7.071
						c0-0.245,0.199-0.444,0.444-0.444s0.443,0.199,0.443,0.444v47.345C45.698,54.661,45.5,54.86,45.255,54.86"/>
					<path style="clip-path:url(#SVGID_8_);fill:#A7792B;" d="M14.908,54.86c-0.245,0-0.444-0.199-0.444-0.444V7.071
						c0-0.245,0.199-0.444,0.444-0.444s0.444,0.199,0.444,0.444v47.345C15.352,54.661,15.153,54.86,14.908,54.86"/>
					<path style="clip-path:url(#SVGID_8_);fill:#A7792B;" d="M13.309,54.86c-0.245,0-0.444-0.199-0.444-0.444V7.071
						c0-0.245,0.199-0.444,0.444-0.444s0.444,0.199,0.444,0.444v47.345C13.753,54.661,13.554,54.86,13.309,54.86"/>
					<path style="clip-path:url(#SVGID_8_);fill:#A7792B;" d="M11.714,54.86c-0.245,0-0.444-0.199-0.444-0.444V7.071
						c0-0.245,0.199-0.444,0.444-0.444s0.444,0.199,0.444,0.444v47.345C12.158,54.661,11.959,54.86,11.714,54.86"/>
					<path style="clip-path:url(#SVGID_8_);fill:#A7792B;" d="M10.116,54.86c-0.245,0-0.444-0.199-0.444-0.444V7.071
						c0-0.245,0.199-0.444,0.444-0.444s0.444,0.199,0.444,0.444v47.345C10.56,54.661,10.361,54.86,10.116,54.86"/>
					<path style="clip-path:url(#SVGID_8_);fill:#A7792B;" d="M8.517,54.86c-0.245,0-0.444-0.199-0.444-0.444V7.071
						c0-0.245,0.198-0.444,0.444-0.444c0.245,0,0.443,0.199,0.443,0.444L8.96,54.416C8.96,54.661,8.762,54.86,8.517,54.86"/>
					<path style="clip-path:url(#SVGID_8_);fill:#A7792B;" d="M6.92,54.86L6.92,54.86c-0.245,0-0.444-0.199-0.444-0.444L6.478,7.071
						c0-0.245,0.199-0.444,0.444-0.444s0.444,0.199,0.444,0.444L7.364,54.416C7.364,54.661,7.166,54.86,6.92,54.86"/>
					<path style="clip-path:url(#SVGID_8_);fill:#A7792B;" d="M30.882,54.86c-0.245,0-0.444-0.199-0.444-0.444V7.071
						c0-0.245,0.199-0.444,0.444-0.444s0.444,0.199,0.444,0.444v47.345C31.326,54.661,31.127,54.86,30.882,54.86"/>
					<path style="clip-path:url(#SVGID_8_);fill:#A7792B;" d="M29.283,54.86c-0.245,0-0.444-0.199-0.444-0.444V7.071
						c0-0.245,0.199-0.444,0.444-0.444s0.444,0.199,0.444,0.444v47.345C29.727,54.661,29.528,54.86,29.283,54.86"/>
					<path style="clip-path:url(#SVGID_8_);fill:#A7792B;" d="M27.685,54.86c-0.245,0-0.444-0.199-0.444-0.444L27.24,7.071
						c0-0.245,0.199-0.444,0.444-0.444s0.444,0.199,0.444,0.444l0.001,47.345C28.128,54.661,27.93,54.86,27.685,54.86"/>
					<path style="clip-path:url(#SVGID_8_);fill:#A7792B;" d="M26.088,54.86c-0.245,0-0.444-0.199-0.444-0.444V7.071
						c0-0.245,0.199-0.444,0.444-0.444s0.444,0.199,0.444,0.444v47.345C26.532,54.661,26.333,54.86,26.088,54.86"/>
					<path style="clip-path:url(#SVGID_8_);fill:#A7792B;" d="M24.49,54.86L24.49,54.86c-0.245,0-0.444-0.199-0.444-0.444
						l0.001-47.345c0-0.245,0.199-0.444,0.444-0.444s0.444,0.199,0.444,0.444l-0.001,47.345C24.934,54.661,24.735,54.86,24.49,54.86
						"/>
					<path style="clip-path:url(#SVGID_8_);fill:#A7792B;" d="M22.893,54.86c-0.245,0-0.444-0.199-0.444-0.444V7.071
						c0-0.245,0.199-0.444,0.444-0.444s0.444,0.199,0.444,0.444v47.345C23.336,54.661,23.138,54.86,22.893,54.86"/>
					<path style="clip-path:url(#SVGID_8_);fill:#A7792B;" d="M21.296,54.86L21.296,54.86c-0.245,0-0.444-0.199-0.444-0.444
						l0.001-47.345c0-0.245,0.199-0.444,0.444-0.444s0.444,0.199,0.444,0.444L21.74,54.416C21.74,54.661,21.541,54.86,21.296,54.86"
						/>
					<path style="clip-path:url(#SVGID_8_);fill:#A7792B;" d="M19.698,54.86c-0.245,0-0.444-0.199-0.444-0.444V7.071
						c0-0.245,0.199-0.444,0.444-0.444s0.444,0.199,0.444,0.444v47.345C20.142,54.661,19.943,54.86,19.698,54.86"/>
					<path style="clip-path:url(#SVGID_8_);fill:#A7792B;" d="M18.099,54.86c-0.245,0-0.444-0.199-0.444-0.444V7.071
						c0-0.245,0.198-0.444,0.444-0.444c0.245,0,0.443,0.199,0.443,0.444l0.001,47.345C18.543,54.661,18.344,54.86,18.099,54.86"/>
					<path style="clip-path:url(#SVGID_8_);fill:#A7792B;" d="M16.507,54.86L16.507,54.86c-0.245,0-0.444-0.199-0.444-0.444
						l0.001-47.345c0-0.245,0.199-0.444,0.444-0.444s0.444,0.199,0.444,0.444l-0.001,47.345
						C16.951,54.661,16.752,54.86,16.507,54.86"/>
					<path style="clip-path:url(#SVGID_8_);fill:#A7792B;" d="M43.658,54.86L43.658,54.86c-0.246,0-0.444-0.199-0.444-0.444
						l0.001-47.345c0-0.245,0.199-0.444,0.443-0.444c0.246,0,0.444,0.199,0.444,0.444l-0.001,47.345
						C44.102,54.661,43.902,54.86,43.658,54.86"/>
					<path style="clip-path:url(#SVGID_8_);fill:#A7792B;" d="M42.059,54.86c-0.245,0-0.444-0.199-0.444-0.444V7.071
						c0-0.245,0.199-0.444,0.444-0.444s0.443,0.199,0.443,0.444v47.345C42.502,54.661,42.304,54.86,42.059,54.86"/>
					<path style="clip-path:url(#SVGID_8_);fill:#A7792B;" d="M40.464,54.86c-0.245,0-0.444-0.199-0.444-0.444V7.071
						c0-0.245,0.199-0.444,0.443-0.444c0.246,0,0.444,0.199,0.444,0.444l0.001,47.345C40.908,54.661,40.709,54.86,40.464,54.86"/>
					<path style="clip-path:url(#SVGID_8_);fill:#A7792B;" d="M38.865,54.86c-0.244,0-0.443-0.199-0.443-0.444V7.071
						c0-0.245,0.199-0.444,0.443-0.444c0.245,0,0.444,0.199,0.444,0.444v47.345C39.31,54.661,39.11,54.86,38.865,54.86"/>
					<path style="clip-path:url(#SVGID_8_);fill:#A7792B;" d="M37.268,54.86c-0.245,0-0.444-0.199-0.444-0.444V7.071
						c0-0.245,0.199-0.444,0.444-0.444c0.244,0,0.443,0.199,0.443,0.444v47.345C37.711,54.661,37.512,54.86,37.268,54.86"/>
					<path style="clip-path:url(#SVGID_8_);fill:#A7792B;" d="M35.672,54.86c-0.245,0-0.443-0.199-0.443-0.444V7.071
						c0-0.245,0.198-0.444,0.443-0.444s0.443,0.199,0.443,0.444v47.345C36.115,54.661,35.917,54.86,35.672,54.86"/>
					<path style="clip-path:url(#SVGID_8_);fill:#A7792B;" d="M34.072,54.86L34.072,54.86c-0.246,0-0.444-0.199-0.444-0.444
						l0.001-47.345c0-0.245,0.198-0.444,0.443-0.444c0.246,0,0.444,0.199,0.444,0.444l-0.001,47.345
						C34.516,54.661,34.316,54.86,34.072,54.86"/>
					<path style="clip-path:url(#SVGID_8_);fill:#A7792B;" d="M32.474,54.86c-0.244,0-0.443-0.199-0.443-0.444L32.029,7.071
						c0-0.245,0.199-0.444,0.443-0.444c0.246,0,0.444,0.199,0.444,0.444l0.001,47.345C32.918,54.661,32.719,54.86,32.474,54.86"/>
				</g>
			</g>
		</g>
		<path style="clip-path:url(#SVGID_4_);fill:#9C935E;" d="M33.035,10c3.896,0.001,7.701,1.037,10.975,3.131
			c0.2-0.023,0.401-0.034,0.603-0.034c1.354,0,2.709,0.515,3.742,1.549c1.188,1.183,1.69,2.796,1.516,4.343
			c5.29,8.27,3.828,19.951-4.051,27.833C41.057,51.583,34.906,54,28.959,54c-5.266,0-10.374-1.896-14.216-5.737
			C6.556,40.073,7.2,26.16,16.181,17.181C20.941,12.418,27.089,10,33.035,10 M33.035,8v2V8c-6.677,0-13.335,2.831-18.269,7.767
			c-9.744,9.743-10.39,24.955-1.438,33.91C17.407,53.755,22.958,56,28.959,56c6.678,0,13.339-2.83,18.275-7.765
			c8.21-8.213,10.121-20.619,4.67-29.758c0.027-1.966-0.731-3.847-2.139-5.248c-1.374-1.375-3.205-2.132-5.153-2.132
			c-0.029,0-0.06,0-0.089,0.001C41.122,9.069,37.165,8.001,33.035,8"/>
		<path style="clip-path:url(#SVGID_4_);fill:#9C935E;" d="M38.576,12.473c3.422,0,6.474,1.058,8.682,3.267
			c5.971,5.969,3.531,18.087-5.449,27.067c-5.656,5.658-12.56,8.721-18.385,8.721c-3.422,0-6.472-1.057-8.68-3.265
			c-5.97-5.972-3.532-18.089,5.447-27.069C25.848,15.535,32.75,12.473,38.576,12.473 M38.576,11.473
			c-6.312,0-13.449,3.369-19.093,9.014C10.13,29.841,7.686,42.619,14.035,48.97c2.328,2.328,5.574,3.558,9.388,3.558
			c6.312,0,13.45-3.368,19.092-9.014c4.48-4.479,7.536-9.869,8.604-15.172c1.098-5.451-0.022-10.178-3.155-13.309
			C45.639,12.703,42.391,11.473,38.576,11.473"/>
		<path style="clip-path:url(#SVGID_4_);fill:#9C935E;" d="M45.71,15.208c0.665,0,1.189,0.171,1.548,0.529
			c2.307,2.31-3.104,11.457-12.085,20.437c-7.582,7.581-15.283,12.618-18.884,12.618c-0.664,0-1.188-0.171-1.547-0.529
			c-2.306-2.31,3.105-11.456,12.084-20.437C34.408,20.244,42.109,15.208,45.71,15.208 M45.71,14.208
			c-3.995,0-11.868,5.188-19.591,12.911c-8.43,8.431-15.287,18.643-12.085,21.85c0.547,0.547,1.306,0.823,2.255,0.823
			c3.994,0,11.867-5.188,19.592-12.911c8.43-8.429,15.288-18.641,12.086-21.85C47.419,14.484,46.66,14.208,45.71,14.208"/>
		<polygon style="clip-path:url(#SVGID_4_);fill:#9C935E;" points="44.01,13.131 47.274,15.07 50.537,18.715 50.631,16.123 
			49,13.922 46.604,12.673 		"/>
	</g>
</g>
</svg>
