<?xml version="1.0" encoding="iso-8859-1"?>
<!-- Generator: Adobe Illustrator 16.0.0, SVG Export Plug-In . SVG Version: 6.00 Build 0)  -->
<!DOCTYPE svg PUBLIC "-//W3C//DTD SVG 1.1//EN" "http://www.w3.org/Graphics/SVG/1.1/DTD/svg11.dtd">
<svg version="1.1" id="Layer_1" xmlns="http://www.w3.org/2000/svg" xmlns:xlink="http://www.w3.org/1999/xlink" x="0px" y="0px"
	 width="64px" height="64px" viewBox="0 0 64 64" style="enable-background:new 0 0 64 64;" xml:space="preserve">
<g>
	<defs>
		<rect id="SVGID_1_" width="64" height="64"/>
	</defs>
	<clipPath id="SVGID_2_">
		<use xlink:href="#SVGID_1_"  style="overflow:visible;"/>
	</clipPath>
	<g style="clip-path:url(#SVGID_2_);">
		<defs>
			<rect id="SVGID_3_" width="64" height="64"/>
		</defs>
		<clipPath id="SVGID_4_">
			<use xlink:href="#SVGID_3_"  style="overflow:visible;"/>
		</clipPath>
		<path style="clip-path:url(#SVGID_4_);fill:#8BA43C;" d="M41.344,8.304c0,0-1.945,1.878-3.329,4.697
			c-1.006-1.437-1.897-2.303-1.897-2.303s-0.263,0.239-0.644,0.679C34.753,7.185,31.43,4,31.43,4s-3.232,3.114-4.013,7.24
			c-0.397-0.451-0.655-0.707-0.655-0.707s-0.751,0.728-1.626,1.931c-1.351-2.516-3.063-4.16-3.063-4.16s-4.656,4.473-4.656,9.994
			c0,3.458,0.819,6.497,2.059,8.299V57.88c0,1.441,1.173,2.12,2.597,2.12c1.138,0,2.079-0.426,2.454-1.301
			C24.808,59.574,25.686,60,26.762,60c1.283,0,2.333-0.614,2.333-1.901c0,1.287,1.052,1.901,2.335,1.901
			c1.102,0,2.019-0.45,2.275-1.38c0.306,0.93,1.271,1.38,2.412,1.38c1.386,0,2.528-0.661,2.528-2.059l0.101-0.062
			c0,1.441,1.155,2.12,2.598,2.12c1.444,0,2.604-0.679,2.604-2.12V26.597c1.253-1.802,2.069-4.841,2.069-8.299
			C46.018,12.777,41.344,8.304,41.344,8.304"/>
		<path style="clip-path:url(#SVGID_4_);fill:#627935;" d="M31.43,4c0,0,3.323,3.185,4.044,7.377
			c0.381-0.44,0.644-0.679,0.644-0.679s0.892,0.866,1.897,2.303c1.384-2.819,3.329-4.697,3.329-4.697s4.674,4.473,4.674,9.994
			c0,3.458-0.816,6.497-2.069,8.3V57.88c0,1.441-1.16,2.12-2.604,2.12c-1.442,0-2.598-0.679-2.598-2.12l-0.101,0.062
			c0,1.397-1.143,2.059-2.528,2.059c-1.142,0-2.106-0.45-2.412-1.38C33.448,59.55,32.531,60,31.43,60
			c-1.283,0-2.335-0.614-2.335-1.901c0,1.287-1.05,1.901-2.333,1.901c-1.076,0-1.954-0.425-2.235-1.3
			c-0.375,0.875-1.316,1.3-2.453,1.3c-1.425,0-2.598-0.679-2.598-2.12V26.598c-1.24-1.803-2.059-4.842-2.059-8.3
			c0-5.521,4.657-9.994,4.657-9.994s1.711,1.644,3.062,4.16c0.875-1.203,1.626-1.931,1.626-1.931s0.258,0.256,0.655,0.707
			C28.198,7.114,31.43,4,31.43,4 M31.429,2.955l-0.522,0.502c-0.124,0.12-2.738,2.669-3.883,6.273l-0.255-0.253l-0.531,0.514
			c-0.025,0.023-0.44,0.428-1.011,1.124c-1.254-2.022-2.568-3.294-2.631-3.355l-0.522-0.501l-0.523,0.502
			c-0.199,0.191-4.888,4.761-4.888,10.537c0,3.357,0.767,6.519,2.059,8.527V57.88c0,1.719,1.347,2.874,3.352,2.874
			c0.99,0,1.821-0.271,2.413-0.769c0.545,0.493,1.334,0.769,2.275,0.769c0.98,0,1.789-0.301,2.333-0.82
			c0.544,0.52,1.355,0.82,2.335,0.82c0.96,0,1.756-0.278,2.303-0.78c0.575,0.502,1.402,0.78,2.385,0.78
			c1.107,0,2.009-0.359,2.586-0.975c0.583,0.62,1.499,0.975,2.641,0.975c2.04,0,3.358-1.128,3.358-2.874V26.827
			c1.299-2,2.069-5.164,2.069-8.529c0-5.776-4.706-10.347-4.906-10.538l-0.523-0.502L40.82,7.762c-0.072,0.07-1.58,1.539-2.91,3.837
			c-0.706-0.893-1.238-1.413-1.268-1.441l-0.509-0.495l-0.241,0.22c-1.113-3.683-3.813-6.304-3.942-6.427L31.429,2.955z"/>
		<path style="clip-path:url(#SVGID_4_);fill:#8BA43C;" d="M35.854,9.104c-0.32-1.864-2.16-3.29-2.16-3.29s-2.215,1.716-2.215,3.834
			c0,1.137,0.633,2.158,1.218,2.857"/>
		<path style="clip-path:url(#SVGID_4_);fill:#A8BB6D;" d="M32.313,12.826c-0.608-0.728-1.334-1.87-1.334-3.178
			c0-2.336,2.311-4.153,2.408-4.229l0.307-0.238l0.307,0.238c0.081,0.063,1.997,1.568,2.347,3.6l-0.986,0.169
			c-0.208-1.214-1.166-2.244-1.666-2.712c-0.565,0.529-1.716,1.775-1.716,3.172c0,1.009,0.599,1.936,1.102,2.536L32.313,12.826z"/>
		<path style="clip-path:url(#SVGID_4_);fill:#8BA43C;" d="M29.786,13.026c0.656-0.648,1.693-1.92,1.693-3.378
			c0-2.119-2.214-3.835-2.214-3.835s-2.213,1.716-2.213,3.833"/>
		<path style="clip-path:url(#SVGID_4_);fill:#A8BB6D;" d="M30.138,13.382l-0.703-0.711c0.465-0.459,1.545-1.672,1.545-3.023
			c0-1.403-1.148-2.645-1.713-3.172c-0.566,0.529-1.715,1.775-1.715,3.17h-1c0-2.334,2.31-4.151,2.407-4.227l0.307-0.238
			l0.307,0.238c0.097,0.076,2.407,1.893,2.407,4.229C31.979,11.314,30.825,12.702,30.138,13.382"/>
		<path style="clip-path:url(#SVGID_4_);fill:#8BA43C;" d="M29.266,13.492c0,2.116,2.214,3.838,2.214,3.838s2.215-1.722,2.215-3.838
			c0-2.123-2.215-3.844-2.215-3.844S29.266,11.369,29.266,13.492"/>
		<path style="clip-path:url(#SVGID_4_);fill:#A8BB6D;" d="M31.479,17.964l-0.307-0.239c-0.098-0.076-2.407-1.899-2.407-4.233
			c0-2.34,2.309-4.162,2.407-4.239l0.307-0.238l0.307,0.238c0.098,0.077,2.408,1.899,2.408,4.239c0,2.334-2.31,4.157-2.408,4.233
			L31.479,17.964z M31.479,10.312c-0.565,0.531-1.714,1.78-1.714,3.18c0,1.401,1.148,2.646,1.713,3.175
			c0.566-0.53,1.716-1.78,1.716-3.175C33.194,12.093,32.046,10.843,31.479,10.312"/>
		<path style="clip-path:url(#SVGID_4_);fill:#8BA43C;" d="M41.561,15.364c0,2.127,2.492,3.844,2.492,3.844s2.471-1.717,2.471-3.844
			c0-2.116-2.471-3.834-2.471-3.834S41.561,13.249,41.561,15.364"/>
		<path style="clip-path:url(#SVGID_4_);fill:#A8BB6D;" d="M44.054,19.816L43.77,19.62c-0.111-0.076-2.709-1.893-2.709-4.256
			c0-2.351,2.598-4.17,2.708-4.246l0.285-0.197l0.284,0.198c0.11,0.077,2.686,1.895,2.686,4.245c0,2.362-2.575,4.179-2.686,4.255
			L44.054,19.816z M44.052,12.16c-0.611,0.497-1.991,1.776-1.991,3.204c0,1.442,1.379,2.719,1.99,3.214
			c0.606-0.497,1.973-1.777,1.973-3.214C46.023,13.931,44.658,12.656,44.052,12.16"/>
		<path style="clip-path:url(#SVGID_4_);fill:#8BA43C;" d="M40.841,17.381c0.416-0.588,0.72-1.279,0.72-2.017
			c0-2.115-2.577-3.834-2.577-3.834s-0.254,0.168-0.613,0.469"/>
		<path style="clip-path:url(#SVGID_4_);fill:#A8BB6D;" d="M41.249,17.67l-0.816-0.578c0.417-0.589,0.628-1.17,0.628-1.728
			c0-1.333-1.314-2.627-2.076-3.217c-0.084,0.065-0.184,0.143-0.293,0.235l-0.643-0.766c0.386-0.323,0.659-0.503,0.659-0.503
			l0.276-0.182l0.276,0.183c0.114,0.076,2.8,1.894,2.8,4.25C42.061,16.133,41.787,16.909,41.249,17.67"/>
		<path style="clip-path:url(#SVGID_4_);fill:#8BA43C;" d="M38.983,19.208c0,2.118,2.577,3.836,2.577,3.836s2.577-1.718,2.577-3.836
			c0-2.125-2.577-3.844-2.577-3.844S38.983,17.083,38.983,19.208"/>
		<path style="clip-path:url(#SVGID_4_);fill:#A8BB6D;" d="M41.561,23.646l-0.277-0.185c-0.114-0.076-2.8-1.894-2.8-4.252
			c0-2.365,2.686-4.184,2.8-4.26l0.277-0.185l0.277,0.185c0.114,0.076,2.8,1.895,2.8,4.26c0,2.358-2.686,4.176-2.8,4.252
			L41.561,23.646z M41.563,15.983c-0.622,0.486-2.08,1.779-2.08,3.225c0,1.439,1.454,2.728,2.077,3.215
			c0.623-0.487,2.077-1.776,2.077-3.215C43.638,17.871,42.326,16.574,41.563,15.983"/>
		<path style="clip-path:url(#SVGID_4_);fill:#8BA43C;" d="M46.715,15.364c0,0-2.577,1.719-2.577,3.844
			c0,2.118,2.577,3.836,2.577,3.836"/>
		<path style="clip-path:url(#SVGID_4_);fill:#A8BB6D;" d="M46.438,23.46c-0.114-0.076-2.8-1.894-2.8-4.252
			c0-2.365,2.686-4.184,2.8-4.26l0.556,0.831c-0.024,0.016-2.355,1.6-2.355,3.429c0,1.821,2.331,3.404,2.354,3.42L46.438,23.46z"/>
		<path style="clip-path:url(#SVGID_4_);fill:#8BA43C;" d="M41.561,23.044c0,2.126,2.427,3.843,2.427,3.843s2.424-1.717,2.424-3.843
			c0-2.117-2.424-3.836-2.424-3.836S41.561,20.927,41.561,23.044"/>
		<path style="clip-path:url(#SVGID_4_);fill:#A8BB6D;" d="M43.987,27.499l-0.289-0.204c-0.107-0.076-2.638-1.893-2.638-4.251
			c0-2.348,2.53-4.167,2.638-4.244l0.289-0.205l0.289,0.206c0.106,0.076,2.635,1.895,2.635,4.243c0,2.358-2.528,4.175-2.635,4.251
			L43.987,27.499z M43.987,19.845c-0.601,0.504-1.927,1.777-1.927,3.199c0,1.435,1.325,2.705,1.926,3.207
			c0.6-0.503,1.925-1.777,1.925-3.207C45.911,21.622,44.587,20.349,43.987,19.845"/>
		<path style="clip-path:url(#SVGID_4_);fill:#8BA43C;" d="M17.285,14.706c0,2.188,2.297,3.963,2.297,3.963s2.297-1.775,2.297-3.963
			c0-2.187-2.297-3.958-2.297-3.958S17.285,12.519,17.285,14.706"/>
		<path style="clip-path:url(#SVGID_4_);fill:#A8BB6D;" d="M19.582,19.3l-0.306-0.236c-0.101-0.079-2.491-1.953-2.491-4.359
			c0-2.404,2.39-4.275,2.491-4.354l0.306-0.235l0.306,0.235c0.101,0.079,2.491,1.95,2.491,4.354c0,2.406-2.39,4.28-2.491,4.359
			L19.582,19.3z M19.583,11.408c-0.583,0.54-1.798,1.839-1.798,3.297c0,1.466,1.213,2.763,1.796,3.302
			c0.584-0.541,1.798-1.842,1.798-3.302C21.379,13.241,20.166,11.946,19.583,11.408"/>
		<path style="clip-path:url(#SVGID_4_);fill:#8BA43C;" d="M19.582,18.668c0,2.186,2.297,3.955,2.297,3.955s2.298-1.769,2.298-3.955
			c0-2.187-2.298-3.963-2.298-3.963S19.582,16.481,19.582,18.668"/>
		<path style="clip-path:url(#SVGID_4_);fill:#A8BB6D;" d="M21.879,23.254l-0.305-0.235c-0.102-0.078-2.492-1.946-2.492-4.351
			c0-2.404,2.39-4.28,2.491-4.358l0.306-0.236l0.306,0.236c0.101,0.078,2.492,1.954,2.492,4.358c0,2.405-2.391,4.273-2.493,4.351
			L21.879,23.254z M21.879,15.367c-0.584,0.542-1.797,1.843-1.797,3.301c0,1.465,1.213,2.758,1.796,3.295
			c0.583-0.538,1.799-1.836,1.799-3.295C23.677,17.21,22.463,15.909,21.879,15.367"/>
		<path style="clip-path:url(#SVGID_4_);fill:#8BA43C;" d="M26.474,14.706c0,0-2.297,1.776-2.297,3.963
			c0,2.186,2.297,3.955,2.297,3.955"/>
		<path style="clip-path:url(#SVGID_4_);fill:#A8BB6D;" d="M26.169,23.02c-0.103-0.078-2.492-1.947-2.492-4.351
			s2.389-4.28,2.491-4.358l0.612,0.79c-0.021,0.017-2.103,1.658-2.103,3.568c0,1.909,2.081,3.543,2.102,3.559L26.169,23.02z"/>
		<path style="clip-path:url(#SVGID_4_);fill:#8BA43C;" d="M17.511,22.437c0.572-0.512,2.071-2.009,2.071-3.768
			c0-1.775-1.501-3.278-2.081-3.776"/>
		<path style="clip-path:url(#SVGID_4_);fill:#A8BB6D;" d="M17.844,22.809l-0.666-0.745c0.572-0.513,1.904-1.87,1.904-3.396
			c0-1.676-1.588-3.123-1.906-3.396l0.65-0.759c0.53,0.454,2.256,2.095,2.256,4.155C20.082,20.598,18.517,22.207,17.844,22.809"/>
		<path style="clip-path:url(#SVGID_4_);fill:#8BA43C;" d="M21.879,22.624c0,2.186,2.298,3.955,2.298,3.955s2.297-1.769,2.297-3.955
			c0-2.184-2.297-3.955-2.297-3.955S21.879,20.439,21.879,22.624"/>
		<path style="clip-path:url(#SVGID_4_);fill:#A8BB6D;" d="M24.177,27.209l-0.305-0.235c-0.102-0.078-2.493-1.947-2.493-4.351
			c0-2.402,2.391-4.273,2.492-4.351l0.306-0.236l0.306,0.236c0.101,0.078,2.491,1.949,2.491,4.351c0,2.404-2.39,4.273-2.492,4.351
			L24.177,27.209z M24.178,19.329c-0.584,0.54-1.799,1.838-1.799,3.295c0,1.458,1.215,2.755,1.798,3.294
			c0.583-0.539,1.797-1.836,1.797-3.294C25.974,21.162,24.761,19.867,24.178,19.329"/>
		<path style="clip-path:url(#SVGID_4_);fill:#8BA43C;" d="M17.285,22.624c0,2.186,2.297,3.955,2.297,3.955s2.297-1.769,2.297-3.955
			c0-2.184-2.297-3.955-2.297-3.955S17.285,20.439,17.285,22.624"/>
		<path style="clip-path:url(#SVGID_4_);fill:#A8BB6D;" d="M19.582,27.209l-0.305-0.235c-0.102-0.078-2.492-1.947-2.492-4.351
			c0-2.402,2.39-4.273,2.491-4.351l0.306-0.235l0.306,0.235c0.101,0.078,2.491,1.949,2.491,4.351c0,2.404-2.39,4.273-2.492,4.351
			L19.582,27.209z M19.582,19.33c-0.583,0.54-1.797,1.838-1.797,3.294c0,1.464,1.213,2.758,1.796,3.295
			c0.583-0.539,1.798-1.837,1.798-3.295C21.379,21.167,20.165,19.87,19.582,19.33"/>
		<path style="clip-path:url(#SVGID_4_);fill:#8BA43C;" d="M38.695,13.162c0,0-2.225,1.716-2.225,3.841
			c0,2.119,2.225,3.838,2.225,3.838s1.687-1.316,2.109-3.064"/>
		<path style="clip-path:url(#SVGID_4_);fill:#A8BB6D;" d="M38.696,21.474l-0.307-0.237c-0.099-0.076-2.419-1.896-2.419-4.234
			c0-2.343,2.32-4.161,2.419-4.237l0.611,0.791c-0.02,0.016-2.03,1.597-2.03,3.446c0,1.404,1.154,2.648,1.723,3.175
			c0.473-0.445,1.354-1.395,1.625-2.518l0.973,0.234c-0.458,1.896-2.214,3.283-2.288,3.341L38.696,21.474z"/>
		<path style="clip-path:url(#SVGID_4_);fill:#8BA43C;" d="M31.452,17.002c0,2.119,2.511,3.838,2.511,3.838s2.508-1.719,2.508-3.838
			c0-2.125-2.508-3.841-2.508-3.841S31.452,14.877,31.452,17.002"/>
		<path style="clip-path:url(#SVGID_4_);fill:#A8BB6D;" d="M33.963,21.447l-0.282-0.194c-0.111-0.076-2.729-1.895-2.729-4.251
			c0-2.361,2.618-4.177,2.729-4.253l0.282-0.193l0.282,0.193c0.111,0.076,2.726,1.893,2.726,4.253c0,2.356-2.614,4.175-2.725,4.251
			L33.963,21.447z M33.963,13.789c-0.613,0.494-2.011,1.776-2.011,3.213c0,1.433,1.398,2.716,2.011,3.211
			c0.613-0.495,2.008-1.778,2.008-3.211C35.971,15.566,34.575,14.283,33.963,13.789"/>
		<path style="clip-path:url(#SVGID_4_);fill:#8BA43C;" d="M34.267,20.841c0,2.123,2.204,3.844,2.204,3.844s2.225-1.721,2.225-3.844
			c0-2.118-2.225-3.838-2.225-3.838S34.267,18.723,34.267,20.841"/>
		<path style="clip-path:url(#SVGID_4_);fill:#A8BB6D;" d="M36.47,25.317l-0.307-0.239c-0.098-0.076-2.396-1.898-2.396-4.238
			c0-2.335,2.299-4.156,2.396-4.232l0.307-0.239l0.307,0.237c0.099,0.077,2.419,1.897,2.419,4.234c0,2.341-2.32,4.163-2.419,4.24
			L36.47,25.317z M36.473,17.666c-0.562,0.53-1.706,1.778-1.706,3.175c0,1.4,1.144,2.649,1.706,3.18
			c0.567-0.53,1.723-1.78,1.723-3.18C38.195,19.438,37.041,18.193,36.473,17.666"/>
		<path style="clip-path:url(#SVGID_4_);fill:#8BA43C;" d="M40.899,17.002c0,0-2.204,1.72-2.204,3.838
			c0,2.123,2.204,3.844,2.204,3.844"/>
		<path style="clip-path:url(#SVGID_4_);fill:#A8BB6D;" d="M40.592,25.079c-0.098-0.076-2.396-1.898-2.396-4.238
			c0-2.335,2.299-4.156,2.396-4.232l0.616,0.787c-0.021,0.016-2.013,1.601-2.013,3.445c0,1.857,1.992,3.434,2.012,3.45
			L40.592,25.079z"/>
		<path style="clip-path:url(#SVGID_4_);fill:#8BA43C;" d="M39.04,28.217c0.619-0.583,1.859-1.946,1.859-3.533
			c0-2.127-2.204-3.843-2.204-3.843s-2.225,1.716-2.225,3.843c0,2.116,2.225,3.835,2.225,3.835S38.833,28.411,39.04,28.217"/>
		<path style="clip-path:url(#SVGID_4_);fill:#A8BB6D;" d="M38.697,29.15l-0.308-0.236c-0.099-0.076-2.419-1.895-2.419-4.23
			c0-2.346,2.32-4.163,2.419-4.24l0.307-0.236l0.307,0.238c0.098,0.076,2.396,1.893,2.396,4.238c0,1.74-1.264,3.188-2.018,3.897
			c-0.228,0.214-0.379,0.332-0.379,0.332L38.697,29.15z M38.694,21.503c-0.567,0.528-1.724,1.777-1.724,3.181
			c0,1.396,1.156,2.643,1.724,3.172c0.001-0.001,0.002-0.002,0.004-0.004c0.511-0.481,1.701-1.753,1.701-3.168
			C40.399,23.274,39.257,22.031,38.694,21.503"/>
		<path style="clip-path:url(#SVGID_4_);fill:#627935;" d="M36.117,10.697c0,0,4.524,4.338,4.524,9.696
			c0,3.355-0.793,6.309-1.996,8.047v29.501c0,1.397-1.143,2.06-2.528,2.06c-1.405,0-2.531-0.662-2.531-2.06V28.44
			c-1.209-1.738-1.997-4.692-1.997-8.047C31.589,15.036,36.117,10.697,36.117,10.697 M36.117,9.312l-0.691,0.663
			c-0.198,0.19-4.836,4.699-4.836,10.418c0,3.284,0.742,6.371,1.997,8.348v29.2c0,1.829,1.419,3.06,3.531,3.06
			c2.11,0,3.528-1.23,3.528-3.06V28.741c1.254-1.984,1.996-5.071,1.996-8.347c0-5.719-4.635-10.228-4.832-10.417L36.117,9.312z"/>
		<path style="clip-path:url(#SVGID_4_);fill:#8BA43C;" d="M35.633,22.337c0-4.952-4.203-8.973-4.203-8.973
			s-4.185,4.021-4.185,8.973c0,3.105,0.735,5.839,1.85,7.451v28.31c0,1.287,1.052,1.901,2.335,1.901
			c1.304,0,2.347-0.614,2.347-1.901v-28.31C34.889,28.176,35.633,25.442,35.633,22.337"/>
		<path style="clip-path:url(#SVGID_4_);fill:#627935;" d="M31.43,13.364c0,0,4.203,4.021,4.203,8.973
			c0,3.106-0.744,5.839-1.856,7.451v28.311c0,1.287-1.043,1.901-2.347,1.901c-1.283,0-2.335-0.614-2.335-1.901V29.788
			c-1.115-1.612-1.85-4.345-1.85-7.451C27.245,17.385,31.43,13.364,31.43,13.364 M31.429,12.32l-0.521,0.501
			c-0.181,0.173-4.416,4.303-4.416,9.516c0,3.025,0.688,5.87,1.849,7.679v28.083c0,1.588,1.241,2.655,3.089,2.655
			c1.854,0,3.101-1.067,3.101-2.655V30.016c1.165-1.819,1.856-4.664,1.856-7.679c0-5.214-4.255-9.344-4.436-9.517L31.429,12.32z"/>
		<path style="clip-path:url(#SVGID_4_);fill:#8BA43C;" d="M31.428,19.605c0,1.964,2.39,3.559,2.39,3.559s2.37-1.595,2.37-3.559
			c0-1.962-2.37-3.558-2.37-3.558S31.428,17.644,31.428,19.605"/>
		<path style="clip-path:url(#SVGID_4_);fill:#A8BB6D;" d="M33.818,23.766L33.54,23.58c-0.106-0.071-2.613-1.768-2.613-3.974
			c0-2.205,2.505-3.903,2.613-3.975l0.278-0.186l0.278,0.188c0.105,0.071,2.591,1.769,2.591,3.973c0,2.205-2.485,3.902-2.591,3.973
			L33.818,23.766z M33.818,16.669c-0.584,0.46-1.891,1.635-1.891,2.937c0,1.209,1.181,2.385,1.886,2.937
			c0.58-0.461,1.874-1.634,1.874-2.937C35.688,18.398,34.519,17.221,33.818,16.669"/>
		<path style="clip-path:url(#SVGID_4_);fill:#8BA43C;" d="M29.059,23.164c0,1.964,2.369,3.558,2.369,3.558s2.39-1.594,2.39-3.558
			c0-1.963-2.39-3.559-2.39-3.559S29.059,21.201,29.059,23.164"/>
		<path style="clip-path:url(#SVGID_4_);fill:#A8BB6D;" d="M31.427,27.324l-0.278-0.187c-0.106-0.071-2.59-1.768-2.59-3.973
			c0-2.204,2.484-3.902,2.59-3.973l0.278-0.188l0.278,0.186c0.108,0.072,2.613,1.77,2.613,3.975c0,2.206-2.506,3.903-2.613,3.974
			L31.427,27.324z M31.429,20.229c-0.581,0.463-1.87,1.635-1.87,2.935c0,1.209,1.169,2.385,1.868,2.937
			c0.584-0.46,1.891-1.634,1.891-2.937C33.317,21.864,32.015,20.691,31.429,20.229"/>
		<path style="clip-path:url(#SVGID_4_);fill:#8BA43C;" d="M36.188,19.605c0,0-2.37,1.596-2.37,3.559s2.37,3.558,2.37,3.558"/>
		<path style="clip-path:url(#SVGID_4_);fill:#A8BB6D;" d="M35.908,27.137c-0.105-0.071-2.591-1.769-2.591-3.973
			s2.485-3.902,2.591-3.973l0.559,0.829c-0.021,0.014-2.149,1.474-2.149,3.144s2.128,3.129,2.149,3.143L35.908,27.137z"/>
		<path style="clip-path:url(#SVGID_4_);fill:#8BA43C;" d="M31.428,26.722c0,1.964,2.39,3.558,2.39,3.558s2.37-1.594,2.37-3.558
			c0-1.962-2.37-3.558-2.37-3.558S31.428,24.76,31.428,26.722"/>
		<path style="clip-path:url(#SVGID_4_);fill:#A8BB6D;" d="M33.818,30.883l-0.278-0.186c-0.106-0.072-2.613-1.768-2.613-3.974
			c0-2.205,2.505-3.903,2.613-3.975l0.278-0.186l0.278,0.188c0.105,0.071,2.591,1.769,2.591,3.973s-2.485,3.901-2.591,3.973
			L33.818,30.883z M33.818,23.786c-0.584,0.46-1.891,1.635-1.891,2.937c0,1.209,1.181,2.385,1.886,2.937
			c0.58-0.461,1.874-1.635,1.874-2.937C35.688,25.515,34.519,24.337,33.818,23.786"/>
		<path style="clip-path:url(#SVGID_4_);fill:#627935;" d="M31.43,13.364c0,0,4.203,4.021,4.203,8.973
			c0,3.105-0.744,5.839-1.856,7.451v28.31c0,1.287-1.043,1.902-2.347,1.902c-1.283,0-2.335-0.615-2.335-1.902v-28.31
			c-1.115-1.612-1.85-4.346-1.85-7.451C27.245,17.386,31.43,13.364,31.43,13.364 M31.428,11.979l-0.691,0.664
			c-0.183,0.176-4.492,4.377-4.492,9.694c0,3.036,0.688,5.9,1.85,7.75v28.011c0,1.735,1.34,2.902,3.335,2.902
			c2.002,0,3.347-1.167,3.347-2.902V30.087c1.166-1.859,1.856-4.724,1.856-7.75c0-5.318-4.328-9.519-4.512-9.695L31.428,11.979z"/>
		<path style="clip-path:url(#SVGID_4_);fill:#8BA43C;" d="M30.944,19.509c0-4.959-4.183-8.977-4.183-8.977
			s-4.194,4.018-4.194,8.977c0,3.098,0.734,5.833,1.859,7.447v31.143c0,1.287,1.038,1.901,2.335,1.901
			c1.284,0,2.333-0.614,2.333-1.901V26.956C30.22,25.342,30.944,22.607,30.944,19.509"/>
		<path style="clip-path:url(#SVGID_4_);fill:#627935;" d="M26.762,10.532c0,0,4.183,4.018,4.183,8.977
			c0,3.098-0.724,5.833-1.85,7.447v31.143c0,1.287-1.05,1.901-2.333,1.901c-1.298,0-2.335-0.614-2.335-1.901V26.956
			c-1.125-1.614-1.859-4.349-1.859-7.447C22.568,14.55,26.762,10.532,26.762,10.532 M26.763,9.488l-0.522,0.5
			c-0.181,0.173-4.427,4.3-4.427,9.521c0,3.025,0.692,5.869,1.859,7.676v30.914c0,1.588,1.241,2.655,3.089,2.655
			c1.847,0,3.087-1.067,3.087-2.655V27.185c1.161-1.798,1.85-4.641,1.85-7.676c0-5.22-4.235-9.347-4.415-9.52L26.763,9.488z"/>
		<path style="clip-path:url(#SVGID_4_);fill:#627935;" d="M31.43,4c0,0,3.323,3.185,4.044,7.377
			c0.381-0.44,0.644-0.679,0.644-0.679s0.892,0.866,1.897,2.303c1.384-2.819,3.329-4.697,3.329-4.697s4.674,4.473,4.674,9.994
			c0,3.458-0.816,6.497-2.069,8.3V57.88c0,1.441-1.16,2.12-2.604,2.12c-1.442,0-2.598-0.679-2.598-2.12l-0.101,0.062
			c0,1.397-1.143,2.059-2.528,2.059c-1.142,0-2.106-0.45-2.412-1.38C33.448,59.55,32.531,60,31.43,60
			c-1.283,0-2.335-0.614-2.335-1.901c0,1.287-1.05,1.901-2.333,1.901c-1.076,0-1.954-0.425-2.235-1.3
			c-0.375,0.875-1.316,1.3-2.454,1.3c-1.424,0-2.597-0.679-2.597-2.12V26.598c-1.24-1.803-2.059-4.842-2.059-8.3
			c0-5.521,4.656-9.994,4.656-9.994s1.712,1.644,3.063,4.16c0.875-1.203,1.626-1.931,1.626-1.931s0.258,0.256,0.655,0.707
			C28.197,7.114,31.43,4,31.43,4 M31.426,1.227L30.042,2.56c-0.121,0.117-2.435,2.374-3.803,5.693l-0.87,0.844
			c-0.001,0.001-0.002,0.002-0.004,0.004c-1.001-1.363-1.853-2.188-1.906-2.239l-1.386-1.331l-1.385,1.331
			c-0.215,0.207-5.271,5.136-5.271,11.436c0,3.469,0.745,6.658,2.059,8.881V57.88c0,2.426,1.89,4.12,4.597,4.12
			c0.894,0,1.707-0.186,2.394-0.528C25.121,61.813,25.903,62,26.762,62c0.885,0,1.676-0.192,2.334-0.54
			C29.753,61.808,30.545,62,31.43,62c0.873,0,1.661-0.188,2.318-0.532C34.426,61.812,35.232,62,36.117,62
			c0.998,0,1.885-0.234,2.602-0.652C39.444,61.766,40.338,62,41.344,62c2.711,0,4.604-1.694,4.604-4.12V27.183
			c1.32-2.216,2.069-5.407,2.069-8.885c0-6.302-5.075-11.232-5.291-11.439L41.338,5.53l-1.383,1.335
			c-0.062,0.059-1.074,1.046-2.195,2.654c-0.146-0.156-0.237-0.244-0.249-0.255l-0.78-0.758c-1.349-3.457-3.791-5.828-3.917-5.949
			L31.426,1.227z"/>
		<path style="clip-path:url(#SVGID_4_);fill:#8BA43C;" d="M29.13,13.226c0,0-2.37,1.589-2.37,3.558c0,1.965,2.37,3.554,2.37,3.554
			s1.491-0.993,2.115-2.38"/>
		<path style="clip-path:url(#SVGID_4_);fill:#A8BB6D;" d="M29.129,20.94l-0.277-0.187c-0.107-0.07-2.592-1.763-2.592-3.969
			c0-2.21,2.486-3.902,2.592-3.973l0.557,0.83c-0.021,0.015-2.149,1.468-2.149,3.143c0,1.21,1.169,2.383,1.868,2.934
			c0.433-0.34,1.26-1.071,1.661-1.965l0.912,0.411c-0.676,1.501-2.228,2.547-2.294,2.59L29.129,20.94z"/>
		<path style="clip-path:url(#SVGID_4_);fill:#8BA43C;" d="M22.102,17.5c0.454,1.621,2.269,2.838,2.269,2.838
			s2.389-1.589,2.389-3.555c0-1.969-2.389-3.557-2.389-3.557"/>
		<path style="clip-path:url(#SVGID_4_);fill:#A8BB6D;" d="M24.369,20.939l-0.277-0.186c-0.08-0.054-1.974-1.34-2.472-3.118
			l0.963-0.27c0.298,1.062,1.297,1.96,1.788,2.35c0.586-0.46,1.889-1.63,1.889-2.932c0-1.674-2.146-3.127-2.167-3.141l0.553-0.833
			c0.108,0.071,2.614,1.763,2.614,3.974c0,2.208-2.506,3.9-2.613,3.971L24.369,20.939z"/>
		<path style="clip-path:url(#SVGID_4_);fill:#8BA43C;" d="M24.37,20.338c0,1.969,2.39,3.555,2.39,3.555s2.37-1.586,2.37-3.555
			c0-1.968-2.37-3.555-2.37-3.555S24.37,18.371,24.37,20.338"/>
		<path style="clip-path:url(#SVGID_4_);fill:#A8BB6D;" d="M26.761,24.494l-0.277-0.185c-0.107-0.07-2.614-1.759-2.614-3.971
			c0-2.211,2.507-3.9,2.614-3.971l0.277-0.185l0.277,0.186c0.106,0.071,2.592,1.76,2.592,3.97c0,2.211-2.486,3.9-2.592,3.97
			L26.761,24.494z M26.759,17.406c-0.585,0.459-1.889,1.628-1.889,2.932c0,1.213,1.181,2.386,1.886,2.935
			c0.579-0.459,1.874-1.629,1.874-2.935C28.63,19.034,27.34,17.865,26.759,17.406"/>
		<path style="clip-path:url(#SVGID_4_);fill:#8BA43C;" d="M31.516,16.784c0,0-2.386,1.586-2.386,3.555
			c0,1.968,2.386,3.554,2.386,3.554"/>
		<path style="clip-path:url(#SVGID_4_);fill:#A8BB6D;" d="M31.239,24.31c-0.107-0.071-2.609-1.76-2.609-3.971
			c0-2.211,2.502-3.901,2.608-3.971l0.555,0.832c-0.022,0.015-2.163,1.465-2.163,3.139c0,1.674,2.141,3.124,2.163,3.138
			L31.239,24.31z"/>
		<path style="clip-path:url(#SVGID_4_);fill:#8BA43C;" d="M22.237,23.729c0.597-0.466,2.133-1.805,2.133-3.391
			c0-1.589-1.556-2.941-2.145-3.39"/>
		<path style="clip-path:url(#SVGID_4_);fill:#A8BB6D;" d="M22.545,24.123l-0.615-0.788c0.583-0.456,1.94-1.659,1.94-2.997
			c0-1.398-1.491-2.644-1.948-2.993l0.607-0.795c0.703,0.537,2.341,1.981,2.341,3.788C24.87,22.052,23.413,23.445,22.545,24.123"/>
		<path style="clip-path:url(#SVGID_4_);fill:#8BA43C;" d="M26.76,23.893c0,1.969,2.37,3.556,2.37,3.556s2.386-1.587,2.386-3.556
			c0-1.964-2.386-3.555-2.386-3.555S26.76,21.929,26.76,23.893"/>
		<path style="clip-path:url(#SVGID_4_);fill:#A8BB6D;" d="M29.129,28.05l-0.277-0.186c-0.106-0.071-2.592-1.761-2.592-3.971
			c0-2.206,2.485-3.899,2.592-3.97l0.277-0.187l0.278,0.186c0.107,0.071,2.609,1.764,2.609,3.971c0,2.211-2.502,3.901-2.609,3.972
			L29.129,28.05z M29.134,20.959c-0.58,0.459-1.874,1.631-1.874,2.934c0,1.304,1.29,2.473,1.871,2.933
			c0.584-0.46,1.885-1.629,1.885-2.933C31.016,22.685,29.837,21.509,29.134,20.959"/>
		<path style="clip-path:url(#SVGID_4_);fill:#8BA43C;" d="M22,23.893c0,1.969,2.37,3.556,2.37,3.556s2.39-1.587,2.39-3.556
			c0-1.964-2.39-3.555-2.39-3.555S22,21.929,22,23.893"/>
		<path style="clip-path:url(#SVGID_4_);fill:#A8BB6D;" d="M24.369,28.05l-0.277-0.185c-0.106-0.071-2.592-1.761-2.592-3.972
			c0-2.205,2.485-3.899,2.592-3.97l0.277-0.186l0.278,0.185c0.107,0.071,2.613,1.764,2.613,3.971c0,2.212-2.506,3.902-2.614,3.973
			L24.369,28.05z M24.371,20.961c-0.581,0.461-1.871,1.631-1.871,2.932c0,1.213,1.17,2.386,1.869,2.936
			c0.583-0.458,1.891-1.629,1.891-2.936C26.26,22.592,24.957,21.421,24.371,20.961"/>
		<path style="clip-path:url(#SVGID_4_);fill:#627935;" d="M26.762,10.532c0,0,4.183,4.018,4.183,8.977
			c0,3.098-0.724,5.833-1.85,7.447v31.143c0,1.287-1.05,1.901-2.333,1.901c-1.298,0-2.335-0.614-2.335-1.901V26.956
			c-1.125-1.614-1.859-4.349-1.859-7.447C22.568,14.55,26.762,10.532,26.762,10.532 M26.764,7.761l-1.386,1.327
			c-0.196,0.188-4.81,4.674-4.81,10.421c0,3.133,0.672,6.012,1.859,8.029v30.561c0,2.298,1.782,3.901,4.335,3.901
			c2.551,0,4.333-1.604,4.333-3.901V27.538c1.181-2.009,1.85-4.888,1.85-8.029c0-5.745-4.602-10.231-4.797-10.419L26.764,7.761z"/>
	</g>
</g>
</svg>
