<?xml version="1.0" encoding="iso-8859-1"?>
<!-- Generator: Adobe Illustrator 16.0.0, SVG Export Plug-In . SVG Version: 6.00 Build 0)  -->
<!DOCTYPE svg PUBLIC "-//W3C//DTD SVG 1.1//EN" "http://www.w3.org/Graphics/SVG/1.1/DTD/svg11.dtd">
<svg version="1.1" id="Layer_1" xmlns="http://www.w3.org/2000/svg" xmlns:xlink="http://www.w3.org/1999/xlink" x="0px" y="0px"
	 width="64px" height="64px" viewBox="0 0 64 64" style="enable-background:new 0 0 64 64;" xml:space="preserve">
<g>
	<defs>
		<rect id="SVGID_1_" width="64" height="64"/>
	</defs>
	<clipPath id="SVGID_2_">
		<use xlink:href="#SVGID_1_"  style="overflow:visible;"/>
	</clipPath>
	<g style="clip-path:url(#SVGID_2_);">
		<defs>
			<path id="SVGID_3_" d="M33.421,9.093c-0.791,0.238-1.185,0.869-1.361,1.275c-10.859,0.198-14.312,4.707-14.971,5.755
				c-0.337-0.053-0.663-0.111-1.029-0.152c-0.747-0.084-1.43-0.126-2.031-0.126c-0.8,0-3.232,0-3.978,1.683
				c-0.762,1.714,0.916,3.701,1.263,4.082c0.038,0.042,0.078,0.08,0.126,0.118c0.322,0.247,0.662,0.605,0.443,0.897
				c-0.075,0.085-0.115,0.159-0.155,0.264c-1.95,4.996-1.971,8.425-1.971,8.569c0,12.485,10.157,22.642,22.642,22.642
				c4.484,0,8.817-1.308,12.535-3.783c0.191-0.118,0.331-0.304,0.402-0.521c0.018,0.002,0.034,0.014,0.052,0.014
				c0.08,0,0.162-0.018,0.236-0.062c13.363-7.956,7.229-26.887,7.123-26.938c-5.127-9.892-13.024-11.205-14.304-11.356
				c-1.741-1.629-3.21-2.453-4.38-2.453C33.837,9.001,33.623,9.032,33.421,9.093"/>
		</defs>
		<clipPath id="SVGID_4_">
			<use xlink:href="#SVGID_3_"  style="overflow:visible;"/>
		</clipPath>
		
			<linearGradient id="SVGID_5_" gradientUnits="userSpaceOnUse" x1="-4.882812e-04" y1="63.9531" x2="0.9995" y2="63.9531" gradientTransform="matrix(-2.000000e-06 -45.0981 -45.0981 2.000000e-06 2918.2812 54.0936)">
			<stop  offset="0" style="stop-color:#FFFFFF"/>
			<stop  offset="0.0447" style="stop-color:#E8ECD7"/>
			<stop  offset="0.0944" style="stop-color:#D2DCB3"/>
			<stop  offset="0.1505" style="stop-color:#BFCC93"/>
			<stop  offset="0.2124" style="stop-color:#AFC077"/>
			<stop  offset="0.2823" style="stop-color:#A2B561"/>
			<stop  offset="0.3641" style="stop-color:#98AE50"/>
			<stop  offset="0.4651" style="stop-color:#91A845"/>
			<stop  offset="0.6067" style="stop-color:#8DA53E"/>
			<stop  offset="1" style="stop-color:#8CA43C"/>
		</linearGradient>
		<rect x="9.289" y="9.001" style="clip-path:url(#SVGID_4_);fill:url(#SVGID_5_);" width="49.698" height="45.099"/>
	</g>
	<g style="clip-path:url(#SVGID_2_);">
		<defs>
			<rect id="SVGID_6_" width="64" height="64"/>
		</defs>
		<clipPath id="SVGID_7_">
			<use xlink:href="#SVGID_6_"  style="overflow:visible;"/>
		</clipPath>
		<path style="clip-path:url(#SVGID_7_);fill:#627935;" d="M39.542,41.8c-0.132,0-0.263-0.052-0.361-0.154
			c-3.265-3.413-0.586-10.038-0.47-10.319c7.008-12.059-0.677-20.357-1.007-20.705c-0.19-0.199-0.183-0.515,0.017-0.706
			c0.2-0.191,0.518-0.182,0.706,0.016c0.086,0.091,8.544,9.173,1.179,21.837c0.004,0.002-2.517,6.243,0.298,9.185
			c0.19,0.199,0.184,0.517-0.016,0.707C39.791,41.754,39.666,41.8,39.542,41.8"/>
		<path style="clip-path:url(#SVGID_7_);fill:#627935;" d="M34.988,46.107c-0.096,0-0.191-0.026-0.276-0.083
			c-0.229-0.152-0.293-0.463-0.141-0.693c1.725-2.604,4.386-3.861,6.959-5.078c1.059-0.5,2.154-1.018,3.159-1.62
			c5.706-3.424,8.703-9.262,8.017-15.617c-0.029-0.274,0.169-0.521,0.443-0.551c0.274-0.028,0.521,0.169,0.551,0.444
			c0.729,6.753-2.447,12.952-8.497,16.582c-1.047,0.628-2.165,1.156-3.246,1.667c-2.562,1.211-4.981,2.354-6.552,4.727
			C35.309,46.028,35.15,46.107,34.988,46.107"/>
		<g style="opacity:0.5;clip-path:url(#SVGID_7_);">
			<g>
				<defs>
					<rect id="SVGID_8_" x="11.992" y="14.04" width="37.97" height="40.961"/>
				</defs>
				<clipPath id="SVGID_9_">
					<use xlink:href="#SVGID_8_"  style="overflow:visible;"/>
				</clipPath>
				<g style="clip-path:url(#SVGID_9_);">
					<defs>
						<path id="SVGID_10_" d="M16.52,25.758c0.047-0.268-0.129-0.526-0.397-0.573c-0.271-0.042-0.523,0.13-0.572,0.398
							c-0.014,0.079-0.597,3.471-0.444,8.011c-2.774-2.13-2.06-4.069-2.022-4.167c0.103-0.25-0.014-0.536-0.264-0.642
							c-0.249-0.104-0.538,0.011-0.643,0.263c-0.052,0.121-1.214,3.023,2.99,5.796c0.386,6.148,2.213,13.915,8.365,18.581
							c0.088,0.067,0.194,0.1,0.296,0.1c0.15,0,0.296-0.067,0.394-0.194c0.164-0.217,0.122-0.524-0.096-0.69
							C13.302,44.433,16.487,25.942,16.52,25.758 M22.391,19.698c0.015,0.002,0.031,0.002,0.045,0.002
							c0.251,0,0.466-0.192,0.489-0.448c0.225-2.473,2.279-4.334,2.3-4.354c0.202-0.18,0.219-0.492,0.039-0.694
							c-0.181-0.203-0.491-0.221-0.695-0.04c-0.095,0.085-2.363,2.131-2.625,5C21.921,19.435,22.119,19.674,22.391,19.698
							 M43.112,31.331c0.089,0,0.18-0.023,0.261-0.075c2.47-1.55,4.29-3.861,5.324-5.411c-0.445,3.07-1.578,6.295-4.08,8.701
							c-0.196,0.188-0.202,0.5-0.014,0.696c0.096,0.1,0.225,0.15,0.354,0.15c0.123,0,0.246-0.045,0.343-0.137
							c6.934-6.663,4.116-18.693,3.992-19.199c-0.063-0.264-0.327-0.422-0.595-0.365c-0.263,0.066-0.426,0.331-0.361,0.597
							c0.015,0.062,0.781,3.334,0.577,7.342c-0.041,0.037-0.079,0.079-0.105,0.131c-0.023,0.044-2.266,4.342-5.958,6.659
							c-0.229,0.146-0.3,0.45-0.154,0.679C42.788,31.25,42.948,31.331,43.112,31.331 M48.519,39.208
							c-0.271,0.005-0.488,0.229-0.484,0.499c0.002,0.062,0.035,6.206-5.393,9.648c-0.229,0.146-0.297,0.45-0.151,0.679
							c0.094,0.148,0.254,0.229,0.417,0.229c0.091,0,0.181-0.024,0.264-0.076c5.888-3.735,5.853-10.22,5.848-10.494
							C49.015,39.421,48.764,39.229,48.519,39.208 M35.87,15.281c-0.409,0.089-10.043,2.242-11.943,9.713
							c-0.068,0.264,0.093,0.533,0.356,0.599c0.04,0.011,0.081,0.014,0.122,0.014c0.22,0,0.42-0.147,0.476-0.371
							c1.749-6.874,11.102-8.972,11.196-8.993c0.265-0.056,0.435-0.319,0.378-0.585C36.397,15.393,36.135,15.229,35.87,15.281
							 M24.06,44.342c1.695-3.163,5.381-4.407,5.419-4.419c0.231-0.075,0.372-0.308,0.334-0.546s-0.244-0.416-0.486-0.416
							c-0.21,0-3.445,1.146-5.464,3.854c-0.018-0.367-0.024-0.735-0.004-1.099c0.286-4.778,4.119-7.621,4.158-7.649
							c0.219-0.16,0.268-0.468,0.108-0.687c-0.159-0.222-0.467-0.27-0.687-0.109c-0.134,0.096-2.638,1.955-3.884,5.261
							c-4.137-3.31-1.792-9.544-1.767-9.607c0.098-0.254-0.028-0.538-0.281-0.636c-0.255-0.101-0.538,0.026-0.637,0.278
							c-0.027,0.072-2.662,7.031,2.123,10.783c0.079,0.062,0.173,0.083,0.265,0.091c-0.192,0.685-0.332,1.417-0.38,2.206
							c-0.054,0.89,0.01,1.788,0.178,2.691c0.005,0.037,0.008,0.073,0.021,0.108c0.667,3.411,2.904,6.905,6.695,10.424
							c0.096,0.089,0.215,0.131,0.335,0.131c0.132,0,0.265-0.052,0.362-0.157c0.184-0.197,0.173-0.51-0.026-0.694
							C26.839,50.806,24.707,47.519,24.06,44.342 M34.18,23.885c-0.706,0.013-6.915,0.206-7.604,2.829
							c-0.069,0.264,0.087,0.532,0.35,0.601c0.043,0.012,0.085,0.016,0.126,0.016c0.219,0,0.418-0.146,0.476-0.367
							c0.379-1.439,4.292-2.048,6.671-2.095c0.271-0.006,0.488-0.228,0.482-0.502C34.676,24.097,34.464,23.891,34.18,23.885"/>
					</defs>
					<clipPath id="SVGID_11_">
						<use xlink:href="#SVGID_10_"  style="overflow:visible;"/>
					</clipPath>
					
						<linearGradient id="SVGID_12_" gradientUnits="userSpaceOnUse" x1="0" y1="63.9844" x2="1" y2="63.9844" gradientTransform="matrix(-1.800000e-06 -40.9614 -40.9614 1.800000e-06 2652.5 54.9999)">
						<stop  offset="0" style="stop-color:#FFFFFF"/>
						<stop  offset="0.0447" style="stop-color:#E8ECD7"/>
						<stop  offset="0.0944" style="stop-color:#D2DCB3"/>
						<stop  offset="0.1505" style="stop-color:#BFCC93"/>
						<stop  offset="0.2124" style="stop-color:#AFC077"/>
						<stop  offset="0.2823" style="stop-color:#A2B561"/>
						<stop  offset="0.3641" style="stop-color:#98AE50"/>
						<stop  offset="0.4651" style="stop-color:#91A845"/>
						<stop  offset="0.6067" style="stop-color:#8DA53E"/>
						<stop  offset="1" style="stop-color:#8CA43C"/>
					</linearGradient>
					<rect x="10.964" y="13.983" style="clip-path:url(#SVGID_11_);fill:url(#SVGID_12_);" width="41.27" height="41.018"/>
				</g>
			</g>
		</g>
		<path style="clip-path:url(#SVGID_7_);fill:#6C8141;" d="M34.062,9.001c1.17,0,2.64,0.824,4.38,2.453
			c1.281,0.151,9.178,1.464,14.305,11.356c0.106,0.051,6.24,18.982-7.123,26.938c-0.074,0.044-0.156,0.062-0.236,0.062
			c-0.018,0-0.034-0.012-0.052-0.014c-0.071,0.217-0.21,0.401-0.401,0.521c-3.718,2.476-8.052,3.783-12.536,3.783
			c-12.484,0-22.642-10.157-22.642-22.642c0-0.145,0.021-3.573,1.971-8.569c0.041-0.106,0.08-0.179,0.155-0.264
			c0.22-0.292-0.121-0.649-0.443-0.897c-0.047-0.038-0.088-0.076-0.126-0.118c-0.346-0.38-2.024-2.368-1.263-4.083
			c0.746-1.682,3.179-1.682,3.979-1.682c0.6,0,1.283,0.042,2.03,0.127c0.366,0.04,0.692,0.097,1.029,0.151
			c0.659-1.048,4.112-5.557,14.971-5.755c0.177-0.406,0.57-1.037,1.361-1.275C33.623,9.031,33.838,9.001,34.062,9.001 M34.062,7.001
			c-0.42,0-0.83,0.06-1.219,0.177C32.104,7.4,31.46,7.821,30.958,8.402c-8.864,0.397-13.018,3.612-14.744,5.575
			c-0.783-0.087-1.52-0.132-2.184-0.132c-3.008,0-4.962,0.966-5.807,2.872c-1.138,2.561,0.601,5.052,1.422,6.022
			c-1.833,4.936-1.888,8.335-1.888,8.719c0,13.588,11.054,24.642,24.642,24.642c4.873,0,9.585-1.42,13.627-4.107
			c0.224-0.144,0.426-0.316,0.602-0.514c0.005-0.003,0.011-0.006,0.016-0.01c8.406-5.004,9.844-13.761,9.57-20.227
			c-0.111-2.649-0.517-4.94-0.837-6.396c-0.398-1.811-0.666-2.683-0.964-3.167c-5.015-9.497-12.456-11.642-15.071-12.112
			C37.383,7.842,35.652,7.001,34.062,7.001"/>
		<path style="clip-path:url(#SVGID_7_);fill:#627935;" d="M46.354,51.146c-5.194,0-9.063-1.386-11.498-4.118
			c-2.968-3.331-2.699-7.462-2.646-8.034c0.002-0.165,0.011-0.404,0.022-0.702c0.288-7.427-1.051-9.164-2.224-9.312
			c-8.105-1.03-8.047-7.718-8.045-7.785c0.01-0.214,0.108-4.319-8.174-5.253c-0.54-0.062-0.929-0.549-0.869-1.089
			c0.062-0.541,0.564-0.92,1.089-0.868c10.275,1.159,9.94,7.058,9.92,7.308c0.001,0.145,0.021,4.932,6.327,5.734
			c4.362,0.555,4.058,8.391,3.944,11.342c-0.012,0.297-0.021,0.529-0.021,0.679l-0.006,0.113c-0.004,0.034-0.375,3.739,2.17,6.577
			c2.047,2.283,5.415,3.44,10.011,3.44c0.544,0,0.984,0.44,0.984,0.984S46.897,51.146,46.354,51.146"/>
	</g>
</g>
</svg>
