<?xml version="1.0" encoding="iso-8859-1"?>
<!-- Generator: Adobe Illustrator 16.0.0, SVG Export Plug-In . SVG Version: 6.00 Build 0)  -->
<!DOCTYPE svg PUBLIC "-//W3C//DTD SVG 1.1//EN" "http://www.w3.org/Graphics/SVG/1.1/DTD/svg11.dtd">
<svg version="1.1" id="Layer_1" xmlns="http://www.w3.org/2000/svg" xmlns:xlink="http://www.w3.org/1999/xlink" x="0px" y="0px"
	 width="64px" height="64px" viewBox="0 0 64 64" style="enable-background:new 0 0 64 64;" xml:space="preserve">
<g>
	<defs>
		<rect id="SVGID_1_" width="64" height="64"/>
	</defs>
	<clipPath id="SVGID_2_">
		<use xlink:href="#SVGID_1_"  style="overflow:visible;"/>
	</clipPath>
	<g style="clip-path:url(#SVGID_2_);">
		<defs>
			<rect id="SVGID_3_" width="64" height="64"/>
		</defs>
		<clipPath id="SVGID_4_">
			<use xlink:href="#SVGID_3_"  style="overflow:visible;"/>
		</clipPath>
		<path style="clip-path:url(#SVGID_4_);fill:#FADA67;" d="M53.243,8.652c0.048-0.177,0.083-0.356,0.083-0.543
			C53.326,6.392,51.205,5,48.588,5c-2.616,0-4.736,1.392-4.736,3.109c0,0.053,0.02,0.103,0.023,0.154
			c-0.555,0.585-1.01,1.266-1.313,2.017c-0.846,2.085-0.474,4.635-0.803,6.782c-0.672,4.391-4.664,7.014-6.675,7.964
			c-4.25,2.008-6.709,1.521-10.876,2.717c-6.378,1.826-12.01,7.239-14.109,13.53C7.452,49.207,12.094,59,20.725,59
			c23.126,0,27.113-26.018,29.323-31.376c2.049-4.976,3.496-8.561,4.486-13.869C54.892,11.84,54.333,10.022,53.243,8.652"/>
		<path style="clip-path:url(#SVGID_4_);fill:#BD9B60;" d="M48.588,5c2.617,0,4.738,1.393,4.738,3.109
			c0,0.187-0.035,0.367-0.083,0.543c1.09,1.37,1.648,3.189,1.291,5.102c-0.99,5.308-2.438,8.893-4.486,13.869
			C47.838,32.982,43.852,59,20.725,59c-8.631,0-13.272-9.793-10.626-17.727c2.099-6.291,7.731-11.705,14.109-13.53
			c4.167-1.196,6.626-0.709,10.876-2.717c2.011-0.95,6.003-3.573,6.675-7.963c0.329-2.148-0.043-4.698,0.803-6.783
			c0.304-0.751,0.759-1.431,1.313-2.016c-0.004-0.052-0.023-0.102-0.023-0.155C43.852,6.393,45.971,5,48.588,5 M48.588,3
			c-3.502,0-6.301,1.929-6.69,4.494C41.399,8.124,41,8.806,40.707,9.53c-0.669,1.651-0.725,3.423-0.773,4.988
			c-0.025,0.809-0.049,1.574-0.152,2.242c-0.602,3.934-4.73,6.07-5.552,6.458c-2.329,1.1-4.039,1.364-6.02,1.669
			c-1.315,0.202-2.806,0.432-4.554,0.933c-6.949,1.991-13.16,7.947-15.454,14.821c-1.676,5.022-0.839,10.749,2.185,14.944
			C12.903,59.077,16.575,61,20.725,61c21.38,0,27.532-20.65,30.16-29.469c0.398-1.336,0.742-2.489,1.013-3.145
			c1.984-4.825,3.553-8.636,4.603-14.265c0.387-2.07-0.04-4.207-1.174-5.987V8.109C55.326,5.244,52.367,3,48.588,3"/>
	</g>
</g>
<g>
	<defs>
		<rect id="SVGID_5_" width="64" height="64"/>
	</defs>
	<clipPath id="SVGID_6_">
		<use xlink:href="#SVGID_5_"  style="overflow:visible;"/>
	</clipPath>
	<g style="clip-path:url(#SVGID_6_);">
		<defs>
			<rect id="SVGID_7_" width="64" height="64"/>
		</defs>
		<clipPath id="SVGID_8_">
			<use xlink:href="#SVGID_7_"  style="overflow:visible;"/>
		</clipPath>
		<g style="opacity:0.5;clip-path:url(#SVGID_8_);enable-background:new    ;">
			<g>
				<defs>
					<rect id="SVGID_9_" x="17" y="37" width="2" height="2"/>
				</defs>
				<clipPath id="SVGID_10_">
					<use xlink:href="#SVGID_9_"  style="overflow:visible;"/>
				</clipPath>
				<g style="clip-path:url(#SVGID_10_);">
					<defs>
						<rect id="SVGID_11_" x="17.162" y="37.279" width="1.444" height="1.444"/>
					</defs>
					<clipPath id="SVGID_12_">
						<use xlink:href="#SVGID_11_"  style="overflow:visible;"/>
					</clipPath>
					<path style="clip-path:url(#SVGID_12_);fill:#A7792B;" d="M18.395,38.512c-0.283,0.282-0.739,0.282-1.02,0
						c-0.283-0.283-0.283-0.739,0-1.021c0.281-0.282,0.737-0.282,1.02,0S18.678,38.229,18.395,38.512"/>
				</g>
			</g>
		</g>
	</g>
</g>
<g>
	<defs>
		<rect id="SVGID_13_" width="64" height="64"/>
	</defs>
	<clipPath id="SVGID_14_">
		<use xlink:href="#SVGID_13_"  style="overflow:visible;"/>
	</clipPath>
	<g style="clip-path:url(#SVGID_14_);">
		<defs>
			<rect id="SVGID_15_" width="64" height="64"/>
		</defs>
		<clipPath id="SVGID_16_">
			<use xlink:href="#SVGID_15_"  style="overflow:visible;"/>
		</clipPath>
		<g style="opacity:0.5;clip-path:url(#SVGID_16_);enable-background:new    ;">
			<g>
				<defs>
					<rect id="SVGID_17_" x="16" y="49" width="2" height="3"/>
				</defs>
				<clipPath id="SVGID_18_">
					<use xlink:href="#SVGID_17_"  style="overflow:visible;"/>
				</clipPath>
				<g style="clip-path:url(#SVGID_18_);">
					<defs>
						<rect id="SVGID_19_" x="16.418" y="49.935" width="1.443" height="1.443"/>
					</defs>
					<clipPath id="SVGID_20_">
						<use xlink:href="#SVGID_19_"  style="overflow:visible;"/>
					</clipPath>
					<path style="clip-path:url(#SVGID_20_);fill:#A7792B;" d="M17.65,51.167c-0.283,0.281-0.739,0.281-1.021,0
						c-0.281-0.282-0.281-0.738,0-1.021c0.282-0.282,0.738-0.282,1.021,0C17.932,50.429,17.932,50.885,17.65,51.167"/>
				</g>
			</g>
		</g>
	</g>
</g>
<g>
	<defs>
		<rect id="SVGID_21_" width="64" height="64"/>
	</defs>
	<clipPath id="SVGID_22_">
		<use xlink:href="#SVGID_21_"  style="overflow:visible;"/>
	</clipPath>
	<g style="clip-path:url(#SVGID_22_);">
		<defs>
			<rect id="SVGID_23_" width="64" height="64"/>
		</defs>
		<clipPath id="SVGID_24_">
			<use xlink:href="#SVGID_23_"  style="overflow:visible;"/>
		</clipPath>
		<g style="opacity:0.5;clip-path:url(#SVGID_24_);enable-background:new    ;">
			<g>
				<defs>
					<rect id="SVGID_25_" x="12" y="43" width="2" height="3"/>
				</defs>
				<clipPath id="SVGID_26_">
					<use xlink:href="#SVGID_25_"  style="overflow:visible;"/>
				</clipPath>
				<g style="clip-path:url(#SVGID_26_);">
					<defs>
						<rect id="SVGID_27_" x="12.555" y="43.979" width="1.445" height="1.443"/>
					</defs>
					<clipPath id="SVGID_28_">
						<use xlink:href="#SVGID_27_"  style="overflow:visible;"/>
					</clipPath>
					<path style="clip-path:url(#SVGID_28_);fill:#A7792B;" d="M13.788,45.212c-0.284,0.281-0.739,0.281-1.021,0
						c-0.283-0.282-0.283-0.739,0-1.021c0.282-0.281,0.737-0.281,1.021,0C14.071,44.473,14.071,44.93,13.788,45.212"/>
				</g>
			</g>
		</g>
		<path style="clip-path:url(#SVGID_24_);fill:#FDECB3;" d="M43.852,8.109c0,1.716,2.119,3.109,4.736,3.109
			c2.618,0,4.738-1.393,4.738-3.109c0-1.717-2.12-3.109-4.738-3.109C45.971,5,43.852,6.393,43.852,8.109"/>
		<path style="clip-path:url(#SVGID_24_);fill:#BD9B60;" d="M48.588,11.719c-2.936,0-5.236-1.585-5.236-3.61
			c0-2.024,2.301-3.609,5.236-3.609c2.938,0,5.238,1.585,5.238,3.609C53.826,10.134,51.526,11.719,48.588,11.719 M48.588,5.5
			c-2.296,0-4.236,1.195-4.236,2.609s1.94,2.61,4.236,2.61c2.298,0,4.238-1.196,4.238-2.61S50.886,5.5,48.588,5.5"/>
	</g>
</g>
</svg>
