<?xml version="1.0" encoding="iso-8859-1"?>
<!-- Generator: Adobe Illustrator 16.0.0, SVG Export Plug-In . SVG Version: 6.00 Build 0)  -->
<!DOCTYPE svg PUBLIC "-//W3C//DTD SVG 1.1//EN" "http://www.w3.org/Graphics/SVG/1.1/DTD/svg11.dtd">
<svg version="1.1" id="Layer_1" xmlns="http://www.w3.org/2000/svg" xmlns:xlink="http://www.w3.org/1999/xlink" x="0px" y="0px"
	 width="64px" height="64px" viewBox="0 0 64 64" style="enable-background:new 0 0 64 64;" xml:space="preserve">
<g>
	<defs>
		<rect id="SVGID_1_" width="64" height="64"/>
	</defs>
	<clipPath id="SVGID_2_">
		<use xlink:href="#SVGID_1_"  style="overflow:visible;"/>
	</clipPath>
	<g style="clip-path:url(#SVGID_2_);">
		<defs>
			<rect id="SVGID_3_" width="64" height="64"/>
		</defs>
		<clipPath id="SVGID_4_">
			<use xlink:href="#SVGID_3_"  style="overflow:visible;"/>
		</clipPath>
		<path style="clip-path:url(#SVGID_4_);fill:#76776A;" d="M32.021,53.941c-0.552,0-1-0.447-1-1v-6.246c0-0.552,0.448-1,1-1
			s1,0.448,1,1v6.246C33.021,53.494,32.573,53.941,32.021,53.941"/>
		<path style="clip-path:url(#SVGID_4_);fill:#76776A;" d="M27.033,53.286c-0.218,0-0.437-0.071-0.621-0.217
			c-0.432-0.343-0.505-0.972-0.162-1.404l4.429-5.591c0.343-0.434,0.972-0.505,1.405-0.163c0.433,0.343,0.506,0.972,0.162,1.405
			l-4.429,5.591C27.62,53.156,27.328,53.286,27.033,53.286"/>
		<path style="clip-path:url(#SVGID_4_);fill:#76776A;" d="M29.28,54c-0.139,0-0.281-0.029-0.416-0.091
			c-0.501-0.229-0.723-0.822-0.493-1.325l2.967-6.486c0.23-0.502,0.824-0.722,1.325-0.492c0.502,0.229,0.723,0.822,0.493,1.325
			l-2.966,6.485C30.022,53.783,29.659,54,29.28,54"/>
		<path style="clip-path:url(#SVGID_4_);fill:#76776A;" d="M24.584,52.99c-0.282,0-0.562-0.118-0.759-0.349
			c-0.36-0.419-0.312-1.05,0.107-1.41l5.41-4.644c0.419-0.36,1.051-0.312,1.41,0.107c0.36,0.419,0.312,1.051-0.107,1.41l-5.41,4.644
			C25.046,52.911,24.814,52.99,24.584,52.99"/>
		<path style="clip-path:url(#SVGID_4_);fill:#76776A;" d="M22.503,52.021c-0.351,0-0.692-0.186-0.875-0.515
			c-0.269-0.482-0.095-1.091,0.388-1.36l7.437-4.139c0.483-0.268,1.092-0.095,1.36,0.388c0.269,0.482,0.095,1.092-0.388,1.36
			l-7.437,4.14C22.835,51.98,22.668,52.021,22.503,52.021"/>
		<path style="clip-path:url(#SVGID_4_);fill:#76776A;" d="M37.008,53.286c-0.295,0-0.587-0.13-0.784-0.379l-4.429-5.591
			c-0.343-0.434-0.27-1.062,0.163-1.405c0.433-0.342,1.062-0.271,1.403,0.163l4.43,5.591c0.344,0.433,0.27,1.062-0.162,1.404
			C37.444,53.215,37.226,53.286,37.008,53.286"/>
		<path style="clip-path:url(#SVGID_4_);fill:#76776A;" d="M34.76,54c-0.379,0-0.741-0.217-0.91-0.584l-2.965-6.485
			c-0.23-0.503-0.009-1.097,0.493-1.327c0.503-0.229,1.096-0.008,1.326,0.494l2.965,6.486c0.229,0.503,0.009,1.096-0.493,1.326
			C35.041,53.971,34.899,54,34.76,54"/>
		<path style="clip-path:url(#SVGID_4_);fill:#76776A;" d="M39.457,52.99c-0.23,0-0.462-0.079-0.65-0.241l-5.41-4.644
			c-0.42-0.359-0.468-0.991-0.107-1.41c0.358-0.418,0.99-0.467,1.409-0.107l5.411,4.644c0.418,0.36,0.467,0.991,0.107,1.41
			C40.019,52.872,39.738,52.99,39.457,52.99"/>
		<path style="clip-path:url(#SVGID_4_);fill:#76776A;" d="M41.537,52.021c-0.164,0-0.331-0.041-0.485-0.126l-7.437-4.14
			c-0.482-0.269-0.656-0.878-0.388-1.36c0.27-0.482,0.879-0.655,1.36-0.388l7.438,4.139c0.481,0.27,0.656,0.878,0.387,1.36
			C42.229,51.836,41.889,52.021,41.537,52.021"/>
		<path style="clip-path:url(#SVGID_4_);fill:#E0E2D3;" d="M51.221,31.75c-2.373-5.286-6.031-8.699-10.939-12
			c-2.058-1.384-3.053-3.055-3.018-5.357c0.01-0.512,0.021-2.96,0.018-3.393H26.92c-0.004,0.433,0.008,2.881,0.018,3.393
			c0.036,2.302-0.96,3.973-3.018,5.357c-5.22,3.513-9.416,7.276-11.392,13.162c-0.775,2.3-1.252,4.965,0.514,6.988
			c0.564,0.642,1.434,1.519,2.14,2.052c1.402,1.056,0.858,1.461,1.597,2.854c1.163,2.195,3.824,3.462,6.408,3.792
			c2.534,0.327,5.15-1.341,7.272-0.712c4.622,2.678,12.174,2.102,15.333-2.282c0.691-0.957,1.111-2.026,2.112-2.791
			c1.269-0.527,2.021-1.068,2.81-2.115C52.663,38.105,52.465,34.526,51.221,31.75"/>
		<path style="clip-path:url(#SVGID_4_);fill:#BBBBB4;" d="M15.757,42.688c-2.024-2.315-1.32-5.375-0.614-7.477
			c2.235-6.659,6.937-10.521,11.242-13.419c1.966-1.32,2.829-2.841,2.798-4.933c-0.01-0.54-0.022-5.25-0.018-5.65l1,0.012
			c-0.004,0.397,0.008,5.083,0.018,5.621c0.036,2.436-0.993,4.272-3.239,5.78c-5.984,4.029-9.128,7.769-10.853,12.908
			c-0.681,2.025-1.248,4.594,0.419,6.5L15.757,42.688z"/>
		<path style="clip-path:url(#SVGID_4_);fill:#BBBBB4;" d="M47.271,43.622l-0.753-0.657c1.279-1.467,1.833-3.276,1.644-5.38
			c-0.417-4.623-4.46-10.094-8.239-13.109c-0.43-0.343-0.854-0.666-1.268-0.98c-2.551-1.945-4.754-3.624-4.739-7.308l0.011-1.595
			c0.009-1.003,0.016-1.779,0.004-3.16l1-0.009c0.012,1.389,0.005,2.169-0.004,3.178l-0.011,1.591
			c-0.013,3.185,1.911,4.651,4.346,6.507c0.419,0.318,0.849,0.647,1.284,0.995c3.824,3.05,8.149,8.67,8.611,13.801
			C49.372,39.881,48.737,41.942,47.271,43.622"/>
		<path style="clip-path:url(#SVGID_4_);fill:#BBBBB4;" d="M30.543,48.117c-8.503-5.323-4.823-16.121-3.492-19.303
			c0.45-1.077,1.171-2.194,1.934-3.376c1.257-1.946,2.557-3.958,2.557-5.739v-8.378h1v8.378c0,2.076-1.381,4.214-2.716,6.282
			c-0.739,1.143-1.437,2.223-1.852,3.219c-1.607,3.844-4.522,13.298,3.099,18.069L30.543,48.117z"/>
		<path style="clip-path:url(#SVGID_4_);fill:#76776A;" d="M36.908,50.502L36.908,50.502c-2.484,0-4.904-0.597-6.834-1.685
			c-0.779-0.19-1.884,0.048-3.042,0.327c-1.261,0.306-2.606,0.621-3.972,0.445c-3.277-0.419-5.955-2.032-7.165-4.316
			c-0.325-0.613-0.448-1.084-0.538-1.429c-0.124-0.476-0.166-0.635-0.776-1.096c-0.804-0.606-1.736-1.559-2.29-2.189
			c-2.196-2.516-1.457-5.752-0.711-7.968c2.191-6.522,6.958-10.426,11.782-13.671c1.811-1.218,2.606-2.61,2.576-4.512
			c-0.01-0.513-0.021-2.981-0.018-3.417L25.929,10H38.27l0.012,0.989c0.004,0.436-0.008,2.907-0.018,3.424
			c-0.029,1.897,0.766,3.289,2.576,4.507c5.817,3.912,9.09,7.511,11.293,12.42c1.24,2.767,1.728,6.836-0.621,9.958
			c-0.852,1.133-1.699,1.787-3.094,2.384c-0.493,0.407-0.817,0.936-1.189,1.543c-0.199,0.324-0.399,0.649-0.627,0.964
			C44.656,48.89,41.032,50.502,36.908,50.502 M29.396,46.743c0.488,0,0.928,0.06,1.347,0.185l0.217,0.094
			c1.648,0.954,3.76,1.48,5.948,1.48c3.482,0,6.5-1.302,8.071-3.483c0.198-0.274,0.371-0.558,0.543-0.838
			c0.437-0.713,0.933-1.521,1.774-2.163l0.223-0.128c1.135-0.472,1.739-0.925,2.395-1.795c1.825-2.425,1.4-5.689,0.395-7.937
			c-2.037-4.538-5.104-7.893-10.586-11.578c-2.367-1.593-3.499-3.622-3.459-6.203c0.007-0.337,0.014-1.498,0.018-2.377H27.92
			c0.003,0.879,0.011,2.04,0.017,2.373c0.041,2.584-1.091,4.614-3.459,6.206c-4.533,3.05-9.002,6.693-11.003,12.65
			c-0.949,2.817-0.85,4.672,0.32,6.013c0.529,0.602,1.35,1.428,1.989,1.91c1.082,0.816,1.307,1.421,1.508,2.188
			c0.079,0.304,0.153,0.591,0.369,0.996c1.067,2.015,3.619,3.011,5.652,3.271c1.047,0.133,2.155-0.142,3.248-0.406
			C27.493,46.976,28.455,46.743,29.396,46.743"/>
	</g>
</g>
</svg>
