<?xml version="1.0" encoding="iso-8859-1"?>
<!-- Generator: Adobe Illustrator 16.0.0, SVG Export Plug-In . SVG Version: 6.00 Build 0)  -->
<!DOCTYPE svg PUBLIC "-//W3C//DTD SVG 1.1//EN" "http://www.w3.org/Graphics/SVG/1.1/DTD/svg11.dtd">
<svg version="1.1" id="Layer_1" xmlns="http://www.w3.org/2000/svg" xmlns:xlink="http://www.w3.org/1999/xlink" x="0px" y="0px"
	 width="64px" height="64px" viewBox="0 0 64 64" style="enable-background:new 0 0 64 64;" xml:space="preserve">
<g>
	<defs>
		<path id="SVGID_1_" d="M18.676,35.7c-0.207,2.663,0.674,5.336,2.431,7.347c1.181,1.355,2.677,2.038,3.871,3.28
			c1.239,1.295,2.668,2.944,1.717,4.772c-1.223,2.348-2.424,4.356-0.761,6.9c0.253-1.607,0.59-3.506,1.574-4.84
			c1.157-1.567,2.977-2.47,2.174-4.878c-0.502-1.927,3.382-2.672,4.789-3.684c2.596-1.865,4.165-4.921,4.165-8.116
			c0-6.399-5.048-9.697-10.071-9.698C23.841,26.784,19.139,29.701,18.676,35.7"/>
	</defs>
	<clipPath id="SVGID_2_">
		<use xlink:href="#SVGID_1_"  style="overflow:visible;"/>
	</clipPath>
	
		<linearGradient id="SVGID_3_" gradientUnits="userSpaceOnUse" x1="0" y1="64.0039" x2="1" y2="64.0039" gradientTransform="matrix(-1.400000e-06 -31.2153 -31.2153 1.400000e-06 2026.4375 57.9999)">
		<stop  offset="0" style="stop-color:#FFFFFF"/>
		<stop  offset="0.0396" style="stop-color:#FFFFFF"/>
		<stop  offset="0.3804" style="stop-color:#FFFFFF"/>
		<stop  offset="0.4056" style="stop-color:#F6EEF0"/>
		<stop  offset="0.49" style="stop-color:#DABAC2"/>
		<stop  offset="0.5756" style="stop-color:#C38D9A"/>
		<stop  offset="0.6611" style="stop-color:#AF697A"/>
		<stop  offset="0.7464" style="stop-color:#A04C61"/>
		<stop  offset="0.8313" style="stop-color:#96384F"/>
		<stop  offset="0.916" style="stop-color:#8F2C45"/>
		<stop  offset="1" style="stop-color:#8D2841"/>
	</linearGradient>
	<rect x="18.469" y="26.784" style="clip-path:url(#SVGID_2_);fill:url(#SVGID_3_);" width="20.167" height="31.216"/>
</g>
<g>
	<defs>
		<rect id="SVGID_4_" width="64" height="64"/>
	</defs>
	<clipPath id="SVGID_5_">
		<use xlink:href="#SVGID_4_"  style="overflow:visible;"/>
	</clipPath>
	<path style="clip-path:url(#SVGID_5_);fill:#641A32;" d="M28.565,26.784c5.021,0,10.07,3.299,10.07,9.697
		c0,3.196-1.57,6.252-4.165,8.117c-1.406,1.012-5.292,1.757-4.789,3.684c0.803,2.407-1.016,3.311-2.173,4.877
		c-0.985,1.335-1.321,3.234-1.575,4.841c-1.662-2.544-0.461-4.553,0.761-6.899c0.952-1.829-0.477-3.479-1.716-4.773
		c-1.194-1.242-2.69-1.925-3.872-3.28c-1.756-2.012-2.638-4.685-2.431-7.347C19.138,29.701,23.84,26.784,28.565,26.784
		 M28.565,24.784c-5.324,0-11.313,3.368-11.884,10.763c-0.248,3.193,0.816,6.407,2.919,8.815c0.777,0.89,1.636,1.523,2.395,2.082
		c0.568,0.419,1.104,0.814,1.54,1.269c1.434,1.497,1.591,2.068,1.385,2.465l-0.168,0.323c-1.212,2.311-2.72,5.187-0.493,8.593
		C24.633,59.667,25.268,60,25.934,60c0.139,0,0.279-0.015,0.419-0.044c0.809-0.174,1.427-0.827,1.557-1.645
		c0.186-1.179,0.468-2.96,1.209-3.965c0.21-0.284,0.476-0.569,0.759-0.87c1.003-1.073,2.49-2.659,1.855-5.292
		c0.426-0.287,1.268-0.649,1.762-0.862c0.793-0.343,1.543-0.666,2.145-1.1c3.129-2.25,4.997-5.892,4.997-9.741
		C40.636,28.802,34.564,24.784,28.565,24.784"/>
	<path style="clip-path:url(#SVGID_5_);fill:#8BA43C;" d="M44.212,10.375c-0.831-0.162-5.148-0.832-8.47,1.798
		c-2.921,2.314-3.502,5.678-3.615,7.059c-2.349,2.192-3.41,6.002-4.061,9.504c0.286,0.096,0.588,0.156,0.907,0.156
		c0.687,0,1.31-0.247,1.803-0.651c0.588-2.667,1.644-5.923,2.945-7.007c1.404,0.249,4.738,0.521,7.688-1.663
		c3.406-2.526,3.88-6.867,3.942-7.711c0.018-0.245-0.03-0.482-0.127-0.693C45.039,10.769,44.672,10.463,44.212,10.375"/>
	<path style="clip-path:url(#SVGID_5_);fill:#627935;" d="M42.008,10.179c1.073,0,1.89,0.134,2.204,0.196
		c0.46,0.088,0.827,0.393,1.013,0.792c0.096,0.211,0.145,0.448,0.127,0.693c-0.062,0.844-0.535,5.185-3.942,7.711
		c-1.987,1.472-4.149,1.828-5.777,1.828c-0.789,0-1.452-0.084-1.911-0.165c-1.301,1.084-2.357,4.34-2.944,7.007
		c-0.494,0.403-1.117,0.651-1.804,0.651c-0.319,0-0.621-0.06-0.907-0.156c0.651-3.502,1.712-7.312,4.061-9.504
		c0.113-1.381,0.693-4.745,3.615-7.059C37.805,10.539,40.251,10.179,42.008,10.179 M42.008,9.179c-1.868,0-4.58,0.383-6.887,2.209
		c-2.986,2.367-3.756,5.717-3.953,7.382c-2.471,2.518-3.48,6.531-4.085,9.783c-0.091,0.489,0.192,0.971,0.664,1.13
		c0.411,0.139,0.823,0.209,1.226,0.209c0.892,0,1.735-0.303,2.436-0.877c0.175-0.142,0.296-0.339,0.344-0.559
		c0.627-2.845,1.511-5.169,2.32-6.157c0.426,0.055,0.958,0.1,1.559,0.1c1.659,0,4.112-0.351,6.372-2.024
		c3.752-2.781,4.277-7.521,4.345-8.443c0.028-0.404-0.046-0.813-0.216-1.182c-0.328-0.706-0.975-1.212-1.732-1.357
		C44.072,9.329,43.178,9.179,42.008,9.179"/>
	<path style="clip-path:url(#SVGID_5_);fill:#8BA43C;" d="M28.991,20.833c0.757-1.039,2.618-4.064,1.834-7.842
		c-0.861-4.154-4.603-6.406-5.343-6.816C25.265,6.057,25.032,6,24.8,6c-0.441,0-0.871,0.205-1.144,0.586
		c-0.496,0.685-2.917,4.323-1.925,8.442c0.836,3.466,3.442,5.388,4.721,6.147c0.251,1.447,0.48,3.641,0.525,6.892
		c0.515,0.507,1.214,0.825,1.996,0.825c0.195,0,0.385-0.023,0.569-0.06C29.525,25.163,29.288,22.599,28.991,20.833"/>
	<path style="clip-path:url(#SVGID_5_);fill:#627935;" d="M24.8,6c0.231,0,0.465,0.057,0.682,0.175
		c0.74,0.41,4.482,2.662,5.343,6.816c0.784,3.778-1.077,6.803-1.834,7.842c0.297,1.766,0.534,4.33,0.551,7.999
		c-0.184,0.037-0.374,0.06-0.569,0.06c-0.782,0-1.481-0.318-1.996-0.825c-0.045-3.251-0.274-5.445-0.525-6.892
		c-1.279-0.758-3.885-2.681-4.721-6.147c-0.993-4.119,1.429-7.757,1.924-8.442C23.929,6.205,24.359,6,24.8,6 M24.8,5
		c-0.774,0-1.506,0.375-1.957,1.003c-0.539,0.745-3.181,4.707-2.084,9.259c0.831,3.448,3.2,5.5,4.779,6.523
		c0.257,1.673,0.404,3.787,0.439,6.296c0.004,0.263,0.111,0.514,0.299,0.699c0.729,0.717,1.687,1.112,2.697,1.112
		c0.245,0,0.495-0.026,0.764-0.079c0.47-0.093,0.808-0.507,0.805-0.986c-0.014-3.076-0.182-5.681-0.5-7.753
		c0.956-1.426,2.548-4.499,1.762-8.286c-0.949-4.578-5.03-7.04-5.838-7.488C25.607,5.103,25.204,5,24.8,5"/>
	<path style="clip-path:url(#SVGID_5_);fill:#8BA43C;" d="M45.225,11.167c-0.186-0.399-0.553-0.704-1.013-0.792
		c-0.831-0.163-5.148-0.833-8.47,1.797c-2.921,2.314-3.502,5.679-3.615,7.059c-1.25,1.167-2.128,2.797-2.78,4.589
		c-0.096-1.182-0.219-2.174-0.356-2.987c0.757-1.039,2.618-4.064,1.835-7.843c-0.862-4.154-4.603-6.406-5.344-6.815
		C25.266,6.057,25.032,6,24.8,6c-0.441,0-0.871,0.205-1.144,0.585c-0.496,0.686-2.917,4.323-1.925,8.442
		c0.836,3.466,3.442,5.389,4.722,6.147c0.25,1.447,0.479,3.641,0.524,6.892c0.305,0.3,0.679,0.522,1.09,0.663
		c0,0.002,0,0.004-0.001,0.006c0.041,0.014,0.084,0.02,0.125,0.033c0.094,0.027,0.186,0.056,0.284,0.073
		c0.162,0.031,0.327,0.051,0.498,0.051c0.19,0,0.373-0.023,0.551-0.058c0.006-0.001,0.013-0.001,0.018-0.002V28.83
		c0.462-0.097,0.883-0.3,1.235-0.588c0.588-2.667,1.644-5.924,2.944-7.007c1.404,0.249,4.738,0.521,7.688-1.663
		c3.407-2.526,3.88-6.867,3.942-7.712C45.369,11.614,45.321,11.377,45.225,11.167"/>
	<path style="clip-path:url(#SVGID_5_);fill:#627935;" d="M24.8,6c0.231,0,0.465,0.057,0.682,0.175
		c0.74,0.41,4.482,2.662,5.343,6.816c0.784,3.778-1.077,6.803-1.834,7.842c0.137,0.814,0.26,1.806,0.355,2.988
		c0.653-1.793,1.531-3.423,2.781-4.589c0.113-1.381,0.693-4.745,3.615-7.059c2.062-1.633,4.509-1.994,6.266-1.994
		c1.073,0,1.89,0.134,2.204,0.196c0.46,0.088,0.827,0.394,1.013,0.792c0.096,0.211,0.145,0.448,0.127,0.693
		c-0.062,0.844-0.535,5.185-3.942,7.711c-1.987,1.472-4.149,1.828-5.777,1.828c-0.789,0-1.452-0.084-1.911-0.165
		c-1.301,1.084-2.357,4.34-2.944,7.007c-0.352,0.288-0.773,0.492-1.235,0.588v0.003c-0.006,0.001-0.012,0.001-0.018,0.002
		c-0.179,0.036-0.362,0.058-0.551,0.058c-0.171,0-0.337-0.019-0.498-0.05c-0.098-0.018-0.19-0.046-0.284-0.074
		c-0.041-0.012-0.084-0.018-0.125-0.032c0.001-0.002,0.001-0.004,0.001-0.007c-0.412-0.141-0.786-0.362-1.09-0.662
		c-0.045-3.251-0.274-5.445-0.525-6.892c-1.279-0.758-3.885-2.681-4.721-6.147c-0.993-4.119,1.429-7.757,1.924-8.442
		C23.929,6.205,24.359,6,24.8,6 M24.8,4c-1.096,0-2.131,0.531-2.769,1.419c-0.582,0.806-3.444,5.1-2.244,10.078
		c0.845,3.505,3.127,5.685,4.826,6.87c0.21,1.555,0.333,3.476,0.364,5.728c0.007,0.526,0.222,1.028,0.597,1.398
		c0.468,0.46,1.024,0.816,1.655,1.06c0.064,0.029,0.13,0.055,0.197,0.078c0.078,0.026,0.158,0.048,0.239,0.067
		c0.159,0.047,0.304,0.085,0.455,0.112c0.284,0.054,0.569,0.082,0.853,0.082c0.285,0,0.57-0.027,0.869-0.082
		c0.009-0.002,0.018-0.003,0.027-0.005c0.075-0.012,0.148-0.029,0.219-0.049c0.715-0.171,1.389-0.504,1.955-0.967
		c0.348-0.285,0.59-0.678,0.687-1.117c0.596-2.702,1.306-4.446,1.826-5.317c0.326,0.027,0.688,0.044,1.076,0.044
		c2.596,0,5.005-0.768,6.968-2.22c4.103-3.042,4.673-8.176,4.746-9.174c0.041-0.573-0.064-1.151-0.304-1.672
		c-0.466-1-1.38-1.716-2.452-1.922c-0.441-0.086-1.369-0.232-2.582-0.232c-2.026,0-4.976,0.421-7.508,2.426
		c-0.691,0.547-1.273,1.143-1.766,1.757c-1.12-4.862-5.422-7.46-6.286-7.937C25.941,4.146,25.372,4,24.8,4"/>
	<path style="clip-path:url(#SVGID_5_);fill:#8BA43C;" d="M44.212,10.375c-0.831-0.162-5.148-0.832-8.47,1.798
		c-2.921,2.314-3.502,5.678-3.615,7.059c-2.349,2.192-3.41,6.002-4.061,9.504c0.286,0.096,0.588,0.156,0.907,0.156
		c0.687,0,1.31-0.247,1.803-0.651c0.588-2.667,1.644-5.923,2.945-7.007c1.404,0.249,4.738,0.521,7.688-1.663
		c3.406-2.526,3.88-6.867,3.942-7.711c0.018-0.245-0.03-0.482-0.127-0.693C45.039,10.769,44.672,10.463,44.212,10.375"/>
	<path style="clip-path:url(#SVGID_5_);fill:#627935;" d="M42.008,10.179c1.073,0,1.89,0.134,2.204,0.196
		c0.46,0.088,0.827,0.393,1.013,0.792c0.096,0.211,0.145,0.448,0.127,0.693c-0.062,0.844-0.535,5.185-3.942,7.711
		c-1.987,1.472-4.149,1.828-5.777,1.828c-0.789,0-1.452-0.084-1.911-0.165c-1.301,1.084-2.357,4.34-2.944,7.007
		c-0.494,0.403-1.117,0.651-1.804,0.651c-0.319,0-0.621-0.06-0.907-0.156c0.651-3.502,1.712-7.312,4.061-9.504
		c0.113-1.381,0.693-4.745,3.615-7.059C37.805,10.539,40.251,10.179,42.008,10.179 M42.008,9.179c-1.868,0-4.58,0.383-6.887,2.209
		c-2.986,2.367-3.756,5.717-3.953,7.382c-2.471,2.518-3.48,6.531-4.085,9.783c-0.091,0.489,0.192,0.971,0.664,1.13
		c0.411,0.139,0.823,0.209,1.226,0.209c0.892,0,1.735-0.303,2.436-0.877c0.175-0.142,0.296-0.339,0.344-0.559
		c0.627-2.845,1.511-5.169,2.32-6.157c0.426,0.055,0.958,0.1,1.559,0.1c1.659,0,4.112-0.351,6.372-2.024
		c3.752-2.781,4.277-7.521,4.345-8.443c0.028-0.404-0.046-0.813-0.216-1.182c-0.328-0.706-0.975-1.212-1.732-1.357
		C44.072,9.329,43.178,9.179,42.008,9.179"/>
	<path style="clip-path:url(#SVGID_5_);fill:#8BA43C;" d="M28.991,20.833c0.757-1.039,2.618-4.064,1.834-7.842
		c-0.861-4.154-4.603-6.406-5.343-6.816C25.265,6.057,25.032,6,24.8,6c-0.441,0-0.871,0.205-1.144,0.586
		c-0.496,0.685-2.917,4.323-1.925,8.442c0.836,3.466,3.442,5.388,4.721,6.147c0.251,1.447,0.48,3.641,0.525,6.892
		c0.515,0.507,1.214,0.825,1.996,0.825c0.195,0,0.385-0.023,0.569-0.06C29.525,25.163,29.288,22.599,28.991,20.833"/>
	<path style="clip-path:url(#SVGID_5_);fill:#627935;" d="M24.8,6c0.231,0,0.465,0.057,0.682,0.175
		c0.74,0.41,4.482,2.662,5.343,6.816c0.784,3.778-1.077,6.803-1.834,7.842c0.297,1.766,0.534,4.33,0.551,7.999
		c-0.184,0.037-0.374,0.06-0.569,0.06c-0.782,0-1.481-0.318-1.996-0.825c-0.045-3.251-0.274-5.445-0.525-6.892
		c-1.279-0.758-3.885-2.681-4.721-6.147c-0.993-4.119,1.429-7.757,1.924-8.442C23.929,6.205,24.359,6,24.8,6 M24.8,5
		c-0.774,0-1.506,0.375-1.957,1.003c-0.539,0.745-3.181,4.707-2.084,9.259c0.831,3.448,3.2,5.5,4.779,6.523
		c0.257,1.673,0.404,3.787,0.439,6.296c0.004,0.263,0.111,0.514,0.299,0.699c0.729,0.717,1.687,1.112,2.697,1.112
		c0.245,0,0.495-0.026,0.764-0.079c0.47-0.093,0.808-0.507,0.805-0.986c-0.014-3.076-0.182-5.681-0.5-7.753
		c0.956-1.426,2.548-4.499,1.762-8.286c-0.949-4.578-5.03-7.04-5.838-7.488C25.607,5.103,25.204,5,24.8,5"/>
</g>
</svg>
