<?xml version="1.0" encoding="iso-8859-1"?>
<!-- Generator: Adobe Illustrator 16.0.0, SVG Export Plug-In . SVG Version: 6.00 Build 0)  -->
<!DOCTYPE svg PUBLIC "-//W3C//DTD SVG 1.1//EN" "http://www.w3.org/Graphics/SVG/1.1/DTD/svg11.dtd">
<svg version="1.1" id="Layer_1" xmlns="http://www.w3.org/2000/svg" xmlns:xlink="http://www.w3.org/1999/xlink" x="0px" y="0px"
	 width="64px" height="64px" viewBox="0 0 64 64" style="enable-background:new 0 0 64 64;" xml:space="preserve">
<g>
	<defs>
		<rect id="SVGID_1_" width="64" height="64"/>
	</defs>
	<clipPath id="SVGID_2_">
		<use xlink:href="#SVGID_1_"  style="overflow:visible;"/>
	</clipPath>
	<g style="clip-path:url(#SVGID_2_);">
		<defs>
			<rect id="SVGID_3_" width="64" height="64"/>
		</defs>
		<clipPath id="SVGID_4_">
			<use xlink:href="#SVGID_3_"  style="overflow:visible;"/>
		</clipPath>
		<path style="clip-path:url(#SVGID_4_);fill:#6E9140;" d="M7.998,38.861c8.781-2.697,16.788-7.351,23.461-11.545
			c6.671-4.194,14.28-9.353,20.079-15.817c0.1-0.112,0.25-0.169,0.411-0.155c0.166,0.015,0.324,0.094,0.431,0.222
			c0.039,0.049,0.062,0.098,0.104,0.147c2.963,1.712,2.206,6.404,1.836,8.691l-0.02,0.098c-0.872,5.382-2.982,11.006-6.638,17.695
			c-3.423,6.263-6.806,10.878-10.657,14.535l-0.141,0.14c-1.878,1.791-5.791,5.521-9.09,3.587c-0.144-0.084-0.246-0.222-0.283-0.372
			c-0.031-0.153,0.012-0.302,0.116-0.407c6.169-6.156,10.75-13.848,14.421-20.564c1.097-2.012,2.226-4.14,3.32-6.361
			c-1.793,1.98-3.854,4.003-6.244,6.126c-5.414,4.809-10.255,8.111-15.248,10.403l-0.184,0.083c-2.442,1.124-7.52,3.461-10.156,0.77
			c-0.117-0.12-0.175-0.274-0.157-0.423c0.014-0.149,0.108-0.271,0.245-0.341c4.745-2.312,9.115-5.26,13.094-8.341
			c-2.868,1.35-5.62,2.394-8.372,3.175l-0.197,0.057c-2.64,0.747-8.129,2.311-10.347-0.67c-0.098-0.136-0.129-0.293-0.088-0.438
			C7.735,39.017,7.85,38.91,7.998,38.861"/>
		<path style="clip-path:url(#SVGID_4_);fill:#4D642E;" d="M51.9,11.343c0.016,0,0.032,0,0.049,0.002
			c0.166,0.015,0.324,0.094,0.431,0.222c0.039,0.048,0.062,0.097,0.104,0.146c2.963,1.713,2.206,6.404,1.836,8.692l-0.02,0.097
			c-0.872,5.383-2.982,11.007-6.638,17.695c-3.423,6.263-6.806,10.878-10.657,14.535l-0.141,0.14
			c-1.509,1.438-4.33,4.129-7.092,4.129c-0.677,0-1.35-0.161-1.998-0.542c-0.145-0.084-0.246-0.221-0.283-0.372
			c-0.031-0.153,0.012-0.302,0.116-0.407c6.169-6.156,10.75-13.848,14.421-20.564c1.097-2.012,2.226-4.14,3.32-6.361
			c-1.793,1.981-3.854,4.005-6.244,6.127c-5.414,4.809-10.256,8.111-15.247,10.403l-0.185,0.083
			c-1.614,0.743-4.38,2.017-6.832,2.017c-1.256,0-2.43-0.335-3.324-1.247c-0.116-0.12-0.175-0.273-0.156-0.423
			c0.014-0.149,0.107-0.271,0.245-0.341c4.744-2.312,9.114-5.259,13.094-8.341c-2.868,1.35-5.62,2.394-8.372,3.175l-0.198,0.057
			c-1.466,0.415-3.812,1.082-5.988,1.082c-1.74,0-3.373-0.427-4.358-1.752c-0.098-0.136-0.129-0.293-0.088-0.438
			c0.039-0.14,0.153-0.246,0.302-0.295c8.781-2.697,16.788-7.351,23.461-11.544c6.67-4.195,14.28-9.354,20.079-15.818
			C51.627,11.4,51.758,11.343,51.9,11.343 M51.9,9.343c-0.71,0-1.385,0.3-1.853,0.822c-5.623,6.269-13.091,11.332-19.653,15.458
			c-6.564,4.126-14.428,8.7-22.983,11.327c-0.824,0.271-1.423,0.89-1.641,1.668c-0.207,0.728-0.065,1.512,0.39,2.145
			c1.282,1.724,3.289,2.584,5.982,2.584c0.383,0,0.768-0.018,1.152-0.049c-0.189,0.094-0.376,0.187-0.564,0.278
			c-0.773,0.39-1.27,1.102-1.357,1.922c-0.083,0.742,0.173,1.479,0.707,2.03c1.21,1.234,2.808,1.856,4.761,1.856
			c2.891,0,5.882-1.377,7.668-2.2l0.169-0.075c4.329-1.988,8.527-4.688,13.028-8.396c-3.125,5.342-6.868,10.918-11.511,15.551
			c-0.582,0.589-0.827,1.416-0.663,2.223c0.006,0.026,0.012,0.054,0.018,0.08c0.167,0.677,0.612,1.269,1.22,1.622
			c0.917,0.537,1.93,0.812,3.003,0.812c3.565,0,6.757-3.046,8.473-4.682l0.169-0.168c3.972-3.77,7.478-8.545,11.003-14.995
			c3.761-6.881,5.938-12.697,6.852-18.297l0.012-0.062c0.005-0.024,0.01-0.049,0.014-0.073c0.392-2.421,1.292-7.993-2.451-10.519
			c-0.459-0.495-1.07-0.795-1.719-0.852C52.066,9.348,51.959,9.343,51.9,9.343"/>
		<path style="clip-path:url(#SVGID_4_);fill:#6E9140;" d="M27.492,56.087c-0.031-0.153,0.012-0.302,0.116-0.407
			c6.169-6.156,10.75-13.848,14.421-20.564c3.668-6.71,7.672-14.723,9.525-23.239c0.029-0.143,0.13-0.261,0.276-0.31
			c0.145-0.055,0.312-0.048,0.464,0.031c3.193,1.626,2.403,6.472,2.025,8.807l-0.02,0.098c-0.871,5.383-2.982,11.007-6.638,17.695
			c-3.423,6.263-6.806,10.878-10.657,14.535l-0.141,0.14c-1.878,1.791-5.791,5.521-9.09,3.587
			C27.631,56.375,27.529,56.237,27.492,56.087"/>
		<path style="clip-path:url(#SVGID_4_);fill:#4D642E;" d="M52.027,11.53c0.09,0,0.182,0.021,0.268,0.066
			c3.193,1.626,2.403,6.473,2.025,8.808l-0.02,0.098c-0.872,5.382-2.982,11.007-6.638,17.695
			c-3.423,6.263-6.806,10.878-10.657,14.535l-0.141,0.14c-1.509,1.438-4.33,4.129-7.092,4.129c-0.677,0-1.35-0.162-1.998-0.542
			c-0.144-0.084-0.246-0.222-0.283-0.372c-0.031-0.153,0.012-0.302,0.116-0.407c6.169-6.156,10.75-13.848,14.421-20.564
			c3.668-6.71,7.672-14.724,9.524-23.239c0.03-0.144,0.131-0.261,0.277-0.31C51.894,11.542,51.96,11.53,52.027,11.53 M52.027,9.53
			c-0.3,0-0.594,0.052-0.875,0.154c-0.789,0.282-1.383,0.958-1.556,1.779c-1.795,8.253-5.72,16.103-9.322,22.693
			c-3.602,6.59-8.091,14.132-14.079,20.107c-0.582,0.589-0.827,1.416-0.663,2.223c0.006,0.026,0.012,0.054,0.018,0.08
			c0.167,0.677,0.612,1.269,1.22,1.622c0.917,0.537,1.93,0.812,3.003,0.812c3.563,0,6.757-3.046,8.473-4.682l0.169-0.168
			c3.972-3.77,7.478-8.545,11.003-14.995c3.761-6.881,5.938-12.697,6.852-18.298l0.012-0.061c0.005-0.025,0.01-0.049,0.014-0.074
			c0.419-2.588,1.396-8.624-3.093-10.909C52.854,9.632,52.44,9.53,52.027,9.53"/>
		<path style="clip-path:url(#SVGID_4_);fill:#6E9140;" d="M7.696,39.156c0.039-0.14,0.153-0.246,0.302-0.295
			c8.781-2.697,16.788-7.351,23.461-11.545c6.67-4.194,14.28-9.353,20.079-15.817c0.1-0.112,0.25-0.169,0.411-0.155
			c0.166,0.015,0.324,0.094,0.431,0.222c2.261,2.683-0.789,6.472-2.255,8.294l-0.064,0.077c-3.387,4.211-8.058,8.115-14.707,12.292
			c-6.22,3.912-11.629,6.446-17.025,7.978l-0.197,0.057c-2.64,0.746-8.129,2.311-10.347-0.671
			C7.687,39.458,7.655,39.301,7.696,39.156"/>
		<path style="clip-path:url(#SVGID_4_);fill:#4D642E;" d="M51.9,11.343c0.016,0,0.032,0,0.049,0.002
			c0.166,0.015,0.324,0.094,0.431,0.222c2.261,2.682-0.789,6.471-2.255,8.294l-0.064,0.077c-3.387,4.211-8.058,8.115-14.707,12.292
			c-6.221,3.912-11.629,6.446-17.025,7.978l-0.198,0.057c-1.466,0.415-3.812,1.082-5.988,1.082c-1.74,0-3.373-0.427-4.358-1.752
			c-0.098-0.136-0.129-0.293-0.088-0.438c0.039-0.14,0.153-0.246,0.302-0.295c8.781-2.697,16.788-7.351,23.461-11.544
			c6.67-4.195,14.28-9.354,20.079-15.818C51.627,11.4,51.758,11.343,51.9,11.343 M51.9,9.343c-0.71,0-1.385,0.3-1.853,0.822
			c-5.623,6.269-13.091,11.332-19.653,15.458c-6.564,4.126-14.428,8.7-22.983,11.327c-0.824,0.271-1.423,0.89-1.641,1.668
			c-0.207,0.728-0.065,1.512,0.39,2.145c1.282,1.724,3.289,2.584,5.982,2.584c2.444,0,4.99-0.721,6.512-1.151l0.225-0.065
			c5.579-1.582,11.153-4.19,17.539-8.206c6.841-4.297,11.671-8.343,15.201-12.731l0.041-0.049c1.685-2.094,5.57-6.924,2.249-10.865
			c-0.435-0.523-1.089-0.864-1.784-0.925C52.066,9.348,51.959,9.343,51.9,9.343"/>
		<path style="clip-path:url(#SVGID_4_);fill:#6E9140;" d="M13.361,45.714c0.014-0.149,0.107-0.271,0.245-0.341
			c8.092-3.941,15.113-9.738,20.915-14.892c5.805-5.149,12.354-11.404,16.939-18.719c0.081-0.123,0.218-0.198,0.38-0.21
			c0.158-0.011,0.326,0.049,0.448,0.161c2.637,2.384,0.286,6.622-0.844,8.66l-0.048,0.085c-2.607,4.712-6.516,9.293-12.292,14.423
			c-5.414,4.809-10.256,8.111-15.247,10.403l-0.184,0.083c-2.442,1.124-7.52,3.461-10.157,0.77
			C13.401,46.017,13.342,45.862,13.361,45.714"/>
		<path style="clip-path:url(#SVGID_4_);fill:#4D642E;" d="M51.879,11.551c0.146,0,0.298,0.059,0.41,0.162
			c2.637,2.384,0.286,6.622-0.844,8.66l-0.048,0.085c-2.607,4.712-6.516,9.293-12.292,14.423
			c-5.413,4.809-10.255,8.111-15.248,10.403l-0.184,0.083c-1.614,0.743-4.381,2.017-6.832,2.017c-1.257,0-2.431-0.335-3.324-1.247
			c-0.117-0.12-0.175-0.273-0.157-0.423c0.014-0.149,0.108-0.271,0.246-0.341c8.091-3.941,15.113-9.738,20.915-14.892
			c5.805-5.149,12.354-11.404,16.939-18.719c0.081-0.123,0.218-0.198,0.381-0.21C51.854,11.551,51.866,11.551,51.879,11.551
			 M51.879,10.551c-0.023,0-0.083,0.002-0.105,0.003c-0.478,0.035-0.895,0.274-1.147,0.658
			c-4.542,7.244-11.024,13.426-16.769,18.521c-5.748,5.105-12.7,10.849-20.689,14.741c-0.462,0.233-0.758,0.66-0.803,1.149
			c-0.052,0.416,0.105,0.868,0.434,1.209c1.01,1.032,2.369,1.552,4.043,1.552c2.672,0,5.538-1.32,7.25-2.108l0.177-0.078
			c5.09-2.339,10.014-5.696,15.5-10.568c5.87-5.214,9.844-9.881,12.503-14.686l0.043-0.079c1.161-2.093,3.869-6.977,0.645-9.893
			C52.672,10.706,52.274,10.551,51.879,10.551"/>
		<path style="clip-path:url(#SVGID_4_);fill:#8BA43C;" d="M48.719,12.646c0.916-1.342,2.518-1.999,4.069-1.763
			c-0.004,0-0.011-0.005-0.011-0.008c0.193-0.298,1.355-1.891,0.201-3.175L54.282,7c1.979,2.412,1.303,4.051,0.653,4.907
			c1.309,1.174,1.756,3.069,1.06,4.72c-0.489-0.88-1.257-1.724-2.241-2.421c-1.138,0.474-2.096,1.145-2.778,1.919
			c-0.2-1.084,0.042-2.166,0.611-3.043C50.595,12.738,49.607,12.591,48.719,12.646"/>
		<path style="clip-path:url(#SVGID_4_);fill:#627935;" d="M54.282,7c1.979,2.411,1.303,4.051,0.653,4.906
			c1.309,1.174,1.756,3.07,1.06,4.721c-0.489-0.881-1.258-1.725-2.241-2.422c-1.138,0.475-2.096,1.146-2.778,1.919
			c-0.2-1.084,0.042-2.165,0.611-3.043c-0.858-0.297-1.714-0.446-2.505-0.446c-0.123,0-0.244,0.004-0.362,0.011
			c0.792-1.162,2.099-1.811,3.442-1.811c0.207,0,0.416,0.016,0.624,0.048h0.001h-0.001c-0.004-0.001-0.009-0.006-0.009-0.009
			c0.193-0.298,1.355-1.891,0.201-3.175L54.282,7 M54.281,5c-0.321,0-0.646,0.077-0.944,0.237l-1.304,0.7
			c-0.541,0.29-0.919,0.813-1.023,1.417c-0.096,0.542,0.036,1.094,0.359,1.532c-1.736,0.223-3.306,1.172-4.303,2.632
			c-0.43,0.63-0.464,1.451-0.087,2.115c0.356,0.628,1.022,1.013,1.74,1.013c0.04,0,0.079-0.001,0.12-0.004
			c0.036-0.002,0.072-0.004,0.109-0.005c-0.073,0.61-0.055,1.233,0.061,1.85c0.139,0.753,0.694,1.36,1.432,1.565
			c0.177,0.049,0.356,0.072,0.534,0.072c0.565,0,1.114-0.24,1.499-0.677c0.271-0.306,0.618-0.596,1.013-0.853
			c0.311,0.319,0.566,0.657,0.76,1.004c0.354,0.637,1.024,1.029,1.747,1.029c0.037,0,0.072-0.001,0.109-0.003
			c0.764-0.041,1.438-0.515,1.734-1.22c0.809-1.918,0.582-4.078-0.52-5.766c0.479-1.389,0.525-3.453-1.49-5.908
			C55.438,5.255,54.864,5,54.281,5"/>
		<path style="clip-path:url(#SVGID_4_);fill:#8BA43C;" d="M54.816,12.055c-0.459-0.073-0.91-0.244-1.325-0.505
			c-0.226-0.142-0.532-0.497-0.714-0.676c0.193-0.298,1.355-1.89,0.201-3.174L54.282,7C56.391,9.565,55.488,11.258,54.816,12.055"/>
		<path style="clip-path:url(#SVGID_4_);fill:#627935;" d="M54.282,7c2.108,2.564,1.206,4.258,0.534,5.055
			c-0.459-0.074-0.91-0.244-1.325-0.505c-0.226-0.143-0.532-0.497-0.714-0.676c0.193-0.298,1.355-1.891,0.201-3.175L54.282,7
			 M54.281,6c-0.16,0-0.322,0.039-0.472,0.119l-1.304,0.699c-0.271,0.145-0.459,0.407-0.513,0.709
			c-0.053,0.302,0.036,0.613,0.241,0.841c0.25,0.277,0.494,0.776-0.255,1.901l-0.041,0.06c-0.259,0.4-0.201,0.925,0.138,1.258
			c0.041,0.04,0.089,0.091,0.143,0.146c0.219,0.23,0.467,0.491,0.738,0.663c0.532,0.333,1.104,0.551,1.702,0.646
			c0.052,0.009,0.104,0.013,0.157,0.013c0.292,0,0.572-0.128,0.765-0.356c0.885-1.05,1.994-3.268-0.526-6.334
			C54.859,6.127,54.573,6,54.281,6"/>
	</g>
</g>
</svg>
