<?xml version="1.0" encoding="iso-8859-1"?>
<!-- Generator: Adobe Illustrator 16.0.0, SVG Export Plug-In . SVG Version: 6.00 Build 0)  -->
<!DOCTYPE svg PUBLIC "-//W3C//DTD SVG 1.1//EN" "http://www.w3.org/Graphics/SVG/1.1/DTD/svg11.dtd">
<svg version="1.1" id="Layer_1" xmlns="http://www.w3.org/2000/svg" xmlns:xlink="http://www.w3.org/1999/xlink" x="0px" y="0px"
	 width="64px" height="64px" viewBox="0 0 64 64" style="enable-background:new 0 0 64 64;" xml:space="preserve">
<g>
	<defs>
		<rect id="SVGID_1_" width="64" height="64"/>
	</defs>
	<clipPath id="SVGID_2_">
		<use xlink:href="#SVGID_1_"  style="overflow:visible;"/>
	</clipPath>
	<g style="clip-path:url(#SVGID_2_);">
		<defs>
			<rect id="SVGID_3_" width="64" height="64"/>
		</defs>
		<clipPath id="SVGID_4_">
			<use xlink:href="#SVGID_3_"  style="overflow:visible;"/>
		</clipPath>
		<path style="clip-path:url(#SVGID_4_);fill:#8BA43C;" d="M40.834,15.661c4.874,4.876,4.874,12.783,0,17.659
			c-4.879,4.88-12.789,4.88-17.666,0c-4.876-4.876-4.875-12.783,0-17.659C28.045,10.781,35.955,10.78,40.834,15.661"/>
		<path style="clip-path:url(#SVGID_4_);fill:#A8BB6D;" d="M30.632,31.991c-0.133,0-0.268-0.026-0.397-0.083
			c-0.506-0.219-0.739-0.808-0.52-1.314c0.021-0.052,2.202-5.204,0.271-9.461c-1.039-2.291-3.11-3.951-6.157-4.934
			c-0.526-0.169-0.814-0.733-0.645-1.259c0.17-0.525,0.734-0.816,1.259-0.644c3.611,1.164,6.091,3.191,7.371,6.024
			c2.292,5.074-0.16,10.828-0.265,11.07C31.385,31.767,31.018,31.991,30.632,31.991"/>
		<path style="clip-path:url(#SVGID_4_);fill:#A8BB6D;" d="M36.139,29.131c-0.159,0-0.317-0.077-0.414-0.22
			c-0.155-0.229-0.095-0.539,0.134-0.694c0.226-0.153,5.495-3.789,2.896-7.872c-1.012-1.588-1.837-2.544-2.501-3.312
			c-1.205-1.396-1.869-2.164-1.577-4.607c0.033-0.274,0.277-0.468,0.557-0.437c0.273,0.034,0.47,0.282,0.437,0.557
			c-0.24,2.003,0.19,2.502,1.341,3.833c0.649,0.751,1.537,1.779,2.588,3.429c2.497,3.924-0.988,7.758-3.181,9.238
			C36.332,29.103,36.235,29.131,36.139,29.131"/>
		<path style="clip-path:url(#SVGID_4_);fill:#627935;" d="M32.001,37.979c-3.604,0-6.993-1.402-9.541-3.952
			c-5.257-5.257-5.257-13.814,0.001-19.072c2.547-2.55,5.935-3.954,9.54-3.954c3.604,0,6.992,1.404,9.54,3.954
			c5.257,5.258,5.257,13.814-0.001,19.072C38.992,36.576,35.604,37.979,32.001,37.979 M32.001,13c-3.069,0-5.956,1.196-8.125,3.368
			c-4.478,4.479-4.478,11.766,0,16.244c2.17,2.172,5.055,3.366,8.125,3.366c3.068,0,5.954-1.194,8.125-3.366
			c4.479-4.479,4.479-11.766,0-16.244C37.956,14.196,35.07,13,32.001,13"/>
		<path style="clip-path:url(#SVGID_4_);fill:#8BA43C;" d="M21.268,52c-6.896,0-12.49-5.594-12.49-12.49
			c0-6.895,5.594-12.488,12.49-12.488c6.895,0,12.488,5.593,12.488,12.488C33.756,46.406,28.163,52,21.268,52"/>
		<path style="clip-path:url(#SVGID_4_);fill:#A8BB6D;" d="M10.185,41.761c-0.432,0-0.876-0.027-1.336-0.085
			C8.3,41.607,7.912,41.107,7.98,40.56c0.068-0.549,0.571-0.939,1.117-0.868c5.254,0.655,8.137-3.358,10.641-7.527
			c2.577-4.293,7.588-3.929,7.8-3.911c0.55,0.046,0.959,0.529,0.914,1.08c-0.046,0.549-0.515,0.959-1.077,0.914
			c-0.161-0.013-3.993-0.265-5.922,2.947C19.619,36.248,16.308,41.761,10.185,41.761"/>
		<path style="clip-path:url(#SVGID_4_);fill:#A8BB6D;" d="M27.741,42.432c-6.408,0-9.98-5.713-10.025-5.786
			c-0.144-0.235-0.069-0.543,0.167-0.687c0.234-0.144,0.543-0.069,0.687,0.166c0.213,0.35,5.352,8.522,14.572,3.914
			c0.247-0.124,0.547-0.023,0.671,0.224c0.123,0.247,0.023,0.548-0.224,0.671C31.438,42.009,29.485,42.432,27.741,42.432"/>
		<path style="clip-path:url(#SVGID_4_);fill:#A8BB6D;" d="M27.513,50.742c-0.148,0-0.295-0.065-0.394-0.19
			c-1.246-1.587-1.902-1.635-3.655-1.763c-0.99-0.071-2.346-0.171-4.258-0.595c-4.544-1.01-4.79-6.185-4.285-8.779
			c0.052-0.271,0.316-0.449,0.585-0.396c0.271,0.053,0.448,0.315,0.396,0.587c-0.051,0.267-1.207,6.562,3.521,7.612
			c1.84,0.408,3.101,0.5,4.113,0.574c1.838,0.135,2.851,0.209,4.37,2.142c0.17,0.217,0.132,0.531-0.084,0.701
			C27.729,50.708,27.621,50.742,27.513,50.742"/>
		<path style="clip-path:url(#SVGID_4_);fill:#A8BB6D;" d="M10.534,33.764c-0.174,0-0.343-0.091-0.436-0.253
			c-0.136-0.24-0.051-0.545,0.189-0.682c7.473-4.243,10.815-0.836,10.954-0.689c0.189,0.202,0.18,0.518-0.021,0.707
			c-0.202,0.189-0.517,0.179-0.706-0.019c-0.13-0.135-3.005-2.949-9.733,0.87C10.702,33.743,10.617,33.764,10.534,33.764"/>
		<path style="clip-path:url(#SVGID_4_);fill:#627935;" d="M21.268,53c-7.438,0-13.49-6.052-13.49-13.49
			c0-7.437,6.052-13.488,13.49-13.488c7.437,0,13.488,6.051,13.488,13.488C34.756,46.948,28.705,53,21.268,53 M21.268,28.022
			c-6.336,0-11.49,5.154-11.49,11.488c0,6.336,5.154,11.49,11.49,11.49c6.334,0,11.488-5.154,11.488-11.49
			C32.756,33.176,27.602,28.022,21.268,28.022"/>
		<path style="clip-path:url(#SVGID_4_);fill:#8BA43C;" d="M55.223,39.51c0,6.896-5.594,12.49-12.49,12.49
			s-12.489-5.594-12.489-12.49c0-6.895,5.592-12.488,12.489-12.488S55.223,32.615,55.223,39.51"/>
		<path style="clip-path:url(#SVGID_4_);fill:#A8BB6D;" d="M43.803,52.638c-0.042,0-0.084-0.002-0.126-0.008
			c-0.548-0.068-0.937-0.568-0.867-1.116c0.661-5.291-3.38-8.193-7.577-10.713c-4.318-2.592-3.951-7.629-3.933-7.842
			c0.046-0.55,0.528-0.959,1.08-0.914c0.549,0.046,0.957,0.527,0.914,1.076c-0.013,0.163-0.268,4.022,2.967,5.965
			c3.29,1.975,9.412,5.649,8.533,12.677C44.73,52.269,44.299,52.638,43.803,52.638"/>
		<path style="clip-path:url(#SVGID_4_);fill:#A8BB6D;" d="M39.608,43.135c-0.169,0-0.333-0.086-0.427-0.24
			c-0.145-0.235-0.07-0.543,0.166-0.688c0.35-0.214,8.523-5.354,3.913-14.571c-0.123-0.247-0.022-0.547,0.224-0.671
			c0.248-0.123,0.548-0.023,0.672,0.224c5.025,10.05-4.195,15.816-4.288,15.873C39.786,43.11,39.697,43.135,39.608,43.135"/>
		<path style="clip-path:url(#SVGID_4_);fill:#A8BB6D;" d="M44.66,46.043c-0.752,0-1.45-0.075-2.023-0.187
			c-0.271-0.052-0.447-0.314-0.396-0.584c0.053-0.271,0.314-0.448,0.586-0.396c0.27,0.051,6.562,1.208,7.612-3.521
			c0.409-1.841,0.501-3.102,0.575-4.114c0.134-1.838,0.208-2.851,2.141-4.369c0.218-0.171,0.532-0.133,0.702,0.084
			c0.171,0.217,0.133,0.532-0.084,0.702c-1.586,1.246-1.634,1.902-1.762,3.656c-0.072,0.99-0.171,2.346-0.596,4.257
			C50.63,45.112,47.314,46.043,44.66,46.043"/>
		<path style="clip-path:url(#SVGID_4_);fill:#A8BB6D;" d="M36.485,50.744c-0.175,0-0.344-0.091-0.436-0.254
			c-4.242-7.476-0.835-10.815-0.688-10.954c0.202-0.188,0.52-0.18,0.707,0.021c0.188,0.201,0.18,0.517-0.02,0.706
			c-0.133,0.131-2.948,3.006,0.871,9.735c0.137,0.239,0.052,0.544-0.188,0.682C36.654,50.723,36.568,50.744,36.485,50.744"/>
		<path style="clip-path:url(#SVGID_4_);fill:#627935;" d="M42.732,53c-7.438,0-13.489-6.052-13.489-13.49
			c0-7.437,6.051-13.488,13.489-13.488c7.438,0,13.49,6.051,13.49,13.488C56.223,46.948,50.17,53,42.732,53 M42.732,28.022
			c-6.335,0-11.489,5.154-11.489,11.488c0,6.336,5.154,11.49,11.489,11.49c6.336,0,11.49-5.154,11.49-11.49
			C54.223,33.176,49.068,28.022,42.732,28.022"/>
	</g>
</g>
</svg>
