<?xml version="1.0" encoding="iso-8859-1"?>
<!-- Generator: Adobe Illustrator 16.0.0, SVG Export Plug-In . SVG Version: 6.00 Build 0)  -->
<!DOCTYPE svg PUBLIC "-//W3C//DTD SVG 1.1//EN" "http://www.w3.org/Graphics/SVG/1.1/DTD/svg11.dtd">
<svg version="1.1" id="Layer_1" xmlns="http://www.w3.org/2000/svg" xmlns:xlink="http://www.w3.org/1999/xlink" x="0px" y="0px"
	 width="64px" height="64px" viewBox="0 0 64 64" style="enable-background:new 0 0 64 64;" xml:space="preserve">
<g>
	<defs>
		<rect id="SVGID_1_" width="64" height="64"/>
	</defs>
	<clipPath id="SVGID_2_">
		<use xlink:href="#SVGID_1_"  style="overflow:visible;"/>
	</clipPath>
	<g style="clip-path:url(#SVGID_2_);">
		<defs>
			<rect id="SVGID_3_" width="64" height="64"/>
		</defs>
		<clipPath id="SVGID_4_">
			<use xlink:href="#SVGID_3_"  style="overflow:visible;"/>
		</clipPath>
		<path style="clip-path:url(#SVGID_4_);fill:#627935;" d="M47.952,49.604c0.113,1.114,0.74,2.675,1.257,3.906l3.322,0.825
			c0.017,0.005,0.045,0.01,0.062,0.016l2.057,0.512c0.015-0.017,0.044-0.037,0.056-0.053c0.598-0.67-0.002-1.846,0.484-2.617
			l0.002-0.002l-0.002,0.002l0.002-0.002c0.75-1.178,0.271-2.33-0.095-3.564c-0.455-1.537,0.08-3.22,0.148-4.771
			c0.043-0.918-0.032-1.857-0.488-2.694c-0.694-1.304-0.21-1.687,0.261-2.962c0.37-1.025-0.508-1.828,0.113-3.006
			c0.696-1.318,0.257-1.895-0.519-3.049c-0.586-0.873-0.49-1.797-0.596-2.777c-0.172-1.629-1.397-1.504-2.039-2.73
			c-0.475-0.914,0.098-2.062-0.083-3.037c-0.282-1.467-0.604-2.565-0.619-4.069c-0.008-1.444-1.08-2.05-1.582-3.269
			c-0.497-1.234,1.265-3.405,0.29-4.271c-0.711-0.625-1.8-0.37-2.293-1.267c-0.515-0.949-0.875-1.548-1.662-2.326
			c-1.048-1.046-2.348-1.964-3.859-2.144C40.78,6.09,38.895,4.82,37.627,5.024c-1.555,0.242-3.123,2.148-3.974,3.326
			c-0.783,1.071,0.58,1.808,0.625,2.805c-0.091,1.009-1.863,1.744-1.197,2.92c0.57,0.994,1.274,1.2,0.713,2.54
			c-0.571,1.342-0.666,1.549,0.099,2.913c0.665,1.176-0.789,2.27-1.27,3.197c-0.869,1.709,0.34,1.71,1.144,2.906
			c0.838,1.231-0.301,2.632,0.363,3.863c0.511,0.96,1.175,1.415,1.165,2.529c-0.016,0.806-0.54,2.431,0.507,2.881
			c1.42,0.604,0.719,1.734,1.141,2.872c0.357,0.949,1.69,0.89,2.195,1.802c0.444,0.835,1.442,0.876,1.749,1.594
			c0.473,1.087,0.539,2.12,2.161,1.838c1.127,0.088,1.599,1.639,2.086,2.535C46.133,47.387,47.729,47.374,47.952,49.604
			 M55.184,52.202C55.064,52.398,54.906,52.647,55.184,52.202"/>
		<path style="clip-path:url(#SVGID_4_);fill:#4D642E;" d="M37.918,5.002c1.253,0,2.965,1.1,4.251,1.251
			c1.512,0.181,2.812,1.099,3.859,2.145c0.787,0.777,1.147,1.376,1.662,2.326c0.493,0.896,1.582,0.641,2.293,1.266
			c0.975,0.866-0.787,3.037-0.29,4.271c0.502,1.22,1.574,1.825,1.582,3.269c0.015,1.504,0.337,2.602,0.619,4.07
			c0.181,0.974-0.392,2.122,0.083,3.036c0.642,1.226,1.867,1.101,2.039,2.73c0.105,0.98,0.01,1.906,0.596,2.777
			c0.775,1.154,1.215,1.73,0.519,3.049c-0.621,1.178,0.257,1.98-0.113,3.006c-0.471,1.276-0.954,1.658-0.261,2.962
			c0.456,0.837,0.53,1.776,0.488,2.695c-0.068,1.551-0.604,3.233-0.148,4.771c0.366,1.234,0.845,2.387,0.095,3.564l-0.002,0.002
			l0.002-0.002l-0.002,0.002l-0.015,0.023c-0.107,0.173-0.146,0.235-0.146,0.235c0.001,0,0.073-0.116,0.14-0.226
			c-0.449,0.771,0.125,1.925-0.464,2.584c-0.012,0.016-0.041,0.036-0.056,0.053l-2.057-0.512c-0.017-0.006-0.045-0.011-0.062-0.016
			l-3.322-0.825c-0.517-1.231-1.144-2.792-1.257-3.906c-0.222-2.229-1.819-2.217-2.818-4.059c-0.486-0.896-0.959-2.446-2.086-2.535
			c-0.185,0.032-0.348,0.047-0.495,0.047c-1.147,0-1.247-0.921-1.666-1.885c-0.307-0.718-1.305-0.759-1.749-1.594
			c-0.505-0.912-1.838-0.853-2.195-1.802c-0.421-1.138,0.279-2.268-1.141-2.872c-1.047-0.45-0.522-2.075-0.507-2.881
			c0.01-1.114-0.654-1.569-1.165-2.529c-0.664-1.231,0.476-2.632-0.363-3.863c-0.804-1.195-2.012-1.196-1.144-2.905
			c0.48-0.928,1.935-2.022,1.27-3.198c-0.765-1.364-0.67-1.571-0.099-2.913c0.562-1.34-0.143-1.546-0.713-2.54
			c-0.666-1.176,1.107-1.911,1.197-2.92c-0.045-0.997-1.408-1.734-0.625-2.804c0.851-1.179,2.419-3.084,3.974-3.327
			C37.721,5.01,37.818,5.002,37.918,5.002 M55.184,52.202l-0.015,0.023c0.002-0.003,0.004-0.007,0.006-0.01
			C55.178,52.211,55.181,52.207,55.184,52.202 M37.918,4.002L37.918,4.002c-0.154,0-0.307,0.012-0.45,0.035
			c-1.444,0.226-3.003,1.48-4.625,3.729c-0.875,1.195-0.213,2.266,0.143,2.842c0.104,0.169,0.23,0.373,0.276,0.51
			c-0.068,0.132-0.275,0.372-0.405,0.524c-0.485,0.564-1.389,1.615-0.646,2.926c0.182,0.317,0.367,0.56,0.517,0.756
			c0.338,0.443,0.338,0.443,0.145,0.905c-0.649,1.524-0.808,2.084,0.149,3.789c0.13,0.232-0.099,0.598-0.627,1.282
			c-0.238,0.308-0.484,0.627-0.66,0.966c-0.882,1.736-0.193,2.567,0.589,3.269c0.225,0.202,0.438,0.394,0.612,0.654
			c0.212,0.311,0.17,0.684,0.074,1.318c-0.104,0.705-0.235,1.582,0.239,2.462c0.182,0.343,0.377,0.624,0.55,0.873
			c0.347,0.499,0.499,0.738,0.495,1.173c-0.002,0.112-0.027,0.307-0.054,0.513c-0.12,0.925-0.344,2.646,1.165,3.296
			c0.327,0.139,0.347,0.147,0.368,0.832c0.013,0.412,0.028,0.924,0.23,1.469c0.326,0.867,1.056,1.227,1.589,1.489
			c0.311,0.152,0.578,0.285,0.669,0.45c0.35,0.655,0.902,0.984,1.307,1.225c0.121,0.072,0.375,0.224,0.397,0.277
			c0.071,0.162,0.13,0.317,0.187,0.468c0.305,0.806,0.767,2.023,2.399,2.023c0.155,0,0.314-0.011,0.484-0.033
			c0.316,0.124,0.682,0.895,0.905,1.368c0.107,0.226,0.21,0.441,0.312,0.632c0.494,0.909,1.113,1.449,1.61,1.883
			c0.645,0.562,1,0.872,1.092,1.797c0.121,1.188,0.711,2.717,1.33,4.194l0.194,0.462l0.486,0.122l3.322,0.824l0.008,0.002
			l0.004,0.001l0.003,0.001l0.047,0.012l2.057,0.512l0.59,0.147l0.365-0.415c0.027-0.026,0.062-0.061,0.1-0.104
			c0.567-0.646,0.542-1.44,0.523-2.021c-0.008-0.262-0.019-0.585,0.044-0.705l0.005-0.008c0.923-1.449,0.482-2.879,0.129-4.027
			l-0.108-0.358c-0.25-0.845-0.117-1.818,0.021-2.85c0.07-0.52,0.144-1.058,0.167-1.594c0.038-0.83,0.017-2.069-0.609-3.217
			c-0.321-0.606-0.283-0.697,0.023-1.406c0.093-0.215,0.195-0.453,0.298-0.731c0.265-0.734,0.136-1.354,0.032-1.854
			c-0.102-0.487-0.14-0.715,0.027-1.03c0.953-1.806,0.247-2.855-0.502-3.967l-0.071-0.106c-0.304-0.452-0.336-0.973-0.377-1.632
			c-0.015-0.228-0.029-0.46-0.055-0.695c-0.146-1.385-0.9-1.956-1.451-2.374c-0.311-0.235-0.535-0.404-0.696-0.713
			c-0.13-0.251-0.073-0.693-0.014-1.162c0.062-0.484,0.133-1.031,0.028-1.593c-0.067-0.352-0.136-0.676-0.202-0.991
			c-0.209-0.991-0.391-1.848-0.4-2.905c-0.007-1.216-0.584-2.011-1.048-2.65c-0.239-0.329-0.465-0.64-0.609-0.991
			c-0.089-0.222,0.146-0.947,0.285-1.381c0.321-0.993,0.761-2.352-0.256-3.256c-0.478-0.42-1.008-0.571-1.434-0.692
			c-0.445-0.127-0.576-0.18-0.647-0.31c-0.522-0.964-0.935-1.665-1.835-2.555c-1.431-1.427-2.927-2.245-4.444-2.426
			c-0.462-0.054-1.095-0.305-1.706-0.547C39.699,4.363,38.786,4.002,37.918,4.002"/>
	</g>
</g>
<g>
	<defs>
		<rect id="SVGID_5_" width="64" height="64"/>
	</defs>
	<clipPath id="SVGID_6_">
		<use xlink:href="#SVGID_5_"  style="overflow:visible;"/>
	</clipPath>
	<g style="clip-path:url(#SVGID_6_);">
		<defs>
			<rect id="SVGID_7_" width="64" height="64"/>
		</defs>
		<clipPath id="SVGID_8_">
			<use xlink:href="#SVGID_7_"  style="overflow:visible;"/>
		</clipPath>
		<g style="opacity:0.25;clip-path:url(#SVGID_8_);enable-background:new    ;">
			<g>
				<defs>
					<rect id="SVGID_9_" x="31" y="9" width="19" height="10"/>
				</defs>
				<clipPath id="SVGID_10_">
					<use xlink:href="#SVGID_9_"  style="overflow:visible;"/>
				</clipPath>
				<g style="clip-path:url(#SVGID_10_);">
					<defs>
						<rect id="SVGID_11_" x="31.895" y="9.887" width="17.137" height="9.103"/>
					</defs>
					<clipPath id="SVGID_12_">
						<use xlink:href="#SVGID_11_"  style="overflow:visible;"/>
					</clipPath>
					<path style="clip-path:url(#SVGID_12_);fill:#FFFFFF;" d="M44.411,18.99c-2.073,0-10.529-4.365-12.247-5.263
						c-0.245-0.128-0.34-0.43-0.212-0.674c0.13-0.246,0.43-0.337,0.675-0.212c4.059,2.122,10.108,5,11.597,5.149
						c1.125-1.746,3.639-5.944,3.812-7.652c0.027-0.276,0.287-0.481,0.547-0.448c0.275,0.028,0.475,0.273,0.447,0.547
						c-0.24,2.394-3.954,8.08-4.112,8.322c-0.077,0.118-0.201,0.198-0.342,0.219C44.526,18.986,44.471,18.99,44.411,18.99"/>
				</g>
			</g>
		</g>
	</g>
</g>
<g>
	<defs>
		<rect id="SVGID_13_" width="64" height="64"/>
	</defs>
	<clipPath id="SVGID_14_">
		<use xlink:href="#SVGID_13_"  style="overflow:visible;"/>
	</clipPath>
	<g style="clip-path:url(#SVGID_14_);">
		<defs>
			<rect id="SVGID_15_" width="64" height="64"/>
		</defs>
		<clipPath id="SVGID_16_">
			<use xlink:href="#SVGID_15_"  style="overflow:visible;"/>
		</clipPath>
		<g style="opacity:0.25;clip-path:url(#SVGID_16_);enable-background:new    ;">
			<g>
				<defs>
					<rect id="SVGID_17_" x="32" y="21" width="21" height="9"/>
				</defs>
				<clipPath id="SVGID_18_">
					<use xlink:href="#SVGID_17_"  style="overflow:visible;"/>
				</clipPath>
				<g style="clip-path:url(#SVGID_18_);">
					<defs>
						<rect id="SVGID_19_" x="32.117" y="21.352" width="20.643" height="7.789"/>
					</defs>
					<clipPath id="SVGID_20_">
						<use xlink:href="#SVGID_19_"  style="overflow:visible;"/>
					</clipPath>
					<path style="clip-path:url(#SVGID_20_);fill:#FFFFFF;" d="M48.042,29.141h-0.013c-2.299-0.06-14.272-5.841-15.631-6.499
						c-0.248-0.121-0.352-0.42-0.231-0.669c0.121-0.248,0.421-0.352,0.669-0.231c5.003,2.428,12.848,5.997,14.947,6.368l4.052-6.523
						c0.146-0.235,0.456-0.304,0.688-0.161c0.234,0.146,0.307,0.454,0.161,0.689l-4.218,6.79
						C48.375,29.052,48.215,29.141,48.042,29.141"/>
				</g>
			</g>
		</g>
	</g>
</g>
<g>
	<defs>
		<rect id="SVGID_21_" width="64" height="64"/>
	</defs>
	<clipPath id="SVGID_22_">
		<use xlink:href="#SVGID_21_"  style="overflow:visible;"/>
	</clipPath>
	<g style="clip-path:url(#SVGID_22_);">
		<defs>
			<rect id="SVGID_23_" width="64" height="64"/>
		</defs>
		<clipPath id="SVGID_24_">
			<use xlink:href="#SVGID_23_"  style="overflow:visible;"/>
		</clipPath>
		<g style="opacity:0.25;clip-path:url(#SVGID_24_);enable-background:new    ;">
			<g>
				<defs>
					<rect id="SVGID_25_" x="34" y="32" width="22" height="9"/>
				</defs>
				<clipPath id="SVGID_26_">
					<use xlink:href="#SVGID_25_"  style="overflow:visible;"/>
				</clipPath>
				<g style="clip-path:url(#SVGID_26_);">
					<defs>
						<rect id="SVGID_27_" x="34.216" y="32.079" width="21.689" height="8.148"/>
					</defs>
					<clipPath id="SVGID_28_">
						<use xlink:href="#SVGID_27_"  style="overflow:visible;"/>
					</clipPath>
					<path style="clip-path:url(#SVGID_28_);fill:#FFFFFF;" d="M50.963,40.228h-0.012c-2.417-0.056-15.024-6.148-16.454-6.843
						c-0.248-0.121-0.352-0.42-0.231-0.669c0.121-0.248,0.42-0.352,0.669-0.231c3.673,1.785,13.339,6.307,15.769,6.714l4.277-6.884
						c0.146-0.235,0.457-0.305,0.688-0.161c0.234,0.146,0.307,0.454,0.161,0.688l-4.442,7.149
						C51.296,40.139,51.136,40.228,50.963,40.228"/>
				</g>
			</g>
		</g>
	</g>
</g>
<g>
	<defs>
		<rect id="SVGID_29_" width="64" height="64"/>
	</defs>
	<clipPath id="SVGID_30_">
		<use xlink:href="#SVGID_29_"  style="overflow:visible;"/>
	</clipPath>
	<g style="clip-path:url(#SVGID_30_);">
		<defs>
			<rect id="SVGID_31_" width="64" height="64"/>
		</defs>
		<clipPath id="SVGID_32_">
			<use xlink:href="#SVGID_31_"  style="overflow:visible;"/>
		</clipPath>
		<g style="opacity:0.25;clip-path:url(#SVGID_32_);enable-background:new    ;">
			<g>
				<defs>
					<rect id="SVGID_33_" x="42" y="41" width="15" height="7"/>
				</defs>
				<clipPath id="SVGID_34_">
					<use xlink:href="#SVGID_33_"  style="overflow:visible;"/>
				</clipPath>
				<g style="clip-path:url(#SVGID_34_);">
					<defs>
						<rect id="SVGID_35_" x="42.901" y="41.104" width="13.372" height="6.741"/>
					</defs>
					<clipPath id="SVGID_36_">
						<use xlink:href="#SVGID_35_"  style="overflow:visible;"/>
					</clipPath>
					<path style="clip-path:url(#SVGID_36_);fill:#FFFFFF;" d="M52.106,47.845h-0.013c-2.474-0.065-8.665-3.345-8.927-3.484
						c-0.244-0.13-0.337-0.433-0.207-0.676c0.131-0.245,0.437-0.335,0.676-0.207c1.65,0.878,6.185,3.103,8.21,3.346l3.507-5.488
						c0.148-0.234,0.458-0.301,0.69-0.151c0.232,0.148,0.301,0.457,0.151,0.69l-3.667,5.74
						C52.436,47.758,52.276,47.845,52.106,47.845"/>
				</g>
			</g>
		</g>
	</g>
</g>
<g>
	<defs>
		<rect id="SVGID_37_" width="64" height="64"/>
	</defs>
	<clipPath id="SVGID_38_">
		<use xlink:href="#SVGID_37_"  style="overflow:visible;"/>
	</clipPath>
	<g style="clip-path:url(#SVGID_38_);">
		<defs>
			<rect id="SVGID_39_" width="64" height="64"/>
		</defs>
		<clipPath id="SVGID_40_">
			<use xlink:href="#SVGID_39_"  style="overflow:visible;"/>
		</clipPath>
		<g style="opacity:0.25;clip-path:url(#SVGID_40_);enable-background:new    ;">
			<g>
				<defs>
					<rect id="SVGID_41_" x="32" y="6" width="14" height="7"/>
				</defs>
				<clipPath id="SVGID_42_">
					<use xlink:href="#SVGID_41_"  style="overflow:visible;"/>
				</clipPath>
				<g style="clip-path:url(#SVGID_42_);">
					<defs>
						<rect id="SVGID_43_" x="32.106" y="6.006" width="13.178" height="6.109"/>
					</defs>
					<clipPath id="SVGID_44_">
						<use xlink:href="#SVGID_43_"  style="overflow:visible;"/>
					</clipPath>
					<path style="clip-path:url(#SVGID_44_);fill:#FFFFFF;" d="M41.606,12.115h-0.013c-2.463-0.064-8.931-3.17-9.204-3.303
						c-0.249-0.12-0.354-0.419-0.233-0.667c0.12-0.249,0.422-0.354,0.667-0.233c0.063,0.03,6.057,2.909,8.518,3.183l3.019-4.854
						c0.146-0.234,0.456-0.304,0.688-0.161c0.234,0.146,0.307,0.454,0.161,0.688l-3.178,5.111
						C41.939,12.026,41.779,12.115,41.606,12.115"/>
				</g>
			</g>
		</g>
		<path style="clip-path:url(#SVGID_40_);fill:#4D642E;" d="M37.918,5.002c1.253,0,2.965,1.1,4.251,1.251
			c1.512,0.181,2.812,1.099,3.859,2.145c0.787,0.777,1.147,1.376,1.662,2.326c0.493,0.896,1.582,0.641,2.293,1.266
			c0.975,0.866-0.787,3.037-0.29,4.271c0.502,1.22,1.574,1.825,1.582,3.269c0.015,1.504,0.337,2.602,0.619,4.07
			c0.181,0.974-0.392,2.122,0.083,3.036c0.642,1.226,1.867,1.101,2.039,2.73c0.105,0.98,0.01,1.906,0.596,2.777
			c0.775,1.154,1.215,1.73,0.519,3.049c-0.621,1.178,0.257,1.98-0.113,3.006c-0.471,1.276-0.954,1.658-0.261,2.962
			c0.456,0.837,0.53,1.776,0.488,2.695c-0.068,1.551-0.604,3.233-0.148,4.771c0.366,1.234,0.845,2.387,0.095,3.564l-0.002,0.002
			c-0.486,0.771,0.113,1.948-0.484,2.617c-0.012,0.016-0.041,0.036-0.056,0.053l-1.673-0.417c-0.101,1.277-0.24,2.554-0.451,3.827
			l-2.712-0.675c0,0,0.399-1.258,0.643-3.777l-1.247-0.311c-0.517-1.231-1.144-2.792-1.257-3.906
			c-0.222-2.229-1.819-2.217-2.818-4.059c-0.486-0.896-0.959-2.446-2.086-2.535c-0.185,0.032-0.348,0.047-0.495,0.047
			c-1.147,0-1.247-0.921-1.666-1.885c-0.307-0.718-1.305-0.759-1.749-1.594c-0.505-0.912-1.838-0.853-2.195-1.802
			c-0.421-1.138,0.279-2.268-1.141-2.872c-1.047-0.45-0.522-2.075-0.507-2.881c0.01-1.114-0.654-1.569-1.165-2.529
			c-0.664-1.231,0.476-2.632-0.363-3.863c-0.804-1.195-2.012-1.196-1.144-2.905c0.48-0.928,1.935-2.022,1.27-3.198
			c-0.765-1.364-0.67-1.571-0.099-2.913c0.562-1.34-0.143-1.546-0.713-2.54c-0.666-1.176,1.107-1.911,1.197-2.92
			c-0.045-0.997-1.408-1.734-0.625-2.804c0.851-1.179,2.419-3.084,3.974-3.327C37.721,5.01,37.818,5.002,37.918,5.002 M37.918,3.002
			c-0.208,0-0.413,0.017-0.609,0.048c-1.737,0.27-3.467,1.622-5.277,4.131c-1.198,1.637-0.374,3.168,0.036,3.843
			c-0.524,0.613-1.795,2.151-0.727,4.037c0.211,0.368,0.422,0.646,0.579,0.852c-0.692,1.637-0.872,2.498,0.055,4.274
			c-0.108,0.16-0.264,0.363-0.371,0.502c-0.253,0.327-0.54,0.698-0.757,1.117c-1.306,2.572,0.175,3.904,0.808,4.472
			c0.183,0.165,0.329,0.296,0.434,0.443c0.009,0.131-0.036,0.433-0.066,0.639c-0.114,0.761-0.286,1.911,0.347,3.083
			c0.208,0.39,0.43,0.71,0.609,0.968c0.317,0.459,0.317,0.488,0.316,0.595c-0.001,0.048-0.027,0.247-0.046,0.393
			c-0.116,0.894-0.417,3.212,1.523,4.229c0.001,0.021,0.001,0.04,0.002,0.059c0.015,0.46,0.034,1.087,0.293,1.785
			c0.468,1.242,1.479,1.741,2.084,2.039c0.099,0.048,0.225,0.11,0.303,0.155c0.475,0.81,1.177,1.228,1.604,1.482
			c0.03,0.017,0.06,0.033,0.09,0.051c0.023,0.064,0.047,0.126,0.07,0.188c0.304,0.799,1.011,2.67,3.335,2.67
			c0.032,0,0.064,0,0.097-0.001c0.132,0.219,0.285,0.544,0.39,0.764c0.115,0.245,0.227,0.477,0.338,0.681
			c0.579,1.067,1.303,1.699,1.831,2.16c0.594,0.518,0.701,0.612,0.754,1.143c0.141,1.387,0.798,3.039,1.403,4.48
			c0.178,0.427,0.497,0.772,0.895,0.988c-0.178,1.14-0.354,1.722-0.356,1.729c-0.161,0.525-0.101,1.099,0.17,1.576
			c0.271,0.479,0.724,0.829,1.257,0.962l2.713,0.674c0.159,0.039,0.321,0.06,0.482,0.06c0.387,0,0.77-0.113,1.099-0.33
			c0.466-0.306,0.783-0.793,0.874-1.344c0.093-0.558,0.176-1.135,0.249-1.738c0.47-0.023,0.923-0.212,1.271-0.54
			c0.058-0.052,0.129-0.119,0.203-0.206c0.82-0.941,0.785-2.045,0.765-2.707c-0.004-0.092-0.008-0.219-0.006-0.31
			c1.037-1.777,0.521-3.456,0.14-4.691l-0.106-0.35c-0.188-0.638-0.07-1.509,0.055-2.431c0.073-0.542,0.149-1.102,0.175-1.684
			c0.044-0.948,0.015-2.372-0.73-3.739c-0.041-0.078-0.067-0.137-0.084-0.178c0.034-0.094,0.096-0.234,0.147-0.354
			c0.099-0.229,0.208-0.483,0.318-0.781c0.363-1.008,0.188-1.849,0.072-2.405c-0.027-0.138-0.067-0.325-0.065-0.387
			c1.231-2.308,0.239-3.78-0.558-4.965l-0.071-0.106c-0.146-0.216-0.172-0.539-0.208-1.136c-0.017-0.244-0.032-0.491-0.06-0.74
			c-0.19-1.813-1.225-2.596-1.842-3.064c-0.225-0.171-0.323-0.25-0.379-0.325c-0.005-0.14,0.032-0.428,0.058-0.625
			c0.067-0.53,0.152-1.188,0.02-1.903c-0.07-0.364-0.14-0.695-0.207-1.015c-0.207-0.979-0.369-1.751-0.379-2.709
			c-0.009-1.533-0.72-2.513-1.239-3.228c-0.168-0.231-0.318-0.438-0.422-0.634c0.036-0.209,0.158-0.583,0.242-0.842
			c0.335-1.039,0.96-2.975-0.543-4.312c-0.652-0.572-1.358-0.773-1.825-0.906c-0.05-0.015-0.11-0.031-0.165-0.048
			c-0.497-0.904-0.966-1.654-1.89-2.566c-1.588-1.586-3.282-2.499-5.027-2.708c-0.335-0.039-0.931-0.276-1.457-0.484
			C40.025,3.417,38.978,3.002,37.918,3.002"/>
		<path style="clip-path:url(#SVGID_40_);fill:#627935;" d="M41.413,52.865c0.633,0.931,1.93,1.997,2.963,2.84l3.312-0.863
			c0.026-0.005,0.053-0.015,0.069-0.021l2.043-0.532c0.01-0.021,0.026-0.054,0.032-0.074c0.204-0.873-0.88-1.621-0.826-2.527v-0.002
			v0.002v-0.002c0.097-1.399-0.876-2.178-1.793-3.093c-1.13-1.126-1.468-2.858-2.144-4.259c-0.396-0.83-0.915-1.609-1.706-2.128
			c-1.244-0.816-0.998-1.382-1.202-2.737c-0.164-1.067-1.312-1.358-1.329-2.694c-0.018-1.486-0.684-1.779-1.908-2.426
			c-0.938-0.484-1.294-1.343-1.854-2.16c-0.931-1.343-1.943-0.646-3.093-1.426c-0.854-0.573-0.897-1.85-1.529-2.62
			c-0.949-1.157-1.751-1.967-2.479-3.286c-0.705-1.263-1.934-1.275-2.953-2.11c-1.031-0.844-0.524-3.594-1.793-3.89
			c-0.915-0.213-1.752,0.532-2.614-0.02c-0.913-0.59-1.508-0.941-2.575-1.255c-1.417-0.409-3.002-0.596-4.409-0.031
			c-1.304,0.519-3.563,0.303-4.584,1.084c-1.252,0.959-1.721,3.382-1.902,4.831c-0.169,1.307,1.371,1.305,1.893,2.162
			c0.395,0.926-0.804,2.421,0.341,3.132c0.977,0.605,1.695,0.447,1.835,1.897c0.147,1.451,0.154,1.682,1.48,2.504
			c1.149,0.716,0.393,2.373,0.413,3.415c0.05,1.923,1.114,1.352,2.391,2.008c1.327,0.688,0.995,2.459,2.16,3.219
			c0.917,0.61,1.721,0.681,2.236,1.67c0.378,0.718,0.694,2.396,1.824,2.286c1.535-0.148,1.458,1.184,2.378,1.985
			c0.767,0.663,1.91-0.036,2.782,0.529c0.793,0.523,1.689,0.078,2.31,0.565c0.926,0.733,1.477,1.599,2.771,0.587
			c1.025-0.469,2.186,0.67,3.041,1.225C38.756,51.795,40.147,51.012,41.413,52.865 M49.007,51.698
			C48.993,51.927,48.97,52.226,49.007,51.698"/>
		<path style="clip-path:url(#SVGID_40_);fill:#4D642E;" d="M17.583,17.196c0.829,0,1.667,0.158,2.452,0.385
			c1.067,0.314,1.662,0.665,2.574,1.255c0.244,0.156,0.485,0.209,0.727,0.209c0.502,0,1.005-0.228,1.53-0.228
			c0.118,0,0.238,0.011,0.358,0.039c1.269,0.296,0.761,3.046,1.793,3.89c1.019,0.835,2.248,0.846,2.953,2.11
			c0.727,1.319,1.529,2.129,2.478,3.286c0.632,0.77,0.676,2.047,1.529,2.62c1.149,0.78,2.162,0.083,3.094,1.426
			c0.56,0.817,0.916,1.676,1.854,2.16c1.225,0.646,1.891,0.939,1.908,2.426c0.018,1.336,1.165,1.627,1.329,2.695
			c0.204,1.354-0.042,1.92,1.202,2.736c0.791,0.519,1.31,1.298,1.707,2.128c0.675,1.4,1.013,3.134,2.143,4.259
			c0.917,0.915,1.89,1.693,1.793,3.093v0.002v-0.002v0.002c-0.001,0.01-0.001,0.021-0.001,0.03c-0.015,0.202-0.02,0.274-0.019,0.274
			c0,0,0.01-0.14,0.018-0.269c-0.022,0.892,1.029,1.63,0.828,2.491c-0.006,0.021-0.022,0.054-0.032,0.074l-2.043,0.532
			c-0.017,0.006-0.043,0.016-0.069,0.021l-3.312,0.862c-1.033-0.843-2.33-1.909-2.963-2.84c-1.266-1.853-2.657-1.07-4.418-2.216
			c-0.715-0.463-1.644-1.335-2.527-1.335c-0.174,0-0.346,0.033-0.514,0.111c-0.423,0.329-0.768,0.46-1.069,0.46
			c-0.625,0-1.079-0.554-1.702-1.048c-0.621-0.487-1.517-0.042-2.31-0.565c-0.308-0.199-0.649-0.241-0.996-0.241
			c-0.253,0-0.508,0.021-0.756,0.021c-0.375,0-0.731-0.051-1.03-0.31c-0.872-0.76-0.848-1.997-2.152-1.997
			c-0.071,0-0.146,0.004-0.226,0.012c-0.035,0.004-0.07,0.005-0.104,0.005c-1.046,0-1.354-1.596-1.72-2.291
			c-0.515-0.989-1.319-1.06-2.236-1.669c-1.165-0.761-0.833-2.531-2.16-3.22c-1.277-0.656-2.342-0.085-2.391-2.008
			c-0.02-1.042,0.736-2.699-0.414-3.415c-1.325-0.822-1.333-1.053-1.479-2.504c-0.14-1.45-0.858-1.292-1.835-1.897
			c-1.145-0.711,0.054-2.206-0.341-3.132c-0.522-0.857-2.062-0.855-1.893-2.162c0.181-1.449,0.65-3.873,1.902-4.831
			c1.02-0.781,3.28-0.565,4.584-1.084C16.253,17.298,16.916,17.196,17.583,17.196 M49.007,51.698
			c-0.001,0.009-0.001,0.017-0.002,0.025c0.001-0.002,0.001-0.004,0.001-0.006C49.006,51.711,49.006,51.705,49.007,51.698
			 M17.583,16.196v1V16.196c-0.841-0.001-1.625,0.143-2.329,0.426c-0.433,0.172-1.11,0.254-1.766,0.332
			c-1.106,0.134-2.251,0.271-3.053,0.886c-1.173,0.897-1.943,2.748-2.288,5.501c-0.188,1.461,0.9,2.084,1.485,2.419
			c0.18,0.104,0.381,0.219,0.487,0.318c0.002,0.15-0.064,0.455-0.105,0.648c-0.158,0.73-0.45,2.086,0.833,2.882
			c0.308,0.192,0.589,0.317,0.815,0.419c0.504,0.227,0.504,0.227,0.552,0.725l0.006,0.057c0.163,1.618,0.293,2.178,1.941,3.201
			c0.224,0.14,0.197,0.571,0.06,1.427c-0.063,0.382-0.126,0.777-0.119,1.157c0.05,1.958,1.059,2.359,2.087,2.602
			c0.293,0.069,0.571,0.136,0.847,0.277c0.33,0.171,0.471,0.521,0.692,1.126c0.243,0.667,0.545,1.497,1.378,2.041
			c0.331,0.22,0.644,0.377,0.919,0.515c0.549,0.274,0.78,0.401,0.977,0.779c0.06,0.115,0.133,0.301,0.21,0.498
			c0.34,0.872,0.91,2.331,2.397,2.331c0.065,0,0.132-0.003,0.201-0.01c0.045-0.004,0.088-0.007,0.129-0.007
			c0.221,0,0.255,0,0.584,0.564c0.209,0.357,0.469,0.802,0.911,1.187c0.577,0.499,1.239,0.556,1.687,0.556
			c0.138,0,0.277-0.006,0.418-0.012c0.112-0.005,0.226-0.01,0.338-0.01c0.229,0,0.365,0.023,0.452,0.08
			c0.63,0.416,1.275,0.439,1.744,0.457c0.165,0.007,0.443,0.017,0.492,0.057c0.126,0.1,0.248,0.206,0.366,0.308
			c0.514,0.446,1.097,0.953,1.954,0.953c0.512,0,1.018-0.187,1.547-0.569c0.012-0.001,0.023-0.002,0.036-0.002
			c0.353,0,0.963,0.445,1.408,0.771c0.202,0.146,0.396,0.287,0.576,0.404c0.87,0.566,1.675,0.744,2.32,0.888
			c0.831,0.184,1.291,0.285,1.815,1.053c0.727,1.068,2.131,2.214,3.156,3.051l0.393,0.32l0.491-0.128l3.297-0.859
			c0.043-0.01,0.084-0.021,0.119-0.033l2.009-0.523l0.451-0.117l0.2-0.421c0.035-0.074,0.073-0.168,0.091-0.229
			c0.21-0.894-0.195-1.587-0.492-2.092c-0.131-0.225-0.293-0.503-0.298-0.638l0.001-0.007v-0.02c0.108-1.704-0.955-2.742-1.81-3.577
			l-0.276-0.271c-0.625-0.623-0.976-1.548-1.347-2.527c-0.183-0.482-0.372-0.981-0.601-1.458c-0.562-1.172-1.217-1.977-2.061-2.529
			c-0.588-0.386-0.597-0.485-0.669-1.255c-0.022-0.235-0.048-0.497-0.092-0.795c-0.117-0.76-0.522-1.241-0.849-1.629
			c-0.322-0.383-0.465-0.566-0.47-0.93c-0.024-2.025-1.133-2.609-2.308-3.227l-0.134-0.071c-0.495-0.256-0.773-0.701-1.124-1.265
			c-0.119-0.191-0.24-0.385-0.371-0.575c-0.794-1.145-1.725-1.287-2.404-1.391c-0.385-0.059-0.663-0.101-0.953-0.299
			c-0.239-0.16-0.4-0.571-0.57-1.007c-0.179-0.457-0.382-0.973-0.748-1.419c-0.217-0.265-0.427-0.512-0.63-0.751
			c-0.66-0.779-1.231-1.45-1.745-2.384c-0.595-1.066-1.477-1.485-2.186-1.821c-0.368-0.174-0.717-0.339-1.01-0.58
			c-0.192-0.157-0.334-0.907-0.419-1.356c-0.194-1.024-0.459-2.426-1.78-2.733c-0.187-0.044-0.384-0.066-0.584-0.066
			c-0.377,0-0.709,0.074-1.002,0.14c-0.201,0.045-0.392,0.088-0.529,0.088c-0.081,0-0.128-0.013-0.187-0.051
			c-0.921-0.596-1.618-1.015-2.831-1.372C19.337,16.339,18.419,16.196,17.583,16.196"/>
		<path style="clip-path:url(#SVGID_40_);fill:#627935;" d="M55.191,52.19L55.191,52.19C55.353,51.937,55.282,52.044,55.191,52.19"
			/>
		<path style="clip-path:url(#SVGID_40_);fill:#C8D0B8;" d="M40.963,10.33c0,0,15.427,24.479,11.563,47.941l-2.714-0.674
			C49.812,57.598,54.688,42.26,40.963,10.33"/>
		<path style="clip-path:url(#SVGID_40_);fill:#4D642E;" d="M40.963,10.33c0,0,15.427,24.479,11.562,47.941l-2.712-0.674
			C49.812,57.598,54.688,42.26,40.963,10.33 M40.962,9.33c-0.157,0-0.316,0.037-0.465,0.115c-0.462,0.242-0.659,0.8-0.453,1.28
			c13.374,31.112,8.862,46.421,8.813,46.572c-0.081,0.264-0.051,0.55,0.083,0.79c0.136,0.24,0.363,0.415,0.631,0.481l2.713,0.674
			c0.08,0.02,0.161,0.029,0.24,0.029c0.194,0,0.386-0.057,0.551-0.165c0.233-0.153,0.392-0.397,0.437-0.672
			c3.882-23.566-11.064-47.625-11.703-48.638C41.62,9.497,41.296,9.33,40.962,9.33"/>
		<path style="clip-path:url(#SVGID_40_);fill:#627935;" d="M49.007,51.686L49.007,51.686
			C49.027,51.382,49.018,51.509,49.007,51.686"/>
	</g>
</g>
<g>
	<defs>
		<rect id="SVGID_45_" width="64" height="64"/>
	</defs>
	<clipPath id="SVGID_46_">
		<use xlink:href="#SVGID_45_"  style="overflow:visible;"/>
	</clipPath>
	<g style="clip-path:url(#SVGID_46_);">
		<defs>
			<rect id="SVGID_47_" width="64" height="64"/>
		</defs>
		<clipPath id="SVGID_48_">
			<use xlink:href="#SVGID_47_"  style="overflow:visible;"/>
		</clipPath>
		<g style="opacity:0.25;clip-path:url(#SVGID_48_);enable-background:new    ;">
			<g>
				<defs>
					<rect id="SVGID_49_" x="9" y="17" width="16" height="12"/>
				</defs>
				<clipPath id="SVGID_50_">
					<use xlink:href="#SVGID_49_"  style="overflow:visible;"/>
				</clipPath>
				<g style="clip-path:url(#SVGID_50_);">
					<defs>
						<rect id="SVGID_51_" x="9.891" y="17.641" width="14.298" height="11.25"/>
					</defs>
					<clipPath id="SVGID_52_">
						<use xlink:href="#SVGID_51_"  style="overflow:visible;"/>
					</clipPath>
					<path style="clip-path:url(#SVGID_52_);fill:#FFFFFF;" d="M10.391,28.892c-0.272,0-0.496-0.219-0.5-0.492
						c-0.004-0.277,0.216-0.504,0.492-0.508c4.578-0.071,11.272-0.431,12.652-1.015c0.154-2.072,0.354-6.961-0.31-8.543
						c-0.107-0.254,0.013-0.547,0.268-0.654c0.255-0.105,0.547,0.013,0.654,0.268c0.931,2.215,0.387,8.985,0.363,9.272
						c-0.012,0.141-0.082,0.27-0.194,0.356c-1.404,1.076-11.423,1.285-13.417,1.316H10.391z"/>
				</g>
			</g>
		</g>
	</g>
</g>
<g>
	<defs>
		<rect id="SVGID_53_" width="64" height="64"/>
	</defs>
	<clipPath id="SVGID_54_">
		<use xlink:href="#SVGID_53_"  style="overflow:visible;"/>
	</clipPath>
	<g style="clip-path:url(#SVGID_54_);">
		<defs>
			<rect id="SVGID_55_" width="64" height="64"/>
		</defs>
		<clipPath id="SVGID_56_">
			<use xlink:href="#SVGID_55_"  style="overflow:visible;"/>
		</clipPath>
		<g style="opacity:0.25;clip-path:url(#SVGID_56_);enable-background:new    ;">
			<g>
				<defs>
					<rect id="SVGID_57_" x="14" y="25" width="19" height="12"/>
				</defs>
				<clipPath id="SVGID_58_">
					<use xlink:href="#SVGID_57_"  style="overflow:visible;"/>
				</clipPath>
				<g style="clip-path:url(#SVGID_58_);">
					<defs>
						<rect id="SVGID_59_" x="14.343" y="25.932" width="18.089" height="10.678"/>
					</defs>
					<clipPath id="SVGID_60_">
						<use xlink:href="#SVGID_59_"  style="overflow:visible;"/>
					</clipPath>
					<path style="clip-path:url(#SVGID_60_);fill:#FFFFFF;" d="M14.843,36.61c-0.266,0-0.487-0.209-0.499-0.478
						c-0.013-0.275,0.2-0.51,0.477-0.521c5.553-0.255,14.151-0.866,16.171-1.548l0.442-7.659c0.016-0.275,0.231-0.491,0.527-0.471
						c0.277,0.016,0.486,0.252,0.471,0.528l-0.459,7.972c-0.01,0.177-0.113,0.335-0.271,0.416c-2.05,1.055-15.329,1.691-16.837,1.76
						C14.858,36.61,14.85,36.61,14.843,36.61"/>
				</g>
			</g>
		</g>
	</g>
</g>
<g>
	<defs>
		<rect id="SVGID_61_" width="64" height="64"/>
	</defs>
	<clipPath id="SVGID_62_">
		<use xlink:href="#SVGID_61_"  style="overflow:visible;"/>
	</clipPath>
	<g style="clip-path:url(#SVGID_62_);">
		<defs>
			<rect id="SVGID_63_" width="64" height="64"/>
		</defs>
		<clipPath id="SVGID_64_">
			<use xlink:href="#SVGID_63_"  style="overflow:visible;"/>
		</clipPath>
		<g style="opacity:0.25;clip-path:url(#SVGID_64_);enable-background:new    ;">
			<g>
				<defs>
					<rect id="SVGID_65_" x="21" y="33" width="20" height="13"/>
				</defs>
				<clipPath id="SVGID_66_">
					<use xlink:href="#SVGID_65_"  style="overflow:visible;"/>
				</clipPath>
				<g style="clip-path:url(#SVGID_66_);">
					<defs>
						<rect id="SVGID_67_" x="21.325" y="33.848" width="19.005" height="11.2"/>
					</defs>
					<clipPath id="SVGID_68_">
						<use xlink:href="#SVGID_67_"  style="overflow:visible;"/>
					</clipPath>
					<path style="clip-path:url(#SVGID_68_);fill:#FFFFFF;" d="M21.824,45.048c-0.266,0-0.487-0.209-0.499-0.478
						c-0.013-0.275,0.2-0.509,0.477-0.521c4.076-0.188,14.723-0.833,17.058-1.636l0.471-8.094c0.016-0.275,0.248-0.496,0.528-0.47
						c0.275,0.016,0.485,0.252,0.47,0.528l-0.488,8.405c-0.01,0.177-0.113,0.335-0.271,0.416
						c-2.159,1.104-16.136,1.775-17.723,1.848C21.84,45.048,21.832,45.048,21.824,45.048"/>
				</g>
			</g>
		</g>
	</g>
</g>
<g>
	<defs>
		<rect id="SVGID_69_" width="64" height="64"/>
	</defs>
	<clipPath id="SVGID_70_">
		<use xlink:href="#SVGID_69_"  style="overflow:visible;"/>
	</clipPath>
	<g style="clip-path:url(#SVGID_70_);">
		<defs>
			<rect id="SVGID_71_" width="64" height="64"/>
		</defs>
		<clipPath id="SVGID_72_">
			<use xlink:href="#SVGID_71_"  style="overflow:visible;"/>
		</clipPath>
		<g style="opacity:0.25;clip-path:url(#SVGID_72_);enable-background:new    ;">
			<g>
				<defs>
					<rect id="SVGID_73_" x="34" y="41" width="11" height="10"/>
				</defs>
				<clipPath id="SVGID_74_">
					<use xlink:href="#SVGID_73_"  style="overflow:visible;"/>
				</clipPath>
				<g style="clip-path:url(#SVGID_74_);">
					<defs>
						<rect id="SVGID_75_" x="34.197" y="41.6" width="10.767" height="8.954"/>
					</defs>
					<clipPath id="SVGID_76_">
						<use xlink:href="#SVGID_75_"  style="overflow:visible;"/>
					</clipPath>
					<path style="clip-path:url(#SVGID_76_);fill:#FFFFFF;" d="M34.697,50.554c-0.274,0-0.497-0.221-0.5-0.495
						c-0.003-0.276,0.219-0.502,0.495-0.505c1.869-0.018,6.915-0.23,8.812-0.983l0.461-6.505c0.02-0.276,0.287-0.486,0.534-0.464
						c0.275,0.02,0.483,0.259,0.464,0.534l-0.482,6.803c-0.012,0.175-0.116,0.331-0.271,0.41c-2.204,1.124-9.21,1.202-9.507,1.205
						H34.697z"/>
				</g>
			</g>
		</g>
	</g>
</g>
<g>
	<defs>
		<rect id="SVGID_77_" width="64" height="64"/>
	</defs>
	<clipPath id="SVGID_78_">
		<use xlink:href="#SVGID_77_"  style="overflow:visible;"/>
	</clipPath>
	<g style="clip-path:url(#SVGID_78_);">
		<defs>
			<rect id="SVGID_79_" width="64" height="64"/>
		</defs>
		<clipPath id="SVGID_80_">
			<use xlink:href="#SVGID_79_"  style="overflow:visible;"/>
		</clipPath>
		<g style="opacity:0.25;clip-path:url(#SVGID_80_);enable-background:new    ;">
			<g>
				<defs>
					<rect id="SVGID_81_" x="7" y="16" width="12" height="9"/>
				</defs>
				<clipPath id="SVGID_82_">
					<use xlink:href="#SVGID_81_"  style="overflow:visible;"/>
				</clipPath>
				<g style="clip-path:url(#SVGID_82_);">
					<defs>
						<rect id="SVGID_83_" x="7.727" y="16.023" width="10.809" height="8.447"/>
					</defs>
					<clipPath id="SVGID_84_">
						<use xlink:href="#SVGID_83_"  style="overflow:visible;"/>
					</clipPath>
					<path style="clip-path:url(#SVGID_84_);fill:#FFFFFF;" d="M8.227,24.471c-0.266,0-0.486-0.208-0.499-0.476
						c-0.014-0.275,0.198-0.509,0.475-0.523c0.069-0.004,6.711-0.341,8.999-1.274l0.336-5.703c0.015-0.275,0.259-0.496,0.528-0.469
						c0.275,0.016,0.486,0.253,0.47,0.528l-0.354,6.003c-0.011,0.177-0.113,0.335-0.271,0.416c-2.187,1.118-9.355,1.482-9.66,1.497
						C8.244,24.471,8.234,24.471,8.227,24.471"/>
				</g>
			</g>
		</g>
		<path style="clip-path:url(#SVGID_80_);fill:#4D642E;" d="M17.583,17.196c0.829,0,1.667,0.158,2.452,0.385
			c1.067,0.314,1.662,0.665,2.574,1.255c0.244,0.156,0.485,0.209,0.727,0.209c0.502,0,1.005-0.228,1.53-0.228
			c0.118,0,0.238,0.011,0.358,0.039c1.269,0.296,0.761,3.046,1.793,3.89c1.019,0.835,2.248,0.846,2.953,2.11
			c0.727,1.319,1.529,2.129,2.478,3.286c0.632,0.77,0.676,2.047,1.529,2.62c1.149,0.78,2.162,0.083,3.094,1.426
			c0.56,0.817,0.916,1.676,1.854,2.16c1.225,0.646,1.891,0.939,1.908,2.426c0.018,1.336,1.165,1.627,1.329,2.695
			c0.204,1.354-0.042,1.92,1.202,2.736c0.791,0.519,1.31,1.298,1.707,2.128c0.675,1.4,1.013,3.134,2.143,4.259
			c0.917,0.915,1.89,1.693,1.793,3.093v0.002c-0.054,0.907,1.03,1.655,0.826,2.527c-0.006,0.021-0.022,0.054-0.032,0.074
			l-1.66,0.434c0.52,1.171,1.004,2.354,1.428,3.573l-2.705,0.706c0,0-0.248-1.292-1.232-3.62l-1.255,0.323
			c-1.033-0.843-2.33-1.909-2.963-2.84c-1.266-1.853-2.657-1.07-4.418-2.216c-0.715-0.463-1.644-1.335-2.527-1.335
			c-0.174,0-0.346,0.033-0.514,0.111c-0.423,0.329-0.768,0.46-1.069,0.46c-0.625,0-1.079-0.554-1.702-1.048
			c-0.621-0.487-1.517-0.042-2.31-0.565c-0.308-0.199-0.649-0.241-0.996-0.241c-0.253,0-0.508,0.021-0.756,0.021
			c-0.375,0-0.731-0.051-1.03-0.31c-0.872-0.76-0.848-1.997-2.152-1.997c-0.071,0-0.146,0.004-0.226,0.012
			c-0.035,0.004-0.07,0.005-0.104,0.005c-1.046,0-1.354-1.596-1.72-2.291c-0.515-0.989-1.319-1.06-2.236-1.669
			c-1.165-0.761-0.833-2.531-2.16-3.22c-1.277-0.656-2.342-0.085-2.391-2.008c-0.02-1.042,0.736-2.699-0.414-3.415
			c-1.325-0.822-1.333-1.053-1.479-2.504c-0.14-1.45-0.858-1.292-1.835-1.897c-1.145-0.711,0.054-2.206-0.341-3.132
			c-0.522-0.857-2.062-0.855-1.893-2.162c0.181-1.449,0.65-3.873,1.902-4.831c1.02-0.781,3.28-0.565,4.584-1.084
			C16.253,17.298,16.916,17.196,17.583,17.196 M17.583,15.196L17.583,15.196c-0.97-0.001-1.878,0.167-2.701,0.497
			c-0.31,0.123-0.948,0.2-1.513,0.269c-1.182,0.142-2.522,0.303-3.542,1.083c-1.393,1.067-2.292,3.143-2.672,6.171
			c-0.259,2.005,1.191,2.954,1.87,3.349c-0.17,0.794-0.546,2.75,1.294,3.893c0.353,0.218,0.67,0.363,0.908,0.469
			c0.176,1.745,0.431,2.624,2.093,3.731c-0.017,0.192-0.058,0.444-0.087,0.618c-0.065,0.406-0.14,0.867-0.131,1.336
			c0.075,2.899,2.025,3.359,2.857,3.557c0.233,0.055,0.422,0.1,0.581,0.174c0.069,0.109,0.176,0.4,0.248,0.598
			c0.263,0.722,0.659,1.811,1.772,2.537c0.375,0.249,0.731,0.428,1.018,0.571c0.482,0.24,0.493,0.263,0.536,0.346
			c0.037,0.071,0.112,0.262,0.166,0.4c0.347,0.889,1.158,2.968,3.329,2.968h0.021c0.011,0.018,0.02,0.035,0.03,0.052
			c0.233,0.398,0.552,0.945,1.116,1.437c0.928,0.802,1.995,0.802,2.345,0.802c0.152,0,0.307-0.006,0.462-0.013
			c0.098-0.004,0.196-0.009,0.294-0.009h0.027h0.008c0.815,0.488,1.628,0.52,2.124,0.537c0.035,0.001,0.069,0.002,0.105,0.003
			c0.045,0.039,0.089,0.078,0.134,0.116c0.549,0.478,1.38,1.198,2.61,1.198c0.578,0,1.139-0.157,1.697-0.477
			c0.219,0.129,0.509,0.341,0.705,0.483c0.218,0.159,0.427,0.31,0.621,0.436c1.021,0.665,1.962,0.873,2.648,1.024
			c0.766,0.17,0.904,0.2,1.205,0.641c0.745,1.097,2.01,2.169,3.35,3.262c0.361,0.294,0.809,0.45,1.265,0.45h0.016
			c0.386,1.084,0.508,1.676,0.51,1.684c0.109,0.539,0.437,1.015,0.902,1.305c0.323,0.202,0.693,0.308,1.067,0.308
			c0.166,0,0.334-0.021,0.497-0.063l2.705-0.706c0.54-0.142,0.996-0.501,1.259-0.993c0.264-0.492,0.309-1.071,0.126-1.598
			c-0.185-0.532-0.388-1.078-0.612-1.646c0.326-0.2,0.593-0.492,0.761-0.846c0.046-0.096,0.104-0.223,0.149-0.384
			c0.009-0.031,0.018-0.062,0.024-0.095c0.289-1.235-0.276-2.201-0.614-2.778c-0.047-0.081-0.112-0.191-0.154-0.271
			c0.059-2.055-1.194-3.277-2.117-4.18l-0.268-0.264c-0.474-0.471-0.787-1.298-1.118-2.174c-0.19-0.503-0.388-1.022-0.636-1.537
			c-0.634-1.323-1.424-2.284-2.412-2.933c-0.087-0.057-0.145-0.101-0.182-0.131c-0.015-0.099-0.028-0.251-0.041-0.381
			c-0.023-0.252-0.052-0.532-0.099-0.85c-0.159-1.04-0.709-1.692-1.072-2.124c-0.091-0.108-0.216-0.257-0.243-0.312
			c-0.022-2.606-1.581-3.427-2.833-4.086l-0.133-0.069c-0.237-0.123-0.399-0.358-0.743-0.91c-0.126-0.203-0.255-0.409-0.394-0.612
			c-1.043-1.503-2.316-1.697-3.078-1.813c-0.29-0.045-0.411-0.069-0.496-0.111c-0.07-0.117-0.176-0.386-0.248-0.572
			c-0.195-0.499-0.438-1.121-0.905-1.689c-0.221-0.269-0.434-0.52-0.641-0.764c-0.651-0.767-1.167-1.373-1.632-2.22
			c-0.753-1.348-1.839-1.864-2.632-2.24c-0.263-0.125-0.496-0.235-0.681-0.359c-0.069-0.201-0.142-0.589-0.194-0.86
			c-0.203-1.071-0.58-3.066-2.536-3.522c-0.262-0.061-0.534-0.091-0.812-0.091c-0.486,0-0.91,0.095-1.22,0.163
			c-0.05,0.012-0.111,0.026-0.167,0.037c-0.87-0.555-1.637-0.989-2.878-1.354C19.524,15.351,18.513,15.196,17.583,15.196"/>
		<path style="clip-path:url(#SVGID_80_);fill:#C8D0B8;" d="M16.512,21.703c0,0,25.242,14.135,33.057,36.593l-2.705,0.706
			C46.863,59.002,43.821,43.207,16.512,21.703"/>
		<path style="clip-path:url(#SVGID_80_);fill:#4D642E;" d="M16.512,21.703c0,0,25.242,14.135,33.057,36.593l-2.705,0.706
			C46.863,59.002,43.821,43.207,16.512,21.703 M16.513,20.703c-0.324,0-0.641,0.157-0.833,0.444
			c-0.289,0.435-0.196,1.019,0.213,1.342c26.708,21.029,29.959,36.548,29.988,36.702c0.053,0.271,0.215,0.509,0.449,0.656
			c0.162,0.102,0.346,0.154,0.533,0.154c0.084,0,0.169-0.011,0.254-0.032l2.704-0.706c0.27-0.07,0.498-0.251,0.63-0.498
			c0.131-0.245,0.153-0.535,0.062-0.799C42.664,35.41,18.045,21.415,17,20.831C16.846,20.744,16.679,20.703,16.513,20.703"/>
	</g>
</g>
</svg>
