<?xml version="1.0" encoding="iso-8859-1"?>
<!-- Generator: Adobe Illustrator 16.0.0, SVG Export Plug-In . SVG Version: 6.00 Build 0)  -->
<!DOCTYPE svg PUBLIC "-//W3C//DTD SVG 1.1//EN" "http://www.w3.org/Graphics/SVG/1.1/DTD/svg11.dtd">
<svg version="1.1" id="Layer_1" xmlns="http://www.w3.org/2000/svg" xmlns:xlink="http://www.w3.org/1999/xlink" x="0px" y="0px"
	 width="64px" height="64px" viewBox="0 0 64 64" style="enable-background:new 0 0 64 64;" xml:space="preserve">
<g>
	<defs>
		<rect id="SVGID_1_" width="64" height="64"/>
	</defs>
	<clipPath id="SVGID_2_">
		<use xlink:href="#SVGID_1_"  style="overflow:visible;"/>
	</clipPath>
	<g style="clip-path:url(#SVGID_2_);">
		<defs>
			<rect id="SVGID_3_" width="64" height="64"/>
		</defs>
		<clipPath id="SVGID_4_">
			<use xlink:href="#SVGID_3_"  style="overflow:visible;"/>
		</clipPath>
		<path style="clip-path:url(#SVGID_4_);fill:#D1C797;" d="M46.174,18.238c-4.432-4.432-11.803-3.859-16.239,1.012
			c-6.534,7.166-18.261,30.606-16.821,32.047c1.439,1.438,24.878-10.29,32.042-16.825C50.032,30.041,50.602,22.667,46.174,18.238"/>
		<path style="clip-path:url(#SVGID_4_);fill:#9C935E;" d="M38.807,15.23c2.696,0,5.34,0.98,7.367,3.008
			c4.428,4.428,3.858,11.802-1.018,16.234c-6.757,6.163-27.99,16.946-31.59,16.946c-0.217,0-0.37-0.039-0.452-0.121
			C11.674,49.856,23.4,26.417,29.935,19.25C32.342,16.607,35.611,15.23,38.807,15.23 M38.807,13.23
			c-3.873,0-7.646,1.703-10.351,4.673c-3.603,3.952-8.407,12.201-11.7,18.603c-7.222,14.038-5.97,15.291-5.056,16.205
			c0.323,0.323,0.908,0.708,1.867,0.708c4.639,0,26.495-11.592,32.938-17.47c2.879-2.614,4.582-6.274,4.672-10.035
			c0.082-3.466-1.191-6.694-3.588-9.09C45.271,14.506,42.152,13.23,38.807,13.23"/>
		<path style="clip-path:url(#SVGID_4_);fill:#8BA43C;" d="M54.344,18.271l-1.833-2.344l-6.155,4.011l5.885-5.883l-2.113-2.113
			l-4.875,4.876l2.93-5.139l-2.399-1.744l-4.437,7.777c0.205,0.599,0.573,1.275,1.066,1.946l-0.018,0.017
			c0.202,0.261,0.422,0.513,0.667,0.777c0.022,0.025,0.043,0.053,0.069,0.082l0.004-0.004c0.112,0.126,0.227,0.253,0.355,0.38
			c0.33,0.331,0.66,0.624,0.992,0.902l0.013-0.013c0.842,0.66,1.693,1.121,2.415,1.317L54.344,18.271z"/>
		<path style="clip-path:url(#SVGID_4_);fill:#627935;" d="M45.782,9.936l2.399,1.744l-2.93,5.139l4.875-4.876l2.113,2.113
			l-5.885,5.883l6.155-4.011l1.833,2.344l-7.434,4.845c-0.722-0.196-1.573-0.657-2.415-1.317l-0.013,0.012
			c-0.332-0.277-0.662-0.57-0.993-0.901c-0.128-0.127-0.242-0.254-0.354-0.38l-0.004,0.004c-0.026-0.029-0.047-0.057-0.069-0.082
			c-0.245-0.264-0.465-0.516-0.667-0.777l0.018-0.017c-0.493-0.671-0.861-1.347-1.067-1.946L45.782,9.936 M45.782,7.936
			c-0.141,0-0.281,0.015-0.421,0.045c-0.556,0.12-1.034,0.47-1.316,0.964l-4.437,7.777c-0.284,0.499-0.341,1.095-0.155,1.638
			c0.243,0.71,0.641,1.47,1.155,2.214c0.057,0.113,0.124,0.222,0.204,0.326c0.216,0.278,0.453,0.556,0.745,0.872
			c0.032,0.039,0.063,0.076,0.098,0.113c0.03,0.033,0.061,0.064,0.093,0.095c0.104,0.115,0.213,0.231,0.33,0.348
			c0.337,0.337,0.693,0.661,1.121,1.018c0.092,0.077,0.188,0.145,0.289,0.202c0.981,0.734,1.979,1.25,2.898,1.499
			c0.173,0.047,0.349,0.07,0.523,0.07c0.384,0,0.764-0.111,1.092-0.325l7.434-4.844c0.47-0.306,0.789-0.795,0.881-1.348
			c0.092-0.553-0.052-1.119-0.397-1.56l-1.799-2.301c0.079-0.217,0.12-0.448,0.12-0.683c0-0.53-0.211-1.039-0.586-1.414
			l-2.113-2.113c-0.391-0.39-0.902-0.586-1.414-0.586c-0.251,0-0.503,0.047-0.74,0.141c-0.01-0.007-0.02-0.014-0.029-0.022
			l-2.399-1.744C46.613,8.067,46.201,7.936,45.782,7.936"/>
		<path style="clip-path:url(#SVGID_4_);fill:#9C935E;" d="M31.454,33.756c-0.128,0-0.256-0.05-0.354-0.146
			c-2.954-2.957-5.125-6.446-6.115-9.83c-0.078-0.265,0.074-0.543,0.339-0.62c0.267-0.08,0.543,0.075,0.62,0.339
			c0.944,3.225,3.027,6.564,5.864,9.402c0.195,0.195,0.195,0.512,0,0.708C31.71,33.706,31.582,33.756,31.454,33.756"/>
		<path style="clip-path:url(#SVGID_4_);fill:#9C935E;" d="M38.852,26.357c-0.128,0-0.256-0.049-0.354-0.146
			c-3.156-3.158-5.388-6.865-6.282-10.438c-0.066-0.269,0.096-0.54,0.365-0.607c0.261-0.069,0.537,0.096,0.605,0.363
			c0.852,3.402,2.988,6.944,6.02,9.974c0.194,0.196,0.194,0.512,0,0.708C39.107,26.309,38.979,26.357,38.852,26.357"/>
		<path style="clip-path:url(#SVGID_4_);fill:#9C935E;" d="M23.836,40.919c-0.13,0-0.26-0.05-0.357-0.15
			c-1.934-1.979-3.546-4.221-4.664-6.484c-0.122-0.248-0.02-0.548,0.227-0.67c0.248-0.121,0.548-0.021,0.67,0.228
			c1.071,2.171,2.621,4.324,4.481,6.228c0.194,0.198,0.19,0.515-0.007,0.707C24.088,40.872,23.962,40.919,23.836,40.919"/>
		<path style="clip-path:url(#SVGID_4_);fill:#9C935E;" d="M16.666,48.544c-0.128,0-0.256-0.049-0.354-0.146
			c-1.107-1.107-1.779-1.799-2.687-3.106c-0.158-0.227-0.102-0.538,0.125-0.696c0.227-0.157,0.538-0.101,0.695,0.126
			c0.822,1.181,1.387,1.781,2.575,2.969c0.195,0.196,0.195,0.513,0,0.708C16.922,48.495,16.794,48.544,16.666,48.544"/>
		<path style="clip-path:url(#SVGID_4_);fill:#8CA43C;" d="M44.059,21.441c0.98,0.852,2.001,1.443,2.852,1.675l7.434-4.845
			l-1.833-2.344L44.059,21.441z"/>
		<path style="clip-path:url(#SVGID_4_);fill:#637935;" d="M52.511,15.928l1.833,2.344l-7.434,4.844
			c-0.851-0.231-1.871-0.823-2.852-1.674L52.511,15.928 M52.51,14.928c-0.187,0-0.377,0.053-0.545,0.163l-8.453,5.513
			c-0.262,0.172-0.43,0.456-0.451,0.769s0.105,0.618,0.342,0.824c1.083,0.939,2.234,1.609,3.244,1.884
			c0.087,0.024,0.177,0.035,0.264,0.035c0.191,0,0.382-0.055,0.546-0.162l7.434-4.844c0.235-0.154,0.395-0.398,0.44-0.674
			c0.046-0.277-0.026-0.56-0.199-0.78l-1.832-2.344C53.103,15.061,52.809,14.928,52.51,14.928"/>
		<path style="clip-path:url(#SVGID_4_);fill:#8BA43C;" d="M42.395,19.675c0.317,0.409,0.689,0.83,1.095,1.235
			c0.331,0.331,0.661,0.624,0.993,0.902l7.758-7.757l-2.113-2.112L42.395,19.675z"/>
		<path style="clip-path:url(#SVGID_4_);fill:#627935;" d="M50.127,11.943l2.113,2.113l-7.758,7.756
			c-0.332-0.278-0.662-0.571-0.993-0.901c-0.405-0.405-0.777-0.827-1.095-1.236L50.127,11.943 M50.127,10.943
			c-0.256,0-0.512,0.098-0.707,0.293l-7.731,7.732c-0.357,0.357-0.393,0.923-0.083,1.321c0.35,0.45,0.745,0.898,1.177,1.329
			c0.318,0.318,0.654,0.623,1.059,0.961c0.187,0.156,0.414,0.233,0.642,0.233c0.257,0,0.513-0.098,0.708-0.293l7.757-7.756
			c0.188-0.188,0.293-0.442,0.293-0.707c0-0.265-0.105-0.52-0.293-0.707l-2.113-2.113C50.639,11.041,50.383,10.943,50.127,10.943"/>
		<path style="clip-path:url(#SVGID_4_);fill:#8BA43C;" d="M43.131,20.535l5.051-8.855l-2.399-1.744l-4.437,7.777
			C41.644,18.58,42.258,19.579,43.131,20.535"/>
		<path style="clip-path:url(#SVGID_4_);fill:#627935;" d="M45.782,9.936l2.399,1.744l-5.051,8.855
			c-0.873-0.955-1.487-1.954-1.786-2.822L45.782,9.936 M45.782,8.936c-0.07,0-0.141,0.007-0.21,0.022
			c-0.278,0.06-0.518,0.235-0.658,0.482l-4.438,7.777c-0.142,0.25-0.17,0.549-0.076,0.821c0.351,1.023,1.059,2.15,1.992,3.171
			c0.19,0.209,0.459,0.326,0.738,0.326c0.037,0,0.074-0.002,0.111-0.006c0.317-0.035,0.599-0.221,0.758-0.498l5.051-8.855
			c0.252-0.443,0.131-1.005-0.281-1.305L46.37,9.126C46.197,9.001,45.992,8.936,45.782,8.936"/>
		<path style="clip-path:url(#SVGID_4_);fill:#9C935E;" d="M39.035,33.161c-0.242,0.243-0.631,0.237-0.864,0.004
			c-0.245-0.244-0.249-0.632-0.007-0.875c0.24-0.24,0.627-0.234,0.872,0.01C39.27,32.533,39.275,32.921,39.035,33.161"/>
		<path style="clip-path:url(#SVGID_4_);fill:#9C935E;" d="M25.68,35.387c-0.238,0.24-0.624,0.24-0.861,0.003
			c-0.244-0.245-0.242-0.627-0.002-0.866c0.239-0.239,0.625-0.246,0.87-0.001C25.923,34.76,25.92,35.147,25.68,35.387"/>
		<path style="clip-path:url(#SVGID_4_);fill:#9C935E;" d="M22.836,45.713c-0.242,0.242-0.629,0.236-0.862,0.003
			c-0.245-0.245-0.251-0.632-0.008-0.874c0.241-0.241,0.628-0.236,0.873,0.009C23.072,45.084,23.078,45.472,22.836,45.713"/>
		<path style="clip-path:url(#SVGID_4_);fill:#9C935E;" d="M37.524,18.749c-0.242,0.243-0.629,0.237-0.873-0.007
			c-0.234-0.234-0.239-0.621,0.003-0.864c0.241-0.241,0.628-0.235,0.862-0.002C37.761,18.121,37.766,18.508,37.524,18.749"/>
	</g>
</g>
</svg>
