<?xml version="1.0" encoding="iso-8859-1"?>
<!-- Generator: Adobe Illustrator 16.0.0, SVG Export Plug-In . SVG Version: 6.00 Build 0)  -->
<!DOCTYPE svg PUBLIC "-//W3C//DTD SVG 1.1//EN" "http://www.w3.org/Graphics/SVG/1.1/DTD/svg11.dtd">
<svg version="1.1" id="Layer_1" xmlns="http://www.w3.org/2000/svg" xmlns:xlink="http://www.w3.org/1999/xlink" x="0px" y="0px"
	 width="64px" height="64px" viewBox="0 0 64 64" style="enable-background:new 0 0 64 64;" xml:space="preserve">
<g>
	<defs>
		<rect id="SVGID_1_" width="64" height="64"/>
	</defs>
	<clipPath id="SVGID_2_">
		<use xlink:href="#SVGID_1_"  style="overflow:visible;"/>
	</clipPath>
	<g style="clip-path:url(#SVGID_2_);">
		<defs>
			<rect id="SVGID_3_" width="64" height="64"/>
		</defs>
		<clipPath id="SVGID_4_">
			<use xlink:href="#SVGID_3_"  style="overflow:visible;"/>
		</clipPath>
		<path style="clip-path:url(#SVGID_4_);fill:#6E9140;" d="M11.034,52.968c0,0,14.034,0.938,22.112-7.137l12.683-12.684
			c8.077-8.078,7.138-22.114,7.138-22.114s-14.036-0.939-22.113,7.137L18.169,30.854C10.094,38.932,11.034,52.968,11.034,52.968"/>
		<path style="clip-path:url(#SVGID_4_);fill:#8BA43C;" d="M42.555,28.423c3.119,0,5.647-2.525,5.647-5.644
			s-2.528-5.644-5.647-5.644s-5.647,2.525-5.647,5.644C36.907,25.9,39.436,28.423,42.555,28.423"/>
		<path style="clip-path:url(#SVGID_4_);fill:#627935;" d="M42.555,17.136c3.119,0,5.647,2.525,5.647,5.644
			c0,3.118-2.528,5.644-5.647,5.644s-5.647-2.524-5.647-5.644C36.907,19.661,39.436,17.136,42.555,17.136 M42.555,16.371
			c-3.536,0-6.412,2.875-6.412,6.409c0,3.534,2.876,6.408,6.412,6.408s6.412-2.874,6.412-6.408
			C48.967,19.246,46.091,16.371,42.555,16.371"/>
		<path style="clip-path:url(#SVGID_4_);fill:#8BA43C;" d="M35.638,35.344c3.119,0,5.647-2.532,5.647-5.649
			c0-3.117-2.528-5.645-5.647-5.647c-3.119,0.002-5.646,2.53-5.646,5.647C29.992,32.812,32.52,35.344,35.638,35.344"/>
		<path style="clip-path:url(#SVGID_4_);fill:#627935;" d="M35.638,24.048c3.119,0.002,5.647,2.53,5.647,5.647
			c0,3.117-2.528,5.649-5.647,5.649c-3.118,0-5.645-2.532-5.645-5.649C29.993,26.578,32.519,24.05,35.638,24.048 M35.639,23.283
			h-0.002c-3.534,0.002-6.409,2.878-6.409,6.412c0,3.537,2.876,6.415,6.41,6.415c3.536,0,6.412-2.878,6.412-6.415
			C42.05,26.161,39.174,23.285,35.639,23.283"/>
		<path style="clip-path:url(#SVGID_4_);fill:#8BA43C;" d="M28.721,42.257c3.119,0,5.647-2.525,5.647-5.643
			c0-3.12-2.528-5.648-5.647-5.648c-3.117,0-5.644,2.528-5.644,5.645C23.077,39.731,25.604,42.257,28.721,42.257"/>
		<path style="clip-path:url(#SVGID_4_);fill:#627935;" d="M28.721,30.967c3.119,0,5.647,2.527,5.647,5.647
			c0,3.117-2.528,5.643-5.647,5.643c-3.117,0-5.644-2.525-5.644-5.646C23.077,33.494,25.604,30.967,28.721,30.967 M28.721,30.202
			c-3.533,0-6.408,2.875-6.408,6.41c0,3.535,2.875,6.411,6.408,6.411c3.536,0,6.412-2.875,6.412-6.408
			C35.133,33.078,32.257,30.202,28.721,30.202"/>
		<path style="clip-path:url(#SVGID_4_);fill:#8BA43C;" d="M21.808,49.178c3.119,0,5.646-2.532,5.646-5.653
			c0-3.118-2.527-5.644-5.646-5.644s-5.647,2.525-5.647,5.646C16.161,46.646,18.688,49.178,21.808,49.178"/>
		<path style="clip-path:url(#SVGID_4_);fill:#627935;" d="M21.808,37.881c3.119,0,5.646,2.526,5.646,5.644
			c0,3.121-2.527,5.653-5.646,5.653s-5.647-2.532-5.647-5.65C16.161,40.407,18.688,37.881,21.808,37.881 M21.808,37.117
			c-3.536,0-6.412,2.875-6.412,6.41c0,3.536,2.876,6.414,6.412,6.414c3.534,0,6.41-2.878,6.41-6.417
			C28.218,39.991,25.342,37.117,21.808,37.117"/>
		<path style="clip-path:url(#SVGID_4_);fill:#8BA43C;" d="M36.907,22.78c0,0.513,0.075,1.003,0.201,1.467
			c-0.473-0.126-0.962-0.199-1.472-0.199c-3.118,0.002-5.645,2.53-5.645,5.647c0,0.511,0.073,1,0.201,1.475
			c-0.469-0.128-0.96-0.203-1.473-0.203c-3.117,0-5.643,2.527-5.643,5.645c0,0.508,0.071,0.999,0.199,1.47
			c-0.469-0.126-0.96-0.2-1.469-0.2c-3.119,0-5.647,2.526-5.647,5.646c0,3.118,2.528,5.65,5.647,5.65
			c3.12,0,5.646-2.532,5.646-5.653c0-0.502-0.071-0.993-0.199-1.467c0.468,0.128,0.96,0.199,1.466,0.199
			c3.12,0,5.648-2.525,5.648-5.643c0-0.513-0.071-1.005-0.199-1.47c0.471,0.128,0.96,0.199,1.468,0.199
			c3.12,0,5.648-2.532,5.648-5.649c0-0.507-0.075-0.998-0.199-1.471c0.469,0.128,0.96,0.2,1.469,0.2
			c3.119,0,5.647-2.526,5.647-5.644c0-3.119-2.528-5.645-5.647-5.645S36.907,19.661,36.907,22.78"/>
		<path style="clip-path:url(#SVGID_4_);fill:#627935;" d="M42.555,17.135c3.119,0,5.647,2.525,5.647,5.645
			c0,3.118-2.528,5.643-5.647,5.643c-0.509,0-1-0.071-1.469-0.199c0.124,0.473,0.199,0.964,0.199,1.471
			c0,3.117-2.528,5.648-5.647,5.648c-0.509,0-0.998-0.071-1.469-0.199c0.128,0.465,0.199,0.957,0.199,1.47
			c0,3.117-2.528,5.643-5.647,5.643c-0.507,0-0.998-0.071-1.467-0.199c0.128,0.474,0.199,0.965,0.199,1.467
			c0,3.121-2.526,5.653-5.645,5.653s-5.648-2.532-5.648-5.65c0-3.12,2.529-5.646,5.648-5.646c0.509,0,1,0.074,1.469,0.2
			c-0.128-0.471-0.2-0.962-0.2-1.47c0-3.117,2.527-5.645,5.644-5.645c0.513,0,1.004,0.075,1.473,0.203
			c-0.128-0.474-0.202-0.964-0.202-1.474c0-3.118,2.527-5.646,5.646-5.648c0.509,0,0.998,0.073,1.471,0.199
			c-0.126-0.464-0.201-0.954-0.201-1.466C36.907,19.66,39.436,17.135,42.555,17.135 M42.555,15.135c-3.98,0-7.261,3.056-7.615,6.944
			c-3.661,0.335-6.584,3.26-6.916,6.919c-3.659,0.332-6.582,3.254-6.915,6.915c-3.891,0.354-6.949,3.634-6.949,7.614
			c0,4.218,3.431,7.65,7.648,7.65c3.979,0,7.259-3.06,7.614-6.952c3.658-0.334,6.581-3.256,6.914-6.913
			c3.662-0.333,6.586-3.258,6.918-6.921c3.891-0.353,6.948-3.632,6.948-7.611C50.202,18.564,46.771,15.135,42.555,15.135"/>
		<path style="clip-path:url(#SVGID_4_);fill:#8BA43C;" d="M42.555,28.423c3.119,0,5.647-2.525,5.647-5.644
			s-2.528-5.644-5.647-5.644s-5.647,2.525-5.647,5.644C36.907,25.9,39.436,28.423,42.555,28.423"/>
		<path style="clip-path:url(#SVGID_4_);fill:#627935;" d="M42.555,17.136c3.119,0,5.647,2.525,5.647,5.644
			c0,3.118-2.528,5.644-5.647,5.644s-5.647-2.524-5.647-5.644C36.907,19.661,39.436,17.136,42.555,17.136 M42.555,16.371
			c-3.536,0-6.412,2.875-6.412,6.409c0,3.534,2.876,6.408,6.412,6.408s6.412-2.874,6.412-6.408
			C48.967,19.246,46.091,16.371,42.555,16.371"/>
		<path style="clip-path:url(#SVGID_4_);fill:#8BA43C;" d="M35.638,35.344c3.119,0,5.647-2.532,5.647-5.649
			c0-3.117-2.528-5.645-5.647-5.647c-3.119,0.002-5.646,2.53-5.646,5.647C29.992,32.812,32.52,35.344,35.638,35.344"/>
		<path style="clip-path:url(#SVGID_4_);fill:#627935;" d="M35.638,24.047c3.119,0.002,5.647,2.53,5.647,5.647
			c0,3.118-2.528,5.649-5.647,5.649c-3.118,0-5.645-2.531-5.645-5.649C29.993,26.578,32.519,24.049,35.638,24.047 M35.639,23.047
			h-0.002c-3.664,0.002-6.644,2.984-6.644,6.647c0,3.667,2.981,6.649,6.645,6.649c3.665,0,6.647-2.982,6.647-6.649
			C42.285,26.031,39.304,23.049,35.639,23.047"/>
		<path style="clip-path:url(#SVGID_4_);fill:#8BA43C;" d="M28.721,42.257c3.119,0,5.647-2.525,5.647-5.643
			c0-3.12-2.528-5.648-5.647-5.648c-3.117,0-5.644,2.528-5.644,5.645C23.077,39.731,25.604,42.257,28.721,42.257"/>
		<path style="clip-path:url(#SVGID_4_);fill:#627935;" d="M28.721,30.966c3.119,0,5.647,2.528,5.647,5.648
			c0,3.117-2.528,5.643-5.647,5.643c-3.117,0-5.644-2.525-5.644-5.646C23.077,33.494,25.604,30.966,28.721,30.966 M28.721,29.966
			c-3.663,0-6.644,2.981-6.644,6.645c0,3.665,2.981,6.646,6.644,6.646c3.665,0,6.647-2.979,6.647-6.643
			C35.368,32.948,32.386,29.966,28.721,29.966"/>
		<path style="clip-path:url(#SVGID_4_);fill:#8BA43C;" d="M21.808,49.178c3.119,0,5.646-2.532,5.646-5.653
			c0-3.118-2.527-5.644-5.646-5.644s-5.647,2.525-5.647,5.646C16.161,46.646,18.688,49.178,21.808,49.178"/>
		<path style="clip-path:url(#SVGID_4_);fill:#627935;" d="M21.808,37.881c3.119,0,5.646,2.526,5.646,5.644
			c0,3.121-2.527,5.653-5.646,5.653s-5.647-2.532-5.647-5.65C16.161,40.407,18.688,37.881,21.808,37.881 M21.808,36.881
			c-3.665,0-6.647,2.981-6.647,6.646c0,3.667,2.982,6.65,6.647,6.65c3.664,0,6.646-2.984,6.646-6.653
			C28.454,39.861,25.472,36.881,21.808,36.881"/>
		<polygon style="clip-path:url(#SVGID_4_);fill:#6E9140;" points="18.184,51.382 14.75,47.916 23.635,43.444 28.637,39.253 
			42.429,24.385 47.563,16.271 48.106,14.106 52.666,16.5 49.666,28.417 40.75,38.334 32.166,46.666 23.666,51.834 		"/>
		<path style="clip-path:url(#SVGID_4_);fill:#4D642E;" d="M14.386,48.723c-0.418,0-0.808-0.264-0.947-0.682
			c-0.177-0.523,0.104-1.09,0.628-1.267c3.614-1.216,8.803-3.547,13.005-7.745l11.942-11.945c4.134-4.133,6.449-9.224,7.664-12.766
			c0.179-0.522,0.747-0.803,1.271-0.621c0.522,0.179,0.801,0.748,0.622,1.27c-1.284,3.742-3.738,9.127-8.143,13.531L28.486,40.443
			c-4.476,4.472-9.964,6.941-13.781,8.227C14.599,48.706,14.491,48.723,14.386,48.723"/>
		<path style="clip-path:url(#SVGID_4_);fill:#4D642E;" d="M12.399,54L12.399,54c-0.908,0-1.431-0.035-1.431-0.035
			c-0.499-0.034-0.898-0.432-0.932-0.931c-0.039-0.592-0.875-14.585,7.426-22.887l12.686-12.684C36.883,10.727,47.396,10,51.604,10
			c0.905,0,1.43,0.036,1.43,0.036c0.499,0.034,0.897,0.432,0.932,0.931c0.039,0.592,0.874,14.584-7.429,22.886L33.854,46.538
			C27.116,53.273,16.606,54,12.399,54 M12.005,51.998c0.12,0.001,0.251,0.003,0.393,0.003h0.001c3.958,0,13.832-0.67,20.041-6.877
			L45.122,32.44c6.517-6.517,6.908-17.271,6.874-20.438C51.876,12.001,51.744,12,51.604,12c-3.959,0-13.835,0.67-20.042,6.877
			L18.876,31.561C12.361,38.077,11.97,48.832,12.005,51.998"/>
	</g>
</g>
</svg>
