<?xml version="1.0" encoding="iso-8859-1"?>
<!-- Generator: Adobe Illustrator 16.0.0, SVG Export Plug-In . SVG Version: 6.00 Build 0)  -->
<!DOCTYPE svg PUBLIC "-//W3C//DTD SVG 1.1//EN" "http://www.w3.org/Graphics/SVG/1.1/DTD/svg11.dtd">
<svg version="1.1" id="Layer_1" xmlns="http://www.w3.org/2000/svg" xmlns:xlink="http://www.w3.org/1999/xlink" x="0px" y="0px"
	 width="64px" height="64px" viewBox="0 0 64 64" style="enable-background:new 0 0 64 64;" xml:space="preserve">
<g>
	<defs>
		<rect id="SVGID_1_" width="64" height="64"/>
	</defs>
	<clipPath id="SVGID_2_">
		<use xlink:href="#SVGID_1_"  style="overflow:visible;"/>
	</clipPath>
	<g style="clip-path:url(#SVGID_2_);">
		<defs>
			<rect id="SVGID_3_" width="64" height="64"/>
		</defs>
		<clipPath id="SVGID_4_">
			<use xlink:href="#SVGID_3_"  style="overflow:visible;"/>
		</clipPath>
		<path style="clip-path:url(#SVGID_4_);fill:#718B41;" d="M42.21,4.003c-0.686,0.512-3.059,2.419-5.166,5.288
			c-2.048-2.869-4.376-4.773-5.045-5.288c-0.669,0.515-2.997,2.419-5.046,5.288C24.845,6.422,22.475,4.518,21.793,4
			c-1.259,0.986-8.463,6.988-8.135,15.207c0.338,8.365,7.549,13.616,8.772,14.446c0.613-0.43,2.788-2.057,4.735-4.679
			c2.005,2.62,4.213,4.25,4.834,4.68c0.622-0.433,2.831-2.058,4.833-4.68c1.953,2.623,4.123,4.25,4.737,4.679
			c1.222-0.83,8.437-6.084,8.772-14.443C50.669,10.988,43.465,4.986,42.21,4.003"/>
		<path style="clip-path:url(#SVGID_4_);fill:#4D642E;" d="M21.792,4c0.683,0.518,3.052,2.422,5.16,5.291
			c2.049-2.869,4.377-4.773,5.046-5.288c0.669,0.515,2.998,2.419,5.045,5.288c2.107-2.869,4.48-4.776,5.166-5.288
			c1.255,0.983,8.459,6.985,8.132,15.206c-0.336,8.36-7.551,13.614-8.772,14.444c-0.614-0.429-2.784-2.056-4.737-4.679
			c-2.002,2.623-4.211,4.248-4.833,4.68c-0.621-0.431-2.829-2.06-4.834-4.68c-1.946,2.623-4.122,4.25-4.735,4.679
			c-1.222-0.83-8.433-6.082-8.771-14.446C13.33,10.988,20.534,4.986,21.792,4 M21.792,2c-0.436,0-0.871,0.142-1.233,0.425
			c-1.55,1.215-9.265,7.733-8.9,16.862c0.375,9.27,8.102,14.972,9.647,16.021c0.339,0.229,0.731,0.345,1.123,0.345
			c0.403,0,0.804-0.121,1.149-0.362c0.512-0.359,1.995-1.46,3.606-3.211c1.65,1.755,3.155,2.858,3.675,3.218
			c0.342,0.237,0.741,0.356,1.139,0.356c0.399,0,0.798-0.119,1.14-0.357c0.522-0.362,2.032-1.47,3.676-3.217
			c1.621,1.764,3.1,2.858,3.61,3.214c0.344,0.239,0.744,0.359,1.145,0.359c0.392,0,0.784-0.115,1.124-0.346
			c1.545-1.05,9.273-6.756,9.646-16.018c0.363-9.125-7.347-15.646-8.896-16.861c-0.361-0.284-0.797-0.426-1.233-0.426
			c-0.421,0-0.842,0.132-1.197,0.398c-0.398,0.297-2.097,1.611-3.948,3.692c-1.713-1.972-3.302-3.257-3.848-3.676
			c-0.359-0.275-0.789-0.414-1.218-0.414c-0.43,0-0.859,0.139-1.219,0.414c-0.546,0.42-2.134,1.705-3.847,3.676
			c-1.751-1.969-3.374-3.263-3.931-3.686C22.645,2.135,22.218,2,21.792,2"/>
		<path style="clip-path:url(#SVGID_4_);fill:#6E9140;" d="M21.792,4c-1.259,0.986-8.463,6.988-8.134,15.207
			c0.338,8.365,7.549,13.616,8.771,14.446c1.187-0.83,8.175-6.082,8.152-14.446C30.557,10.988,23.091,4.983,21.792,4"/>
		<path style="clip-path:url(#SVGID_4_);fill:#4D642E;" d="M21.792,4c1.299,0.983,8.764,6.988,8.789,15.207
			c0.023,8.365-6.965,13.616-8.152,14.446c-1.222-0.83-8.433-6.082-8.771-14.446C13.33,10.988,20.534,4.986,21.792,4 M21.792,3
			c-0.218,0-0.436,0.071-0.617,0.213c-1.482,1.161-8.862,7.392-8.516,16.034c0.355,8.79,7.733,14.231,9.209,15.233
			c0.169,0.115,0.365,0.173,0.561,0.173c0.201,0,0.402-0.06,0.573-0.181c1.437-1.004,8.603-6.463,8.579-15.269
			c-0.027-8.637-7.657-14.845-9.186-16.001C22.217,3.067,22.004,3,21.792,3"/>
		<path style="clip-path:url(#SVGID_4_);fill:#6E9140;" d="M42.21,4.003c-1.307,0.98-8.77,6.985-8.791,15.208
			c-0.025,8.36,6.96,13.612,8.15,14.442c1.222-0.83,8.437-6.084,8.772-14.443C50.669,10.988,43.465,4.986,42.21,4.003"/>
		<path style="clip-path:url(#SVGID_4_);fill:#4D642E;" d="M42.21,4.003c1.255,0.983,8.459,6.985,8.132,15.207
			c-0.336,8.359-7.551,13.613-8.772,14.443c-1.19-0.83-8.176-6.083-8.15-14.442C33.44,10.988,40.903,4.983,42.21,4.003 M42.21,3.003
			c-0.211,0-0.423,0.066-0.601,0.2c-1.53,1.149-9.168,7.319-9.19,16.005c-0.026,8.82,7.142,14.265,8.579,15.266
			c0.171,0.12,0.371,0.18,0.571,0.18c0.196,0,0.392-0.058,0.562-0.173c1.476-1.003,8.856-6.448,9.209-15.23
			c0.345-8.639-7.031-14.872-8.513-16.034C42.647,3.074,42.428,3.003,42.21,3.003"/>
		<path style="clip-path:url(#SVGID_4_);fill:#6E9140;" d="M31.999,4.003c-1.278,0.979-8.614,6.984-8.463,15.207
			c0.158,8.361,7.263,13.613,8.463,14.444c1.201-0.83,8.306-6.083,8.46-14.445C40.611,10.987,33.279,4.985,31.999,4.003"/>
		<path style="clip-path:url(#SVGID_4_);fill:#4D642E;" d="M31.999,4.003c1.281,0.982,8.613,6.984,8.46,15.206
			c-0.154,8.362-7.26,13.615-8.46,14.445c-1.2-0.831-8.305-6.083-8.463-14.444C23.384,10.987,30.721,4.982,31.999,4.003
			 M31.999,3.003c-0.214,0-0.429,0.069-0.608,0.206c-1.507,1.154-9.014,7.351-8.855,16.02c0.166,8.768,7.438,14.239,8.894,15.247
			c0.171,0.118,0.37,0.178,0.569,0.178c0.199,0,0.398-0.06,0.568-0.178c1.457-1.007,8.73-6.471,8.893-15.248
			c0.16-8.661-7.346-14.863-8.852-16.018C32.428,3.072,32.213,3.003,31.999,3.003"/>
		<path style="clip-path:url(#SVGID_4_);fill:#8BA43C;" d="M45.6,48.722c-1.421-5.791-5.047-11.049-4.179-17.536
			c0.524-3.926,5.308-8.097,3.767-11.827c-1.446,4.134-6.215,6.97-7.865,10.904c-0.854,2.036-1.536,4.719-1.973,6.893
			c-2.648-5.48-5.495-11.113-5.472-18.93c-1.589,5.17-1.936,10.161-2.588,15.113c-0.219-1.05-0.483-2.062-0.805-2.891
			c-1.542-3.949-6.151-6.069-7.507-10.202c-0.967,6.191,3.035,7.899,3.524,11.825c0.804,6.488-2.598,11.744-3.933,17.538
			c-0.761,3.294,0.23,6.759,3.915,8.546c0,0,7.369,3.203,13.481,1.169c0,0,3.496-1.169,5.455-2.055
			C45.355,55.484,46.408,52.015,45.6,48.722"/>
		<path style="clip-path:url(#SVGID_4_);fill:#627935;" d="M29.877,18.226c-0.022,7.816,2.824,13.448,5.473,18.929
			c0.438-2.174,1.119-4.856,1.973-6.892c1.65-3.934,6.419-6.77,7.866-10.905c1.54,3.73-3.243,7.901-3.768,11.828
			c-0.868,6.487,2.758,11.745,4.179,17.536c0.809,3.293-0.244,6.763-4.18,8.547c-1.959,0.886-5.455,2.055-5.455,2.055
			C34.492,59.814,32.947,60,31.448,60c-4.718,0-8.965-1.846-8.965-1.846c-3.684-1.788-4.675-5.252-3.914-8.546
			c1.335-5.794,4.736-11.049,3.932-17.538c-0.488-3.926-4.491-5.633-3.523-11.824c1.356,4.132,5.965,6.252,7.506,10.201
			c0.323,0.83,0.586,1.842,0.806,2.892C27.941,28.387,28.289,23.395,29.877,18.226 M29.876,16.226c-0.866,0-1.649,0.563-1.91,1.413
			c-0.9,2.926-1.416,5.784-1.804,8.577c-0.609-0.715-1.265-1.38-1.91-2.036c-1.449-1.472-2.817-2.862-3.374-4.558
			c-0.271-0.826-1.041-1.376-1.899-1.376c-0.054,0-0.108,0.002-0.163,0.006c-0.921,0.075-1.671,0.772-1.814,1.685
			c-0.705,4.512,0.867,7.119,2.13,9.213c0.698,1.156,1.248,2.069,1.385,3.168c0.482,3.892-0.761,7.363-2.077,11.04
			c-0.667,1.864-1.357,3.791-1.82,5.801c-1.073,4.644,0.839,8.78,4.99,10.794c0.025,0.013,0.051,0.024,0.076,0.035
			C21.875,60.07,26.372,62,31.448,62c1.865,0,3.596-0.262,5.148-0.778c0.149-0.05,3.619-1.214,5.647-2.13
			c4.419-2.004,6.448-6.16,5.299-10.848c-0.494-2.012-1.229-3.938-1.939-5.801c-1.397-3.666-2.718-7.128-2.2-10.992
			c0.161-1.21,0.988-2.692,1.788-4.126c1.468-2.631,3.132-5.614,1.845-8.73c-0.31-0.75-1.041-1.237-1.847-1.237
			c-0.021,0-0.039,0-0.058,0.001c-0.829,0.023-1.559,0.556-1.832,1.339c-0.619,1.77-2.093,3.371-3.652,5.065
			c-1.596,1.733-3.245,3.524-4.169,5.726c-0.24,0.572-0.463,1.178-0.667,1.792c-1.647-3.824-2.95-7.976-2.935-13.049
			c0.003-0.991-0.72-1.835-1.699-1.984C30.076,16.233,29.976,16.226,29.876,16.226"/>
		<g style="clip-path:url(#SVGID_4_);">
			<g>
				<defs>
					<rect id="SVGID_5_" x="18.33" y="18.226" width="27.523" height="41.774"/>
				</defs>
				<clipPath id="SVGID_6_">
					<use xlink:href="#SVGID_5_"  style="overflow:visible;"/>
				</clipPath>
				<defs>
					<filter id="Adobe_OpacityMaskFilter" filterUnits="userSpaceOnUse" x="17.808" y="18.226" width="28.92" height="43.131">
						<feFlood  style="flood-color:white;flood-opacity:1" result="back"/>
						<feBlend  in="SourceGraphic" in2="back" mode="normal"/>
					</filter>
				</defs>
				<mask maskUnits="userSpaceOnUse" x="17.808" y="18.226" width="28.92" height="43.131" id="SVGID_7_">
					<g style="filter:url(#Adobe_OpacityMaskFilter);">
						<g>
							<defs>
								<rect id="SVGID_8_" x="18.33" y="18.226" width="27.523" height="41.774"/>
							</defs>
							<clipPath id="SVGID_9_" style="clip-path:url(#SVGID_6_);">
								<use xlink:href="#SVGID_8_"  style="overflow:visible;"/>
							</clipPath>
							<g style="enable-background:new    ;">
								<g>
									<defs>
										<path id="SVGID_10_" d="M45.6,48.722c-1.421-5.791-5.047-11.049-4.179-17.536c0.524-3.927,5.308-8.098,3.768-11.828
											c-1.447,4.135-6.216,6.971-7.866,10.905c-0.854,2.036-1.535,4.718-1.973,6.892c-2.648-5.481-5.496-11.113-5.473-18.929
											c-1.588,5.17-1.936,10.161-2.587,15.113c-0.22-1.05-0.483-2.062-0.806-2.892c-1.541-3.948-6.151-6.069-7.506-10.201
											c-0.968,6.191,3.035,7.899,3.523,11.824c0.804,6.488-2.597,11.744-3.932,17.538c-0.761,3.294,0.23,6.758,3.914,8.546
											c0,0,7.37,3.203,13.482,1.169c0,0,3.496-1.169,5.455-2.055C45.355,55.484,46.408,52.015,45.6,48.722"/>
									</defs>
									<clipPath id="SVGID_11_" style="clip-path:url(#SVGID_9_);">
										<use xlink:href="#SVGID_10_"  style="overflow:visible;"/>
									</clipPath>
									<defs>
										
											<filter id="Adobe_OpacityMaskFilter_1_" filterUnits="userSpaceOnUse" x="17.808" y="18.226" width="28.92" height="43.131">
											<feFlood  style="flood-color:white;flood-opacity:1" result="back"/>
											<feBlend  in="SourceGraphic" in2="back" mode="normal"/>
										</filter>
									</defs>
									<mask maskUnits="userSpaceOnUse" x="17.808" y="18.226" width="28.92" height="43.131" id="SVGID_7_">
										<g style="filter:url(#Adobe_OpacityMaskFilter_1_);">
											<g style="enable-background:new    ;">
											</g>
										</g>
									</mask>
									
										<linearGradient id="SVGID_12_" gradientUnits="userSpaceOnUse" x1="0" y1="63.9961" x2="1" y2="63.9961" gradientTransform="matrix(-1.800000e-06 -41.7734 -41.7734 1.800000e-06 2705.5938 59.9999)">
										<stop  offset="0" style="stop-color:#FFFFFF"/>
										<stop  offset="0.1837" style="stop-color:#C7C6C6"/>
										<stop  offset="0.3955" style="stop-color:#8D8B8C"/>
										<stop  offset="0.5908" style="stop-color:#5F5C5D"/>
										<stop  offset="0.7628" style="stop-color:#3E3B3C"/>
										<stop  offset="0.9051" style="stop-color:#2A2627"/>
										<stop  offset="1" style="stop-color:#231F20"/>
									</linearGradient>
									
										<rect x="17.808" y="18.226" style="clip-path:url(#SVGID_11_);mask:url(#SVGID_7_);fill:url(#SVGID_12_);" width="28.92" height="43.131"/>
								</g>
							</g>
						</g>
					</g>
				</mask>
				<g style="clip-path:url(#SVGID_6_);">
					<g>
						<defs>
							<rect id="SVGID_13_" x="18.33" y="18.226" width="27.523" height="41.774"/>
						</defs>
						<clipPath id="SVGID_14_">
							<use xlink:href="#SVGID_13_"  style="overflow:visible;"/>
						</clipPath>
						<g style="clip-path:url(#SVGID_14_);">
							<defs>
								<path id="SVGID_15_" d="M45.6,48.722c-1.421-5.791-5.047-11.049-4.179-17.536c0.524-3.927,5.308-8.098,3.768-11.828
									c-1.447,4.135-6.216,6.971-7.866,10.905c-0.854,2.036-1.535,4.718-1.973,6.892c-2.648-5.481-5.496-11.113-5.473-18.929
									c-1.588,5.17-1.936,10.161-2.587,15.113c-0.22-1.05-0.483-2.062-0.806-2.892c-1.541-3.948-6.151-6.069-7.506-10.201
									c-0.968,6.191,3.035,7.899,3.523,11.824c0.804,6.488-2.597,11.744-3.932,17.538c-0.761,3.294,0.23,6.758,3.914,8.546
									c0,0,7.37,3.203,13.482,1.169c0,0,3.496-1.169,5.455-2.055C45.355,55.484,46.408,52.015,45.6,48.722"/>
							</defs>
							<clipPath id="SVGID_16_">
								<use xlink:href="#SVGID_15_"  style="overflow:visible;"/>
							</clipPath>
							
								<linearGradient id="SVGID_17_" gradientUnits="userSpaceOnUse" x1="0" y1="63.9961" x2="1" y2="63.9961" gradientTransform="matrix(-1.800000e-06 -41.7734 -41.7734 1.800000e-06 2705.5938 59.9999)">
								<stop  offset="0" style="stop-color:#FFFFFF"/>
								<stop  offset="0.1017" style="stop-color:#EEF2E3"/>
								<stop  offset="0.335" style="stop-color:#CCD6A8"/>
								<stop  offset="0.5497" style="stop-color:#B0C179"/>
								<stop  offset="0.739" style="stop-color:#9CB158"/>
								<stop  offset="0.8955" style="stop-color:#90A743"/>
								<stop  offset="1" style="stop-color:#8CA43C"/>
							</linearGradient>
							<rect x="17.808" y="18.226" style="clip-path:url(#SVGID_16_);fill:url(#SVGID_17_);" width="28.92" height="43.131"/>
						</g>
					</g>
				</g>
			</g>
		</g>
		<path style="clip-path:url(#SVGID_4_);fill:#627935;" d="M28.611,52.372c-0.134,0-0.267-0.054-0.366-0.159
			c-0.188-0.202-0.177-0.519,0.025-0.707c3.091-2.883,5-7.058,5.835-12.763c0.365-2.53,1.264-6.462,2.373-9.116
			c0.131-0.323,0.293-0.638,0.463-0.953c0.132-0.243,0.434-0.333,0.678-0.202c0.242,0.131,0.333,0.435,0.201,0.677
			c-0.152,0.283-0.298,0.565-0.418,0.86c-1.076,2.577-1.95,6.407-2.308,8.877c-0.856,5.857-2.924,10.349-6.143,13.351
			C28.856,52.327,28.733,52.372,28.611,52.372"/>
		<path style="clip-path:url(#SVGID_4_);fill:#627935;" d="M37.321,60.489c-0.034,0-0.067-0.003-0.103-0.01
			c-10.48-2.181-9.839-9.435-9.273-15.835c0.17-1.93,0.331-3.754,0.192-5.375l-0.031-0.301c-0.148-1.429-0.598-5.773-1.573-8.271
			c-0.386-0.991-0.847-1.843-1.333-2.464c-0.17-0.218-0.131-0.532,0.086-0.702c0.218-0.171,0.532-0.132,0.702,0.086
			c0.688,0.88,1.183,1.963,1.477,2.716c1.024,2.625,1.484,7.071,1.635,8.532l0.033,0.308c0.147,1.72-0.018,3.585-0.192,5.56
			c-0.555,6.278-1.128,12.769,8.481,14.768c0.271,0.057,0.444,0.321,0.388,0.593C37.761,60.327,37.553,60.489,37.321,60.489"/>
	</g>
</g>
</svg>
