<?xml version="1.0" encoding="iso-8859-1"?>
<!-- Generator: Adobe Illustrator 16.0.0, SVG Export Plug-In . SVG Version: 6.00 Build 0)  -->
<!DOCTYPE svg PUBLIC "-//W3C//DTD SVG 1.1//EN" "http://www.w3.org/Graphics/SVG/1.1/DTD/svg11.dtd">
<svg version="1.1" id="Layer_1" xmlns="http://www.w3.org/2000/svg" xmlns:xlink="http://www.w3.org/1999/xlink" x="0px" y="0px"
	 width="64px" height="64px" viewBox="0 0 64 64" style="enable-background:new 0 0 64 64;" xml:space="preserve">
<g>
	<defs>
		<rect id="SVGID_1_" width="64" height="64"/>
	</defs>
	<clipPath id="SVGID_2_">
		<use xlink:href="#SVGID_1_"  style="overflow:visible;"/>
	</clipPath>
	<g style="clip-path:url(#SVGID_2_);">
		<defs>
			<rect id="SVGID_3_" width="64" height="64"/>
		</defs>
		<clipPath id="SVGID_4_">
			<use xlink:href="#SVGID_3_"  style="overflow:visible;"/>
		</clipPath>
		<path style="clip-path:url(#SVGID_4_);fill:#8D2842;" d="M19.743,30.739c-4.58,4.765-5.077,12.287-0.828,17.534
			c1.898,2.338,4.414,3.981,7.099,4.934c2.146,1.057,5.216,2.862,5.827,5.648h0.211c0.712-3.678,5.337-5.209,7.944-6.558
			C44.376,50.041,48,45.52,48,39.979C48,24.861,27.931,22.228,19.743,30.739"/>
		<path style="clip-path:url(#SVGID_4_);fill:#641A32;" d="M32.225,25.936C40.12,25.936,48,30.508,48,39.979
			c0,5.54-3.624,10.062-8.003,12.319c-2.608,1.349-7.232,2.88-7.944,6.558h-0.212c-0.61-2.786-3.68-4.592-5.827-5.648
			c-2.685-0.952-5.2-2.596-7.098-4.934c-4.249-5.247-3.752-12.77,0.828-17.535C22.802,27.56,27.516,25.936,32.225,25.936
			 M32.225,23.936c-5.537,0-10.611,1.974-13.923,5.417c-5.347,5.563-5.751,14.238-0.94,20.179c2.01,2.478,4.728,4.383,7.868,5.519
			c2.778,1.383,4.345,2.806,4.658,4.232c0.201,0.918,1.014,1.572,1.953,1.572h0.212c0.958,0,1.781-0.68,1.964-1.62
			c0.403-2.088,3.196-3.4,5.439-4.454c0.524-0.246,1.019-0.479,1.46-0.707C46.518,51.187,50,45.786,50,39.979
			C50,28.957,40.785,23.936,32.225,23.936"/>
		<path style="clip-path:url(#SVGID_4_);fill:#627935;" d="M32.645,5.145v2l3.92,0.462l-0.538,4.535l2.512,0.406l-2.415,14.983
			c-0.863,0.64-2.083,1.099-3.479,1.323v0.018c-0.221,0.035-0.451,0.06-0.685,0.082c-0.022,0.002-0.038,0.007-0.059,0.01v-0.002
			c-0.335,0.032-0.676,0.052-1.029,0.052c-0.23,0-0.455-0.018-0.679-0.035l0.003,0.016c-0.073-0.005-0.142-0.021-0.215-0.024
			c-0.223-0.021-0.434-0.046-0.649-0.077c-0.177-0.024-0.353-0.044-0.522-0.079c-0.034-0.003-0.071-0.005-0.103-0.013v-0.01
			c-1.088-0.214-2.055-0.582-2.804-1.066L22.79,12.822l2.425-0.505l-0.734-3.511l4.226-0.881v-2.78H32.645 M32.645,3.145
			L32.645,3.145h-3.938c-1.104,0-2,0.896-2,2v1.154l-2.634,0.549c-0.519,0.108-0.975,0.418-1.265,0.862
			c-0.291,0.444-0.393,0.986-0.285,1.505l0.325,1.552l-0.466,0.097c-0.519,0.108-0.975,0.418-1.265,0.862
			c-0.291,0.444-0.394,0.985-0.285,1.504l3.113,14.905c0.109,0.523,0.423,0.98,0.872,1.27c0.907,0.587,2.041,1.036,3.292,1.305
			c0.041,0.014,0.084,0.025,0.127,0.036c0.09,0.022,0.187,0.038,0.284,0.05c0.15,0.027,0.303,0.048,0.457,0.068l0.089,0.012
			c0.231,0.033,0.475,0.062,0.732,0.086c0.008,0.001,0.015,0.002,0.024,0.002c0.087,0.013,0.163,0.021,0.241,0.027
			c0.044,0.003,0.089,0.004,0.133,0.004c0.036,0,0.072-0.001,0.107-0.003c0.188,0.013,0.377,0.022,0.569,0.022
			c0.359,0,0.727-0.017,1.121-0.052c0.062-0.003,0.127-0.008,0.19-0.018c0.013-0.002,0.027-0.004,0.042-0.006
			c0.253-0.025,0.498-0.053,0.733-0.091c0.098-0.015,0.192-0.037,0.284-0.066c1.61-0.294,3.015-0.86,4.071-1.644
			c0.419-0.31,0.699-0.772,0.783-1.287l2.415-14.984c0.176-1.09-0.565-2.116-1.655-2.293l-0.619-0.1l0.312-2.63
			c0.062-0.528-0.087-1.058-0.415-1.474c-0.329-0.417-0.81-0.686-1.337-0.748l-2.153-0.254V5.145c0-0.53-0.21-1.039-0.585-1.415
			C33.684,3.355,33.175,3.145,32.645,3.145"/>
		
			<rect x="26.229" y="8.125" transform="matrix(0.9789 -0.2043 0.2043 0.9789 -2.8544 6.2088)" style="clip-path:url(#SVGID_4_);fill:#8BA43C;" width="4.841" height="17.612"/>
		<path style="clip-path:url(#SVGID_4_);fill:#627935;" d="M29.216,7.818l3.603,17.24l-4.74,0.989L24.481,8.806L29.216,7.818
			 M29.217,6.818c-0.068,0-0.136,0.007-0.205,0.021l-4.735,0.988c-0.26,0.054-0.488,0.209-0.633,0.431
			C23.5,8.48,23.447,8.751,23.502,9.01L27.1,26.251c0.054,0.26,0.21,0.487,0.431,0.633c0.165,0.107,0.355,0.163,0.548,0.163
			c0.068,0,0.137-0.007,0.205-0.021l4.739-0.989c0.26-0.054,0.487-0.21,0.633-0.431c0.145-0.223,0.195-0.493,0.142-0.753
			l-3.603-17.24C30.096,7.142,29.68,6.818,29.217,6.818"/>
		
			<rect x="31.305" y="7.298" transform="matrix(0.9931 0.1171 -0.1171 0.9931 2.1166 -3.805)" style="clip-path:url(#SVGID_4_);fill:#8BA43C;" width="4.243" height="17.609"/>
		<path style="clip-path:url(#SVGID_4_);fill:#627935;" d="M32.353,7.11l4.212,0.497L34.5,25.095l-4.213-0.496L32.353,7.11
			 M32.352,6.11c-0.5,0-0.932,0.374-0.992,0.883l-2.067,17.489c-0.031,0.263,0.044,0.528,0.208,0.736s0.405,0.343,0.668,0.374
			l4.214,0.497c0.039,0.004,0.079,0.006,0.118,0.006c0.499,0,0.932-0.374,0.992-0.882l2.063-17.489
			c0.031-0.263-0.043-0.528-0.207-0.736c-0.165-0.209-0.405-0.343-0.668-0.374L32.47,6.117C32.43,6.112,32.391,6.11,32.352,6.11"/>
		<path style="clip-path:url(#SVGID_4_);fill:#8CA43C;" d="M31.901,28.964c1.711-0.152,3.206-0.678,4.222-1.433l2.415-14.984
			l-3.893-0.625L31.901,28.964z"/>
		<path style="clip-path:url(#SVGID_4_);fill:#637935;" d="M34.646,11.922l3.893,0.626l-2.415,14.983
			c-1.016,0.755-2.511,1.281-4.222,1.433L34.646,11.922 M34.645,10.922c-0.482,0-0.907,0.35-0.986,0.841l-2.744,17.042
			c-0.049,0.305,0.045,0.616,0.255,0.841c0.19,0.204,0.455,0.318,0.732,0.318c0.029,0,0.059-0.001,0.089-0.003
			c1.861-0.166,3.541-0.744,4.728-1.627c0.209-0.156,0.35-0.387,0.392-0.643l2.415-14.984c0.042-0.262-0.021-0.53-0.177-0.745
			s-0.39-0.359-0.651-0.401l-3.893-0.626C34.749,10.926,34.697,10.922,34.645,10.922"/>
		<path style="clip-path:url(#SVGID_4_);fill:#8BA43C;" d="M28.707,28.802c0.68,0.135,1.407,0.212,2.165,0.212
			c0.617,0,1.209-0.051,1.772-0.142V5.145h-3.938V28.802z"/>
		<path style="clip-path:url(#SVGID_4_);fill:#627935;" d="M32.645,5.145h0.005 M32.645,5.145v23.727
			c-0.563,0.091-1.156,0.142-1.772,0.142h-0.007c-0.755,0-1.48-0.077-2.158-0.212V5.145H32.645 M32.649,4.145h-0.005h-3.938
			c-0.552,0-1,0.448-1,1v23.657c0,0.477,0.338,0.888,0.806,0.981c0.773,0.154,1.564,0.231,2.352,0.231
			c0.652,0,1.301-0.052,1.939-0.155c0.484-0.078,0.841-0.496,0.841-0.987l0.001-23.656c0.001-0.024,0.002-0.047,0.002-0.071
			C33.647,4.593,33.202,4.145,32.649,4.145"/>
		<path style="clip-path:url(#SVGID_4_);fill:#8BA43C;" d="M30.196,28.995l-3.547-16.977l-3.86,0.804l3.114,14.904
			C26.979,28.422,28.489,28.893,30.196,28.995"/>
		<path style="clip-path:url(#SVGID_4_);fill:#627935;" d="M26.649,12.018l3.547,16.977c-1.707-0.102-3.216-0.573-4.293-1.269
			L22.79,12.822L26.649,12.018 M26.65,11.018c-0.067,0-0.136,0.007-0.205,0.021l-3.859,0.804c-0.26,0.054-0.488,0.209-0.633,0.431
			c-0.145,0.222-0.197,0.493-0.142,0.752l3.113,14.905c0.055,0.261,0.212,0.49,0.436,0.635c1.255,0.812,2.952,1.319,4.777,1.427
			c0.02,0.002,0.04,0.002,0.059,0.002c0.29,0,0.567-0.126,0.757-0.347c0.204-0.235,0.286-0.552,0.222-0.858l-3.547-16.977
			C27.529,11.342,27.113,11.018,26.65,11.018"/>
	</g>
</g>
</svg>
