<?xml version="1.0" encoding="iso-8859-1"?>
<!-- Generator: Adobe Illustrator 16.0.0, SVG Export Plug-In . SVG Version: 6.00 Build 0)  -->
<!DOCTYPE svg PUBLIC "-//W3C//DTD SVG 1.1//EN" "http://www.w3.org/Graphics/SVG/1.1/DTD/svg11.dtd">
<svg version="1.1" id="Layer_1" xmlns="http://www.w3.org/2000/svg" xmlns:xlink="http://www.w3.org/1999/xlink" x="0px" y="0px"
	 width="64px" height="64px" viewBox="0 0 64 64" style="enable-background:new 0 0 64 64;" xml:space="preserve">
<g>
	<defs>
		<rect id="SVGID_1_" width="64" height="64"/>
	</defs>
	<clipPath id="SVGID_2_">
		<use xlink:href="#SVGID_1_"  style="overflow:visible;"/>
	</clipPath>
	<g style="clip-path:url(#SVGID_2_);">
		<defs>
			<rect id="SVGID_3_" width="64" height="64"/>
		</defs>
		<clipPath id="SVGID_4_">
			<use xlink:href="#SVGID_3_"  style="overflow:visible;"/>
		</clipPath>
		<path style="clip-path:url(#SVGID_4_);fill:#6E9140;" d="M53.691,29.253c0.275-0.726,0.441-1.507,0.441-2.325
			c0-3.547-2.873-6.419-6.428-6.419c-0.377,0-0.744,0.037-1.113,0.102c0.068-0.366,0.104-0.733,0.104-1.119
			c0-3.544-2.871-6.419-6.419-6.419c-0.732,0-1.427,0.13-2.087,0.358c-0.045-0.171-0.1-0.34-0.159-0.504V12.92
			c-0.293-0.803-0.732-1.525-1.296-2.145c-0.022-0.025-0.047-0.052-0.071-0.076c-0.097-0.098-0.19-0.194-0.29-0.284
			c-0.037-0.034-0.076-0.074-0.115-0.107c-0.092-0.085-0.184-0.169-0.283-0.244c-0.053-0.042-0.107-0.078-0.162-0.122
			c-0.094-0.069-0.188-0.138-0.285-0.201c-0.076-0.046-0.145-0.092-0.225-0.135c-0.141-0.082-0.285-0.166-0.436-0.242
			c-0.105-0.05-0.206-0.104-0.304-0.149c-0.081-0.03-0.151-0.058-0.237-0.089c-0.104-0.039-0.203-0.085-0.314-0.116
			c-0.083-0.027-0.158-0.049-0.23-0.07c-0.119-0.036-0.24-0.068-0.35-0.094c-0.082-0.015-0.152-0.031-0.235-0.049
			c-0.126-0.024-0.255-0.042-0.391-0.058c-0.063-0.009-0.134-0.018-0.195-0.024C32.412,8.697,32.209,8.683,32,8.683
			c-0.207,0-0.413,0.014-0.611,0.032c-0.061,0.006-0.13,0.015-0.195,0.024c-0.136,0.016-0.265,0.034-0.391,0.058
			c-0.083,0.018-0.151,0.034-0.233,0.049c-0.109,0.026-0.231,0.058-0.35,0.094c-0.074,0.021-0.149,0.043-0.23,0.07
			c-0.111,0.031-0.212,0.077-0.317,0.116c-0.084,0.031-0.156,0.059-0.237,0.089c-0.098,0.046-0.198,0.099-0.302,0.149
			c-0.15,0.077-0.297,0.16-0.437,0.242c-0.078,0.043-0.147,0.089-0.225,0.135c-0.097,0.063-0.189,0.132-0.283,0.201
			c-0.055,0.044-0.111,0.08-0.164,0.122c-0.098,0.075-0.191,0.159-0.283,0.244c-0.039,0.033-0.076,0.073-0.113,0.107
			c-0.1,0.09-0.196,0.186-0.292,0.284c-0.025,0.024-0.049,0.051-0.07,0.076c-0.565,0.618-1.005,1.342-1.298,2.145v0.007
			c-0.057,0.164-0.112,0.333-0.157,0.504c-0.66-0.228-1.356-0.358-2.089-0.358c-3.548,0-6.419,2.875-6.419,6.419
			c0,0.386,0.037,0.753,0.106,1.119c-0.369-0.065-0.737-0.102-1.115-0.102c-3.555,0-6.426,2.872-6.426,6.419
			c0,0.818,0.164,1.599,0.441,2.325C8.342,30.346,7,32.45,7,34.868c0,3.318,2.514,6.048,5.748,6.381
			c0.076,3.482,2.919,6.288,6.416,6.288c1.349,0,2.606-0.423,3.638-1.141c1.164,1.119,2.728,1.814,4.471,1.814
			c1.87,0,3.553-0.81,4.727-2.088c1.174,1.278,2.856,2.088,4.729,2.088c1.741,0,3.307-0.695,4.471-1.814
			c1.03,0.718,2.287,1.141,3.638,1.141c3.497,0,6.339-2.806,6.416-6.288C54.485,40.916,57,38.187,57,34.868
			C57,32.45,55.657,30.346,53.691,29.253"/>
		<path style="clip-path:url(#SVGID_4_);fill:#4D642E;" d="M32,8.683c0.209,0,0.412,0.014,0.61,0.032
			c0.062,0.007,0.132,0.015,0.195,0.025c0.136,0.015,0.265,0.033,0.391,0.057c0.083,0.018,0.153,0.034,0.235,0.049
			c0.109,0.026,0.23,0.059,0.35,0.094c0.072,0.021,0.147,0.044,0.23,0.07c0.111,0.031,0.21,0.077,0.314,0.116
			c0.086,0.032,0.156,0.059,0.237,0.089c0.098,0.045,0.198,0.099,0.304,0.15c0.15,0.075,0.295,0.159,0.436,0.241
			c0.08,0.043,0.148,0.09,0.225,0.136c0.098,0.062,0.191,0.131,0.286,0.201c0.054,0.044,0.108,0.079,0.161,0.121
			c0.1,0.075,0.191,0.159,0.283,0.244c0.039,0.033,0.078,0.073,0.115,0.107c0.1,0.09,0.193,0.186,0.29,0.284
			c0.023,0.025,0.049,0.051,0.071,0.077c0.563,0.619,1.003,1.342,1.296,2.145v0.006c0.06,0.165,0.114,0.333,0.159,0.504
			c0.66-0.227,1.354-0.357,2.087-0.357c3.548,0,6.419,2.874,6.419,6.419c0,0.385-0.035,0.753-0.104,1.118
			c0.369-0.065,0.736-0.102,1.113-0.102c3.555,0,6.428,2.872,6.428,6.419c0,0.818-0.166,1.6-0.441,2.325
			C55.657,30.346,57,32.45,57,34.868c0,3.318-2.515,6.048-5.746,6.381c-0.078,3.482-2.92,6.287-6.416,6.287
			c-1.352,0-2.609-0.422-3.639-1.14c-1.164,1.119-2.729,1.814-4.471,1.814c-1.872,0-3.555-0.81-4.729-2.088
			c-1.174,1.278-2.856,2.088-4.727,2.088c-1.743,0-3.306-0.695-4.47-1.814c-1.032,0.718-2.289,1.14-3.639,1.14
			c-3.497,0-6.34-2.805-6.416-6.287C9.515,40.916,7,38.187,7,34.868c0-2.418,1.343-4.522,3.311-5.616
			c-0.278-0.725-0.442-1.507-0.442-2.325c0-3.547,2.871-6.419,6.426-6.419c0.379,0,0.746,0.037,1.115,0.102
			c-0.068-0.365-0.105-0.733-0.105-1.118c0-3.545,2.871-6.419,6.419-6.419c0.732,0,1.428,0.13,2.089,0.357
			c0.044-0.171,0.099-0.339,0.157-0.504V12.92c0.293-0.803,0.732-1.528,1.298-2.145c0.02-0.026,0.045-0.052,0.069-0.077
			c0.097-0.098,0.192-0.194,0.292-0.284c0.037-0.034,0.074-0.074,0.113-0.107c0.092-0.085,0.186-0.169,0.283-0.244
			c0.053-0.042,0.11-0.077,0.164-0.121c0.094-0.07,0.186-0.139,0.284-0.201c0.078-0.046,0.146-0.093,0.224-0.136
			c0.141-0.082,0.287-0.164,0.438-0.241c0.103-0.051,0.204-0.104,0.302-0.15c0.081-0.03,0.153-0.057,0.237-0.089
			c0.104-0.039,0.205-0.085,0.316-0.116c0.081-0.026,0.156-0.049,0.231-0.07c0.119-0.035,0.24-0.068,0.349-0.094
			c0.082-0.015,0.151-0.031,0.234-0.049c0.126-0.024,0.255-0.042,0.39-0.057c0.066-0.01,0.134-0.018,0.196-0.025
			C31.588,8.697,31.793,8.683,32,8.683 M32,6.683c-0.312,0-0.602,0.023-0.792,0.041c-0.1,0.01-0.188,0.021-0.273,0.032
			c-0.178,0.021-0.347,0.046-0.512,0.078l-0.124,0.026l-0.08,0.017L30.16,6.888l-0.058,0.014c-0.14,0.033-0.295,0.074-0.448,0.12
			c-0.075,0.021-0.16,0.047-0.252,0.076c-0.129,0.039-0.252,0.085-0.373,0.133l-0.055,0.022l-0.109,0.04l-0.119,0.045l-0.081,0.03
			l-0.079,0.037c-0.076,0.036-0.152,0.074-0.231,0.113l-0.101,0.051c-0.215,0.11-0.394,0.21-0.565,0.309
			C27.65,7.899,27.58,7.941,27.51,7.986l-0.05,0.031l-0.033,0.02l-0.032,0.02c-0.125,0.08-0.245,0.167-0.365,0.255l-0.031,0.023
			l-0.062,0.049c-0.042,0.028-0.092,0.065-0.143,0.104c-0.134,0.104-0.265,0.217-0.391,0.334c-0.045,0.04-0.089,0.083-0.132,0.125
			c-0.109,0.098-0.232,0.22-0.355,0.345c-0.051,0.05-0.104,0.108-0.154,0.167c-0.458,0.506-0.85,1.061-1.172,1.661
			c-0.288-0.031-0.577-0.046-0.866-0.046c-4.328,0-7.904,3.281-8.369,7.487c-4.205,0.468-7.486,4.042-7.486,8.367
			c0,0.499,0.046,0.998,0.138,1.494C6.122,30.005,5,32.357,5,34.868c0,3.773,2.464,6.992,5.944,8.05
			c0.839,3.77,4.235,6.618,8.22,6.618c1.2,0,2.369-0.252,3.445-0.738c1.378,0.919,2.991,1.413,4.664,1.413
			c1.693,0,3.34-0.52,4.727-1.463c1.387,0.943,3.035,1.463,4.729,1.463c1.674,0,3.286-0.494,4.664-1.413
			c1.075,0.486,2.244,0.738,3.445,0.738c3.984,0,7.379-2.849,8.219-6.618C56.536,41.86,59,38.642,59,34.868
			c0-2.51-1.121-4.861-3.006-6.447c0.093-0.497,0.139-0.996,0.139-1.494c0-4.325-3.282-7.899-7.488-8.367
			c-0.465-4.206-4.041-7.487-8.368-7.487c-0.289,0-0.578,0.015-0.866,0.046c-0.327-0.609-0.728-1.175-1.196-1.69
			c-0.03-0.035-0.083-0.092-0.136-0.145c-0.137-0.138-0.248-0.249-0.365-0.355c-0.037-0.035-0.076-0.073-0.117-0.109
			c-0.128-0.118-0.259-0.233-0.396-0.338c-0.044-0.034-0.088-0.067-0.133-0.099l-0.031-0.026l-0.033-0.023
			c-0.13-0.096-0.261-0.191-0.396-0.278l-0.023-0.015L36.56,8.029l-0.047-0.03c-0.072-0.045-0.146-0.089-0.224-0.133
			c-0.17-0.099-0.346-0.199-0.527-0.29l-0.127-0.063c-0.08-0.04-0.158-0.08-0.235-0.115l-0.071-0.033l-0.074-0.027l-0.088-0.033
			L35.01,7.247l-0.036-0.015c-0.124-0.05-0.249-0.097-0.382-0.136c-0.086-0.027-0.164-0.051-0.24-0.073
			C34.195,6.976,34.04,6.935,33.9,6.901l-0.059-0.014l-0.059-0.011L33.69,6.857l-0.08-0.017c-0.196-0.039-0.365-0.063-0.542-0.084
			c-0.084-0.012-0.174-0.023-0.253-0.031C32.585,6.704,32.309,6.683,32,6.683"/>
		<path style="clip-path:url(#SVGID_4_);fill:#8BA43C;" d="M43.207,34.737c-0.979-1.182-2.811-1.362-4.054-0.431
			c-0.391,0.294-2.317,1.864-4.106,5.412v-8.454c0-1.504-1.293-2.722-2.876-2.722c-0.058,0-0.112,0.008-0.171,0.012
			c-0.059-0.004-0.111-0.012-0.171-0.012c-1.583,0-2.876,1.218-2.876,2.722v8.454c-1.789-3.548-3.716-5.118-4.106-5.412
			c-1.244-0.932-3.077-0.751-4.054,0.431c-0.988,1.182-0.799,2.878,0.44,3.814c0.052,0.039,5.12,4.28,5.274,16.766h5.046H32h0.447
			h5.046c0.153-12.485,5.222-16.727,5.273-16.766C44.006,37.615,44.195,35.919,43.207,34.737"/>
		<path style="clip-path:url(#SVGID_4_);fill:#627935;" d="M32.171,28.543c1.583,0,2.876,1.219,2.876,2.723v8.453
			c1.789-3.548,3.716-5.118,4.106-5.412c0.532-0.398,1.173-0.594,1.808-0.594c0.848,0,1.688,0.349,2.246,1.024
			c0.988,1.182,0.799,2.878-0.44,3.814c-0.052,0.04-5.12,4.28-5.273,16.766h-5.046H32h-0.447h-5.046
			c-0.153-12.485-5.222-16.726-5.274-16.766c-1.239-0.937-1.428-2.633-0.44-3.814c0.559-0.676,1.399-1.024,2.246-1.024
			c0.635,0,1.276,0.195,1.808,0.594c0.39,0.294,2.317,1.864,4.106,5.412v-8.453c0-1.504,1.293-2.723,2.876-2.723
			c0.06,0,0.113,0.009,0.171,0.013C32.059,28.552,32.113,28.543,32.171,28.543 M32.171,26.543c-0.058,0-0.114,0.002-0.171,0.006
			c-0.055-0.004-0.111-0.006-0.171-0.006c-2.688,0-4.876,2.119-4.876,4.723v2.224c-0.408-0.393-0.724-0.647-0.906-0.783
			c-0.855-0.641-1.923-0.994-3.008-0.994c-1.486,0-2.867,0.638-3.787,1.75c-0.826,0.986-1.205,2.232-1.061,3.499
			c0.141,1.241,0.77,2.353,1.773,3.136c0.305,0.285,4.409,4.335,4.543,15.244c0.014,1.095,0.905,1.976,2,1.976h5.046H32h0.447h5.046
			c1.095,0,1.986-0.881,2-1.976c0.134-10.894,4.227-14.947,4.542-15.242c0.996-0.771,1.632-1.889,1.774-3.138
			c0.144-1.267-0.235-2.513-1.068-3.508c-0.913-1.104-2.294-1.741-3.78-1.741c-1.085,0-2.152,0.354-3.008,0.994
			c-0.182,0.136-0.498,0.391-0.906,0.783v-2.224C37.047,28.662,34.859,26.543,32.171,26.543"/>
		<path style="clip-path:url(#SVGID_4_);fill:#6E9140;" d="M15.615,34.416c0,2.985,2.412,5.406,5.398,5.406
			c2.987,0,5.399-2.421,5.399-5.406c0-2.985-2.412-5.406-5.399-5.406C18.027,29.01,15.615,31.431,15.615,34.416"/>
		<path style="clip-path:url(#SVGID_4_);fill:#6E9140;" d="M18.92,39.776c1.63,0.665,3.82,0.329,5.629-1.028
			c1.56-1.174,2.463-2.829,2.564-4.39"/>
		<path style="clip-path:url(#SVGID_4_);fill:#4D642E;" d="M20.674,40.603c-0.683,0-1.343-0.118-1.942-0.363
			c-0.256-0.104-0.379-0.396-0.275-0.651c0.105-0.257,0.4-0.379,0.652-0.274c1.518,0.618,3.535,0.239,5.14-0.966
			c1.385-1.041,2.27-2.545,2.365-4.021c0.019-0.276,0.285-0.477,0.532-0.467c0.275,0.018,0.484,0.256,0.466,0.531
			c-0.115,1.764-1.147,3.542-2.762,4.757C23.583,40.098,22.081,40.603,20.674,40.603"/>
		<path style="clip-path:url(#SVGID_4_);fill:#6E9140;" d="M37.588,34.416c0,2.985,2.412,5.406,5.398,5.406s5.398-2.421,5.398-5.406
			c0-2.985-2.412-5.406-5.398-5.406S37.588,31.431,37.588,34.416"/>
		<path style="clip-path:url(#SVGID_4_);fill:#6E9140;" d="M45.766,39.776c-1.632,0.665-3.822,0.329-5.631-1.028
			c-1.559-1.174-2.461-2.829-2.564-4.39"/>
		<path style="clip-path:url(#SVGID_4_);fill:#4D642E;" d="M44.011,40.603c-1.407,0-2.91-0.505-4.176-1.455
			c-1.614-1.215-2.646-2.992-2.764-4.756c-0.019-0.276,0.19-0.514,0.466-0.532c0.272-0.008,0.514,0.189,0.532,0.466
			c0.098,1.477,0.982,2.981,2.366,4.023c1.604,1.203,3.622,1.584,5.142,0.965c0.252-0.104,0.547,0.018,0.651,0.274
			c0.104,0.256-0.019,0.548-0.274,0.651C45.354,40.484,44.693,40.603,44.011,40.603"/>
		<path style="clip-path:url(#SVGID_4_);fill:#6E9140;" d="M20.869,28.424c0,3.811,4.982,6.906,11.129,6.906
			c6.148,0,11.133-3.096,11.133-6.906c0-3.809-4.984-6.899-11.133-6.899C25.851,21.525,20.869,24.615,20.869,28.424"/>
		<path style="clip-path:url(#SVGID_4_);fill:#627935;" d="M28.686,44.291c-0.276,0-0.5-0.224-0.5-0.5v-8.789
			c0-0.276,0.224-0.5,0.5-0.5s0.5,0.224,0.5,0.5v8.789C29.186,44.067,28.961,44.291,28.686,44.291"/>
		<path style="clip-path:url(#SVGID_4_);fill:#627935;" d="M35.033,42.275c-0.276,0-0.5-0.224-0.5-0.5v-6.773
			c0-0.276,0.224-0.5,0.5-0.5s0.5,0.224,0.5,0.5v6.773C35.533,42.052,35.31,42.275,35.033,42.275"/>
		<path style="clip-path:url(#SVGID_4_);fill:#6E9140;" d="M22.35,31.455c1.771,2.345,5.622,3.973,10.07,3.973
			c3.853,0,7.232-1.211,9.232-3.049"/>
		<path style="clip-path:url(#SVGID_4_);fill:#4D642E;" d="M32.42,36.428c-4.667,0-8.832-1.675-10.868-4.37
			c-0.333-0.441-0.246-1.067,0.195-1.401c0.439-0.333,1.068-0.246,1.401,0.195c1.64,2.173,5.28,3.576,9.272,3.576
			c3.46,0,6.658-1.041,8.556-2.785c0.406-0.372,1.039-0.347,1.413,0.059c0.374,0.407,0.347,1.041-0.06,1.413
			C40.072,35.189,36.367,36.428,32.42,36.428"/>
	</g>
</g>
</svg>
