<?xml version="1.0" encoding="iso-8859-1"?>
<!-- Generator: Adobe Illustrator 16.0.0, SVG Export Plug-In . SVG Version: 6.00 Build 0)  -->
<!DOCTYPE svg PUBLIC "-//W3C//DTD SVG 1.1//EN" "http://www.w3.org/Graphics/SVG/1.1/DTD/svg11.dtd">
<svg version="1.1" id="Layer_1" xmlns="http://www.w3.org/2000/svg" xmlns:xlink="http://www.w3.org/1999/xlink" x="0px" y="0px"
	 width="64px" height="64px" viewBox="0 0 64 64" style="enable-background:new 0 0 64 64;" xml:space="preserve">
<g>
	<defs>
		<rect id="SVGID_1_" width="64" height="64"/>
	</defs>
	<clipPath id="SVGID_2_">
		<use xlink:href="#SVGID_1_"  style="overflow:visible;"/>
	</clipPath>
	<g style="clip-path:url(#SVGID_2_);">
		<defs>
			<rect id="SVGID_3_" width="64" height="64"/>
		</defs>
		<clipPath id="SVGID_4_">
			<use xlink:href="#SVGID_3_"  style="overflow:visible;"/>
		</clipPath>
		<path style="clip-path:url(#SVGID_4_);fill:#6E9140;" d="M18.584,18.088c8.002,0.481,9.906,10.393,10.292,16.167
			c0.205,3.055,0.424,6.279,2.198,9.243c2.825,4.719,8.614,7.675,14.5,6.377c-2.244,5.848-9.425,9.074-15.862,7.114
			c-5.973-1.816-8.607-6.946-8.809-12.256c-0.168-4.416,0.325-8.892,0.984-13.264C22.542,27.133,20.438,22.02,18.584,18.088"/>
		<path style="clip-path:url(#SVGID_4_);fill:#4D642E;" d="M18.584,18.088c8.002,0.481,9.906,10.393,10.292,16.167
			c0.205,3.055,0.424,6.279,2.198,9.243c2.373,3.963,6.838,6.684,11.693,6.684c0.926,0,1.865-0.099,2.807-0.307
			c-1.798,4.687-6.767,7.688-11.981,7.688c-1.294,0-2.602-0.184-3.881-0.574c-5.973-1.816-8.607-6.946-8.809-12.256
			c-0.168-4.416,0.325-8.892,0.984-13.264C22.542,27.133,20.438,22.02,18.584,18.088 M45.574,49.876h0.005 M18.584,16.088
			c-0.661,0-1.283,0.327-1.656,0.879c-0.397,0.585-0.454,1.335-0.153,1.974c1.756,3.726,3.701,8.482,3.134,12.23
			c-0.566,3.756-1.192,8.701-1.005,13.639c0.264,6.957,4.086,12.226,10.226,14.094c1.439,0.438,2.941,0.66,4.463,0.66
			c6.186,0,11.721-3.56,13.81-8.873c0.112-0.249,0.174-0.525,0.174-0.815c0-1.099-0.882-1.989-1.978-2h-0.024
			c-0.035,0-0.07,0.001-0.105,0.004c-0.125,0.005-0.246,0.022-0.363,0.051c-0.77,0.167-1.556,0.252-2.338,0.252
			c-3.983,0-7.9-2.241-9.978-5.711c-1.53-2.556-1.727-5.502-1.919-8.352c-0.737-11.036-5.172-17.608-12.167-18.029
			C18.664,16.089,18.624,16.088,18.584,16.088"/>
		<path style="clip-path:url(#SVGID_4_);fill:#E0E278;" d="M34.45,54.896c6.3,0,11.142-6.136,10.832-13.323
			C44.827,30.987,40.777,6.792,34.45,6.792c-5.633,0-10.375,24.195-10.827,34.781C23.313,48.761,28.156,54.896,34.45,54.896"/>
		<path style="clip-path:url(#SVGID_4_);fill:#C1B474;" d="M34.45,6.792c1.191,0,2.302,0.858,3.321,2.32
			c2.654,7.892,4.289,23.658,4.53,31.79c0.226,7.549-3.285,13.995-7.849,13.995c-4.564,0-8.073-6.445-7.85-13.995
			c0.24-8.082,2.119-23.709,4.697-31.648C32.301,7.709,33.358,6.792,34.45,6.792 M34.45,5.792c-1.411,0-2.717,0.954-3.989,2.917
			l-0.073,0.11l-0.04,0.125c-2.692,8.293-4.514,24.142-4.745,31.927c-0.152,5.167,1.398,10.07,4.046,12.799
			c1.414,1.457,3.075,2.227,4.804,2.227s3.391-0.771,4.805-2.228c2.648-2.729,4.197-7.633,4.043-12.798
			c-0.242-8.162-1.865-24.002-4.582-32.078l-0.045-0.136L38.592,8.54C37.32,6.716,35.927,5.792,34.45,5.792"/>
		<rect x="33.907" y="6" style="clip-path:url(#SVGID_4_);fill:#C1B474;" width="1" height="41.195"/>
		<path style="clip-path:url(#SVGID_4_);fill:#C1B474;" d="M34.45,6.792c0.476,0,0.936,0.152,1.385,0.408
			c1.648,6.93,2.673,24.844,2.813,33.701c0.121,7.549-1.756,13.995-4.195,13.995c-2.442,0-4.315-6.445-4.197-13.995
			c0.14-8.85,1.331-26.734,2.913-33.68C33.591,6.952,34.018,6.792,34.45,6.792 M34.45,5.792c-0.599,0-1.21,0.197-1.819,0.586
			l-0.346,0.221l-0.092,0.4c-1.574,6.913-2.791,24.687-2.937,33.886c-0.1,6.382,1.181,12.039,3.188,14.077
			c0.761,0.772,1.513,0.935,2.009,0.935s1.248-0.162,2.008-0.935c2.009-2.042,3.29-7.699,3.188-14.077
			c-0.131-8.211-1.098-26.589-2.841-33.917l-0.101-0.423l-0.378-0.214C35.701,5.973,35.068,5.792,34.45,5.792"/>
		<path style="clip-path:url(#SVGID_4_);fill:#C1B474;" d="M39.936,11.074c-3.511-0.265-7.24-0.271-10.688-0.026l-0.07-0.997
			c3.494-0.25,7.273-0.242,10.834,0.026L39.936,11.074z"/>
		<path style="clip-path:url(#SVGID_4_);fill:#C1B474;" d="M27.701,15.353l-0.1-0.995c4.376-0.437,9.179-0.439,13.591-0.003
			l-0.098,0.995C36.747,14.92,32.011,14.922,27.701,15.353"/>
		<path style="clip-path:url(#SVGID_4_);fill:#C1B474;" d="M42.707,19.723c-5.141-0.691-10.977-0.713-16.152-0.058l-0.125-0.992
			c5.259-0.666,11.186-0.645,16.41,0.059L42.707,19.723z"/>
		<path style="clip-path:url(#SVGID_4_);fill:#C1B474;" d="M43.482,24.039c-2.863-0.461-5.917-0.695-9.075-0.695
			c-3.089,0-6.074,0.223-8.876,0.664l-0.154-0.989c2.851-0.448,5.889-0.675,9.03-0.675c3.212,0,6.318,0.238,9.233,0.708
			L43.482,24.039z"/>
		<path style="clip-path:url(#SVGID_4_);fill:#C1B474;" d="M24.306,28.448l-0.197-0.98c3.183-0.641,6.648-0.966,10.298-0.966
			c3.499,0,6.837,0.3,9.922,0.892l-0.188,0.983c-3.022-0.581-6.298-0.875-9.733-0.875C30.824,27.502,27.425,27.821,24.306,28.448"/>
		<path style="clip-path:url(#SVGID_4_);fill:#C1B474;" d="M23.757,32.84l-0.236-0.973c3.293-0.8,6.956-1.207,10.886-1.207
			c3.855,0,7.453,0.391,10.697,1.161l-0.23,0.973c-3.168-0.752-6.689-1.134-10.467-1.134C30.556,31.66,26.973,32.058,23.757,32.84"
			/>
		<path style="clip-path:url(#SVGID_4_);fill:#C1B474;" d="M23.109,37.327l-0.293-0.957c3.36-1.029,7.261-1.551,11.591-1.551
			c4.119,0,7.856,0.474,11.107,1.407l-0.275,0.961c-3.162-0.907-6.807-1.368-10.832-1.368
			C30.175,35.819,26.375,36.327,23.109,37.327"/>
		<path style="clip-path:url(#SVGID_4_);fill:#C1B474;" d="M22.72,41.892l-0.367-0.931c3.249-1.279,7.529-1.983,12.055-1.983
			c4.27,0,8.363,0.634,11.529,1.786l-0.342,0.938c-3.059-1.112-7.032-1.725-11.188-1.725C30.005,39.978,25.854,40.657,22.72,41.892"
			/>
		<path style="clip-path:url(#SVGID_4_);fill:#C1B474;" d="M23.418,46.104l-0.424-0.905c2.795-1.312,6.955-2.063,11.413-2.063
			c4.39,0,8.509,0.733,11.3,2.011l-0.416,0.909c-2.665-1.221-6.632-1.92-10.884-1.92C30.091,44.136,26.086,44.854,23.418,46.104"/>
		<path style="clip-path:url(#SVGID_4_);fill:#A7792B;" d="M34.45,6.792c6.327,0,10.377,24.196,10.832,34.781
			c0.31,7.188-4.532,13.324-10.832,13.324c-6.294,0-11.137-6.137-10.827-13.324C24.075,30.988,28.817,6.792,34.45,6.792
			 M34.45,5.252c-1.236,0-4.999,0-8.846,14.568c-1.821,6.903-3.269,15.821-3.52,21.688c-0.184,4.281,1.287,8.383,4.037,11.254
			c2.269,2.37,5.227,3.675,8.329,3.675c3.104,0,6.064-1.306,8.335-3.677c2.749-2.869,4.22-6.971,4.035-11.253
			C46.564,35.544,43.383,5.252,34.45,5.252"/>
		<path style="clip-path:url(#SVGID_4_);fill:#6E9140;" d="M50.167,18.088c-8.002,0.481-9.908,10.393-10.294,16.167
			c-0.204,3.055-0.422,6.279-2.195,9.243c-2.827,4.719-8.615,7.675-14.501,6.377c2.243,5.848,9.425,9.074,15.862,7.114
			c5.972-1.816,8.607-6.946,8.808-12.256c0.168-4.416-0.325-8.892-0.983-13.264C46.208,27.133,48.313,22.02,50.167,18.088"/>
		<path style="clip-path:url(#SVGID_4_);fill:#4D642E;" d="M35.159,58.564L35.159,58.564c-5.814,0-11.005-3.348-12.917-8.33
			c-0.132-0.344-0.064-0.732,0.176-1.011c0.24-0.278,0.612-0.403,0.973-0.324c0.851,0.188,1.723,0.283,2.591,0.283
			c4.328,0,8.582-2.433,10.837-6.197c1.652-2.763,1.856-5.83,2.055-8.797c0.7-10.479,4.794-16.711,11.231-17.098
			c0.354-0.022,0.691,0.145,0.889,0.437c0.198,0.293,0.227,0.668,0.076,0.988c-1.817,3.853-3.826,8.79-3.219,12.805
			c0.56,3.717,1.178,8.605,0.993,13.452c-0.245,6.511-3.803,11.437-9.516,13.175C37.984,58.356,36.581,58.564,35.159,58.564
			 M24.92,51.142c2.028,3.262,5.995,5.423,10.238,5.423h0.001c1.225,0,2.432-0.179,3.589-0.53c7.005-2.132,7.998-8.639,8.1-11.337
			c0.177-4.681-0.427-9.448-0.974-13.078c-0.595-3.938,0.854-8.291,2.598-12.232c-5.812,1.705-7.265,9.904-7.601,14.934
			c-0.204,3.054-0.436,6.516-2.335,9.69C35.701,48.743,30.367,51.562,24.92,51.142"/>
		<path style="clip-path:url(#SVGID_4_);fill:#6E9140;" d="M18.584,18.088c6.901,0.481,7.175,16.643,7.508,22.415
			c0.175,3.058,0.364,6.282,1.894,9.245c2.436,4.718,7.429,7.674,12.506,6.376c-3.443,3.636-12.309,0.866-12.309,0.866
			c-5.153-1.816-7.425-6.946-7.6-12.256c-0.142-4.416,0.281-8.892,0.85-13.264C21.997,27.133,20.181,22.02,18.584,18.088"/>
		<path style="clip-path:url(#SVGID_4_);fill:#4D642E;" d="M18.584,18.088c6.901,0.481,7.175,16.643,7.508,22.415
			c0.175,3.058,0.364,6.282,1.894,9.245c2.046,3.963,5.897,6.683,10.085,6.683c0.798,0,1.608-0.098,2.421-0.307
			c-1.364,1.44-3.581,1.875-5.76,1.875c-3.318,0-6.549-1.009-6.549-1.009c-5.153-1.816-7.425-6.946-7.6-12.256
			c-0.142-4.416,0.281-8.892,0.85-13.264C21.997,27.133,20.181,22.02,18.584,18.088 M40.492,56.124h0.005 M18.584,16.088
			c-0.639,0-1.241,0.305-1.619,0.826c-0.405,0.559-0.494,1.287-0.235,1.926c1.527,3.758,3.215,8.56,2.719,12.372
			c-0.486,3.737-1.023,8.66-0.865,13.585c0.229,6.924,3.567,12.187,8.934,14.079c0.022,0.008,0.045,0.016,0.068,0.022
			c0.144,0.045,3.564,1.1,7.146,1.1c3.182,0,5.59-0.823,7.164-2.448c0.369-0.362,0.598-0.867,0.598-1.427
			c0-1.085-0.862-1.969-1.94-1.999h-0.062c-0.058,0-0.116,0.002-0.175,0.007c-0.123,0.011-0.243,0.033-0.359,0.064
			c-0.622,0.156-1.256,0.234-1.887,0.234c-3.29,0-6.551-2.198-8.307-5.6c-1.341-2.597-1.511-5.567-1.675-8.441
			c-0.025-0.417-0.048-0.888-0.074-1.403c-0.393-7.801-1.124-22.323-9.292-22.893C18.677,16.089,18.63,16.088,18.584,16.088"/>
	</g>
</g>
</svg>
