<?xml version="1.0" encoding="iso-8859-1"?>
<!-- Generator: Adobe Illustrator 16.0.0, SVG Export Plug-In . SVG Version: 6.00 Build 0)  -->
<!DOCTYPE svg PUBLIC "-//W3C//DTD SVG 1.1//EN" "http://www.w3.org/Graphics/SVG/1.1/DTD/svg11.dtd">
<svg version="1.1" id="Layer_1" xmlns="http://www.w3.org/2000/svg" xmlns:xlink="http://www.w3.org/1999/xlink" x="0px" y="0px"
	 width="64px" height="64px" viewBox="0 0 64 64" style="enable-background:new 0 0 64 64;" xml:space="preserve">
<g>
	<defs>
		<rect id="SVGID_1_" width="64" height="64"/>
	</defs>
	<clipPath id="SVGID_2_">
		<use xlink:href="#SVGID_1_"  style="overflow:visible;"/>
	</clipPath>
	<path style="clip-path:url(#SVGID_2_);fill:#9C935E;" d="M31.828,58c-0.552,0-1-0.448-1-1v-5.55c0-0.553,0.448-1,1-1
		c0.553,0,1,0.447,1,1V57C32.828,57.552,32.381,58,31.828,58"/>
	<path style="clip-path:url(#SVGID_2_);fill:#9C935E;" d="M28.352,57.416c-0.18,0-0.362-0.048-0.527-0.15
		c-0.469-0.291-0.613-0.908-0.322-1.377l3.087-4.969c0.29-0.468,0.906-0.613,1.377-0.321c0.468,0.291,0.613,0.908,0.322,1.378
		l-3.086,4.968C29.013,57.249,28.686,57.416,28.352,57.416"/>
	<path style="clip-path:url(#SVGID_2_);fill:#9C935E;" d="M25.195,56.29c-0.313,0-0.622-0.146-0.816-0.421
		c-0.32-0.45-0.214-1.075,0.236-1.394l5.184-3.678c0.451-0.321,1.075-0.213,1.394,0.237c0.32,0.45,0.213,1.075-0.237,1.395
		l-5.183,3.677C25.597,56.231,25.396,56.29,25.195,56.29"/>
	<path style="clip-path:url(#SVGID_2_);fill:#9C935E;" d="M35.275,57.416c-0.334,0-0.661-0.167-0.851-0.472l-3.086-4.968
		c-0.292-0.47-0.147-1.087,0.322-1.378c0.47-0.292,1.085-0.146,1.377,0.321l3.087,4.969c0.291,0.469,0.147,1.086-0.322,1.377
		C35.638,57.368,35.455,57.416,35.275,57.416"/>
	<path style="clip-path:url(#SVGID_2_);fill:#9C935E;" d="M38.432,56.29c-0.199,0-0.401-0.059-0.577-0.184L32.67,52.43
		c-0.449-0.319-0.557-0.944-0.236-1.395c0.318-0.45,0.942-0.559,1.394-0.237l5.185,3.677c0.45,0.319,0.557,0.944,0.237,1.395
		C39.054,56.144,38.745,56.29,38.432,56.29"/>
</g>
<g>
	<defs>
		<path id="SVGID_3_" d="M30.503,11.795c-0.911-1.615-2.375-3.107-4.746-3.99c0,0,5.882,6.098,0.311,10.899
			c-2.058,1.461-4.11,2.915-6.081,4.473c-3.007,2.376-5.983,5.473-7.144,9.235c-3.58,11.624,8.963,19.419,19.156,19.486
			c10.195-0.067,22.737-7.862,19.157-19.486c-1.161-3.762-4.135-6.859-7.145-9.235c-1.953-1.549-3.997-2.992-6.033-4.437
			c-1.139-1.032-3.715-4.251,1.89-8.943c0,0-2.166,0.17-4.623,2.175c0.695-3.309,1.407-5.805,1.407-5.805
			c-1.594,1.404-2.925,3.337-4.018,5.448C32.296,9.552,31.425,7.276,29.649,5C29.649,5,30.24,8.584,30.503,11.795"/>
	</defs>
	<clipPath id="SVGID_4_">
		<use xlink:href="#SVGID_3_"  style="overflow:visible;"/>
	</clipPath>
	
		<linearGradient id="SVGID_5_" gradientUnits="userSpaceOnUse" x1="4.882812e-04" y1="64" x2="1.0005" y2="64" gradientTransform="matrix(-2.000000e-06 -46.897 -46.897 2.000000e-06 3033.4062 51.9061)">
		<stop  offset="0" style="stop-color:#FFFFFF"/>
		<stop  offset="0.0722" style="stop-color:#F6F4EB"/>
		<stop  offset="0.2065" style="stop-color:#E9E4CD"/>
		<stop  offset="0.3479" style="stop-color:#DED7B5"/>
		<stop  offset="0.4976" style="stop-color:#D7CEA4"/>
		<stop  offset="0.6613" style="stop-color:#D2C99A"/>
		<stop  offset="0.865" style="stop-color:#D1C797"/>
		<stop  offset="1" style="stop-color:#D1C797"/>
	</linearGradient>
	<rect x="9.263" y="5" style="clip-path:url(#SVGID_4_);fill:url(#SVGID_5_);" width="45.473" height="46.898"/>
</g>
<g>
	<defs>
		<rect id="SVGID_6_" width="64" height="64"/>
	</defs>
	<clipPath id="SVGID_7_">
		<use xlink:href="#SVGID_6_"  style="overflow:visible;"/>
	</clipPath>
	<path style="clip-path:url(#SVGID_7_);fill:#C1B474;" d="M25.296,51.962c-7.215-4.801-10.002-12.294-7.275-19.558
		c0.653-1.737,1.707-3.242,2.726-4.698c0.482-0.69,0.982-1.404,1.426-2.127c1.602-2.595,3.461-5.816,5.107-10.036l0.932,0.363
		c-1.675,4.295-3.562,7.565-5.187,10.198c-0.46,0.748-0.968,1.473-1.459,2.175c-1.028,1.47-2,2.858-2.609,4.477
		c-2.555,6.805,0.086,13.845,6.893,18.373L25.296,51.962z"/>
	<path style="clip-path:url(#SVGID_7_);fill:#C1B474;" d="M29.559,52.602c-2.721-1.733-4.455-4.313-5.154-7.672
		C21.6,31.462,36.037,9.836,36.653,8.922l0.829,0.558c-0.148,0.221-14.818,22.192-12.098,35.246
		c0.642,3.083,2.227,5.449,4.712,7.031L29.559,52.602z"/>
	<path style="clip-path:url(#SVGID_7_);fill:#C1B474;" d="M39.715,51.154l-0.953-0.303c1.724-5.418-4.594-16.038-4.658-16.146
		c-2.973-6.687,2.275-19.89,2.501-20.448l0.927,0.373C37.479,14.764,32.216,28,34.989,34.247
		C35.231,34.644,41.574,45.307,39.715,51.154"/>
	<path style="clip-path:url(#SVGID_7_);fill:#C1B474;" d="M37.148,38.781l-0.707-0.708c6.505-6.502,3.787-17.775,3.759-17.888
		l0.969-0.243C41.291,20.426,44.059,31.874,37.148,38.781"/>
	<path style="clip-path:url(#SVGID_7_);fill:#C1B474;" d="M32.045,18.748l-0.9-0.437c0.92-1.9-1.242-6.887-2.152-8.648l0.887-0.46
		C30.239,9.896,33.35,16.056,32.045,18.748"/>
	<path style="clip-path:url(#SVGID_7_);fill:#C1B474;" d="M32.139,15.202l-0.999-0.048c0.094-1.952,1.692-6.252,1.761-6.434
		l0.936,0.349C33.82,9.113,32.225,13.405,32.139,15.202"/>
	<path style="clip-path:url(#SVGID_7_);fill:#9C935E;" d="M29.648,5c1.777,2.276,2.649,4.552,2.987,6.615
		c1.094-2.111,2.424-4.044,4.017-5.448c0,0-0.712,2.496-1.406,5.805c2.457-2.006,4.623-2.175,4.623-2.175
		c-5.604,4.692-3.028,7.912-1.889,8.943c2.035,1.446,4.079,2.888,6.032,4.437c3.01,2.376,5.983,5.473,7.145,9.235
		C54.736,44.036,42.193,51.831,32,51.897c-10.194-0.066-22.737-7.861-19.157-19.485c1.161-3.762,4.137-6.859,7.144-9.235
		c1.972-1.558,4.023-3.012,6.08-4.473c5.573-4.801-0.31-10.899-0.31-10.899c2.37,0.883,3.835,2.375,4.745,3.99
		C30.24,8.584,29.648,5,29.648,5 M39.868,9.797h0.005 M29.648,3.15c-0.25,0-0.502,0.05-0.743,0.156
		c-0.774,0.339-1.219,1.161-1.082,1.995c0.002,0.015,0.101,0.615,0.234,1.532c-0.519-0.29-1.07-0.544-1.654-0.762
		c-0.211-0.079-0.429-0.117-0.645-0.117c-0.61,0-1.198,0.303-1.548,0.837c-0.474,0.722-0.384,1.676,0.216,2.298
		c0.018,0.02,2.313,2.465,2.185,5.034c-0.058,1.153-0.61,2.176-1.689,3.126l-0.04,0.028c-2.001,1.421-4.07,2.89-6.042,4.449
		c-4.068,3.214-6.68,6.626-7.765,10.141c-1.428,4.638-0.686,9.13,2.146,12.993c3.864,5.269,11.406,8.841,18.766,8.889
		c7.386-0.048,14.927-3.62,18.792-8.891c2.831-3.86,3.574-8.353,2.146-12.99c-1.087-3.519-3.699-6.931-7.767-10.143
		c-1.896-1.504-3.892-2.92-5.82-4.289l-0.19-0.134c-0.376-0.361-0.926-1.042-0.909-1.932c0.023-1.186,0.984-2.612,2.781-4.124
		c0.428-0.339,0.701-0.862,0.701-1.449c0-1.017-0.818-1.843-1.834-1.85h-0.018c-0.02,0-0.039,0-0.058,0.001
		c-0.046,0.001-0.091,0.004-0.135,0.009c-0.204,0.019-0.821,0.098-1.69,0.387c0.263-1.03,0.44-1.657,0.444-1.67
		c0.226-0.789-0.097-1.633-0.792-2.071c-0.304-0.192-0.646-0.286-0.986-0.286c-0.44,0-0.878,0.156-1.225,0.462
		c-0.78,0.687-1.528,1.506-2.239,2.45c-0.546-1.165-1.241-2.29-2.082-3.368C30.748,3.401,30.205,3.15,29.648,3.15"/>
</g>
</svg>
