<?xml version="1.0" encoding="iso-8859-1"?>
<!-- Generator: Adobe Illustrator 16.0.0, SVG Export Plug-In . SVG Version: 6.00 Build 0)  -->
<!DOCTYPE svg PUBLIC "-//W3C//DTD SVG 1.1//EN" "http://www.w3.org/Graphics/SVG/1.1/DTD/svg11.dtd">
<svg version="1.1" id="Layer_1" xmlns="http://www.w3.org/2000/svg" xmlns:xlink="http://www.w3.org/1999/xlink" x="0px" y="0px"
	 width="64px" height="64px" viewBox="0 0 64 64" style="enable-background:new 0 0 64 64;" xml:space="preserve">
<g>
	<defs>
		<rect id="SVGID_1_" width="64" height="64"/>
	</defs>
	<clipPath id="SVGID_2_">
		<use xlink:href="#SVGID_1_"  style="overflow:visible;"/>
	</clipPath>
	<g style="clip-path:url(#SVGID_2_);">
		<defs>
			<rect id="SVGID_3_" width="64" height="64"/>
		</defs>
		<clipPath id="SVGID_4_">
			<use xlink:href="#SVGID_3_"  style="overflow:visible;"/>
		</clipPath>
		<path style="clip-path:url(#SVGID_4_);fill:#6E9140;" d="M50.895,22.402l0.004-0.003c0,0-0.018-0.022-0.043-0.056
			c-0.041-0.058-0.079-0.117-0.121-0.174c-0.421-0.655-1.377-2.686,0.125-5.858c0.951-1.814,0.965-5.389-0.981-6.619
			c-1.946-1.228-5.168,0.324-6.396,1.963c-2.219,2.722-4.464,2.733-5.235,2.636c-0.069-0.016-0.14-0.025-0.211-0.036
			c-0.04-0.007-0.068-0.016-0.068-0.016l0.001,0.006c-1.466-0.231-2.945,0.098-4.102,0.921c-0.058-0.023-0.113-0.049-0.172-0.071
			c-0.705-0.331-2.597-1.537-3.021-5.021C30.512,8.031,28.614,5,26.313,5c-2.302,0-4.198,3.031-4.362,5.074
			c-0.424,3.484-2.316,4.69-3.02,5.021c-0.067,0.025-0.131,0.055-0.197,0.082c-0.039,0.015-0.067,0.025-0.067,0.025l0.003,0.002
			c-1.919,0.827-3.29,2.6-3.354,4.684c-0.032,1.022,0.26,1.979,0.784,2.796l-0.03,0.008c0,0,2.296,3.334-2.566,9.097h0.072
			c-0.877,1.264-1.425,2.769-1.489,4.399c-0.181,4.691,6.987,13.35,11.962,13.35h4.528c0.471,0,0.962-0.078,1.464-0.221
			c4.918,0.949,13.189-2.141,15.223-5.657c0.815-1.411,1.154-2.976,1.088-4.514l0.06,0.039c-1.035-7.47,2.687-9.063,2.687-9.063
			l-0.021-0.023c0.879-0.411,1.636-1.066,2.155-1.947C52.289,26.356,52.076,24.125,50.895,22.402"/>
		<path style="clip-path:url(#SVGID_4_);fill:#4D642E;" d="M26.313,5c2.301,0,4.198,3.031,4.361,5.074
			c0.424,3.485,2.316,4.691,3.021,5.022c0.059,0.021,0.114,0.048,0.172,0.07c0.916-0.65,2.033-0.993,3.186-0.992
			c0.304,0,0.61,0.023,0.916,0.071l-0.001-0.006c0,0,0.028,0.009,0.068,0.016c0.071,0.012,0.142,0.02,0.211,0.036
			c0.12,0.016,0.277,0.028,0.464,0.028c1.009,0,2.899-0.367,4.771-2.664c0.918-1.226,2.954-2.405,4.736-2.405
			c0.6,0,1.17,0.134,1.659,0.442c1.946,1.23,1.933,4.805,0.981,6.62c-1.502,3.171-0.546,5.203-0.125,5.857
			c0.042,0.058,0.08,0.116,0.121,0.175c0.025,0.033,0.043,0.055,0.043,0.055l-0.004,0.003c1.182,1.722,1.395,3.954,0.338,5.75
			c-0.52,0.881-1.276,1.536-2.155,1.948l0.021,0.022c0,0-3.722,1.594-2.687,9.063l-0.06-0.039c0.066,1.538-0.272,3.103-1.088,4.514
			c-1.782,3.079-8.343,5.831-13.249,5.831c-0.697,0-1.362-0.056-1.973-0.174c-0.503,0.143-0.994,0.221-1.465,0.221h-4.528
			c-4.975,0-12.143-8.658-11.962-13.35c0.064-1.631,0.612-3.136,1.489-4.399h-0.072c4.862-5.763,2.566-9.097,2.566-9.097l0.03-0.007
			c-0.524-0.818-0.816-1.775-0.784-2.796c0.064-2.084,1.435-3.858,3.354-4.685l-0.003-0.002c0,0,0.028-0.01,0.067-0.024
			c0.066-0.028,0.13-0.058,0.197-0.082c0.704-0.331,2.596-1.537,3.02-5.022C22.116,8.031,24.012,5,26.313,5 M26.313,3
			c-3.575,0-6.097,3.983-6.352,6.867c-0.301,2.4-1.424,3.186-1.834,3.396c-0.04,0.016-0.08,0.033-0.12,0.05
			c-0.088,0.031-0.173,0.068-0.254,0.11c-2.656,1.197-4.351,3.639-4.436,6.404c-0.037,1.171,0.229,2.325,0.772,3.373
			c0.062,0.21,0.163,0.41,0.31,0.596c0.156,0.319,1.053,2.582-2.424,6.703c-0.162,0.192-0.283,0.409-0.362,0.639
			c-0.931,1.512-1.456,3.22-1.524,4.972c-0.141,3.658,2.806,8.071,5.372,10.738c1.685,1.751,5.041,4.689,8.588,4.689h4.528
			c0.497,0,1.015-0.06,1.546-0.179c0.593,0.088,1.228,0.132,1.892,0.132c5.217,0,12.652-2.805,14.98-6.829
			c0.877-1.519,1.345-3.244,1.364-5.023c0.054-0.234,0.066-0.48,0.033-0.728c-0.74-5.342,1.227-6.776,1.528-6.963
			c0.233-0.083,0.436-0.203,0.605-0.355c1.005-0.593,1.836-1.422,2.428-2.425c1.347-2.288,1.255-5.231-0.214-7.595
			c-0.073-0.151-0.167-0.295-0.282-0.427l-0.004-0.005l-0.059-0.085c-0.23-0.379-0.783-1.64,0.256-3.858
			c1.323-2.573,1.316-7.288-1.707-9.197c-0.789-0.498-1.707-0.751-2.727-0.751c-2.563,0-5.104,1.588-6.309,3.168
			c-1.358,1.653-2.586,1.901-3.199,1.901c-0.061,0-0.115-0.003-0.161-0.006c-0.032-0.006-0.064-0.012-0.097-0.017
			c-0.173-0.049-0.348-0.073-0.521-0.073c-0.293-0.034-0.587-0.049-0.88-0.049c-1.103-0.001-2.164,0.226-3.129,0.664
			c-0.48-0.469-1.057-1.354-1.26-2.971C32.409,6.983,29.889,3,26.313,3"/>
		<path style="clip-path:url(#SVGID_4_);fill:#6E9140;" d="M46.353,39.146l0.06,0.039c-1.035-7.47,2.687-9.063,2.687-9.063
			L49.077,30.1c0.879-0.411,1.636-1.066,2.155-1.947c1.057-1.796,0.844-4.028-0.338-5.75l0.004-0.003c0,0-0.018-0.023-0.043-0.056
			c-0.041-0.058-0.079-0.117-0.121-0.175c-0.421-0.654-1.377-2.685,0.125-5.857c0.951-1.814,0.965-5.39-0.981-6.619
			s-5.168,0.324-6.396,1.963c-2.219,2.721-4.464,2.733-5.235,2.636c-0.069-0.016-0.14-0.025-0.211-0.037
			c-0.04-0.006-0.068-0.015-0.068-0.015l0.001,0.006c-2.064-0.326-4.17,0.442-5.336,2.17c-0.572,0.846-0.836,1.811-0.83,2.783
			l-0.029-0.01c0,0,0.162,4.045-7.024,6.324l0.06,0.038c-1.417,0.601-2.683,1.579-3.605,2.926
			c-2.657,3.868-1.216,15.021,2.99,17.675c0.752,0.476,3.077,1.942,3.829,2.416c4.206,2.654,14.891-0.844,17.241-4.907
			C46.08,42.249,46.419,40.685,46.353,39.146"/>
		<path style="clip-path:url(#SVGID_4_);fill:#4D642E;" d="M48.219,9.25c0.6,0,1.17,0.134,1.659,0.442
			c1.946,1.23,1.933,4.805,0.981,6.62c-1.502,3.171-0.546,5.203-0.125,5.857c0.042,0.058,0.08,0.116,0.121,0.175
			c0.025,0.033,0.043,0.055,0.043,0.055l-0.004,0.003c1.182,1.722,1.395,3.954,0.338,5.75c-0.52,0.881-1.276,1.536-2.155,1.948
			l0.021,0.022c0,0-3.722,1.594-2.687,9.063l-0.06-0.039c0.066,1.538-0.272,3.103-1.088,4.514
			c-1.781,3.078-8.346,5.832-13.252,5.832c-1.569,0-2.97-0.281-3.989-0.925c-0.752-0.474-3.077-1.94-3.829-2.416
			c-4.206-2.654-5.647-13.807-2.991-17.674c0.923-1.347,2.188-2.326,3.606-2.926l-0.06-0.038c7.185-2.28,7.024-6.325,7.024-6.325
			l0.028,0.01c-0.005-0.971,0.258-1.936,0.831-2.783c0.991-1.468,2.66-2.243,4.406-2.243c0.309,0,0.62,0.024,0.93,0.073
			l-0.001-0.006c0,0,0.028,0.009,0.068,0.016c0.071,0.012,0.142,0.02,0.211,0.036c0.12,0.016,0.276,0.028,0.464,0.028
			c1.009,0,2.899-0.367,4.771-2.664C44.4,10.429,46.437,9.25,48.219,9.25 M48.219,7.25L48.219,7.25
			c-2.562,0-5.104,1.588-6.309,3.168c-1.358,1.653-2.586,1.901-3.199,1.901c-0.061,0-0.115-0.003-0.161-0.007
			c-0.032-0.005-0.064-0.011-0.097-0.016c-0.172-0.049-0.347-0.072-0.52-0.073c-0.297-0.034-0.597-0.051-0.895-0.051
			c-2.477,0-4.743,1.168-6.064,3.124c-0.655,0.97-1.047,2.087-1.147,3.264c-0.06,0.21-0.081,0.434-0.057,0.669
			c-0.038,0.353-0.487,2.748-5.626,4.377c-0.238,0.076-0.456,0.194-0.644,0.344c-1.598,0.783-2.954,1.948-3.947,3.396
			c-2.069,3.014-1.933,8.319-1.186,11.945c0.49,2.382,1.76,6.659,4.759,8.552c0.751,0.475,3.079,1.942,3.831,2.417
			c1.296,0.817,2.997,1.232,5.055,1.232c5.218,0,12.653-2.804,14.983-6.83c0.877-1.519,1.345-3.244,1.364-5.023
			c0.054-0.234,0.067-0.48,0.033-0.728c-0.74-5.342,1.227-6.776,1.528-6.963c0.234-0.083,0.436-0.203,0.605-0.355
			c1.005-0.593,1.837-1.422,2.428-2.425c1.348-2.289,1.254-5.233-0.215-7.598c-0.073-0.15-0.167-0.293-0.282-0.424l-0.003-0.005
			l-0.059-0.085c-0.23-0.379-0.782-1.64,0.256-3.858c1.323-2.573,1.316-7.288-1.707-9.197C50.156,7.503,49.239,7.25,48.219,7.25"/>
		<path style="clip-path:url(#SVGID_4_);fill:#93354D;" d="M42.383,33.191c-2.719-0.2-4.726-1.059-5.596-1.495
			c0.762-2.33,1.553-4.357,2.302-6.078c3.405,0.742,5.32-0.384,5.32-0.384c-2.794,0.239-4.783-0.517-4.897-0.562
			c1.859-4.072,3.371-6.165,3.371-6.165c-2.969,2.897-5.303,7.928-7.106,13.478l-0.482,0.499c0.098,0.041,0.19,0.072,0.286,0.113
			C30,44.625,30,59,30,59h2.683c0-6.473,0.615-12.2,1.54-17.165c4.931,0.819,7.53-1.321,7.53-1.321
			c-4.017,0.787-6.962-0.287-6.962-0.287l-0.417,0.817c0.591-3.005,1.288-5.724,2.032-8.142
			C40.064,34.126,42.383,33.191,42.383,33.191"/>
		<path style="clip-path:url(#SVGID_4_);fill:#93354D;" d="M42.883,18.508c0,0-1.512,2.093-3.371,6.165
			c0.099,0.039,1.597,0.608,3.805,0.608c0.348,0,0.712-0.014,1.093-0.046c0,0-1.083,0.636-3.069,0.636
			c-0.654,0-1.406-0.069-2.251-0.253c-0.749,1.722-1.54,3.748-2.302,6.078c0.87,0.437,2.877,1.295,5.596,1.496
			c0,0-0.847,0.342-2.324,0.342c-0.968,0-2.205-0.146-3.652-0.631c-0.744,2.417-1.441,5.137-2.032,8.142l0.417-0.817
			c0,0,1.578,0.575,3.998,0.575c0.888,0,1.888-0.077,2.964-0.288c0,0-1.83,1.508-5.335,1.508c-0.671,0-1.404-0.055-2.195-0.187
			C33.298,46.8,32.683,52.527,32.683,59H30c0,0,0-14.375,5.58-26.402c-0.096-0.041-0.188-0.072-0.286-0.113l0.482-0.499
			C37.58,26.436,39.914,21.404,42.883,18.508 M42.883,17.508c-0.252,0-0.505,0.096-0.697,0.284
			c-2.734,2.667-5.187,7.264-7.289,13.664l-0.322,0.334c-0.229,0.237-0.326,0.571-0.26,0.895c0.013,0.059,0.029,0.115,0.051,0.17
			C29.062,44.787,29,58.415,29,59c0,0.553,0.448,1,1,1h2.683c0.553,0,1.001-0.447,1.001-1c0-5.509,0.455-10.902,1.354-16.048
			c0.467,0.046,0.929,0.069,1.381,0.069c3.82,0,5.885-1.665,5.971-1.736c0.354-0.291,0.465-0.785,0.269-1.198
			c-0.167-0.354-0.522-0.573-0.903-0.573c-0.064,0-0.128,0.006-0.193,0.019c-0.912,0.179-1.845,0.27-2.771,0.27
			c-1.362,0-2.44-0.197-3.063-0.349c0.397-1.818,0.851-3.597,1.353-5.311c1.014,0.259,2.013,0.391,2.98,0.391
			c1.625,0,2.593-0.372,2.698-0.414c0.432-0.175,0.686-0.622,0.614-1.082c-0.072-0.459-0.451-0.809-0.915-0.843
			c-1.902-0.141-3.429-0.621-4.435-1.036c0.517-1.517,1.077-2.996,1.673-4.413c0.56,0.083,1.11,0.125,1.646,0.125
			c2.195,0,3.441-0.695,3.576-0.774c0.403-0.237,0.588-0.721,0.445-1.166c-0.132-0.417-0.52-0.696-0.951-0.696
			c-0.028,0-0.057,0.001-0.086,0.003c-0.334,0.029-0.672,0.043-1.008,0.043c-0.976,0-1.801-0.122-2.398-0.25
			c1.555-3.228,2.764-4.919,2.776-4.938c0.303-0.421,0.234-1.004-0.159-1.343C43.348,17.588,43.115,17.508,42.883,17.508"/>
		<path style="clip-path:url(#SVGID_4_);fill:#6E9140;" d="M39.051,31.789h0.07c-4.861-5.763-2.565-9.097-2.565-9.097l-0.029-0.007
			c0.524-0.818,0.815-1.775,0.784-2.796c-0.065-2.084-1.437-3.858-3.354-4.685l0.004-0.002c0,0-0.028-0.01-0.068-0.024
			c-0.064-0.028-0.13-0.058-0.196-0.082c-0.704-0.331-2.597-1.537-3.021-5.022C30.511,8.031,28.615,5,26.314,5
			c-2.302,0-4.199,3.031-4.362,5.074c-0.424,3.485-2.316,4.691-3.02,5.022c-0.068,0.024-0.131,0.054-0.197,0.082
			c-0.039,0.014-0.067,0.024-0.067,0.024l0.003,0.002c-1.919,0.827-3.29,2.601-3.354,4.685c-0.032,1.021,0.259,1.978,0.783,2.796
			l-0.029,0.007c0,0,2.295,3.334-2.566,9.097h0.071c-0.877,1.264-1.424,2.769-1.488,4.399c-0.181,4.691,6.987,13.35,11.962,13.35
			h4.528c4.974,0,12.142-8.658,11.961-13.35C40.476,34.558,39.927,33.053,39.051,31.789"/>
		<path style="clip-path:url(#SVGID_4_);fill:#4D642E;" d="M26.313,5c2.301,0,4.198,3.031,4.361,5.074
			c0.424,3.485,2.316,4.691,3.021,5.022c0.066,0.024,0.132,0.054,0.196,0.082c0.04,0.014,0.068,0.024,0.068,0.024l-0.004,0.002
			c1.918,0.827,3.289,2.601,3.354,4.685c0.031,1.021-0.26,1.978-0.784,2.796l0.029,0.007c0,0-2.296,3.334,2.565,9.097h-0.07
			c0.876,1.264,1.425,2.769,1.488,4.399c0.181,4.691-6.987,13.35-11.961,13.35h-4.528c-4.975,0-12.143-8.658-11.962-13.35
			c0.064-1.631,0.612-3.136,1.489-4.399h-0.072c4.862-5.763,2.566-9.097,2.566-9.097l0.03-0.007
			c-0.524-0.818-0.816-1.775-0.784-2.796c0.064-2.084,1.435-3.858,3.354-4.685l-0.003-0.002c0,0,0.028-0.01,0.067-0.024
			c0.066-0.028,0.13-0.058,0.197-0.082c0.704-0.331,2.596-1.537,3.02-5.022C22.116,8.031,24.012,5,26.313,5 M26.313,4
			c-2.978,0-5.163,3.551-5.358,5.994c-0.358,2.934-1.902,3.929-2.418,4.182c-0.044,0.017-0.088,0.036-0.131,0.054l-0.053,0.023
			c-0.039,0.014-0.078,0.03-0.115,0.049c-2.346,1.026-3.847,3.151-3.921,5.556c-0.035,1.1,0.244,2.183,0.807,3.148
			c0.028,0.089,0.068,0.175,0.123,0.254c0.063,0.099,1.73,2.862-2.507,7.885c-0.102,0.121-0.172,0.261-0.208,0.409
			c-0.883,1.393-1.381,2.973-1.444,4.595c-0.121,3.13,2.471,7.28,5.094,10.006c2.679,2.785,5.547,4.383,7.867,4.383h4.528
			c2.32,0,5.187-1.598,7.866-4.382c2.623-2.727,5.216-6.877,5.095-10.007c-0.062-1.621-0.561-3.202-1.445-4.598
			c-0.036-0.148-0.105-0.287-0.207-0.407c-4.251-5.04-2.525-7.859-2.507-7.885c0.058-0.084,0.102-0.174,0.131-0.269
			c0.558-0.96,0.834-2.038,0.8-3.133c-0.075-2.39-1.558-4.504-3.879-5.538c-0.046-0.024-0.095-0.046-0.145-0.063l-0.048-0.017
			l-0.009-0.006c-0.046-0.019-0.092-0.04-0.139-0.057c-0.514-0.252-2.062-1.246-2.423-4.224C31.477,7.551,29.292,4,26.313,4"/>
		<path style="clip-path:url(#SVGID_4_);fill:#93354D;" d="M34.717,35.664h-0.004h-0.001c-0.029,0-0.114,0.049-0.115,0.051
			c-4.782,5.028-7.841,5.837-8.532,5.96c-0.106-2.139-0.186-4.365-0.236-6.628c2.48-0.775,4.56-4.381,4.65-4.537
			c0.04-0.07,0.02-0.16-0.046-0.207c-0.028-0.022-0.06-0.032-0.095-0.032c-0.042,0-0.085,0.015-0.117,0.05
			c-2.095,2.203-3.608,3.021-4.42,3.323c-0.047-2.846-0.047-5.812,0-8.818c2.073-0.691,3.8-3.681,3.874-3.811
			c0.041-0.069,0.021-0.16-0.044-0.208c-0.028-0.022-0.063-0.032-0.096-0.032c-0.043,0-0.085,0.018-0.116,0.05
			c-1.676,1.762-2.91,2.466-3.596,2.746c0.052-2.672,0.142-5.368,0.264-8.018c0.003-0.083-0.055-0.154-0.136-0.168
			c-0.007-0.001-0.016-0.001-0.025-0.001c-0.071,0-0.135,0.047-0.155,0.117c-0.007,0.025-0.751,2.694-1.362,8.268
			c-0.399-0.112-1.57-0.593-3.321-2.619c-0.033-0.039-0.077-0.056-0.122-0.056c-0.032,0-0.063,0.009-0.09,0.026
			c-0.069,0.046-0.092,0.137-0.054,0.208c0.069,0.135,1.67,3.183,3.529,3.562c-0.296,2.817-0.509,5.755-0.634,8.731
			c-0.661-0.313-1.846-1.078-3.433-2.916c-0.031-0.037-0.077-0.056-0.122-0.056c-0.031,0-0.064,0.007-0.09,0.028
			c-0.068,0.045-0.09,0.135-0.053,0.207c0.07,0.134,1.684,3.204,3.652,4.042c-0.07,2.151-0.095,4.343-0.075,6.521
			c-1.109-0.488-3.214-1.77-6.078-5.085c-0.032-0.037-0.077-0.056-0.122-0.056c-0.032,0-0.063,0.008-0.09,0.027
			c-0.068,0.046-0.089,0.134-0.053,0.207c0.121,0.232,2.966,5.66,6.374,6.925c0.115,5.108,0.482,10.286,1.093,15.392
			C24.73,58.938,24.798,59,24.88,59h2.736c0.048,0,0.094-0.023,0.124-0.059c0.03-0.037,0.043-0.086,0.034-0.132
			c-0.01-0.053-1.013-5.32-1.595-15.052c4.465-0.653,8.403-7.382,8.665-7.839c0.02-0.026,0.032-0.059,0.032-0.096
			C34.876,35.735,34.806,35.664,34.717,35.664"/>
		<path style="clip-path:url(#SVGID_4_);fill:#93354D;" d="M25.926,15.384c0.009,0,0.018,0,0.025,0.001
			c0.081,0.015,0.139,0.085,0.136,0.168c-0.122,2.65-0.212,5.347-0.264,8.019c0.686-0.281,1.92-0.985,3.596-2.747
			c0.031-0.032,0.073-0.049,0.116-0.049c0.033,0,0.068,0.009,0.096,0.031c0.065,0.049,0.085,0.139,0.044,0.208
			c-0.074,0.131-1.801,3.12-3.874,3.811c-0.047,3.007-0.047,5.972,0,8.819c0.812-0.302,2.325-1.12,4.42-3.323
			c0.032-0.036,0.075-0.05,0.117-0.05c0.035,0,0.067,0.009,0.095,0.031c0.066,0.047,0.086,0.138,0.046,0.207
			c-0.09,0.156-2.17,3.762-4.65,4.537c0.05,2.262,0.13,4.489,0.236,6.628c0.691-0.123,3.75-0.932,8.532-5.96
			c0.001-0.002,0.086-0.051,0.115-0.051h0.001h0.004c0.089,0,0.159,0.071,0.159,0.159c0,0.037-0.012,0.068-0.032,0.096
			c-0.262,0.457-4.2,7.186-8.665,7.839c0.582,9.731,1.585,14.999,1.595,15.051c0.009,0.047-0.004,0.097-0.034,0.133
			C27.71,58.977,27.664,59,27.616,59H24.88c-0.082,0-0.15-0.062-0.16-0.142c-0.611-5.105-0.978-10.283-1.093-15.392
			c-3.408-1.265-6.253-6.692-6.374-6.925c-0.036-0.073-0.015-0.161,0.053-0.207c0.027-0.02,0.058-0.027,0.09-0.027
			c0.045,0,0.09,0.019,0.122,0.056c2.864,3.315,4.969,4.597,6.078,5.085c-0.02-2.179,0.005-4.37,0.075-6.521
			c-1.968-0.839-3.582-3.909-3.652-4.043c-0.037-0.071-0.015-0.162,0.053-0.207c0.026-0.021,0.059-0.027,0.09-0.027
			c0.045,0,0.091,0.018,0.122,0.055c1.587,1.838,2.772,2.603,3.434,2.917c0.124-2.975,0.337-5.914,0.633-8.731
			c-1.859-0.379-3.46-3.427-3.529-3.562c-0.038-0.071-0.015-0.162,0.054-0.208c0.027-0.016,0.058-0.026,0.09-0.026
			c0.045,0,0.089,0.018,0.122,0.057c1.751,2.025,2.922,2.506,3.321,2.619c0.611-5.574,1.355-8.243,1.362-8.269
			C25.791,15.431,25.855,15.384,25.926,15.384 M25.926,14.384c-0.517,0-0.976,0.347-1.117,0.844
			c-0.075,0.272-0.668,2.51-1.221,6.957c-0.456-0.346-1.042-0.876-1.744-1.689c-0.205-0.249-0.531-0.402-0.878-0.402
			c-0.217,0-0.43,0.061-0.616,0.176c-0.528,0.353-0.691,1.003-0.409,1.529c0.156,0.307,1.475,2.801,3.337,3.757
			c-0.202,2.04-0.361,4.136-0.476,6.26c-0.491-0.41-1.082-0.978-1.761-1.764c-0.213-0.252-0.535-0.402-0.879-0.402
			c-0.248,0-0.481,0.074-0.674,0.215c-0.471,0.335-0.625,0.964-0.356,1.481c0.17,0.326,1.587,2.963,3.521,4.171
			c-0.04,1.393-0.061,2.803-0.063,4.215c-1.065-0.724-2.526-1.95-4.315-4.021c-0.218-0.255-0.539-0.402-0.879-0.402
			c-0.243,0-0.476,0.074-0.671,0.214c-0.458,0.312-0.624,0.945-0.369,1.463c0.312,0.598,2.921,5.439,6.287,7.141
			c0.131,4.938,0.495,9.931,1.084,14.853C23.802,59.563,24.298,60,24.88,60h2.736c0.335,0,0.655-0.146,0.877-0.4l0.033-0.038
			c0.209-0.266,0.293-0.606,0.231-0.938c-0.04-0.213-0.953-5.108-1.527-14.08c4.42-1.328,7.984-7.267,8.467-8.101
			c0.117-0.187,0.179-0.399,0.179-0.62c0-0.64-0.521-1.159-1.159-1.159c-0.229,0-0.593,0.101-0.844,0.362l-0.001-0.001
			c-3.209,3.375-5.558,4.749-6.869,5.306c-0.066-1.514-0.119-3.06-0.158-4.618c2.37-1.161,4.143-4.082,4.501-4.705
			c0.299-0.518,0.156-1.172-0.333-1.52c-0.172-0.133-0.416-0.216-0.675-0.216c-0.328,0-0.641,0.138-0.859,0.38
			c-1.088,1.143-1.995,1.878-2.7,2.347c-0.021-2.125-0.018-4.307,0.012-6.514c2.126-1.122,3.684-3.852,3.755-3.979
			c0.292-0.485,0.162-1.14-0.314-1.498c-0.19-0.147-0.442-0.232-0.697-0.232c-0.309,0-0.611,0.127-0.829,0.347
			c-0.713,0.75-1.33,1.288-1.843,1.673c0.053-2.045,0.127-4.122,0.223-6.197c0.024-0.582-0.388-1.095-0.957-1.198
			c-0.017-0.003-0.035-0.006-0.053-0.008C26.034,14.388,25.968,14.384,25.926,14.384"/>
	</g>
</g>
</svg>
